<?xml version="1.0" encoding="utf-8" ?>
<svg baseProfile="full" height="200mm" version="1.1" viewBox="0,0,200,200" width="200mm" xmlns="http://www.w3.org/2000/svg" xmlns:ev="http://www.w3.org/2001/xml-events" xmlns:xlink="http://www.w3.org/1999/xlink"><defs /><rect fill="#1a1a1a" height="200" width="200" x="0" y="0" /><text alignment-baseline="middle" fill="#e1ed5e" style="dominant-baseline: central; font-size:9.0px; font-family:Arial;" text-anchor="middle" x="100.0" y="100.0">2025</text><line stroke="#e1ed5e" stroke-width="0.3" x1="100.0" x2="100.0" y1="15.0" y2="10.0" /><path d="M 100.0 14.0 a86.0,86.0 0 0,1 42.46469731375804,11.215312516191453" fill="none" id="id85" stroke="none" /><text fill="#e1ed5e" style="font-size:6.75px; font-family:Arial;" text-anchor="middle"><textPath startOffset="22.20632615414155" xlink:href="#id85">January</textPath></text><path d="M 100.0 79.0 l 0.0 -30.030958994397636 a51.030958994397636,51.030958994397636 0 0,0 0.878414072144362,0.007560787244166458 l -0.5169335928718335 30.026509583762028" fill="#95ff23" stroke="none" /><path d="M 100.36148047927253 79.00311137660856 l 0.3082318400549879 -17.903897961079842 a38.90655100983946,38.90655100983946 0 0,0 0.6695138691137238,0.017291567980891383 l -0.6163723443635795 17.89593960095659" fill="#ffd814" stroke="none" /><path d="M 100.72285384407766 79.0124445844662 l 0.7160306156167797 -20.78944775295603 a41.801774869356436,41.801774869356436 0 0,0 0.718909248403111,0.03095774450201304 l -1.0737806964092222 20.77404228192982" fill="#fffc17" stroke="none" /><path d="M 101.08401301168833 79.027996857942 l 2.4133846956117018 -46.69087074935912 a67.75320135586837,67.75320135586837 0 0,0 1.1641869696099414,0.07022693726358109 l -3.2167337140612555 46.64241054271524" fill="#38ff84" stroke="none" /><path d="M 102.16513564639614 79.11191278185805 l 1.8473578282885916 -17.822334367197147 a38.91782166564663,38.91782166564663 0 0,0 0.6657417794843272,0.07480384593023905 l -2.1538663112826444 17.787894567796307" fill="#ffd814" stroke="none" /><path d="M 102.52436894288641 79.15227682838746 l 2.502252043480957 -20.665068810601433 a41.81601148721812,41.81601148721812 0 0,0 0.713829725272115,0.09267558539061206 l -2.8575964972609182 20.618934902046682" fill="#fffd17" stroke="none" /><path d="M 102.88285421437855 79.19881850522331 l 2.446157650177984 -17.65020547775331 a38.81890683112848,38.81890683112848 0 0,0 0.6610878680314999,0.09742716708771013 l -2.7496144986381394 17.60548382650463" fill="#ffd714" stroke="none" /><path d="M 103.59715602781102 79.31037775812273 l 8.19622695367474 -47.141919385525014 a68.84912433501248,68.84912433501248 0 0,0 1.1658611676820683,0.21305367639685427 l -9.006483242459709 46.993850227777415" fill="#3aff91" stroke="none" /><path d="M 104.66035177308747 79.52364482259891 l 3.9780285312850765 -17.47840701271018 a38.925384868885644,38.925384868885644 0 0,0 0.6520489701305413,0.1543189243726051 l -4.278301188378141 17.407342176196703" fill="#ffd814" stroke="none" /><path d="M 105.01212808612495 79.60689891045804 l 8.85278538008494 -36.019779239055666 a58.091728261381284,58.091728261381284 0 0,0 0.9690007643279422,0.24701987052922153 l -9.471495033097908 35.86205637235758" fill="#49ff2c" stroke="none" /><path d="M 105.71112130821622 79.79150937346287 l 4.856200783397719 -17.18340107234152 a38.85642625111812,38.85642625111812 0 0,0 0.6420742863545814,0.1874390910231154 l -5.151265287475728 17.097263652399704" fill="#ffd714" stroke="none" /><path d="M 106.0581310904928 79.89281104454417 l 16.269337642320295 -53.99860803072098 a77.39628548561744,77.39628548561744 0 0,0 1.272301421309156,0.39531024484672656 l -17.19642443634017 53.71055765099173" fill="#45ffec" stroke="none" /><path d="M 107.08798089147638 80.2323363322302 l 4.045564951551388 -11.282672531546245 a32.98604585471494,32.98604585471494 0 0,0 0.532830940799788,0.19624613224184825 l -4.239178218123752 11.211363131498073" fill="#ff890c" stroke="none" /><path d="M 107.76421540070413 80.48803036053334 l 6.7419386147171645 -16.942922725917562 a39.23503130737724,39.23503130737724 0 0,0 0.6253618026563705,0.25510078120327667 l -7.032584286961923 16.824361058530705" fill="#ffdc14" stroke="none" /><path d="M 108.09893153111575 80.62456947434976 l 6.910190942887342 -16.531554072101923 a38.9176733675439,38.9176733675439 0 0,0 0.6158559509069579,0.2636773779678128 l -7.193730651584614 16.41015716617132" fill="#ffd814" stroke="none" /><path d="M 108.43124777332544 80.76684994638697 l 17.869176448694994 -40.762715224615576 a65.50737488818794,65.50737488818794 0 0,0 1.0288335052583137,0.4616076040325586 l -18.568192072420086 40.44908729006649" fill="#36ff6a" stroke="none" /><path d="M 109.41281617654863 81.2277094730956 l 1.0624814304831678 -2.118941846773031 a23.37039687397015,23.37039687397015 0 0,0 0.3580561950042108,0.18341029005922152 l -1.0987981130761342 2.100339031401309" fill="#ff0000" stroke="none" /><path d="M 110.05341064243156 81.56283822128135 l 7.805651474691256 -14.314948841318682 a37.30478320229744,37.30478320229744 0 0,0 0.5611277321902832,0.31226697544378734 l -8.050903295953574 14.178466468314715" fill="#ffc312" stroke="none" /><line stroke="#e1ed5e" stroke-width="0.3" x1="143.23703022742887" x2="145.7803849466894" y1="26.81831364943548" y2="22.513508569990506" /><path d="M 143.74570117128098 25.957352633546492 a86.0,86.0 0 0,1 28.547481713284135,27.462654790039103" fill="none" id="id86" stroke="none" /><text fill="#e1ed5e" style="font-size:6.75px; font-family:Arial;" text-anchor="middle"><textPath startOffset="19.985693538727396" xlink:href="#id86">February</textPath></text><path d="M 110.99172775467656 82.1063720568725 l 7.544192862383062 -12.281324940316708 a35.413389200131824,35.413389200131824 0 0,0 0.5166659143098727,0.32353614814182025 l -7.754477929065198 12.149644450851945" fill="#ffaa0f" stroke="none" /><path d="M 111.90073688211348 82.69761687909136 l 15.339714238135159 -22.302283912551847 a48.06840779624312,48.06840779624312 0 0,0 0.6776932722981929,0.474767445768811 l -15.721338650017001 22.034931624019098" fill="#b6ff1f" stroke="none" /><path d="M 112.48926042617603 83.11751280151076 l 10.645975883403064 -14.390808217136962 a38.900619085730426,38.900619085730426 0 0,0 0.5348906372468912,0.4028685385285038 l -10.89211267440834 14.205423089102611" fill="#ffd814" stroke="none" /><path d="M 112.77801427241765 83.33499621200491 l 9.387157243623195 -12.242669924165586 a36.427303328468525,36.427303328468525 0 0,0 0.4943140739021931,0.38581997536058 l -9.596503872684819 12.079271559581782" fill="#ffb811" stroke="none" /><path d="M 113.06298171725822 83.55741782278167 l 23.163745834708628 -29.15657410101131 a58.23795019066899,58.23795019066899 0 0,0 0.7795471368174999,0.6303395707702085 l -23.66219637009062 28.753528432976967" fill="#48ff2c" stroke="none" /><path d="M 113.6212207817346 84.01681056812373 l 18.26638988755123 -21.433847559444747 a49.161513111435426,49.161513111435426 0 0,0 0.6393482904114964,0.5544365372021774 l -18.632631976609492 21.116246028822896" fill="#aaff21" stroke="none" /><path d="M 113.89432698308785 84.25364557470407 l 9.933387376633728 -11.257446184088156 a36.01340332376065,36.01340332376065 0 0,0 0.4612957044459841,0.4141558381085369 l -10.125694068675703 11.084791337210321" fill="#ffb210" stroke="none" /><path d="M 114.16331599549186 84.49514656593476 l 10.09278791339217 -11.048768338435728 a35.96461324796384,35.96461324796384 0 0,0 0.45348314525848726,0.42146316113919663 l -10.281478942445505 10.873400591221891" fill="#ffb110" stroke="none" /><path d="M 114.68862486808459 84.99185889309783 l 31.384877235675937 -32.06758089378921 a65.87026034555811,65.87026034555811 0 0,0 0.8035048825804779,0.8000543772616665 l -31.932217918423735 31.522590665877427" fill="#36ff6e" stroke="none" /><path d="M 115.4437574822437 85.77008943001954 l 10.94186691312941 -10.081859147391837 a35.87845205028012,35.87845205028012 0 0,0 0.41457783594538594,0.4577872011407472 l -11.113788389690832 9.892019158981542" fill="#ffb010" stroke="none" /><path d="M 115.68641384162765 86.03803664274999 l 33.25263475981344 -29.5970814448664 a65.51656937055694,65.51656937055694 0 0,0 0.7425465038408994,0.8488590160323319 l -33.757173127232186 29.02030687263112" fill="#36ff6a" stroke="none" /><path d="M 116.38621287248628 86.86637796730983 l 30.329845522407265 -24.30950522252901 a59.869674214961634,59.869674214961634 0 0,0 0.6376003968735685,0.8096877546953696 l -30.7437999998748 23.7838250738806" fill="#37ff2e" stroke="none" /><path d="M 116.82858285166822 87.43820079747576 l 12.106145472317133 -9.036706767303388 a36.106979426580665,36.106979426580665 0 0,0 0.3674957834600758,0.5012638356394752 l -12.259903868290834 8.826980487992419" fill="#ffb310" stroke="none" /><path d="M 117.04232023915458 87.72973835380427 l 12.021731806570909 -8.655499523363957 a35.81349748128619,35.81349748128619 0 0,0 0.3558964269061835,0.5033902565195122 l -12.168940853280974 8.447282766512652" fill="#ffaf10" stroke="none" /><path d="M 117.45458315368197 88.32363383020206 l 10.002878857546245 -6.691496168340299 a33.03468763240902,33.03468763240902 0 0,0 0.3121044369604712,0.47535646974543555 l -10.11657992986464 6.518321634617189" fill="#ff8a0c" stroke="none" /><line stroke="#e1ed5e" stroke-width="0.3" x1="172.23445277983987" x2="176.4835382374775" y1="55.19839476539836" y2="52.563006222186495" /><path d="M 173.08426987136738 54.67131705675599 a86.0,86.0 0 0,1 12.851231095245387,41.99856678651699" fill="none" id="id87" stroke="none" /><text fill="#e1ed5e" style="font-size:6.75px; font-family:Arial;" text-anchor="middle"><textPath startOffset="22.20632615414155" xlink:href="#id87">March</textPath></text><path d="M 118.03404312379186 89.2402003453031 l 53.93466008997791 -32.17948038766355 a83.80498799491549,83.80498799491549 0 0,0 0.728466180457247,1.2451848381832515 l -54.480585944905485 31.246316137126406" fill="#4dd4ff" stroke="none" /><path d="M 118.3937258080291 89.86733742301442 l 13.128553186307972 -7.232205206777605 a35.98878583870816,35.98878583870816 0 0,0 0.2942372879746381,0.5451770077175512 l -13.251098573501075 7.005147215727596" fill="#ffb210" stroke="none" /><path d="M 118.56541770881063 90.18545643968196 l 15.789957247276682 -8.347306031547653 a38.86057859799445,38.86057859799445 0 0,0 0.3075362659488832,0.5940621789858125 l -15.931302946385681 8.074271130301495" fill="#ffd714" stroke="none" /><path d="M 118.73160827565052 90.50648371742162 l 23.049640379681534 -11.681972686591624 a46.84094439998117,46.84094439998117 0 0,0 0.35831089055538595,0.7223328909327482 l -23.247311283190328 11.283480207159927" fill="#c5ff1e" stroke="none" /><path d="M 119.04729006885535 91.15688171328212 l 43.201954805389846 -20.057446239356874 a68.63097782590273,68.63097782590273 0 0,0 0.4882528129395132,1.075800352949314 l -43.54080993529271 19.310823877565497" fill="#39ff8e" stroke="none" /><path d="M 119.47837535516314 92.15188598940014 l 16.570557722638554 -6.676512997374881 a38.86502754107622,38.86502754107622 0 0,0 0.24467653928360156,0.6226751043308496 l -16.683027811803857 6.390288888148247" fill="#ffd714" stroke="none" /><path d="M 119.61058180528143 92.48833698450437 l 22.245052648526595 -8.520774187978889 a44.82112424085495,44.82112424085495 0 0,0 0.26977068772584,0.7228513215576791 l -22.38842792475406 8.136599729391875" fill="#ddff1b" stroke="none" /><path d="M 119.85752413597 93.16781622104841 l 21.09313873276447 -7.257309587559477 a43.30670401581846,43.30670401581846 0 0,0 0.23646018477517608,0.7069858552573717 l -21.214936211311418 6.893150629379791" fill="#efff19" stroke="none" /><path d="M 119.97218684219823 93.5106431181261 l 35.65530401300483 -11.585110548997458 a58.49020526340568,58.49020526340568 0 0,0 0.3028804321746367,0.9602137395354138 l -35.849439928947675 10.969646643035624" fill="#45ff2d" stroke="none" /><path d="M 120.28053869075195 94.5502522615342 l 11.492480301582251 -3.0882374224837905 a32.90018125323667,32.90018125323667 0 0,0 0.14225986380599007,0.548185286695153 l -11.543936497258544 2.8899557102397875" fill="#ff880c" stroke="none" /><path d="M 120.37134235888165 94.90015583598534 l 18.915253166453233 -4.7353209117188415 a40.49897603690975,40.49897603690975 0 0,0 0.16347546623585793,0.6777113467639001 l -18.99396143294991 4.409024333295535" fill="#ffec16" stroke="none" /><path d="M 120.53481517161879 95.60439243477599 l 12.081327538095463 -2.586084865170731 a33.35501153429688,33.35501153429688 0 0,0 0.11534592487543041,0.562467693964034 l -12.12405275888589 2.3777415150432857" fill="#ff8e0d" stroke="none" /><path d="M 120.67395015179393 96.31383870115 l 62.02185045538181 -11.058483896549978 a84.0,84.0 0 0,0 0.2415525539191079,1.4256568467366484 l -62.20301487082114 9.98924126149749" fill="#4dd2ff" stroke="none" /><path d="M 120.83666639777658 97.38593545837742 l 14.739481708007723 -1.8491420728849883 a35.855020950049436,35.855020950049436 0 0,0 0.07155577481264266,0.6130461802194684 l -14.769127835823955 1.595152154340667" fill="#ffb010" stroke="none" /><path d="M 120.94382443527127 98.46500227214037 l 11.325697706948823 -0.8300738148527328 a32.35607551433549,32.35607551433549 0 0,0 0.03592974087670505,0.555817188482897 l -11.338308038829943 0.6349975621168005" fill="#ff810b" stroke="none" /><path d="M 120.96714384426684 98.82574320788733 l 31.316567899141873 -1.7538722886798968 a52.36564191893038,52.36564191893038 0 0,0 0.042656532655698215,0.9004119853087059 l -31.342118040031067 1.214549196748191" fill="#86ff25" stroke="none" /><line stroke="#e1ed5e" stroke-width="0.3" x1="184.98032266829074" x2="189.97916517819016" y1="98.17113171792111" y2="98.06355123074" /><path d="M 185.9800911702706 98.14961562048488 a86.0,86.0 0 0,1 -9.607161424134198,41.387399972396054" fill="none" id="id88" stroke="none" /><text fill="#e1ed5e" style="font-size:6.75px; font-family:Arial;" text-anchor="middle"><textPath startOffset="21.466115282336823" xlink:href="#id88">April</textPath></text><path d="M 120.99513854157772 99.54816195383933 l 16.343115588518277 -0.351721490242623 a37.34689986347159,37.34689986347159 0 0,0 0.008299891230391047,0.6428357225948398 l -16.34674848686638 0.07034950958732053" fill="#ffc412" stroke="none" /><path d="M 120.9904718944345 100.63252640178507 l 33.655955233533604 1.0141877881340473 a54.67123252200932,54.67123252200932 0 0,0 -0.036441935700193606,0.9404044343208383 l -33.6335111649822 -1.5933694694688918" fill="#6dff28" stroke="none" /><path d="M 120.95626037817324 101.35467743843564 l 15.009510825776543 0.9702611682956874 a36.04083847276493,36.04083847276493 0 0,0 -0.045348713384437425,0.6187471644101178 l -14.990585553727767 -1.2284814692025754" fill="#ffb210" stroke="none" /><path d="M 120.89721153311464 102.0752229133903 l 18.20082094371754 1.8074545785720493 a39.29034649969399,39.29034649969399 0 0,0 -0.07262670592115822,0.6724330974481443 l -18.16701193629533 -2.120483997904985" fill="#ffdd14" stroke="none" /><path d="M 120.8583938346157 102.4346265915055 l 18.331249324781723 2.1396540603987138 a39.45569888423332,39.45569888423332 0 0,0 -0.0845450905429199,0.673907556283673 l -18.291702724991953 -2.4548793709697816" fill="#ffdf14" stroke="none" /><path d="M 120.81339534386255 102.79330883721812 l 22.76916467847873 3.0557872880276555 a43.9733039875712,43.9733039875712 0 0,0 -0.1071398013552166,0.7493355211397275 l -22.713190826106914 -3.447268281147792" fill="#e7ff1a" stroke="none" /><path d="M 120.64145759157962 103.86396538481128 l 26.24840086223055 4.913553797658329 a47.70433595405113,47.70433595405113 0 0,0 -0.15803780236546539,0.8058313494780347 l -26.15993312688942 -5.364648874204309" fill="#bbff1f" stroke="none" /><path d="M 120.49622156327973 104.57218783832717 l 23.257484574695454 5.188155670263376 a44.82913233840215,44.82913233840215 0 0,0 -0.17449085272215925,0.7517020266771627 l -23.16473315604274 -5.587726354289104" fill="#ddff1b" stroke="none" /><path d="M 120.41448212921028 104.9243191809786 l 5.14086271405046 1.2400632408575183 a26.28831034320418,26.28831034320418 0 0,0 -0.10989601021111679,0.43897993269729496 l -5.118755389544282 -1.328371012952209" fill="#ff2b04" stroke="none" /><path d="M 120.32669344350535 105.2749913415812 l 29.79801773864577 7.732899893654967 a51.78505484675863,51.78505484675863 0 0,0 -0.23133598152004758,0.8608872463335694 l -29.660493680783944 -8.244678073164085" fill="#8cff24" stroke="none" /><path d="M 120.13307415673323 105.97154293290107 l 31.90842497943704 9.464154763580263 a54.28239489666212,54.28239489666212 0 0,0 -0.273410671634123,0.8935218943359028 l -31.740787535296786 -10.012003630468223" fill="#71ff27" stroke="none" /><path d="M 119.79798401119884 107.00284435728193 l 22.498874184375776 7.958189785289724 a44.86487218115908,44.86487218115908 0 0,0 -0.26379634511784106,0.7258542457422448 l -22.35855357825271 -8.3442918280381" fill="#dcff1b" stroke="none" /><path d="M 119.67450827220406 107.3425965602758 l 3.1431881783489892 1.1730490229964639 a24.35494797796714,24.35494797796714 0 0,0 -0.14996352827398604,0.3915074508745944 l -3.1225303704814964 -1.2269800407042022" fill="#ff0f01" stroke="none" /><path d="M 119.54520255179757 107.68017299344265 l 22.151290902967524 8.704220164104493 a44.800065910267875,44.800065910267875 0 0,0 -0.28820818026541434,0.7153090676379257 l -21.998180108444718 -9.084228599585233" fill="#ddff1b" stroke="none" /><path d="M 119.26925614724726 108.34839909993367 l 38.573846672675195 16.712106807981012 a63.038508074007815,63.038508074007815 0 0,0 -0.4399454934993086,0.99196094562262 l -38.280460094444614 -17.37361609009632" fill="#32ff4d" stroke="none" /><path d="M 118.81262510543309 109.33194174019688 l 20.642562743095656 10.239676377290602 a44.04270749964691,44.04270749964691 0 0,0 -0.34273894503840774,0.6762564542129192 l -20.463245128270977 -10.593487043206215" fill="#e6ff1a" stroke="none" /><line stroke="#e1ed5e" stroke-width="0.3" x1="174.80103733775053" x2="179.2010983576182" y1="140.37084112569926" y2="142.7455964860345" /><path d="M 175.68104954172406 140.8457921977663 a86.0,86.0 0 0,1 -30.038265399797805,32.042727171017184" fill="none" id="id89" stroke="none" /><text fill="#e1ed5e" style="font-size:6.75px; font-family:Arial;" text-anchor="middle"><textPath startOffset="22.206326154141568" xlink:href="#id89">May</textPath></text><path d="M 118.48025628344425 109.97397251340804 l 32.92188794210934 17.768260374087202 a58.410717480344616,58.410717480344616 0 0,0 -0.48515271759215156,0.8806931045625611 l -32.611158815065686 -18.332323997047567" fill="#46ff2d" stroke="none" /><path d="M 118.12598468904814 110.60418214915192 l 45.09535237467408 26.381978075385145 a73.24556988842332,73.24556988842332 0 0,0 -0.6460228720818126,1.0827714927752932 l -44.63454862689404 -27.154311662046545" fill="#3fffc1" stroke="none" /><path d="M 117.94076556474637 110.91462005526583 l 25.368264468906563 15.433286118162895 a50.69402570500448,50.69402570500448 0 0,0 -0.45995259306593234,0.7415900321162143 l -25.098847236172666 -15.867672481644382" fill="#98ff23" stroke="none" /><path d="M 117.75023020441432 111.22182372390056 l 6.408960407618522 4.051791053947398 a28.582333694270513,28.582333694270513 0 0,0 -0.2664896157463063,0.4135978015964796 l -6.338265928495165 -4.16151045546533" fill="#ff4c07" stroke="none" /><path d="M 117.55443506779139 111.5257021239791 l 19.241159998425942 12.633153832935132 a44.01779341838896,44.01779341838896 0 0,0 -0.4213066563699325,0.6297962876352605 l -19.02085023664529 -12.9624870347762" fill="#e6ff1a" stroke="none" /><path d="M 117.35343817320211 111.8261652097733 l 5.607126996950678 3.821191487028697 a27.785379690221742,27.785379690221742 0 0,0 -0.27274537921418646,0.39291006106965093 l -5.540520710574355 -3.9171428102853674" fill="#ff4106" stroke="none" /><path d="M 116.71984013943494 112.70617746262583 l 28.39511535680454 21.578757439452634 a56.664062426439436,56.664062426439436 0 0,0 -0.5968430627361047,0.7715001138409254 l -28.019465476850364 -22.06433554740681" fill="#58ff2a" stroke="none" /><path d="M 116.498646956653 112.99209946851258 l 5.963234418356578 4.695835659790573 a28.590193493714985,28.590193493714985 0 0,0 -0.30779669713403873,0.384023705580438 l -5.881519809167686 -4.797787198949262" fill="#ff4c07" stroke="none" /><path d="M 116.0416608686014 113.55231037782055 l 11.343842999852678 9.58350151337378 a35.85012711265948,35.85012711265948 0 0,0 -0.40230242794942456,0.467968611407151 l -11.177198062332474 -9.77734722394246" fill="#ffb010" stroke="none" /><path d="M 115.56566222782051 114.09645910891815 l 13.623160502365254 12.337305162165897 a39.37932536132951,39.37932536132951 0 0,0 -0.4593384379982298,0.498521154003782 l -13.408775656371303 -12.569977570971014" fill="#ffde14" stroke="none" /><path d="M 115.07121518719521 114.62390073753431 l 25.576968269910946 24.81784252301234 a56.638555152770586,56.638555152770586 0 0,0 -0.684947241159771,0.6938479390595543 l -25.14598040369564 -25.25443095605256" fill="#58ff2a" stroke="none" /><path d="M 114.29624159901734 115.38237550388516 l 3.041442783381171 3.272511494962885 a25.46762864271927,25.46762864271927 0 0,0 -0.3236819789882082,0.2956758133800801 l -2.984661254926099 -3.324380074929548" fill="#ff1f03" stroke="none" /><path d="M 114.0293411484842 115.62618273729858 l 9.033836283249729 10.062081682014734 a34.52241419895485,34.52241419895485 0 0,0 -0.44559830308347187,0.3931886936448451 l -8.85929562725967 -10.216093517431867" fill="#ff9e0e" stroke="none" /><path d="M 113.20401910651253 116.32954008644616 l 5.603611404065089 6.930041248305649 a29.912122781413306,29.912122781413306 0 0,0 -0.4031620109617935,0.3202962844597388 l -5.483491900385944 -7.0254714467705135" fill="#ff5f08" stroke="none" /><path d="M 112.92097659922987 116.55440617244103 l 22.753352540066572 29.15168500153891 a57.98020808813145,57.98020808813145 0 0,0 -0.7920407626882898,0.607303082478636 l -22.248183048884787 -29.539027425844917" fill="#4aff2c" stroke="none" /><path d="M 111.7513745106137 117.40417183066458 l 2.978866386467136 4.411799011582805 a26.323308695447484,26.323308695447484 0 0,0 -0.3777085201341255,0.250324611328808 l -2.9024831675930467 -4.462421644002932" fill="#ff2c04" stroke="none" /><path d="M 111.1453310114006 117.79835938074945 l 9.973657166079876 15.927273438599203 a39.79233557742103,39.79233557742103 0 0,0 -0.5836603352913944,0.35853184871826227 l -9.698017630856173 -16.096593754145843" fill="#ffe315" stroke="none" /><line stroke="#e1ed5e" stroke-width="0.3" x1="143.8653032363475" x2="146.44561519142675" y1="172.8068346515853" y2="177.08958963109032" /><path d="M 144.38136562736335 173.6633856474863 a86.0,86.0 0 0,1 -40.68145358897372,12.25698825130547" fill="none" id="id90" stroke="none" /><text fill="#e1ed5e" style="font-size:6.75px; font-family:Arial;" text-anchor="middle"><textPath startOffset="21.466115282336833" xlink:href="#id90">June</textPath></text><path d="M 110.8373102113329 117.98757091392108 l 8.227396522944776 13.655683514407311 a36.94263923544089,36.94263923544089 0 0,0 -0.5475112504322234,0.3234792974214199 l -7.9911174014841695 -13.79528138412248" fill="#ffbe11" stroke="none" /><path d="M 110.5260780823613 118.17145234162733 l 8.220435354151778 14.191159147461683 a37.40013888235017,37.40013888235017 0 0,0 -0.5598466559516754,0.31789554234955847 l -7.974939931278903 -14.33055785560587" fill="#ffc412" stroke="none" /><path d="M 109.89434966115114 118.52300852407294 l 14.057629838590405 26.31699972670841 a50.83624358551857,50.83624358551857 0 0,0 -0.7753957762771752,0.40565042268063145 l -13.602543159786734 -26.555079568333756" fill="#97ff23" stroke="none" /><path d="M 108.92500713936063 119.00905698771935 l 19.434233508884073 41.392286472668005 a66.72757167741632,66.72757167741632 0 0,0 -1.0439115647978459,0.47920859876972377 l -18.718853948318806 -41.7206821417718" fill="#37ff78" stroke="none" /><path d="M 107.2578585660854 119.70592522655815 l 2.397491997639778 6.509467993428111 a27.936940351207568,27.936940351207568 0 0,0 -0.4526854446366572,0.16231689467003788 l -2.285086992373386 -6.549772429138109" fill="#ff4306" stroke="none" /><path d="M 106.57524785965236 119.94407469862006 l 16.752766355356783 50.814574709801065 a74.50491737677135,74.50491737677135 0 0,0 -1.2214501304088314,0.39106975963310797 l -15.875594879857012 -51.09541731609388" fill="#41ffce" stroke="none" /><path d="M 105.53697534728816 120.25689768951611 l 2.034429833713593 7.442915023672544 a28.715950284826516,28.715950284826516 0 0,0 -0.47792852706175093,0.1262252678217952 l -1.9060108638403446 -7.476831640797923" fill="#ff4e07" stroke="none" /><path d="M 105.18746579009965 120.34920634021253 l 6.59755238452397 25.880643891525374 a47.70834000282473,47.70834000282473 0 0,0 -0.7975169546831278,0.19601026397000695 l -6.151082145097632 -25.99037541380941" fill="#baff1f" stroke="none" /><path d="M 104.83641907484287 120.43548508189849 l 4.065098918683365 17.17639994046517 a38.650885080740075,38.650885080740075 0 0,0 -0.6487456285282341,0.1476523929185959 l -3.7688331407622684 -17.24382906696145" fill="#ffd513" stroke="none" /><path d="M 103.06178313531738 120.77559828337769 l 3.314743128922597 22.492047481979434 a43.73498893649075,43.73498893649075 0 0,0 -0.7457261477579822,0.1033508490071225 l -2.927088389977784 -22.545772896479157" fill="#eaff1a" stroke="none" /><path d="M 101.62511606390274 120.93702456842531 l 2.7625098629232117 35.59052682775175 a56.69757779765548,56.69757779765548 0 0,0 -0.9736789489270612,0.06715060103544793 l -2.14946815321722 -35.63280577330349" fill="#57ff2a" stroke="none" /><line stroke="#e1ed5e" stroke-width="0.3" x1="102.19456741930631" x2="102.32365962044197" y1="184.97166512339345" y2="189.96999836594603" /><path d="M 102.22038585953345 185.97133177190398 a86.0,86.0 0 0,1 -42.740103519485714,-10.115201625700543" fill="none" id="id91" stroke="none" /><text fill="#e1ed5e" style="font-size:6.75px; font-family:Arial;" text-anchor="middle"><textPath startOffset="22.20632615414155" xlink:href="#id91">July</textPath></text><path d="M 99.81925306533755 120.99922214144158 l -0.059025902122288885 6.857643439872118 a27.857897462454687,27.857897462454687 0 0,0 -0.4794746237032324,-0.008254590472141178 l 0.17706021571818925 -6.8556113721208165" fill="#ff4206" stroke="none" /><path d="M 99.09653310690486 120.98055641714683 l -1.1055400388538603 25.67315452714175 a46.69694694223436,46.69694694223436 0 0,0 -0.802769286419469,-0.041494002550347554 l 1.5472973936868182 -25.6503207178292" fill="#c6ff1e" stroke="none" /><path d="M 97.65516085044442 120.86867818915974 l -2.5522438759896042 22.714545736911422 a43.857483169342316,43.857483169342316 0 0,0 -0.7494880001648665,-0.09075255916955682 l 2.9428592992058604 -22.667247649016517" fill="#e8ff1a" stroke="none" /><path d="M 96.58105272829116 120.7198165907248 l -4.464630709306893 27.056962886684186 a48.422840261757926,48.422840261757926 0 0,0 -0.8212306839747484,-0.14278148100277638 l 4.929710364753691 -26.976102827160403" fill="#b2ff20" stroke="none" /><path d="M 95.16358092515715 120.4354850818985 l -3.349369917230456 14.152205985075147 a35.543150040016954,35.543150040016954 0 0,0 -0.5941574319727226,-0.1460294410003952 l 3.592480633946389 -14.092455285760721" fill="#ffac0f" stroke="none" /><path d="M 94.46302465271185 120.25689768951611 l -3.5994510540554403 13.168509369674727 a34.651581846429075,34.651581846429075 0 0,0 -0.5740097762021261,-0.16222089638340143 l 3.8255919983621802 -13.104599679952804" fill="#ffa00e" stroke="none" /><path d="M 93.76903079525671 120.05430185196036 l -7.655942961036369 24.64056329874607 a46.80253519137517,46.80253519137517 0 0,0 -0.7672911362866939,-0.24566239158353287 l 8.078955442414003 -24.50512806050283" fill="#c5ff1e" stroke="none" /><path d="M 92.7421414339146 119.70592522655815 l -5.151606893703515 13.987208392061198 a35.90573890118168,35.90573890118168 0 0,0 -0.5781333127664515,-0.21860054998716238 l 5.3916104272302485 -13.896459591967403" fill="#ffb110" stroke="none" /><path d="M 92.06813273071674 119.44442032107085 l -5.748540610931703 14.092147041411835 a36.21953768654959,36.21953768654959 0 0,0 -0.5752499782034071,-0.2404545375431796 l 5.990262048632572 -13.991107460848681" fill="#ffb510" stroke="none" /><path d="M 91.40352486487194 119.15986991738527 l -12.188511521625195 27.165819893622217 a50.77484817099007,50.77484817099007 0 0,0 -0.7943410778200164,-0.36464302885759897 l 12.654320595212631 -26.951989794430542" fill="#97ff23" stroke="none" /><path d="M 90.10565033884886 118.52300852407294 l -7.063366653493962 13.223183454393856 a35.99145520455723,35.99145520455723 0 0,0 -0.5439460404561026,-0.29660275142467896 l 7.289935505818706 -13.09964005120941" fill="#ffb210" stroke="none" /><line stroke="#e1ed5e" stroke-width="0.3" x1="58.666819895761336" x2="56.23545636021788" y1="174.27360380694188" y2="178.64263932499728" /><path d="M 58.180547188652646 175.14741091055294 a86.0,86.0 0 0,1 -31.652253787137756,-30.449443065178592" fill="none" id="id92" stroke="none" /><text fill="#e1ed5e" style="font-size:6.75px; font-family:Arial;" text-anchor="middle"><textPath startOffset="22.20632615414155" xlink:href="#id92">August</textPath></text><path d="M 89.4739219176387 118.17145234162733 l -19.096796299491125 32.96731423790872 a59.09896897509533,59.09896897509533 0 0,0 -0.8758808540069769,-0.5174858471956159 l 19.661445024526483 -32.63370981841935" fill="#3fff2d" stroke="none" /><path d="M 88.54995079064634 117.60387380957326 l -7.529346657007167 11.575991159078026 a34.80922272962666,34.80922272962666 0 0,0 -0.4994714059825011,-0.3310224125418811 l 7.72749276172963 -11.444670725444826" fill="#ffa20f" stroke="none" /><path d="M 87.95078237400918 117.19931262002967 l -9.205645378188606 13.14033638060193 a37.04407513770538,37.04407513770538 0 0,0 -0.5190980465780559,-0.3703626733254827 l 9.430470752615548 -12.979929445432226" fill="#ffc011" stroke="none" /><path d="M 87.36589467227662 116.77436683061367 l -15.775560955689915 20.945293676535595 a47.22162562967846,47.22162562967846 0 0,0 -0.6450727517614483,-0.4946142787374171 l 16.133762435944853 -20.67064005597081" fill="#c0ff1e" stroke="none" /><path d="M 86.51685102203217 116.09983520530335 l -8.881130157038076 10.60469866488958 a34.8323572336519,34.8323572336519 0 0,0 -0.45636114319897764,-0.38892086677773885 l 9.06235677681411 -10.45025340788889" fill="#ffa20f" stroke="none" /><path d="M 85.44109423537348 115.13401014063109 l -15.814175291359586 16.438865193196968 a43.81062096888094,43.81062096888094 0 0,0 -0.5389750482741151,-0.5275005239466598 l 16.094800292009495 -16.16421456632774" fill="#e9ff1a" stroke="none" /><path d="M 84.67929136418377 114.36230785411682 l -10.302799688782585 9.658298738458521 a35.121983428275506,35.121983428275506 0 0,0 -0.4096788570985984,-0.4446254868235728 l 10.467524953876913 -9.479521996833604" fill="#ffa60f" stroke="none" /><path d="M 84.19399662182784 113.82643327865904 l -11.005416325133131 9.627079716650979 a35.621896332564376,35.621896332564376 0 0,0 -0.39974127114580954,-0.46498940743094247 l 11.16950010584972 -9.436213210058506" fill="#ffad10" stroke="none" /><path d="M 83.72743513129214 113.27417163493432 l -27.6647009381903 22.56718540964875 a56.7017301445318,56.7017301445318 0 0,0 -0.6104402638655991,-0.7616180886537613 l 28.04905911411076 -22.08763948741673" fill="#57ff2a" stroke="none" /><path d="M 83.06392112726016 112.41649034213515 l -10.794328392591646 7.913737013363767 a34.3844969634198,34.3844969634198 0 0,0 -0.345842885127325,-0.48034551916832163 l 10.928951070094579 -7.726757888744308" fill="#ff9c0e" stroke="none" /><path d="M 82.6465618267979 111.8261652097733 l -11.119035161497658 7.57749245312151 a34.45553175462548,34.45553175462548 0 0,0 -0.3297835659096043,-0.4929816854130524 l 11.247821832817994 -7.384973853502637" fill="#ff9d0e" stroke="none" /><path d="M 82.24976979558568 111.22182372390057 l -29.729734468449017 18.795352833245893 a56.17275081210865,56.17275081210865 0 0,0 -0.5096616817536783,-0.8217369107992673 l 30.04886078987065 -18.28081959108136" fill="#5dff2a" stroke="none" /><line stroke="#e1ed5e" stroke-width="0.3" x1="26.63291911575756" x2="22.317208475507996" y1="142.92168965132927" y2="145.44649492493687" /><path d="M 25.769776987707644 143.4266507060508 a86.0,86.0 0 0,1 -11.730757126820373,-40.83630448921669" fill="none" id="id93" stroke="none" /><text fill="#e1ed5e" style="font-size:6.75px; font-family:Arial;" text-anchor="middle"><textPath startOffset="21.46611528233685" xlink:href="#id93">September</textPath></text><path d="M 81.69416730710424 110.29060199501025 l -17.18741103773802 9.66188259672276 a40.71697424791677,40.71697424791677 0 0,0 -0.33819051640913234,-0.6139140213584331 l 17.35117796359867 -9.364598056966503" fill="#ffef16" stroke="none" /><path d="M 81.35079622478065 109.6543875284942 l -18.167235863519966 9.404880629865747 a41.45727837672426,41.45727837672426 0 0,0 -0.32261921806501526,-0.6365583241354327 l 18.32643375137125 -9.09076809402763" fill="#fff817" stroke="none" /><path d="M 80.87730276802145 108.67885076344099 l -32.47018865404791 14.736619953277364 a56.65783390612495,56.65783390612495 0 0,0 -0.39541479422652304,-0.8915559745237871 l 32.719044533005714 -14.175515642260882" fill="#58ff2a" stroke="none" /><path d="M 80.58989483394504 108.01547362559985 l -15.275691540834906 6.308152460322132 a37.52693376018078,37.52693376018078 0 0,0 -0.24141860218745714,-0.5991811720337993 l 15.382012757279751 -6.044271920445527" fill="#ffc612" stroke="none" /><path d="M 80.32549172779594 107.34259656027581 l -19.570073414726018 7.303621099507905 a41.88852925945106,41.88852925945106 0 0,0 -0.24629605265309523,-0.67770095695582 l 19.692893728384337 -6.9656723455459675" fill="#fffd18" stroke="none" /><path d="M 80.0844068197444 106.66101706037122 l -38.63822910883293 12.92303477717278 a61.74208605997834,61.74208605997834 0 0,0 -0.32843187863434253,-1.010809385956461 l 38.854953238483525 -12.256026491238515" fill="#31ff3d" stroke="none" /><path d="M 79.76711848015287 105.62410040840567 l -21.902634811133595 6.0882389523026035 a43.73306106115531,43.73306106115531 0 0,0 -0.1953658374099809,-0.7270289588779575 l 22.00418872488535 -5.710319060249107" fill="#eaff1a" stroke="none" /><path d="M 79.58551787078972 104.9243191809786 l -17.49810694456822 4.2208400444633485 a38.999978814556755,38.999978814556755 0 0,0 -0.15180172366772415,-0.6539578525403348 l 17.5681692341665 -3.9190135345744395" fill="#ffd914" stroke="none" /><path d="M 79.4281124754447 104.21870165774334 l -46.62349403689635 9.561135863127044 a68.59375500211854,68.59375500211854 0 0,0 -0.22724153014038578,-1.158699666469779 l 46.781165500012406 -8.75717246958931" fill="#39ff8e" stroke="none" /><path d="M 79.23777060512086 103.15116336523772 l -16.427487212426787 2.493262881464844 a37.61561602561085,37.61561602561085 0 0,0 -0.09164946145455263,-0.6409961199529262 l 16.46797072489794 -2.210121289531517" fill="#ffc712" stroke="none" /><path d="M 79.18660465613746 102.79330883721812 l -22.618068893815884 3.035509136212826 a43.82085353796902,43.82085353796902 0 0,0 -0.09389867965350103,-0.7484648645733945 l 22.666969082716232 -2.6457265173520232" fill="#e9ff1a" stroke="none" /><path d="M 79.1416061653843 102.43462659150553 l -17.689029581462734 2.064693098539848 a38.80911915634857,38.80911915634857 0 0,0 -0.07173717554385194,-0.6641971509144495 l 17.721949058507636 -1.7598996257406163" fill="#ffd714" stroke="none" /><path d="M 79.07016306316243 101.71520430193888 l -30.213960240562635 2.476040054187523 a51.3152464573231,51.3152464573231 0 0,0 -0.06456787639953573,-0.880977374054972 l 30.252104675626505 -1.9555895436357906" fill="#91ff23" stroke="none" /><path d="M 79.0235259727143 100.99374915477108 l -22.856466193649993 1.0828127706995994 a43.882100654394804,43.882100654394804 0 0,0 -0.029250276912878577,-0.7548196764375897 l 22.87171860341407 -0.6892158472480128" fill="#e8ff1a" stroke="none" /><path d="M 79.0095281055655 100.63252640178507 l -10.956036147037167 0.33014894361427316 a31.961009368673793,31.961009368673793 0 0,0 -0.011837653685401628,-0.5500492515936102 l 10.960095863407577 -0.14150987623053415" fill="#ff7b0b" stroke="none" /><line stroke="#e1ed5e" stroke-width="0.3" x1="15.007084014347285" x2="10.007500721073583" y1="101.09737516637583" y2="101.16192664675087" /><path d="M 14.007167355692545 101.11028546245083 a86.0,86.0 0 0,1 10.666146001902534,-42.60595125391555" fill="none" id="id94" stroke="none" /><text fill="#e1ed5e" style="font-size:6.75px; font-family:Arial;" text-anchor="middle"><textPath startOffset="22.20632615414155" xlink:href="#id94">October</textPath></text><path d="M 79.00175016825051 100.2711162175752 l -24.336804486393472 0.3142215390847425 a45.338832917470924,45.338832917470924 0 0,0 -0.0033587497743085486,-0.780455160427283 l 24.338607533457285 0.10474309954621586" fill="#d6ff1c" stroke="none" /><path d="M 79.00019446554 99.90962569577889 l -14.857997619954906 -0.06394255388789316 a35.858135210206676,35.858135210206676 0 0,0 0.007969031514191807,-0.6172102729549929 l 14.854695581323 0.31968908490335796" fill="#ffb010" stroke="none" /><path d="M 79.01574976396665 99.18683210126434 l -29.657381392038054 -1.149263387412034 a50.679640789040064,50.679640789040064 0 0,0 0.04128313285347015,-0.8714216861551375 l 29.633204650951082 1.6595961801901804" fill="#99ff23" stroke="none" /><path d="M 79.05617556472873 98.46500227214037 l -11.936382592970443 -0.8748316342939011 a32.96839838049056,32.96839838049056 0 0,0 0.04635280856325907,-0.5656216718304937 l 11.919555300587685 1.0801672233321733" fill="#ff890c" stroke="none" /><path d="M 79.12142395522702 97.74499172005258 l -37.059644493539565 -4.002658275431653 a58.27517301445318,58.27517301445318 0 0,0 0.11629961569954829,-0.9963840843353075 l 36.98525452483643 4.639986098091822" fill="#47ff2c" stroke="none" /><path d="M 79.21141760316559 97.0276538004421 l -22.594921415746775 -3.2306160909572745 a43.824709288639895,43.824709288639895 0 0,0 0.11320153336402781,-0.7458566666151631 l 22.535963988943443 3.6190718699645297" fill="#e9ff1a" stroke="none" /><path d="M 79.32604984820605 96.31383870115002 l -46.79217352843956 -8.343035456851949 a68.53013511604915,68.53013511604915 0 0,0 0.21705868226682765,-1.1595361600563925 l 46.64162912226287 9.147249694370915" fill="#39ff8d" stroke="none" /><path d="M 79.46518482838121 95.60439243477599 l -12.28188059149937 -2.6290145195846293 a33.560107810366745,33.560107810366745 0 0,0 0.1257794694044105,-0.5638446984644907 l 12.23480673509292 2.840037387599079" fill="#ff910d" stroke="none" /><path d="M 79.62865764111835 94.90015583598534 l -22.067627525783106 -5.524499047160111 a43.748632361941524,43.748632361941524 0 0,0 0.18916839495817475,-0.7289429924186662 l 21.969262798954624 5.9035384651276415" fill="#eaff1a" stroke="none" /><path d="M 79.91906864156998 93.8553929516997 l -30.19017382575886 -9.237955728646675 a52.57192457982204,52.57192457982204 0 0,0 0.2722337383717724,-0.8630553452160351 l 30.02668460361888 9.756261240289126" fill="#84ff25" stroke="none" /><path d="M 80.14247586403 93.16781622104843 l -16.032092381900867 -5.516004954306738 a37.95447719033944,37.95447719033944 0 0,0 0.21787120451284642,-0.615951234009749 l 15.934768096578212 5.791153814743098" fill="#ffcc13" stroke="none" /><path d="M 80.38941819471856 92.48833698450439 l -16.267014998779054 -6.230938793765558 a38.41954004048773,38.41954004048773 0 0,0 0.24187195256814822,-0.6155377370509124 l 16.157349496329218 6.510025535712234" fill="#ffd213" stroke="none" /><path d="M 80.65960295795068 91.81776055985345 l -49.214212953304425 -20.82079666548716 a74.43729344192835,74.43729344192835 0 0,0 0.5093966953224571,-1.1757578052069504 l 48.848525548139285 21.664853615280705" fill="#41ffce" stroke="none" /><path d="M 80.803312248108 91.48605970444005 l -6.798371268322811 -3.0151517716823752 a28.43700155359917,28.43700155359917 0 0,0 0.20230581641034695,-0.4457540498080325 l 6.745463134949112 3.1317278303324785" fill="#ff4a06" stroke="none" /><line stroke="#e1ed5e" stroke-width="0.3" x1="26.266209847984243" x2="21.928928074336255" y1="57.711370442889674" y2="55.22380399835377" /><path d="M 25.398753493254645 57.213857153982495 a86.0,86.0 0 0,1 29.58750427330803,-30.492523968695096" fill="none" id="id95" stroke="none" /><text fill="#e1ed5e" style="font-size:6.75px; font-family:Arial;" text-anchor="middle"><textPath startOffset="21.46611528233685" xlink:href="#id95">November</textPath></text><line stroke="#e1ed5e" stroke-width="0.3" x1="56.762969772571076" x2="54.21961505331055" y1="26.818313649435495" y2="22.513508569990535" /><path d="M 56.25429882871897 25.957352633546506 a86.0,86.0 0 0,1 42.265352541879196,-11.944610805530505" fill="none" id="id96" stroke="none" /><text fill="#e1ed5e" style="font-size:6.75px; font-family:Arial;" text-anchor="middle"><textPath startOffset="22.20632615414155" xlink:href="#id96">December</textPath></text></svg>