<?xml version="1.0" encoding="utf-8" ?>
<svg baseProfile="full" height="200mm" version="1.1" viewBox="0,0,200,200" width="200mm" xmlns="http://www.w3.org/2000/svg" xmlns:ev="http://www.w3.org/2001/xml-events" xmlns:xlink="http://www.w3.org/1999/xlink"><defs /><rect fill="#1a1a1a" height="200" width="200" x="0" y="0" /><text alignment-baseline="middle" fill="#e1ed5e" style="dominant-baseline: central; font-size:9.0px; font-family:Arial;" text-anchor="middle" x="100.0" y="100.0">2026</text><line stroke="#e1ed5e" stroke-width="0.3" x1="100.0" x2="100.0" y1="15.0" y2="10.0" /><path d="M 100.0 14.0 a86.0,86.0 0 0,1 42.46469731375804,11.215312516191453" fill="none" id="id97" stroke="none" /><text fill="#e1ed5e" style="font-size:6.75px; font-family:Arial;" text-anchor="middle"><textPath startOffset="22.20632615414155" xlink:href="#id97">January</textPath></text><path d="M 100.0 79.0 l 0.0 -10.596954357348654 a31.596954357348654,31.596954357348654 0 0,0 0.543889628792695,0.004681429747102706 l -0.18240914952016662 10.59538430421011" fill="#ff6409" stroke="none" /><path d="M 100.72285384407766 79.0124445844662 l 0.6765803143682458 -19.644035868663476 a40.65568381235127,40.65568381235127 0 0,0 0.6991987106814911,0.03010896728550261 l -1.0146198574390684 19.629479174853778" fill="#ffe015" stroke="none" /><path d="M 101.80526077348638 79.07773832637324 l 1.0259024539182056 -11.889805565896271 a32.93398308360513,32.93398308360513 0 0,0 0.5643863322202115,0.05359528280135891 l -1.2304139132286613 11.870384738579736" fill="#ff770a" stroke="none" /><path d="M 102.52436894288641 79.15227682838746 l 1.4183342982357268 -11.71343867850475 a32.79899647667728,32.79899647667728 0 0,0 0.5599027217434216,0.07269144259800633 l -1.6197517484869945 11.687288912742606" fill="#ff750a" stroke="none" /><path d="M 103.2404852339499 79.25152402106235 l 2.090165740276945 -13.383104851020299 a34.54534194013686,34.54534194013686 0 0,0 0.5867292635234582,0.09681535577169385 l -2.320224209939278 13.345143232308981" fill="#ff8d0d" stroke="none" /><path d="M 104.307194497241 79.44645832069477 l 2.441346566765549 -11.649884500406568 a32.90294005411567,32.90294005411567 0 0,0 0.5533291750881553,0.1209363259589741 l -2.6415184660072324 11.606134676351722" fill="#ff760a" stroke="none" /><path d="M 105.01212808612495 79.60689891045804 l 2.7139497503717336 -11.04238572124315 a32.37100724053315,32.37100724053315 0 0,0 0.5399655286034029,0.1376492360750236 l -2.903624167660161 10.994033488999259" fill="#ff6f0a" stroke="none" /><path d="M 105.71112130821622 79.79150937346287 l 2.1209056652448317 -7.504708785332462 a28.798646984798957,28.798646984798957 0 0,0 0.4758767723835699,0.13892147925907025 l -2.249772655351829 7.467088977154688" fill="#ff3b05" stroke="none" /><path d="M 107.4271985657038 80.35727306442388 l 4.223681633310299 -11.17037928257686 a32.94223010397074,32.94223010397074 0 0,0 0.5286707679758529,0.20511604458145932 l -4.415335566285819 11.096020534104854" fill="#ff770a" stroke="none" /><path d="M 108.09893153111575 80.62456947434976 l 3.0580918624765077 -7.31600782088685 a28.92943227946507,28.92943227946507 0 0,0 0.4577962011605422,0.1960044419281317 l -3.1835718214273654 7.262283850995927" fill="#ff3d05" stroke="none" /><path d="M 109.08828744355905 81.06846463323043 l 5.151335605852979 -10.730590643611315 a32.903017856194595,32.903017856194595 0 0,0 0.5084749855430462,0.2495064671233558 l -5.335281858406457 10.640329016353126" fill="#ff760a" stroke="none" /><path d="M 109.73455568895987 81.39251694778311 l 4.256628316295746 -8.136492489830594 a30.18266816672368,30.18266816672368 0 0,0 0.4582806311405763,0.24479764189196873 l -4.3960539939646335 8.062016121436871" fill="#ff4f07" stroke="none" /><line stroke="#e1ed5e" stroke-width="0.3" x1="143.23703022742887" x2="145.7803849466894" y1="26.81831364943548" y2="22.513508569990506" /><path d="M 143.74570117128098 25.957352633546492 a86.0,86.0 0 0,1 28.547481713284135,27.462654790039103" fill="none" id="id98" stroke="none" /><text fill="#e1ed5e" style="font-size:6.75px; font-family:Arial;" text-anchor="middle"><textPath startOffset="19.985693538727396" xlink:href="#id98">February</textPath></text><path d="M 110.68208982089419 81.91981866633111 l 11.093927298672433 -18.777244961018916 a42.80963436727768,42.80963436727768 0 0,0 0.631213653879156,0.3802991637644128 l -11.415503018769225 18.583499187795887" fill="#fffc17" stroke="none" /><path d="M 111.2981086023043 82.29822771554956 l 6.423558386328886 -10.064371994749157 a32.939584833287434,32.939584833287434 0 0,0 0.47532287435533843,0.3091632194466403 l -6.595848286468505 9.952309851142989" fill="#ff770a" stroke="none" /><path d="M 111.90073688211348 82.69761687909136 l 2.479521653205564 -3.6049560649333894 a25.37535551227729,25.37535551227729 0 0,0 0.35775488519903137,0.2506301596904775 l -2.541207677988246 3.5617410624789763" fill="#ff0701" stroke="none" /><path d="M 112.77801427241765 83.33499621200491 l 12.805440355880089 -16.700772709131616 a42.04507333772153,42.04507333772153 0 0,0 0.5705465293897556,0.4453206160477951 l -13.091019440429275 16.477873703860595" fill="#fff216" stroke="none" /><path d="M 113.06298171725822 83.55741782278167 l 5.810245434927585 -7.313448039767776 a30.340528584854283,30.340528584854283 0 0,0 0.40612473671235466,0.32839129300575065 l -5.93527357020443 7.212350649497895" fill="#ff5107" stroke="none" /><path d="M 113.6212207817346 84.01681056812373 l 5.439693992709096 -6.382956486065922 a29.386441691046713,29.386441691046713 0 0,0 0.38217235531095844,0.33141610053673787 l -5.548760146666819 6.288375392109513" fill="#ff4306" stroke="none" /><path d="M 113.89432698308785 84.25364557470407 l 5.154243876776151 -5.841272555116715 a28.79016655819657,28.79016655819657 0 0,0 0.3687732604493453,0.3310882743572141 l -5.254028124821486 5.751685271990204" fill="#ff3b05" stroke="none" /><path d="M 114.42810811169701 84.74124197986012 l 10.232190257232352 -10.82127427535456 a35.89287394704766,35.89287394704766 0 0,0 0.4452711951482474,0.4283505369447085 l -10.416944695993019 10.643540651647548" fill="#ffa00e" stroke="none" /><path d="M 114.68862486808459 84.99185889309783 l 3.34929097408623 -3.4221468652507574 a25.7884067492686,25.7884067492686 0 0,0 0.3145745990421909,0.3132237157424254 l -3.407701373295744 3.363987298858213" fill="#ff0e01" stroke="none" /><path d="M 115.19652480421416 85.50635884689758 l 6.953737816509937 -6.632107135264517 a30.609334767526153,30.609334767526153 0 0,0 0.36036322891800515,0.3844103670102144 l -7.066868367398405 6.511427351376248" fill="#ff5507" stroke="none" /><path d="M 115.4437574822437 85.77008943001954 l 4.845247729641584 -4.464421431214021 a27.58843564718363,27.58843564718363 0 0,0 0.31878615977354113,0.35201163977410804 l -4.921377530031161 4.380357004170364" fill="#ff2904" stroke="none" /><path d="M 115.68641384162765 86.03803664274999 l 8.517303874126457 -7.580973305545403 a32.40243928041722,32.40243928041722 0 0,0 0.367240199460192,0.4198190318704798 l -8.646535937164497 7.433238717471975" fill="#ff6f0a" stroke="none" /><path d="M 116.15771136456269 86.58626213691792 l 10.786127914525151 -8.95438030415815 a35.018611986212974,35.018611986212974 0 0,0 0.381038364011467,0.46710797979475044 l -10.938664770613027 8.767388154755297" fill="#ff940d" stroke="none" /><path d="M 116.60985879189232 87.15038557335679 l 5.119404107511751 -3.9604411873633443 a27.472510549591416,27.472510549591416 0 0,0 0.28613804950678595,0.37652413242577726 l -5.186818097242651 3.871732279056533" fill="#ff2703" stroke="none" /><path d="M 116.82858285166822 87.43820079747576 l 10.143074922685088 -7.57136067831752 a33.65730901133317,33.65730901133317 0 0,0 0.34256310942399676,0.467255696274166 l -10.271900644622711 7.3956425383718605" fill="#ff810b" stroke="none" /><path d="M 117.45458315368197 88.32363383020206 l 11.104971355185715 -7.428748696351035 a34.36063980477853,34.36063980477853 0 0,0 0.3246317404058321,0.4944364123416083 l -11.231199730949472 7.236494220031752" fill="#ff8b0c" stroke="none" /><line stroke="#e1ed5e" stroke-width="0.3" x1="172.23445277983987" x2="176.4835382374775" y1="55.19839476539836" y2="52.563006222186495" /><path d="M 173.08426987136738 54.67131705675599 a86.0,86.0 0 0,1 12.851231095245387,41.99856678651699" fill="none" id="id99" stroke="none" /><text fill="#e1ed5e" style="font-size:6.75px; font-family:Arial;" text-anchor="middle"><textPath startOffset="22.20632615414155" xlink:href="#id99">March</textPath></text><path d="M 117.84615892207809 88.93136811851018 l 14.569858678868437 -9.036588936917608 a38.144699517256626,38.144699517256626 0 0,0 0.3412755437338867,0.5609672615362442 l -14.723250020888546 8.784453902174283" fill="#ffbf11" stroke="none" /><path d="M 118.03404312379186 89.2402003453031 l 5.085385154676102 -3.034135221685088 a26.921749632910032,26.921749632910032 0 0,0 0.23401452103903542,0.40000667337723295 l -5.136859350185465 2.9461491359539598" fill="#ff1f03" stroke="none" /><path d="M 118.21658344932153 89.55222093294921 l 10.29092862685257 -5.9021687017907025 a32.863338795944905,32.863338795944905 0 0,0 0.2772137785390274,0.49313237967627976 l -10.391000046684033 5.724152812179629" fill="#ff760a" stroke="none" /><path d="M 118.3937258080291 89.86733742301442 l 8.308520456265441 -4.576964731124303 a30.48578506619969,30.48578506619969 0 0,0 0.24924582784919827,0.4618146651236886 l -8.386074383333103 4.433269082668155" fill="#ff5407" stroke="none" /><path d="M 118.56541770881063 90.18545643968196 l 12.604561022366273 -6.663357385920401 a35.25746436850028,35.25746436850028 0 0,0 0.27902180898752676,0.538981324105835 l -12.717392264513917 6.445403339554221" fill="#ff970e" stroke="none" /><path d="M 118.89224826269711 90.83032412892265 l 18.21004834197958 -8.838558469629358 a41.24168907078384,41.24168907078384 0 0,0 0.30448504583576336,0.6413231598980523 l -18.359491581657096 8.523792894090766" fill="#ffe815" stroke="none" /><path d="M 119.196687751892 91.48605970444005 l 8.724846896565609 -3.8695647147742878 a30.544447833706084,30.544447833706084 0 0,0 0.20902480554424616,0.4824580702176284 l -8.790162411952535 3.718807499970057" fill="#ff5407" stroke="none" /><path d="M 119.34039704204932 91.81776055985345 l 12.251097188597681 -5.183006862975485 a34.302366047666744,34.302366047666744 0 0,0 0.22538012395567777,0.5457758471497468 l -12.338498999439556 4.971356445372435" fill="#ff8a0c" stroke="none" /><path d="M 119.47837535516314 92.15188598940014 l 7.318363642660498 -2.9486726275353368 a28.89006442753107,28.89006442753107 0 0,0 0.18187870769775463,0.4628614726317966 l -7.368035900239953 2.822262150007756" fill="#ff3c05" stroke="none" /><path d="M 119.7369772167798 92.82701384747503 l 12.537408237353452 -4.556455362305042 a34.339711045548796,34.339711045548796 0 0,0 0.19712125582963147,0.5572883348641539 l -12.613982573992892 4.339969401014273" fill="#ff8a0c" stroke="none" /><path d="M 119.85752413597 93.16781622104841 l 14.729543227088064 -5.06784962810075 a36.57698762699954,36.57698762699954 0 0,0 0.1997150660470595,0.5971226272672936 l -14.814595586906892 4.8135538979111425" fill="#ffa90f" stroke="none" /><path d="M 119.97218684219823 93.5106431181261 l 6.510229423278356 -2.1153017666181326 a27.845260309701672,27.845260309701672 0 0,0 0.14419139817747037,0.4571261360753661 l -6.545676305224032 2.0029254641163474" fill="#ff2d04" stroke="none" /><path d="M 120.08093135843002 93.85539295169968 l 8.960902378133493 -2.741965645368102 a30.371026999791294,30.371026999791294 0 0,0 0.14866487972570544,0.5012240691645413 l -9.006773154970901 2.587312189457031" fill="#ff5207" stroke="none" /><path d="M 120.18372546131832 94.20196356495316 l 11.332590032427873 -3.2554331972752584 a32.790905060469505,32.790905060469505 0 0,0 0.15117111499789712,0.5438429325344676 l -11.386947917992133 3.059878961321839" fill="#ff750a" stroke="none" /><path d="M 120.37134235888165 94.90015583598534 l 11.52155567784316 -2.8843528054694176 a32.877109763913914,32.877109763913914 0 0,0 0.13270954905736448,0.5501667576854327 l -11.569498027161343 2.6856008161245786" fill="#ff760a" stroke="none" /><path d="M 120.45610955862082 95.25157060432595 l 8.957497676664703 -2.079283216472194 a30.195661113903476,30.195661113903476 0 0,0 0.1131699056118338,0.5073184964693525 l -8.991961969278575 1.924786550452878" fill="#ff4f07" stroke="none" /><path d="M 120.53481517161879 95.60439243477599 l 16.751754384908153 -3.585819384770834 a38.131239757603296,38.131239757603296 0 0,0 0.13186273708720067,0.64300953613509 l -16.810996417910353 3.2969341924723325" fill="#ffbe11" stroke="none" /><path d="M 120.67395015179393 96.31383870115 l 9.256091767096477 -1.6503593652862913 a30.40207002928075,30.40207002928075 0 0,0 0.0874249721428611,0.5159871344310852 l -9.28312860075956 1.4907864425393682" fill="#ff5207" stroke="none" /><path d="M 120.73433829027371 96.67025291283417 l 5.435092579725776 -0.8728266816360318 a26.504730489893756,26.504730489893756 0 0,0 0.06846311547887782,0.45108639061412725 l -5.449311588643953 0.7791411786298225" fill="#ff1902" stroke="none" /><path d="M 120.78858239683441 97.02765380044208 l 14.069718481221845 -2.0116847535923195 a35.212805975199664,35.212805975199664 0 0,0 0.08062726646132057,0.6007667859690395 l -14.102261746741 1.7691996255586158" fill="#ff970d" stroke="none" /><path d="M 120.83666639777658 97.38593545837742 l 8.634247338707464 -1.0832097313859532 a29.701929121071153,29.701929121071153 0 0,0 0.05927606497983403,0.507841125464381 l -8.651613756690887 0.9344248675967194" fill="#ff4806" stroke="none" /><path d="M 120.91429891909075 98.10471618934814 l 4.2498736041539775 -0.3851296507920381 a25.267288424656098,25.267288424656098 0 0,0 0.03552522539141317,0.43349773187146823 l -4.255873313364885 0.3119180017128011" fill="#ff0600" stroke="none" /><path d="M 120.94382443527127 98.46500227214037 l 16.49290578050175 -1.2087846217922755 a37.537143082962956,37.537143082962956 0 0,0 0.0416830472417804,0.644818291476941 l -16.511269418747947 0.9247072660622994" fill="#ffb610" stroke="none" /><path d="M 120.98425023603335 99.18683210126433 l 12.503523812232382 -0.48452835201732475 a33.512908352855895,33.512908352855895 0 0,0 0.017376132658374274,0.576629249261759 l -12.510011639346402 0.26922895533056673" fill="#ff7f0b" stroke="none" /><line stroke="#e1ed5e" stroke-width="0.3" x1="184.98032266829074" x2="189.97916517819016" y1="98.17113171792111" y2="98.06355123074" /><path d="M 185.9800911702706 98.14961562048488 a86.0,86.0 0 0,1 -9.607161424134198,41.387399972396054" fill="none" id="id100" stroke="none" /><text fill="#e1ed5e" style="font-size:6.75px; font-family:Arial;" text-anchor="middle"><textPath startOffset="21.466115282336823" xlink:href="#id100">April</textPath></text><path d="M 120.99513854157772 99.54816195383933 l 8.098877149093747 -0.1742965791768862 a29.100752457248994,29.100752457248994 0 0,0 0.006467285932719178,0.5008984226882575 l -8.100677442144182 0.034861898428166074" fill="#ff3f05" stroke="none" /><path d="M 120.99980553446 99.90962569577887 l 11.3470169249612 -0.04883277408907326 a32.347122002304424,32.347122002304424 0 0,0 -0.0023963097797981767,0.5568180005343856 l -11.3461763178919 -0.14649470464899703" fill="#ff6e0a" stroke="none" /><path d="M 120.95626037817324 101.35467743843564 l 19.061326053143514 1.232183027166124 a40.10111059380276,40.10111059380276 0 0,0 -0.05045758777477401,0.6884536964466594 l -19.037291906704404 -1.5601098601095535" fill="#ffd914" stroke="none" /><path d="M 120.89721153311464 102.0752229133903 l 49.958546752916476 4.9611940223242055 a71.20428109026646,71.20428109026646 0 0,0 -0.13161839596172933,1.218622881970998 l -49.86574605545369 -5.820413226179995" fill="#3cffa7" stroke="none" /><path d="M 120.76222939487914 103.15116336523771 l 4.635885188227597 0.7036061153526203 a25.68897569240763,25.68897569240763 0 0,0 -0.07011652471163388,0.4366156663107936 l -4.623086909154674 -0.7833010113566188" fill="#ff0c01" stroke="none" /><path d="M 120.70491114924044 103.5080841355445 l 9.40465423170142 1.593453749823192 a30.538690479865934,30.538690479865934 0 0,0 -0.09227564558332581,0.5175308247117267 l -9.375832143778906 -1.7551033252681372" fill="#ff5407" stroke="none" /><path d="M 120.5718875245553 104.21870165774334 l 13.871994622234299 2.8447465814292876 a35.16067858232263,35.16067858232263 0 0,0 -0.12668888304915846,0.5918482847048064 l -13.820971700460696 -3.0831086855502634" fill="#ff960d" stroke="none" /><path d="M 120.41448212921028 104.9243191809786 l 10.33144275502148 2.492119143837559 a31.62776398060135,31.62776398060135 0 0,0 -0.1322171348401432,0.5281417300050806 l -10.287014305886276 -2.6695887132400355" fill="#ff6409" stroke="none" /><path d="M 120.23288151984713 105.62410040840565 l 3.7509989833360913 1.042658945707557 a24.893216029204183,24.893216029204183 0 0,0 -0.11831077387140726,0.4118553247617384 l -3.7324955725785847 -1.1070717459738775" fill="#ff0000" stroke="none" /><path d="M 120.13307415673323 105.97154293290107 l 15.979168595747803 4.739479453497201 a37.667228158918775,37.667228158918775 0 0,0 -0.18972306157698668,0.6200259425364694 l -15.895218761664683 -5.013832368585727" fill="#ffb811" stroke="none" /><path d="M 119.54520255179757 107.68017299344265 l 14.280565975465558 5.611464851550467 a36.34350358815779,36.34350358815779 0 0,0 -0.23380534873748543,0.5802857013293468 l -14.18185801247068 -5.8564499207226275" fill="#ffa60f" stroke="none" /><path d="M 119.26925614724726 108.34839909993367 l 15.089186327521897 6.537385179417573 a37.4444808069681,37.4444808069681 0 0,0 -0.261324880469996,0.5892186177062018 l -14.974420362320629 -6.796152133616462" fill="#ffb510" stroke="none" /><path d="M 119.12269723197855 108.67885076344098 l 5.735200944207734 2.602925334710994 a27.298233892808494,27.298233892808494 0 0,0 -0.1978801959013655,0.42621633772289497 l -5.689546131466537 -2.7012617397127197" fill="#ff2403" stroke="none" /><path d="M 118.64920377521936 109.65438752849418 l 14.2601126637257 7.382226904428579 a37.05764887057315,37.05764887057315 0 0,0 -0.2981331822745695,0.5639556264402596 l -14.130926973226238 -7.626597545954973" fill="#ffb010" stroke="none" /><line stroke="#e1ed5e" stroke-width="0.3" x1="174.80103733775053" x2="179.2010983576182" y1="140.37084112569926" y2="142.7455964860345" /><path d="M 175.68104954172406 140.8457921977663 a86.0,86.0 0 0,1 -30.038265399797805,32.042727171017184" fill="none" id="id101" stroke="none" /><text fill="#e1ed5e" style="font-size:6.75px; font-family:Arial;" text-anchor="middle"><textPath startOffset="22.206326154141568" xlink:href="#id101">May</textPath></text><path d="M 118.30583269289576 110.29060199501025 l 11.567204080173914 6.502489964869151 a34.26961137244102,34.26961137244102 0 0,0 -0.29349148561748717,0.5117271436450329 l -11.453560598404048 -6.7006369543724995" fill="#ff890c" stroke="none" /><path d="M 118.12598468904814 110.60418214915192 l 9.085500211308185 5.3152587740561374 a31.52607666345167,31.52607666345167 0 0,0 -0.2780586815369082,0.4660423441613378 l -8.992660654073049 -5.470863212103579" fill="#ff6309" stroke="none" /><path d="M 117.35343817320211 111.8261652097733 l 3.224183248401952 2.1972431849883503 a24.901696455806565,24.901696455806565 0 0,0 -0.24443871988208635,0.35213220709134696 l -3.1858836213577297 -2.252416654266717" fill="#ff0000" stroke="none" /><path d="M 117.14729908036423 112.12312394758627 l 29.073054190403216 20.554621333266198 a56.60526559530323,56.60526559530323 0 0,0 -0.5693417119844807,0.7907658419131065 l -28.71493268604313 -21.052020780630436" fill="#60ff29" stroke="none" /><path d="M 116.71984013943494 112.70617746262583 l 11.552683193656593 8.779416645370901 a35.5100877187566,35.5100877187566 0 0,0 -0.37402806301796915,0.48348169094101134 l -11.399848313420556 -8.976976330425165" fill="#ff9b0e" stroke="none" /><path d="M 116.27256486870786 113.27417163493432 l 6.441849496266754 5.2548701787200285 a29.31330773686102,29.31330773686102 0 0,0 -0.32231238156155967,0.38824602684608145 l -6.350441114811651 -5.364977462679881" fill="#ff4206" stroke="none" /><path d="M 116.0416608686014 113.55231037782055 l 4.749458608627431 4.0124359764215916 a27.21747533488855,27.21747533488855 0 0,0 -0.30542866348757447,0.3552825377285339 l -4.679687435569077 -4.093595613311654" fill="#ff2303" stroke="none" /><path d="M 115.80600337817218 113.82643327865902 l 6.587423968291373 5.762404056018402 a29.75211146197516,29.75211146197516 0 0,0 -0.3405074616267605,0.3825637428324822 l -6.487257657016274 -5.874941968591751" fill="#ff4906" stroke="none" /><path d="M 115.32070863581623 114.36230785411682 l 11.184376323939969 10.484727550081969 a36.330355036820144,36.330355036820144 0 0,0 -0.4316278841791841,0.45256011093633414 l -11.00224188838182 -10.67569477760081" fill="#ffa60f" stroke="none" /><path d="M 115.07121518719521 114.62390073753431 l 30.03408845573598 29.142675150187912 a62.84903803286706,62.84903803286706 0 0,0 -0.7600524959375138,0.769929165625038 l -29.527995334742933 -29.655344809793615" fill="#31ff44" stroke="none" /><path d="M 114.55890576462653 115.13401014063108 l 5.40622403991402 5.619780137692312 a28.798024568167587,28.798024568167587 0 0,0 -0.36020043306622673,0.34059199204156293 l -5.308687772456985 -5.712006766479797" fill="#ff3b05" stroke="none" /><path d="M 114.0293411484842 115.62618273729858 l 5.80060613563559 6.460840213606922 a29.682712007577678,29.682712007577678 0 0,0 -0.3831298131488277,0.3380675143643041 l -5.688533969580175 -6.559730869743515" fill="#ff4806" stroke="none" /><path d="M 113.20401910651253 116.32954008644616 l 2.838821629854864 3.51079858557015 a25.514932441861472,25.514932441861472 0 0,0 -0.3438957357853272,0.27321157107738203 l -2.7779684013521857 -3.5591440706526583" fill="#ff0a01" stroke="none" /><path d="M 112.04921762599082 117.19931262002967 l 3.34354193705844 4.772643736602678 a26.827297909100004,26.827297909100004 0 0,0 -0.38049171363792167,0.2617056701488423 l -3.2608933387976347 -4.829490196116614" fill="#ff1d03" stroke="none" /><path d="M 111.45004920935366 117.60387380957326 l 9.204601045486507 14.15161038258605 a37.881728490503825,37.881728490503825 0 0,0 -0.549678668617799,0.3508309334579538 l -8.959640574821778 -14.307955744867813" fill="#ffbb11" stroke="none" /><line stroke="#e1ed5e" stroke-width="0.3" x1="143.8653032363475" x2="146.44561519142675" y1="172.8068346515853" y2="177.08958963109032" /><path d="M 144.38136562736335 173.6633856474863 a86.0,86.0 0 0,1 -40.68145358897372,12.25698825130547" fill="none" id="id102" stroke="none" /><text fill="#e1ed5e" style="font-size:6.75px; font-family:Arial;" text-anchor="middle"><textPath startOffset="21.466115282336833" xlink:href="#id102">June</textPath></text><path d="M 110.8373102113329 117.98757091392108 l 10.425939247358064 17.304784849655086 a41.202865833402285,41.202865833402285 0 0,0 -0.6106502691934156,0.3607829426207191 l -10.126521107136266 -17.481686364569555" fill="#ffe715" stroke="none" /><path d="M 110.21172684928248 118.3499491758327 l 3.6657555370042556 6.587174606984493 a28.53847683288731,28.53847683288731 0 0,0 -0.4313076919415946,0.23518334287944603 l -3.551825033194012 -6.64929860162371" fill="#ff3705" stroke="none" /><path d="M 109.89434966115114 118.52300852407294 l 3.489837726256142 6.5332534390697 a28.40691351743199,28.40691351743199 0 0,0 -0.43328537289412056,0.22667442876682178 l -3.376861450835526 -6.592357286781239" fill="#ff3505" stroke="none" /><path d="M 109.57404056367764 118.69057910512821 l 28.722121691032903 56.07173731538463 a84.0,84.0 0 0,0 -1.292584369268958,0.6481286363627916 l -27.752683414081186 -56.55783379265672" fill="#4dd2ff" stroke="none" /><path d="M 108.59647513512805 119.15986991738527 l 3.0177640984608325 6.726008818613741 a28.371980383996483,28.371980383996483 0 0,0 -0.4473036249598571,0.19608476414058584 l -2.901539798843222 -6.776958136048782" fill="#ff3405" stroke="none" /><path d="M 107.93186726928326 119.44442032107085 l 3.5381597625763628 8.673552298720159 a30.36744810416093,30.36744810416093 0 0,0 -0.48570408536095433,0.19327167935504994 l -3.388334601173542 -8.733170822481277" fill="#ff5207" stroke="none" /><path d="M 107.59598834532513 119.57807347666477 l 3.85056826886962 9.924542412079827 a31.64534725043748,31.64534725043748 0 0,0 -0.5095349657026129,0.1926625248548452 l -3.679163082406732 -9.989353187041303" fill="#ff6409" stroke="none" /><path d="M 107.2578585660854 119.70592522655815 l 5.216965376435944 14.16466423002211 a36.094848143926434,36.094848143926434 0 0,0 -0.5848747993056328,0.20971529418236645 l -4.972371016500577 -14.252367065244437" fill="#ffa30f" stroke="none" /><path d="M 106.91757812671514 119.82793768551818 l 5.243163488051094 15.028542795139773 a36.91690490980516,36.91690490980516 0 0,0 -0.601798757947838,0.20416281281860896 l -4.98369499716603 -15.116568594856505" fill="#ffae10" stroke="none" /><path d="M 106.2309692047433 120.05430185196036 l 2.1473319115329264 6.911162760593742 a28.23707157914756,28.23707157914756 0 0,0 -0.46540748200309795,0.14022345653174334 l -2.0280494550895827 -6.947101586231211" fill="#ff3204" stroke="none" /><path d="M 105.88484417918355 120.15858648285463 l 2.641332796366255 9.047909168758409 a30.425566257114873,30.425566257114873 0 0,0 -0.5040050568389749,0.14243686343313344 l -2.4851965714226742 -9.092034825530062" fill="#ff5307" stroke="none" /><path d="M 105.53697534728816 120.25689768951611 l 2.277659231036675 8.332764211653753 a29.638442624671658,29.638442624671658 0 0,0 -0.4932818551193253,0.13028022130602782 l -2.133886933105852 -8.370735782263365" fill="#ff4706" stroke="none" /><path d="M 105.18746579009965 120.34920634021253 l 1.9980289589353477 7.837796952163484 a29.088459728779483,29.088459728779483 0 0,0 -0.4862575352222582,0.11951027157057655 l -1.8628181389698784 -7.87102848204809" fill="#ff3f05" stroke="none" /><line stroke="#e1ed5e" stroke-width="0.3" x1="102.19456741930631" x2="102.32365962044197" y1="184.97166512339345" y2="189.96999836594603" /><path d="M 102.22038585953345 185.97133177190398 a86.0,86.0 0 0,1 -42.740103519485714,-10.115201625700543" fill="none" id="id103" stroke="none" /><text fill="#e1ed5e" style="font-size:6.75px; font-family:Arial;" text-anchor="middle"><textPath startOffset="22.20632615414155" xlink:href="#id103">July</textPath></text><line stroke="#e1ed5e" stroke-width="0.3" x1="58.666819895761336" x2="56.23545636021788" y1="174.27360380694188" y2="178.64263932499728" /><path d="M 58.180547188652646 175.14741091055294 a86.0,86.0 0 0,1 -31.652253787137756,-30.449443065178592" fill="none" id="id104" stroke="none" /><text fill="#e1ed5e" style="font-size:6.75px; font-family:Arial;" text-anchor="middle"><textPath startOffset="22.20632615414155" xlink:href="#id104">August</textPath></text><line stroke="#e1ed5e" stroke-width="0.3" x1="26.63291911575756" x2="22.317208475507996" y1="142.92168965132927" y2="145.44649492493687" /><path d="M 25.769776987707644 143.4266507060508 a86.0,86.0 0 0,1 -11.730757126820373,-40.83630448921669" fill="none" id="id105" stroke="none" /><text fill="#e1ed5e" style="font-size:6.75px; font-family:Arial;" text-anchor="middle"><textPath startOffset="21.46611528233685" xlink:href="#id105">September</textPath></text><line stroke="#e1ed5e" stroke-width="0.3" x1="15.007084014347285" x2="10.007500721073583" y1="101.09737516637583" y2="101.16192664675087" /><path d="M 14.007167355692545 101.11028546245083 a86.0,86.0 0 0,1 10.666146001902534,-42.60595125391555" fill="none" id="id106" stroke="none" /><text fill="#e1ed5e" style="font-size:6.75px; font-family:Arial;" text-anchor="middle"><textPath startOffset="22.20632615414155" xlink:href="#id106">October</textPath></text><line stroke="#e1ed5e" stroke-width="0.3" x1="26.266209847984243" x2="21.928928074336255" y1="57.711370442889674" y2="55.22380399835377" /><path d="M 25.398753493254645 57.213857153982495 a86.0,86.0 0 0,1 29.58750427330803,-30.492523968695096" fill="none" id="id107" stroke="none" /><text fill="#e1ed5e" style="font-size:6.75px; font-family:Arial;" text-anchor="middle"><textPath startOffset="21.46611528233685" xlink:href="#id107">November</textPath></text><line stroke="#e1ed5e" stroke-width="0.3" x1="56.762969772571076" x2="54.21961505331055" y1="26.818313649435495" y2="22.513508569990535" /><path d="M 56.25429882871897 25.957352633546506 a86.0,86.0 0 0,1 42.265352541879196,-11.944610805530505" fill="none" id="id108" stroke="none" /><text fill="#e1ed5e" style="font-size:6.75px; font-family:Arial;" text-anchor="middle"><textPath startOffset="22.20632615414155" xlink:href="#id108">December</textPath></text></svg>