<?xml version="1.0" encoding="utf-8" ?>
<svg baseProfile="full" height="200mm" version="1.1" viewBox="0,0,200,200" width="200mm" xmlns="http://www.w3.org/2000/svg" xmlns:ev="http://www.w3.org/2001/xml-events" xmlns:xlink="http://www.w3.org/1999/xlink"><defs /><rect fill="#1a1a1a" height="200" width="200" x="0" y="0" /><text alignment-baseline="middle" fill="#e1ed5e" style="dominant-baseline: central; font-size:9.0px; font-family:Arial;" text-anchor="middle" x="100.0" y="100.0">2022</text><line stroke="#e1ed5e" stroke-width="0.3" x1="100.0" x2="100.0" y1="15.0" y2="10.0" /><path d="M 100.0 14.0 a86.0,86.0 0 0,1 42.46469731375804,11.215312516191453" fill="none" id="id49" stroke="none" /><text fill="#e1ed5e" style="font-size:6.75px; font-family:Arial;" text-anchor="middle"><textPath startOffset="22.20632615414155" xlink:href="#id49">January</textPath></text><path d="M 101.08401301168833 79.027996857942 l 0.6193430319478648 -11.982203047353135 a32.99819885062842,32.99819885062842 0 0,0 0.5670001173925634,0.03420299549127563 l -0.8255051981800402 11.969766782481555" fill="#ff710a" stroke="none" /><path d="M 101.80526077348638 79.07773832637324 l 1.3185834542780228 -15.281863138055753 a36.33864411531094,36.33864411531094 0 0,0 0.6227316634623986,0.05913587503321309 l -1.5814402448306657 15.256901718507361" fill="#ffa00e" stroke="none" /><path d="M 102.88285421437855 79.19881850522331 l 2.652675754959249 -19.14033305967768 a40.32327711068542,40.32327711068542 0 0,0 0.6867073669310606,0.10120281525899373 l -2.9817521023189655 19.09183576025772" fill="#ffd614" stroke="none" /><path d="M 103.59715602781102 79.31037775812273 l 2.14596584045712 -12.342868154665133 a33.52803111713311,33.52803111713311 0 0,0 0.5677491164317281,0.10375252206687408 l -2.3581100779917485 12.304100151247521" fill="#ff780b" stroke="none" /><path d="M 104.307194497241 79.44645832069477 l 3.0173705617568762 -14.398618786011244 a35.71138158202121,35.71138158202121 0 0,0 0.6005587731533565,0.13125888678475114 l -3.264772059063761 14.344546401130623" fill="#ff970d" stroke="none" /><path d="M 110.05341064243156 81.56283822128135 l 2.8639749273014847 -5.252304013325391 a26.98239499135635,26.98239499135635 0 0,0 0.40586136175775456,0.22586140840141755 l -2.953960378131274 5.202227207363793" fill="#ff1702" stroke="none" /><line stroke="#e1ed5e" stroke-width="0.3" x1="143.23703022742887" x2="145.7803849466894" y1="26.81831364943548" y2="22.513508569990506" /><path d="M 143.74570117128098 25.957352633546492 a86.0,86.0 0 0,1 28.547481713284135,27.462654790039103" fill="none" id="id50" stroke="none" /><text fill="#e1ed5e" style="font-size:6.75px; font-family:Arial;" text-anchor="middle"><textPath startOffset="19.985693538727396" xlink:href="#id50">February</textPath></text><path d="M 117.2510076193507 88.02491185347247 l 11.089190789990646 -7.697755407332978 a34.49909592113255,34.49909592113255 0 0,0 0.33443675648048476,0.49074467280688444 l -11.220052012139863 7.505732711255687" fill="#ff860c" stroke="none" /><line stroke="#e1ed5e" stroke-width="0.3" x1="172.23445277983987" x2="176.4835382374775" y1="55.19839476539836" y2="52.563006222186495" /><path d="M 173.08426987136738 54.67131705675599 a86.0,86.0 0 0,1 12.851231095245387,41.99856678651699" fill="none" id="id51" stroke="none" /><text fill="#e1ed5e" style="font-size:6.75px; font-family:Arial;" text-anchor="middle"><textPath startOffset="22.20632615414155" xlink:href="#id51">March</textPath></text><path d="M 118.03404312379186 89.2402003453031 l 6.318066030803377 -3.7695997636217577 a28.35716254730645,28.35716254730645 0 0,0 0.24649169916586489,0.42133421533269855 l -6.382017404439569 3.6602861359351637" fill="#ff2c04" stroke="none" /><path d="M 118.3937258080291 89.86733742301442 l 6.571827372517803 -3.6202621467181606 a28.50301359622483,28.50301359622483 0 0,0 0.23303507534941817,0.43177860272821916 l -6.633170547085686 3.506602560657483" fill="#ff2e04" stroke="none" /><path d="M 118.56541770881063 90.18545643968196 l 6.4975926006348566 -3.434929750374919 a28.349656590197636,28.349656590197636 0 0,0 0.22435454754480896,0.4333815752383439 l -6.555756581339781 3.3225754528762304" fill="#ff2c04" stroke="none" /><path d="M 118.89224826269711 90.83032412892265 l 6.797607992852892 -3.299335321364603 a28.555996822875297,28.555996822875297 0 0,0 0.21082730114607895,0.44405606387878865 l -6.8533934878407266 3.181836841845274" fill="#ff2f04" stroke="none" /><path d="M 119.34039704204932 91.81776055985345 l 6.834697335291515 -2.891519236999132 a28.42118394617577,28.42118394617577 0 0,0 0.18673842940906762,0.4522019187734126 l -6.8834574515867795 2.773442747772416" fill="#ff2d04" stroke="none" /><line stroke="#e1ed5e" stroke-width="0.3" x1="184.98032266829074" x2="189.97916517819016" y1="98.17113171792111" y2="98.06355123074" /><path d="M 185.9800911702706 98.14961562048488 a86.0,86.0 0 0,1 -9.607161424134198,41.387399972396054" fill="none" id="id52" stroke="none" /><text fill="#e1ed5e" style="font-size:6.75px; font-family:Arial;" text-anchor="middle"><textPath startOffset="21.466115282336823" xlink:href="#id52">April</textPath></text><path d="M 120.99980553446 99.90962569577887 l 7.515748277542413 -0.03234461005695778 a28.515817875998692,28.515817875998692 0 0,0 -0.0021124826267490283,0.4908665658782601 l -7.515191497626161 -0.09703143402498705" fill="#ff2f04" stroke="none" /><path d="M 120.9904718944345 100.63252640178507 l 7.4266433428862655 0.22379430127354225 a28.43001448395085,28.43001448395085 0 0,0 -0.01895045551355776,0.48902705234878113 l -7.421690754521505 -0.3515986006363296" fill="#ff2d04" stroke="none" /><path d="M 120.9764740272857 100.99374915477107 l 7.426983141558242 0.3518493246206197 a28.435312806615894,28.435312806615894 0 0,0 -0.027370544546489434,0.488719459369392 l -7.419826246124224 -0.479640500325435" fill="#ff2d04" stroke="none" /><path d="M 120.92983693683757 101.71520430193887 l 8.148877455420324 0.6678021290700745 a29.176194925944962,29.176194925944962 0 0,0 -0.045327863740842876,0.5001891992702355 l -8.136174995402406 -0.8079727168888806" fill="#ff3905" stroke="none" /><path d="M 120.8583938346157 102.4346265915055 l 21.947653601421756 2.5617668120972814 a43.09665467457833,43.09665467457833 0 0,0 -0.09234687699360918,0.7360954705418283 l -21.900305215181298 -2.939180036926505" fill="#fffa17" stroke="none" /><path d="M 120.76222939487914 103.15116336523771 l 8.761693786734943 1.3297959459497954 a29.862033359809374,29.862033359809374 0 0,0 -0.08150663635185491,0.5075419023671606 l -8.7375053960218 -1.480417078010161" fill="#ff4306" stroke="none" /><path d="M 120.5718875245553 104.21870165774334 l 7.252592370475371 1.4872978194023319 a28.40352287062561,28.40352287062561 0 0,0 -0.10234189817229299,0.4781072768887113 l -7.225916433578635 -1.6119189157072122" fill="#ff2d04" stroke="none" /><path d="M 120.41448212921028 104.9243191809786 l 30.23972066647119 7.294333285695725 a52.107041069009014,52.107041069009014 0 0,0 -0.21782898340102802,0.8701185082989531 l -30.109680368775102 -7.813779633392073" fill="#95ff23" stroke="none" /><path d="M 120.13307415673323 105.97154293290107 l 20.67296940096333 6.131677823633148 a42.56314301733401,42.56314301733401 0 0,0 -0.21438290520126096,0.7006157383096009 l -20.564359723255937 -6.486620534494806" fill="#fff316" stroke="none" /><path d="M 119.9155931802556 106.66101706037122 l 20.98171899842492 7.017596058498605 a43.12417651731066,43.12417651731066 0 0,0 -0.24151421745039744,0.7019533662101034 l -20.857813950031293 -7.377722127798009" fill="#fffb17" stroke="none" /><path d="M 119.54520255179757 107.68017299344265 l 20.60081517104489 8.094969796310005 a43.13418446012241,43.13418446012241 0 0,0 -0.2774912169858069,0.6887104436697016 l -20.45842133980169 -8.44837960782252" fill="#fffb17" stroke="none" /><path d="M 119.26925614724726 108.34839909993367 l 13.626001093312398 5.903460641855398 a35.84987384946035,35.84987384946035 0 0,0 -0.2501961249475055,0.5641262119086413 l -13.52236388363362 -6.1371351902567275" fill="#ff990e" stroke="none" /><path d="M 119.12269723197855 108.67885076344098 l 20.123058300790614 9.132865399580156 a43.09856795776293,43.09856795776293 0 0,0 -0.3124140962392871,0.6729121696366693 l -19.9628695877115 -9.477897636495657" fill="#fffa17" stroke="none" /><line stroke="#e1ed5e" stroke-width="0.3" x1="174.80103733775053" x2="179.2010983576182" y1="140.37084112569926" y2="142.7455964860345" /><path d="M 175.68104954172406 140.8457921977663 a86.0,86.0 0 0,1 -30.038265399797805,32.042727171017184" fill="none" id="id53" stroke="none" /><text fill="#e1ed5e" style="font-size:6.75px; font-family:Arial;" text-anchor="middle"><textPath startOffset="22.206326154141568" xlink:href="#id53">May</textPath></text><path d="M 117.94076556474637 110.91462005526583 l 20.612433323763227 12.539982049899567 a45.127236835957575,45.127236835957575 0 0,0 -0.4094444919680169,0.660154891016873 l -20.393524192127245 -12.892933272281713" fill="#eaff1a" stroke="none" /><path d="M 117.75023020441432 111.22182372390056 l 18.741988966734983 11.848820775726299 a43.17333317759193,43.17333317759193 0 0,0 -0.4025299365702256,0.624735400574509 l -18.535254166787706 -12.169677776222262" fill="#fffb17" stroke="none" /><path d="M 117.14729908036423 112.12312394758627 l 28.91170181787442 20.440545361170763 a56.40766014110171,56.40766014110171 0 0,0 -0.5673541755528542,0.788005327644426 l -28.555567849945962 -20.93518429426632" fill="#65ff29" stroke="none" /><path d="M 115.32070863581623 114.36230785411682 l 14.101630336408356 13.219490100019094 a40.329016960239215,40.329016960239215 0 0,0 -0.4791345486145863,0.5023706586677119 l -13.871989236414805 -13.460267875269313" fill="#ffd614" stroke="none" /><path d="M 115.07121518719521 114.62390073753431 l 10.867604490459238 10.545053424642584 a36.142753352333784,36.142753352333784 0 0,0 -0.43708528810145875,0.4427650892190507 l -10.684478577302244 -10.730559007842299" fill="#ff9d0e" stroke="none" /><path d="M 114.0293411484842 115.62618273729858 l 24.618239233563788 27.42032579169013 a57.85012848666075,57.85012848666075 0 0,0 -0.7467009386498022,0.6588767609289968 l -24.1425959420074 -27.840025694391414" fill="#55ff2b" stroke="none" /><path d="M 113.20401910651253 116.32954008644616 l 4.683469216930145 5.7920923701008755 a28.4487057889081,28.4487057889081 0 0,0 -0.38343776263995033,0.3046261486843561 l -4.583073961572843 -5.871852432790358" fill="#ff2e04" stroke="none" /><path d="M 112.92097659922987 116.55440617244103 l 9.078853001113789 11.63186226722838 a35.755534270896604,35.755534270896604 0 0,0 -0.4884397895088842,0.37451480245430446 l -8.87728448311141 -11.786416411510055" fill="#ff980e" stroke="none" /><path d="M 111.1453310114006 117.79835938074945 l 7.951729960460632 12.698388893984548 a35.9826262673457,35.9826262673457 0 0,0 -0.5277808253049784,0.3242060896945692 l -7.731969935223344 -12.833383450507496" fill="#ff9b0e" stroke="none" /><line stroke="#e1ed5e" stroke-width="0.3" x1="143.8653032363475" x2="146.44561519142675" y1="172.8068346515853" y2="177.08958963109032" /><path d="M 144.38136562736335 173.6633856474863 a86.0,86.0 0 0,1 -40.68145358897372,12.25698825130547" fill="none" id="id54" stroke="none" /><text fill="#e1ed5e" style="font-size:6.75px; font-family:Arial;" text-anchor="middle"><textPath startOffset="21.466115282336833" xlink:href="#id54">June</textPath></text><path d="M 105.53697534728816 120.25689768951611 l 3.8938236504667714 14.245464781986973 a35.76804419941129,35.76804419941129 0 0,0 -0.5952987280778586,0.15722380467130603 l -3.6480344795774156 -14.310379935961862" fill="#ff980e" stroke="none" /><path d="M 105.18746579009965 120.34920634021253 l 6.84991248452906 26.870593118147948 a48.729949072559926,48.729949072559926 0 0,0 -0.8145946931691794,0.2002075565905654 l -6.38636450661667 -26.984521933052545" fill="#bdff1f" stroke="none" /><path d="M 104.13013068566511 120.58985236759428 l 2.9249673124128255 14.581777121883164 a35.87224454515722,35.87224454515722 0 0,0 -0.6064670738825874,0.116230858113399 l -2.6735326239585335 -14.629965178345032" fill="#ff990e" stroke="none" /><path d="M 103.7750983002368 120.6578951692458 l 2.675331717667939 14.639810084700509 a35.88225248796898,35.88225248796898 0 0,0 -0.608547672832845,0.10580381332967627 l -2.4229350733630444 -14.68369247655119" fill="#ff990e" stroke="none" /><path d="M 103.41894727170886 120.7198165907248 l 1.2010803458044084 7.27889683521005 a28.37732560855955,28.37732560855955 0 0,0 -0.4826363330514801,0.07537786930513207 l -1.0756081491444112 -7.298493011862288" fill="#ff2d04" stroke="none" /><path d="M 102.70371172650421 120.8252237178851 l 1.967792546038421 15.156837764883303 a36.28404195673504,36.28404195673504 0 0,0 -0.6200641732916828,0.07508113613986213 l -1.7066009496953578 -15.188464429748516" fill="#ff9f0e" stroke="none" /><path d="M 101.98527174616119 120.90594882070398 l 0.6960787753261097 7.330073215560896 a28.363049572489835,28.363049572489835 0 0,0 -0.4864339747481215,0.041971570148688464 l -0.5698004828364466 -7.3409690379882475" fill="#ff2c04" stroke="none" /><path d="M 101.62511606390274 120.93702456842531 l 1.4838001379889554 19.116394597135084 a40.17389384665701,40.17389384665701 0 0,0 -0.6899143888389858,0.047580535580637365 l -1.154522988371039 -19.13910347723201" fill="#ffd413" stroke="none" /><line stroke="#e1ed5e" stroke-width="0.3" x1="102.19456741930631" x2="102.32365962044197" y1="184.97166512339345" y2="189.96999836594603" /><path d="M 102.22038585953345 185.97133177190398 a86.0,86.0 0 0,1 -42.740103519485714,-10.115201625700543" fill="none" id="id55" stroke="none" /><text fill="#e1ed5e" style="font-size:6.75px; font-family:Arial;" text-anchor="middle"><textPath startOffset="22.20632615414155" xlink:href="#id55">July</textPath></text><path d="M 100.54218724476979 120.99299961872073 l 0.3805924947634161 14.736197087869005 a35.74111105919731,35.74111105919731 0 0,0 -0.6151561078484225,0.010590470268282533 l -0.1268766970223258 -14.740565035416449" fill="#ff970e" stroke="none" /><path d="M 99.81925306533755 120.99922214144158 l -0.2676926030505574 31.100590710306967 a52.10174274634397,52.10174274634397 0 0,0 -0.8967461931129049,-0.015438298954023988 l 0.8029984860561302 -31.091374934073784" fill="#95ff23" stroke="none" /><path d="M 98.01472825383883 120.90594882070398 l -1.4031909606510828 14.7763340035286 a35.8428094192403,35.8428094192403 0 0,0 -0.6137098053922293,-0.0636135306368997 l 1.6573333626489055 -14.74999110443594" fill="#ff990e" stroke="none" /><path d="M 95.51606077576429 120.51570834832081 l -3.15891140516719 14.453207736695125 a35.79438863710695,35.79438863710695 0 0,0 -0.600800036161013,-0.13674013219325967 l 3.4072315907210657 -14.396690870924179" fill="#ff980e" stroke="none" /><path d="M 95.16358092515715 120.4354850818985 l -3.420755848144294 14.453835373197304 a35.85311171331122,35.85311171331122 0 0,0 -0.5993389094615537,-0.14730292210242885 l 3.6690480423490586 -14.392811192780846" fill="#ff990e" stroke="none" /><path d="M 93.76903079525671 120.05430185196036 l -4.370645123295359 14.066870451492584 a35.73022006260805,35.73022006260805 0 0,0 -0.5857691477504474,-0.18754478312969172 l 4.612135616136747 -13.989552821703185" fill="#ff970e" stroke="none" /><path d="M 92.40401165467489 119.57807347666478 l -2.1808432828663418 5.620955179496213 a27.029196841564268,27.029196841564268 0 0,0 -0.4323113119332102,-0.17202559290688776 l 2.27727567084141 -5.582582742183258" fill="#ff1802" stroke="none" /><path d="M 91.7346041902142 119.30500536409082 l -5.830342159428168 13.617591855551149 a35.813227117693785,35.813227117693785 0 0,0 -0.5646199558311938,-0.24751279598541548 l 6.0638827899171055 -13.515214506271281" fill="#ff980e" stroke="none" /><path d="M 90.7491055286396 118.85261126421891 l -1.965172141672229 4.004869644650792 a25.461040508339952,25.461040508339952 0 0,0 -0.39179217840957126,-0.19645273172676395 l 2.0338182277645607 -3.970449072014726" fill="#ff0000" stroke="none" /><path d="M 90.10565033884886 118.52300852407294 l -8.346147212186265 15.624650558034515 a38.71405877680699,38.71405877680699 0 0,0 -0.5850932912254848,-0.3190395133165874 l 8.61386331528039 -15.478670392958163" fill="#ffc011" stroke="none" /><line stroke="#e1ed5e" stroke-width="0.3" x1="58.666819895761336" x2="56.23545636021788" y1="174.27360380694188" y2="178.64263932499728" /><path d="M 58.180547188652646 175.14741091055294 a86.0,86.0 0 0,1 -31.652253787137756,-30.449443065178592" fill="none" id="id56" stroke="none" /><text fill="#e1ed5e" style="font-size:6.75px; font-family:Arial;" text-anchor="middle"><textPath startOffset="22.20632615414155" xlink:href="#id56">August</textPath></text><path d="M 89.1626897886671 117.98757091392108 l -3.833287714567853 6.3624214177376786 a28.427954025136664,28.427954025136664 0 0,0 -0.4169714830052448,-0.25613794123945177 l 3.942238397505407 -6.295495009669849" fill="#ff2d04" stroke="none" /><path d="M 87.65650970185807 116.9893568818739 l -8.890219672191632 12.23633762582173 a36.12494510115404,36.12494510115404 0 0,0 -0.499926285199982,-0.36983351424143907 l 9.099530927810179 -12.081494162840523" fill="#ff9d0e" stroke="none" /><path d="M 87.36589467227662 116.77436683061367 l -4.452278079198577 5.91131257774901 a28.400432182404337,28.400432182404337 0 0,0 -0.3879651472143253,-0.2974751312013758 l 4.553371954906389 -5.833798104720268" fill="#ff2d04" stroke="none" /><path d="M 86.24171649860922 115.8653595955263 l -21.471870321149172 24.76027941996574 a53.77365789842546,53.77365789842546 0 0,0 -0.6940838659787282,-0.6124483119789118 l 21.894896540034487 -24.38700796621454" fill="#82ff25" stroke="none" /><path d="M 85.44109423537348 115.13401014063109 l -10.92928069947347 11.361008004977514 a36.764570387328874,36.764570387328874 0 0,0 -0.4522918338309467,-0.44266275421581186 l 11.12322248568021 -11.171195147839132" fill="#ffa60f" stroke="none" /><path d="M 83.50135304334701 112.99209946851258 l -17.420822883123297 13.718280312047677 a43.17377470448068,43.17377470448068 0 0,0 -0.4547497447425775,-0.587825345962268 l 17.654379445083944 -13.416376971972156" fill="#fffb17" stroke="none" /><path d="M 82.6465618267979 111.8261652097733 l -13.818495061515177 9.417142811519309 a37.72224220903612,37.72224220903612 0 0,0 -0.3610501686171681,-0.5397210141524964 l 13.978548335543076 -9.177884883160992" fill="#ffb310" stroke="none" /><path d="M 82.05923443525364 110.91462005526583 l -12.60509990630791 7.668562176987722 a35.75450404148951,35.75450404148951 0 0,0 -0.31535323468612936,-0.528550160418123 l 12.73523401669227 -7.450449922683488" fill="#ff980e" stroke="none" /><line stroke="#e1ed5e" stroke-width="0.3" x1="26.63291911575756" x2="22.317208475507996" y1="142.92168965132927" y2="145.44649492493687" /><path d="M 25.769776987707644 143.4266507060508 a86.0,86.0 0 0,1 -11.730757126820373,-40.83630448921669" fill="none" id="id57" stroke="none" /><text fill="#e1ed5e" style="font-size:6.75px; font-family:Arial;" text-anchor="middle"><textPath startOffset="21.46611528233685" xlink:href="#id57">September</textPath></text><path d="M 81.69416730710424 110.29060199501025 l -12.989503446878773 7.302033855936999 a35.90123814418539,35.90123814418539 0 0,0 -0.298191564868809,-0.5413043058318924 l 13.113271421199098 -7.077359031707284" fill="#ff9a0e" stroke="none" /><path d="M 81.02952815118164 109.00673069616217 l -13.329497500015174 6.328529688378917 a35.755534270896604,35.755534270896604 0 0,0 -0.2591857097373306,-0.5582629605310081 l 13.436457826592331 -6.098146660569082" fill="#ff980e" stroke="none" /><path d="M 80.45479744820244 107.68017299344265 l -41.531888834023505 16.319712734846743 a65.62320936317339,65.62320936317339 0 0,0 -0.40406935057576737,-1.05489756903719 l 41.80665246419278 -15.602391598976395" fill="#35ff64" stroke="none" /><path d="M 79.35854240842038 103.8639653848113 l -7.270320054525187 1.360963241212409 a28.396605616035135,28.396605616035135 0 0,0 -0.08580312627754301,-0.4812294991224202 l 7.292669623141919 -1.2356149913567753" fill="#ff2d04" stroke="none" /><path d="M 79.1416061653843 102.43462659150553 l -35.47866315699596 4.1411288634190955 a56.71952530019156,56.71952530019156 0 0,0 -0.10484387771934742,-0.970724095897048 l 35.54468933621636 -3.529808445637266" fill="#61ff29" stroke="none" /><line stroke="#e1ed5e" stroke-width="0.3" x1="15.007084014347285" x2="10.007500721073583" y1="101.09737516637583" y2="101.16192664675087" /><path d="M 14.007167355692545 101.11028546245083 a86.0,86.0 0 0,1 10.666146001902534,-42.60595125391555" fill="none" id="id58" stroke="none" /><text fill="#e1ed5e" style="font-size:6.75px; font-family:Arial;" text-anchor="middle"><textPath startOffset="22.20632615414155" xlink:href="#id58">October</textPath></text><path d="M 79.16333360222342 97.38593545837743 l -14.678152733070936 -1.8414480446898815 a35.79321123207027,35.79321123207027 0 0,0 0.08195622869552469,-0.6106690982407615 l 14.644280505317578 2.0938354849953025" fill="#ff980e" stroke="none" /><path d="M 79.21141760316559 97.0276538004421 l -14.995257202467329 -2.144018043478237 a36.14775732373966,36.14775732373966 0 0,0 0.09337156191424656,-0.6152019310733243 l 14.95612974711378 2.4018190869436533" fill="#ff9d0e" stroke="none" /><path d="M 79.26566170972629 96.67025291283419 l -14.560730963150075 -2.338321620531154 a35.747292435639864,35.747292435639864 0 0,0 0.10279583075621448,-0.6067068120615309 l 14.518323270873637 2.588614220908513" fill="#ff980e" stroke="none" /><path d="M 79.3925641242962 95.95851677861259 l -18.64908918601601 -3.6574167448121204 a40.00434752137551,40.00434752137551 0 0,0 0.1383401849268348,-0.6745958722199199 l 18.58336970517418 3.977888273195443" fill="#ffd213" stroke="none" /><path d="M 79.54389044137918 95.25157060432595 l -43.10277092319789 -10.005346515191256 a65.24879456151007,65.24879456151007 0 0,0 0.2633789333969803,-1.0918757154922223 l 42.92415918954009 10.745807462342876" fill="#34ff5f" stroke="none" /><path d="M 80.803312248108 91.48605970444005 l -13.557060912367332 -6.012704310397964 a35.830593841984765,35.830593841984765 0 0,0 0.2549051286580821,-0.561649662042867 l 13.451553466745898 6.245175981282902" fill="#ff990e" stroke="none" /><path d="M 81.43458229118936 90.18545643968196 l -13.18111695316821 -6.968151675312007 a35.90962715507172,35.90962715507172 0 0,0 0.2935901020290592,-0.5439778704509024 l 13.05921875192068 7.194010529095382" fill="#ff9a0e" stroke="none" /><line stroke="#e1ed5e" stroke-width="0.3" x1="26.266209847984243" x2="21.928928074336255" y1="57.711370442889674" y2="55.22380399835377" /><path d="M 25.398753493254645 57.213857153982495 a86.0,86.0 0 0,1 29.58750427330803,-30.492523968695096" fill="none" id="id59" stroke="none" /><text fill="#e1ed5e" style="font-size:6.75px; font-family:Arial;" text-anchor="middle"><textPath startOffset="21.46611528233685" xlink:href="#id59">November</textPath></text><path d="M 82.95767976084542 87.72973835380427 l -12.012076732972124 -8.648547988736752 a35.801600242956596,35.801600242956596 0 0,0 0.3643876430362291,-0.4970243355943511 l 11.861426477422262 8.854034768002604" fill="#ff980e" stroke="none" /><path d="M 83.17141714833178 87.43820079747576 l -11.882655825504074 -8.86988154548558 a35.82809185628183,35.82809185628183 0 0,0 0.3731650335633098,-0.4910414422557582 l 11.728214851716654 9.073107763622366" fill="#ff990e" stroke="none" /><path d="M 83.6137871275137 86.86637796730984 l -11.936525014948085 -9.567177550421544 a36.29743493902724,36.29743493902724 0 0,0 0.39495326749175047,-0.4841660061448679 l 11.770073255379943 9.771227726174494" fill="#ff9f0e" stroke="none" /><path d="M 84.80347519578584 85.50635884689758 l -16.023980301426285 -15.282824417122669 a43.143456524786245,43.143456524786245 0 0,0 0.5171785616504556,-0.5329979690598184 l 15.758537476072712 15.556386581732612" fill="#fffb17" stroke="none" /><path d="M 85.31137513191541 84.99185889309783 l -10.318513621822586 -10.542968442627247 a35.752149231416155,35.752149231416155 0 0,0 0.4435254262691894,-0.42667110866622093 l 10.135504951940968 10.719022638055781" fill="#ff980e" stroke="none" /><path d="M 86.10567301691215 84.25364557470407 l -41.68298094926353 -47.23906327588782 a84.0,84.0 0 0,0 1.092424805412906,-0.9473400263212777 l 40.863662345203856 47.94956829562878" fill="#4dd2ff" stroke="none" /><path d="M 87.22198572758235 83.33499621200491 l -9.926856777670592 -12.946542575074531 a37.3142713638275,37.3142713638275 0 0,0 0.5130780655242075,-0.38643976172901146 l 9.702532558387995 13.115498926309396" fill="#ffad10" stroke="none" /><line stroke="#e1ed5e" stroke-width="0.3" x1="56.762969772571076" x2="54.21961505331055" y1="26.818313649435495" y2="22.513508569990535" /><path d="M 56.25429882871897 25.957352633546506 a86.0,86.0 0 0,1 42.265352541879196,-11.944610805530505" fill="none" id="id60" stroke="none" /><text fill="#e1ed5e" style="font-size:6.75px; font-family:Arial;" text-anchor="middle"><textPath startOffset="22.20632615414155" xlink:href="#id60">December</textPath></text><path d="M 92.23578459929587 80.48803036053334 l -9.529220391656617 -23.947540011953837 a46.7738377797505,46.7738377797505 0 0,0 0.7506462271119085,-0.2912390741305784 l 9.115590999545033 24.108021789974966" fill="#d5ff1c" stroke="none" /><path d="M 93.25333710446033 80.11325718540243 l -5.233147754681427 -15.425442936676282 a37.288957155538945,37.288957155538945 0 0,0 0.6096161681982546,-0.20098086603297358 l 4.966848764240764 15.513237526968489" fill="#ffad10" stroke="none" /><path d="M 93.59665428221793 80.00007090966166 l -4.662807270726022 -14.56360766489045 a36.29184226510303,36.29184226510303 0 0,0 0.5965940381518364,-0.18536467172474383 l 4.411427859863457 14.641712471497717" fill="#ff9f0e" stroke="none" /><path d="M 94.98787191387505 79.60689891045804 l -7.454893609275281 -30.3321057190439 a52.23478951548848,52.23478951548848 0 0,0 0.8749981746688867,-0.20708379788693282 l 6.93167174764386 30.455935429071705" fill="#94ff23" stroke="none" /><path d="M 99.63851952072746 79.00311137660856 l -0.2586308974100903 -15.022786730879377 a36.02501284866607,36.02501284866607 0 0,0 0.6201113766826224,-0.005337494395255825 l 3.680066778453352e-15 15.025012848666073" fill="#ff9b0e" stroke="none" /></svg>