<?xml version="1.0" encoding="utf-8" ?>
<svg baseProfile="full" height="200mm" version="1.1" viewBox="0,0,200,200" width="200mm" xmlns="http://www.w3.org/2000/svg" xmlns:ev="http://www.w3.org/2001/xml-events" xmlns:xlink="http://www.w3.org/1999/xlink"><defs /><rect fill="#1a1a1a" height="200" width="200" x="0" y="0" /><text alignment-baseline="middle" fill="#e1ed5e" style="dominant-baseline: central; font-size:9.0px; font-family:Arial;" text-anchor="middle" x="100.0" y="100.0">2025</text><line stroke="#e1ed5e" stroke-width="0.3" x1="100.0" x2="100.0" y1="15.0" y2="10.0" /><path d="M 100.0 14.0 a86.0,86.0 0 0,1 42.46469731375804,11.215312516191453" fill="none" id="id85" stroke="none" /><text fill="#e1ed5e" style="font-size:6.75px; font-family:Arial;" text-anchor="middle"><textPath startOffset="22.20632615414155" xlink:href="#id85">January</textPath></text><path d="M 100.0 79.0 l 0.0 -30.030958994397636 a51.030958994397636,51.030958994397636 0 0,0 0.878414072144362,0.007560787244166458 l -0.5169335928718335 30.026509583762028" fill="#95ff23" stroke="none" /><path d="M 100.36148047927253 79.00311137660856 l 0.3082318400549879 -17.903897961079842 a38.90655100983946,38.90655100983946 0 0,0 0.6695138691137238,0.017291567980891383 l -0.6163723443635795 17.89593960095659" fill="#ffd814" stroke="none" /><path d="M 100.72285384407766 79.0124445844662 l 0.7160306156167797 -20.78944775295603 a41.801774869356436,41.801774869356436 0 0,0 0.718909248403111,0.03095774450201304 l -1.0737806964092222 20.77404228192982" fill="#fffc17" stroke="none" /><path d="M 101.08401301168833 79.027996857942 l 2.4133846956117018 -46.69087074935912 a67.75320135586837,67.75320135586837 0 0,0 1.1641869696099414,0.07022693726358109 l -3.2167337140612555 46.64241054271524" fill="#38ff84" stroke="none" /><path d="M 102.16513564639614 79.11191278185805 l 1.8473578282885916 -17.822334367197147 a38.91782166564663,38.91782166564663 0 0,0 0.6657417794843272,0.07480384593023905 l -2.1538663112826444 17.787894567796307" fill="#ffd814" stroke="none" /><path d="M 102.52436894288641 79.15227682838746 l 2.502252043480957 -20.665068810601433 a41.81601148721812,41.81601148721812 0 0,0 0.713829725272115,0.09267558539061206 l -2.8575964972609182 20.618934902046682" fill="#fffd17" stroke="none" /><path d="M 102.88285421437855 79.19881850522331 l 2.446157650177984 -17.65020547775331 a38.81890683112848,38.81890683112848 0 0,0 0.6610878680314999,0.09742716708771013 l -2.7496144986381394 17.60548382650463" fill="#ffd714" stroke="none" /><path d="M 103.59715602781102 79.31037775812273 l 8.19622695367474 -47.141919385525014 a68.84912433501248,68.84912433501248 0 0,0 1.1658611676820683,0.21305367639685427 l -9.006483242459709 46.993850227777415" fill="#3aff91" stroke="none" /><path d="M 104.66035177308747 79.52364482259891 l 3.9780285312850765 -17.47840701271018 a38.925384868885644,38.925384868885644 0 0,0 0.6520489701305413,0.1543189243726051 l -4.278301188378141 17.407342176196703" fill="#ffd814" stroke="none" /><path d="M 105.01212808612495 79.60689891045804 l 8.85278538008494 -36.019779239055666 a58.091728261381284,58.091728261381284 0 0,0 0.9690007643279422,0.24701987052922153 l -9.471495033097908 35.86205637235758" fill="#49ff2c" stroke="none" /><path d="M 105.71112130821622 79.79150937346287 l 4.856200783397719 -17.18340107234152 a38.85642625111812,38.85642625111812 0 0,0 0.6420742863545814,0.1874390910231154 l -5.151265287475728 17.097263652399704" fill="#ffd714" stroke="none" /><path d="M 106.0581310904928 79.89281104454417 l 16.269337642320295 -53.99860803072098 a77.39628548561744,77.39628548561744 0 0,0 1.272301421309156,0.39531024484672656 l -17.19642443634017 53.71055765099173" fill="#45ffec" stroke="none" /><path d="M 107.08798089147638 80.2323363322302 l 4.045564951551388 -11.282672531546245 a32.98604585471494,32.98604585471494 0 0,0 0.532830940799788,0.19624613224184825 l -4.239178218123752 11.211363131498073" fill="#ff890c" stroke="none" /><path d="M 107.76421540070413 80.48803036053334 l 6.7419386147171645 -16.942922725917562 a39.23503130737724,39.23503130737724 0 0,0 0.6253618026563705,0.25510078120327667 l -7.032584286961923 16.824361058530705" fill="#ffdc14" stroke="none" /><path d="M 108.09893153111575 80.62456947434976 l 6.910190942887342 -16.531554072101923 a38.9176733675439,38.9176733675439 0 0,0 0.6158559509069579,0.2636773779678128 l -7.193730651584614 16.41015716617132" fill="#ffd814" stroke="none" /><path d="M 108.43124777332544 80.76684994638697 l 17.869176448694994 -40.762715224615576 a65.50737488818794,65.50737488818794 0 0,0 1.0288335052583137,0.4616076040325586 l -18.568192072420086 40.44908729006649" fill="#36ff6a" stroke="none" /><path d="M 109.41281617654863 81.2277094730956 l 1.0624814304831678 -2.118941846773031 a23.37039687397015,23.37039687397015 0 0,0 0.3580561950042108,0.18341029005922152 l -1.0987981130761342 2.100339031401309" fill="#ff0000" stroke="none" /><path d="M 110.05341064243156 81.56283822128135 l 7.805651474691256 -14.314948841318682 a37.30478320229744,37.30478320229744 0 0,0 0.5611277321902832,0.31226697544378734 l -8.050903295953574 14.178466468314715" fill="#ffc312" stroke="none" /><line stroke="#e1ed5e" stroke-width="0.3" x1="143.23703022742887" x2="145.7803849466894" y1="26.81831364943548" y2="22.513508569990506" /><path d="M 143.74570117128098 25.957352633546492 a86.0,86.0 0 0,1 28.547481713284135,27.462654790039103" fill="none" id="id86" stroke="none" /><text fill="#e1ed5e" style="font-size:6.75px; font-family:Arial;" text-anchor="middle"><textPath startOffset="19.985693538727396" xlink:href="#id86">February</textPath></text><path d="M 110.99172775467656 82.1063720568725 l 7.544192862383062 -12.281324940316708 a35.413389200131824,35.413389200131824 0 0,0 0.5166659143098727,0.32353614814182025 l -7.754477929065198 12.149644450851945" fill="#ffaa0f" stroke="none" /><path d="M 111.90073688211348 82.69761687909136 l 15.339714238135159 -22.302283912551847 a48.06840779624312,48.06840779624312 0 0,0 0.6776932722981929,0.474767445768811 l -15.721338650017001 22.034931624019098" fill="#b6ff1f" stroke="none" /><path d="M 112.48926042617603 83.11751280151076 l 10.645975883403064 -14.390808217136962 a38.900619085730426,38.900619085730426 0 0,0 0.5348906372468912,0.4028685385285038 l -10.89211267440834 14.205423089102611" fill="#ffd814" stroke="none" /><path d="M 112.77801427241765 83.33499621200491 l 9.387157243623195 -12.242669924165586 a36.427303328468525,36.427303328468525 0 0,0 0.4943140739021931,0.38581997536058 l -9.596503872684819 12.079271559581782" fill="#ffb811" stroke="none" /><path d="M 113.06298171725822 83.55741782278167 l 23.163745834708628 -29.15657410101131 a58.23795019066899,58.23795019066899 0 0,0 0.7795471368174999,0.6303395707702085 l -23.66219637009062 28.753528432976967" fill="#48ff2c" stroke="none" /><path d="M 113.6212207817346 84.01681056812373 l 18.26638988755123 -21.433847559444747 a49.161513111435426,49.161513111435426 0 0,0 0.6393482904114964,0.5544365372021774 l -18.632631976609492 21.116246028822896" fill="#aaff21" stroke="none" /><path d="M 113.89432698308785 84.25364557470407 l 9.933387376633728 -11.257446184088156 a36.01340332376065,36.01340332376065 0 0,0 0.4612957044459841,0.4141558381085369 l -10.125694068675703 11.084791337210321" fill="#ffb210" stroke="none" /><path d="M 114.16331599549186 84.49514656593476 l 10.09278791339217 -11.048768338435728 a35.96461324796384,35.96461324796384 0 0,0 0.45348314525848726,0.42146316113919663 l -10.281478942445505 10.873400591221891" fill="#ffb110" stroke="none" /><path d="M 114.68862486808459 84.99185889309783 l 31.384877235675937 -32.06758089378921 a65.87026034555811,65.87026034555811 0 0,0 0.8035048825804779,0.8000543772616665 l -31.932217918423735 31.522590665877427" fill="#36ff6e" stroke="none" /><path d="M 115.4437574822437 85.77008943001954 l 10.94186691312941 -10.081859147391837 a35.87845205028012,35.87845205028012 0 0,0 0.41457783594538594,0.4577872011407472 l -11.113788389690832 9.892019158981542" fill="#ffb010" stroke="none" /><path d="M 115.68641384162765 86.03803664274999 l 33.25263475981344 -29.5970814448664 a65.51656937055694,65.51656937055694 0 0,0 0.7425465038408994,0.8488590160323319 l -33.757173127232186 29.02030687263112" fill="#36ff6a" stroke="none" /><path d="M 116.38621287248628 86.86637796730983 l 30.329845522407265 -24.30950522252901 a59.869674214961634,59.869674214961634 0 0,0 0.6376003968735685,0.8096877546953696 l -30.7437999998748 23.7838250738806" fill="#37ff2e" stroke="none" /><path d="M 116.82858285166822 87.43820079747576 l 12.106145472317133 -9.036706767303388 a36.106979426580665,36.106979426580665 0 0,0 0.3674957834600758,0.5012638356394752 l -12.259903868290834 8.826980487992419" fill="#ffb310" stroke="none" /><path d="M 117.04232023915458 87.72973835380427 l 12.021731806570909 -8.655499523363957 a35.81349748128619,35.81349748128619 0 0,0 0.3558964269061835,0.5033902565195122 l -12.168940853280974 8.447282766512652" fill="#ffaf10" stroke="none" /><path d="M 117.45458315368197 88.32363383020206 l 10.002878857546245 -6.691496168340299 a33.03468763240902,33.03468763240902 0 0,0 0.3121044369604712,0.47535646974543555 l -10.11657992986464 6.518321634617189" fill="#ff8a0c" stroke="none" /><line stroke="#e1ed5e" stroke-width="0.3" x1="172.23445277983987" x2="176.4835382374775" y1="55.19839476539836" y2="52.563006222186495" /><path d="M 173.08426987136738 54.67131705675599 a86.0,86.0 0 0,1 12.851231095245387,41.99856678651699" fill="none" id="id87" stroke="none" /><text fill="#e1ed5e" style="font-size:6.75px; font-family:Arial;" text-anchor="middle"><textPath startOffset="22.20632615414155" xlink:href="#id87">March</textPath></text><path d="M 118.03404312379186 89.2402003453031 l 53.93466008997791 -32.17948038766355 a83.80498799491549,83.80498799491549 0 0,0 0.728466180457247,1.2451848381832515 l -54.480585944905485 31.246316137126406" fill="#4dd4ff" stroke="none" /><path d="M 118.3937258080291 89.86733742301442 l 13.128553186307972 -7.232205206777605 a35.98878583870816,35.98878583870816 0 0,0 0.2942372879746381,0.5451770077175512 l -13.251098573501075 7.005147215727596" fill="#ffb210" stroke="none" /><path d="M 118.56541770881063 90.18545643968196 l 15.789957247276682 -8.347306031547653 a38.86057859799445,38.86057859799445 0 0,0 0.3075362659488832,0.5940621789858125 l -15.931302946385681 8.074271130301495" fill="#ffd714" stroke="none" /><path d="M 118.73160827565052 90.50648371742162 l 23.049640379681534 -11.681972686591624 a46.84094439998117,46.84094439998117 0 0,0 0.35831089055538595,0.7223328909327482 l -23.247311283190328 11.283480207159927" fill="#c5ff1e" stroke="none" /><path d="M 119.04729006885535 91.15688171328212 l 43.201954805389846 -20.057446239356874 a68.63097782590273,68.63097782590273 0 0,0 0.4882528129395132,1.075800352949314 l -43.54080993529271 19.310823877565497" fill="#39ff8e" stroke="none" /><path d="M 119.47837535516314 92.15188598940014 l 16.570557722638554 -6.676512997374881 a38.86502754107622,38.86502754107622 0 0,0 0.24467653928360156,0.6226751043308496 l -16.683027811803857 6.390288888148247" fill="#ffd714" stroke="none" /><path d="M 119.61058180528143 92.48833698450437 l 22.245052648526595 -8.520774187978889 a44.82112424085495,44.82112424085495 0 0,0 0.26977068772584,0.7228513215576791 l -22.38842792475406 8.136599729391875" fill="#ddff1b" stroke="none" /><path d="M 119.85752413597 93.16781622104841 l 21.09313873276447 -7.257309587559477 a43.30670401581846,43.30670401581846 0 0,0 0.23646018477517608,0.7069858552573717 l -21.214936211311418 6.893150629379791" fill="#efff19" stroke="none" /><path d="M 119.97218684219823 93.5106431181261 l 35.65530401300483 -11.585110548997458 a58.49020526340568,58.49020526340568 0 0,0 0.3028804321746367,0.9602137395354138 l -35.849439928947675 10.969646643035624" fill="#45ff2d" stroke="none" /><path d="M 120.28053869075195 94.5502522615342 l 11.492480301582251 -3.0882374224837905 a32.90018125323667,32.90018125323667 0 0,0 0.14225986380599007,0.548185286695153 l -11.543936497258544 2.8899557102397875" fill="#ff880c" stroke="none" /><path d="M 120.37134235888165 94.90015583598534 l 18.915253166453233 -4.7353209117188415 a40.49897603690975,40.49897603690975 0 0,0 0.16347546623585793,0.6777113467639001 l -18.99396143294991 4.409024333295535" fill="#ffec16" stroke="none" /><path d="M 120.53481517161879 95.60439243477599 l 12.081327538095463 -2.586084865170731 a33.35501153429688,33.35501153429688 0 0,0 0.11534592487543041,0.562467693964034 l -12.12405275888589 2.3777415150432857" fill="#ff8e0d" stroke="none" /><path d="M 120.67395015179393 96.31383870115 l 62.02185045538181 -11.058483896549978 a84.0,84.0 0 0,0 0.2415525539191079,1.4256568467366484 l -62.20301487082114 9.98924126149749" fill="#4dd2ff" stroke="none" /><path d="M 120.83666639777658 97.38593545837742 l 14.739481708007723 -1.8491420728849883 a35.855020950049436,35.855020950049436 0 0,0 0.07155577481264266,0.6130461802194684 l -14.769127835823955 1.595152154340667" fill="#ffb010" stroke="none" /><path d="M 120.94382443527127 98.46500227214037 l 11.325697706948823 -0.8300738148527328 a32.35607551433549,32.35607551433549 0 0,0 0.03592974087670505,0.555817188482897 l -11.338308038829943 0.6349975621168005" fill="#ff810b" stroke="none" /><path d="M 120.96714384426684 98.82574320788733 l 31.316567899141873 -1.7538722886798968 a52.36564191893038,52.36564191893038 0 0,0 0.042656532655698215,0.9004119853087059 l -31.342118040031067 1.214549196748191" fill="#86ff25" stroke="none" /><line stroke="#e1ed5e" stroke-width="0.3" x1="184.98032266829074" x2="189.97916517819016" y1="98.17113171792111" y2="98.06355123074" /><path d="M 185.9800911702706 98.14961562048488 a86.0,86.0 0 0,1 -9.607161424134198,41.387399972396054" fill="none" id="id88" stroke="none" /><text fill="#e1ed5e" style="font-size:6.75px; font-family:Arial;" text-anchor="middle"><textPath startOffset="21.466115282336823" xlink:href="#id88">April</textPath></text><line stroke="#e1ed5e" stroke-width="0.3" x1="174.80103733775053" x2="179.2010983576182" y1="140.37084112569926" y2="142.7455964860345" /><path d="M 175.68104954172406 140.8457921977663 a86.0,86.0 0 0,1 -30.038265399797805,32.042727171017184" fill="none" id="id89" stroke="none" /><text fill="#e1ed5e" style="font-size:6.75px; font-family:Arial;" text-anchor="middle"><textPath startOffset="22.206326154141568" xlink:href="#id89">May</textPath></text><line stroke="#e1ed5e" stroke-width="0.3" x1="143.8653032363475" x2="146.44561519142675" y1="172.8068346515853" y2="177.08958963109032" /><path d="M 144.38136562736335 173.6633856474863 a86.0,86.0 0 0,1 -40.68145358897372,12.25698825130547" fill="none" id="id90" stroke="none" /><text fill="#e1ed5e" style="font-size:6.75px; font-family:Arial;" text-anchor="middle"><textPath startOffset="21.466115282336833" xlink:href="#id90">June</textPath></text><line stroke="#e1ed5e" stroke-width="0.3" x1="102.19456741930631" x2="102.32365962044197" y1="184.97166512339345" y2="189.96999836594603" /><path d="M 102.22038585953345 185.97133177190398 a86.0,86.0 0 0,1 -42.740103519485714,-10.115201625700543" fill="none" id="id91" stroke="none" /><text fill="#e1ed5e" style="font-size:6.75px; font-family:Arial;" text-anchor="middle"><textPath startOffset="22.20632615414155" xlink:href="#id91">July</textPath></text><line stroke="#e1ed5e" stroke-width="0.3" x1="58.666819895761336" x2="56.23545636021788" y1="174.27360380694188" y2="178.64263932499728" /><path d="M 58.180547188652646 175.14741091055294 a86.0,86.0 0 0,1 -31.652253787137756,-30.449443065178592" fill="none" id="id92" stroke="none" /><text fill="#e1ed5e" style="font-size:6.75px; font-family:Arial;" text-anchor="middle"><textPath startOffset="22.20632615414155" xlink:href="#id92">August</textPath></text><line stroke="#e1ed5e" stroke-width="0.3" x1="26.63291911575756" x2="22.317208475507996" y1="142.92168965132927" y2="145.44649492493687" /><path d="M 25.769776987707644 143.4266507060508 a86.0,86.0 0 0,1 -11.730757126820373,-40.83630448921669" fill="none" id="id93" stroke="none" /><text fill="#e1ed5e" style="font-size:6.75px; font-family:Arial;" text-anchor="middle"><textPath startOffset="21.46611528233685" xlink:href="#id93">September</textPath></text><line stroke="#e1ed5e" stroke-width="0.3" x1="15.007084014347285" x2="10.007500721073583" y1="101.09737516637583" y2="101.16192664675087" /><path d="M 14.007167355692545 101.11028546245083 a86.0,86.0 0 0,1 10.666146001902534,-42.60595125391555" fill="none" id="id94" stroke="none" /><text fill="#e1ed5e" style="font-size:6.75px; font-family:Arial;" text-anchor="middle"><textPath startOffset="22.20632615414155" xlink:href="#id94">October</textPath></text><line stroke="#e1ed5e" stroke-width="0.3" x1="26.266209847984243" x2="21.928928074336255" y1="57.711370442889674" y2="55.22380399835377" /><path d="M 25.398753493254645 57.213857153982495 a86.0,86.0 0 0,1 29.58750427330803,-30.492523968695096" fill="none" id="id95" stroke="none" /><text fill="#e1ed5e" style="font-size:6.75px; font-family:Arial;" text-anchor="middle"><textPath startOffset="21.46611528233685" xlink:href="#id95">November</textPath></text><line stroke="#e1ed5e" stroke-width="0.3" x1="56.762969772571076" x2="54.21961505331055" y1="26.818313649435495" y2="22.513508569990535" /><path d="M 56.25429882871897 25.957352633546506 a86.0,86.0 0 0,1 42.265352541879196,-11.944610805530505" fill="none" id="id96" stroke="none" /><text fill="#e1ed5e" style="font-size:6.75px; font-family:Arial;" text-anchor="middle"><textPath startOffset="22.20632615414155" xlink:href="#id96">December</textPath></text></svg>