<?xml version="1.0" encoding="utf-8" ?>
<svg baseProfile="full" height="200mm" version="1.1" viewBox="0,0,200,200" width="200mm" xmlns="http://www.w3.org/2000/svg" xmlns:ev="http://www.w3.org/2001/xml-events" xmlns:xlink="http://www.w3.org/1999/xlink"><defs /><rect fill="#1a1a1a" height="200" width="200" x="0" y="0" /><text alignment-baseline="middle" fill="#e1ed5e" style="dominant-baseline: central; font-size:9.0px; font-family:Arial;" text-anchor="middle" x="100.0" y="100.0">2025</text><line stroke="#e1ed5e" stroke-width="0.3" x1="100.0" x2="100.0" y1="15.0" y2="10.0" /><path d="M 100.0 14.0 a86.0,86.0 0 0,1 42.46469731375804,11.215312516191453" fill="none" id="id85" stroke="none" /><text fill="#e1ed5e" style="font-size:6.75px; font-family:Arial;" text-anchor="middle"><textPath startOffset="22.20632615414155" xlink:href="#id85">January</textPath></text><path d="M 100.0 79.0 l 0.0 -29.949672866590134 a50.949672866590134,50.949672866590134 0 0,0 0.8770148650758827,0.007548743827182621 l -0.5155343858033543 29.94523549937151" fill="#95ff23" stroke="none" /><path d="M 100.36148047927253 79.00311137660856 l 0.3073975352713904 -17.855436686893164 a38.85808255452811,38.85808255452811 0 0,0 0.6686798115526396,0.01727002673479807 l -0.6147039820188978 17.847499868016005" fill="#ffd714" stroke="none" /><path d="M 100.72285384407766 79.0124445844662 l 0.7140925038120264 -20.733176033248064 a41.74546978329612,41.74546978329612 0 0,0 0.7179409104024543,0.030916045830751675 l -1.0708742466038121 20.71781226089312" fill="#fffc17" stroke="none" /><path d="M 101.08401301168833 79.027996857942 l 2.4068522802848142 -46.5644904999677 a67.62665239346155,67.62665239346155 0 0,0 1.1620125092139248,0.07009576787429961 l -3.208026838338351 46.51616146271309" fill="#38ff83" stroke="none" /><path d="M 102.16513564639614 79.11191278185805 l 1.8423575029721588 -17.77409386480526 a38.86932270355163,38.86932270355163 0 0,0 0.6649121393876729,0.07471062619868524 l -2.148036345869557 17.739747285135973" fill="#ffd714" stroke="none" /><path d="M 102.52436894288641 79.15227682838746 l 2.4954790869646204 -20.60913375288974 a41.75966786627322,41.75966786627322 0 0,0 0.7128678986887205,0.09255071269547968 l -2.849861714161187 20.56312471703012" fill="#fffc17" stroke="none" /><path d="M 102.88285421437855 79.19881850522331 l 2.4395365268423372 -17.60243088425595 a38.77067560620039,38.77067560620039 0 0,0 0.6602664879292995,0.09730611701202521 l -2.7421719952002923 17.557830283082957" fill="#ffd614" stroke="none" /><path d="M 103.59715602781102 79.31037775812273 l 8.174041862888267 -47.01431826279773 a68.71960898930215,68.71960898930215 0 0,0 1.1636680110712758,0.21265289104453625 l -8.982104995062443 46.866649890402456" fill="#3aff8f" stroke="none" /><path d="M 104.66035177308747 79.52364482259891 l 3.9672610251366316 -17.43109743373298 a38.87686543513321,38.87686543513321 0 0,0 0.6512362088202509,0.15412657002972416 l -4.266720920919406 17.360224951562387" fill="#ffd814" stroke="none" /><path d="M 105.01212808612495 79.60689891045804 l 8.828823153504295 -35.92228290604247 a57.99133043643611,57.99133043643611 0 0,0 0.9673260754863398,0.24659295505499454 l -9.445858117675659 35.7649869548186" fill="#4aff2c" stroke="none" /><path d="M 105.71112130821622 79.79150937346287 l 4.843056289490224 -17.13688999901901 a38.80809347071293,38.80809347071293 0 0,0 0.641275622182904,0.18720593905058916 l -5.137322129396555 17.050985731049717" fill="#ffd714" stroke="none" /><path d="M 106.0581310904928 79.89281104454417 l 16.225300704998926 -53.852447604920705 a77.24363515997493,77.24363515997493 0 0,0 1.2697920343914288,0.39453056611631915 l -17.149878112101074 53.565176903921866" fill="#44ffeb" stroke="none" /><path d="M 107.08798089147638 80.2323363322302 l 4.0346146415807125 -11.252133221710006 a32.95360269312844,32.95360269312844 0 0,0 0.532306879189409,0.19605311592800784 l -4.227703846542698 11.181016837975674" fill="#ff890c" stroke="none" /><path d="M 107.76421540070413 80.48803036053334 l 6.72368991063787 -16.897062565994318 a39.18567373988492,39.18567373988492 0 0,0 0.6245750991326772,0.2547798650830131 l -7.013548879358934 16.778821814727724" fill="#ffdb14" stroke="none" /><path d="M 108.09893153111575 80.62456947434976 l 6.891486822773746 -16.48680738194754 a38.869174806853955,38.869174806853955 0 0,0 0.6150884814097646,0.2633487875817133 l -7.174259061973825 16.365739066403037" fill="#ffd714" stroke="none" /><path d="M 108.43124777332544 80.76684994638697 l 17.820809156764877 -40.65238097654355 a65.38690480382559,65.38690480382559 0 0,0 1.026941448686289,0.46075869340081643 l -18.517932723917948 40.339601952626204" fill="#35ff69" stroke="none" /><path d="M 109.41281617654863 81.2277094730956 l 1.0596055649016711 -2.1132064129560315 a23.3639808156855,23.3639808156855 0 0,0 0.35795789502972963,0.18335993699430053 l -1.0958239475201563 2.0946539506492305" fill="#ff0000" stroke="none" /><path d="M 110.05341064243156 81.56283822128135 l 7.784523571865682 -14.27620193479165 a37.26065032290779,37.26065032290779 0 0,0 0.560463898215089,0.31189755255530954 l -8.029111559152806 14.140088984676161" fill="#ffc312" stroke="none" /><line stroke="#e1ed5e" stroke-width="0.3" x1="143.23703022742887" x2="145.7803849466894" y1="26.81831364943548" y2="22.513508569990506" /><path d="M 143.74570117128098 25.957352633546492 a86.0,86.0 0 0,1 28.547481713284135,27.462654790039103" fill="none" id="id86" stroke="none" /><text fill="#e1ed5e" style="font-size:6.75px; font-family:Arial;" text-anchor="middle"><textPath startOffset="19.985693538727396" xlink:href="#id86">February</textPath></text><path d="M 110.99172775467656 82.1063720568725 l 7.523772661172355 -12.248082533741208 a35.3743758407223,35.3743758407223 0 0,0 0.5160967263991729,0.3231797227243574 l -7.733488539943791 12.116758469693906" fill="#ffaa0f" stroke="none" /><path d="M 111.90073688211348 82.69761687909136 l 15.298193553686682 -22.241917332155495 a47.995140537076296,47.995140537076296 0 0,0 0.6766603125873666,0.4740437914792709 l -15.678785005857698 21.97528869791229" fill="#b7ff1f" stroke="none" /><path d="M 112.48926042617603 83.11751280151076 l 10.617159948605405 -14.351855978674998 a38.85216668662098,38.85216668662098 0 0,0 0.5342244078848681,0.40236674838541114 l -10.862630510248657 14.16697264078374" fill="#ffd714" stroke="none" /><path d="M 112.77801427241765 83.33499621200491 l 9.36174860903392 -12.209532146835656 a36.385545562746934,36.385545562746934 0 0,0 0.4937474261021963,0.385377697764664 l -9.570528590295547 12.046576059847768" fill="#ffb711" stroke="none" /><path d="M 113.06298171725822 83.55741782278167 l 23.101047497143995 -29.07765470955113 a58.13715658034664,58.13715658034664 0 0,0 0.7781979586599748,0.629248629195875 l -23.59814885436846 28.675699983091125" fill="#49ff2c" stroke="none" /><path d="M 113.6212207817346 84.01681056812373 l 18.216947440400013 -21.37583161421808 a49.08528709566099,49.08528709566099 0 0,0 0.6383569667156656,0.5535768710618189 l -18.58219820576244 21.05908974973659" fill="#abff21" stroke="none" /><path d="M 113.89432698308785 84.25364557470407 l 9.906500236732235 -11.226975155524716 a35.97276587952757,35.97276587952757 0 0,0 0.4607751793987994,0.4136885055817097 l -10.098286403727025 11.054787641173709" fill="#ffb210" stroke="none" /><path d="M 114.16331599549186 84.49514656593476 l 10.065469316992536 -11.018862147446589 a35.9241078659915,35.9241078659915 0 0,0 0.4529724068865752,0.42098848548478296 l -10.253649607673957 10.843969075887165" fill="#ffb110" stroke="none" /><path d="M 114.68862486808459 84.99185889309783 l 31.299926397353477 -31.980782151215063 a65.74880802304371,65.74880802304371 0 0,0 0.8020233712940626,0.7985792280555378 l -31.84578556881486 31.437267072509407" fill="#36ff6d" stroke="none" /><path d="M 115.4437574822437 85.77008943001954 l 10.912250076966465 -10.054570132367546 a35.838179884640574,35.838179884640574 0 0,0 0.4141124884645003,0.457273352829617 l -11.083706206047001 9.865243992268379" fill="#ffb010" stroke="none" /><path d="M 115.68641384162765 86.03803664274999 l 33.16262837941359 -29.516969712653488 a65.39607439908163,65.39607439908163 0 0,0 0.7411808474785623,0.8472978347326081 l -33.66580109047 28.941756321717932" fill="#35ff69" stroke="none" /><path d="M 116.38621287248628 86.86637796730983 l 30.247750385186507 -24.24370560724452 a59.76446394489791,59.76446394489791 0 0,0 0.6364799279412181,0.8082648729366861 l -30.660584393721688 23.7194483403548" fill="#38ff2e" stroke="none" /><path d="M 116.82858285166822 87.43820079747576 l 12.073377231772353 -9.012246712551795 a36.0660886957624,36.0660886957624 0 0,0 0.3670795987944804,0.5006961602233208 l -12.226719443080459 8.80308810865698" fill="#ffb310" stroke="none" /><path d="M 117.04232023915458 87.72973835380427 l 11.98919205223677 -8.63207129915623 a35.773401131057604,35.773401131057604 0 0,0 0.35549796965453445,0.5028266669947077 l -12.136002641695187 8.42441813182973" fill="#ffaf10" stroke="none" /><path d="M 117.45458315368197 88.32363383020206 l 9.975803621973217 -6.673383999066437 a33.00211280996683,33.00211280996683 0 0,0 0.3117966772283213,0.47488773055918965 l -10.089196934559464 6.500678204529573" fill="#ff8a0c" stroke="none" /><line stroke="#e1ed5e" stroke-width="0.3" x1="172.23445277983987" x2="176.4835382374775" y1="55.19839476539836" y2="52.563006222186495" /><path d="M 173.08426987136738 54.67131705675599 a86.0,86.0 0 0,1 12.851231095245387,41.99856678651699" fill="none" id="id87" stroke="none" /><text fill="#e1ed5e" style="font-size:6.75px; font-family:Arial;" text-anchor="middle"><textPath startOffset="22.20632615414155" xlink:href="#id87">March</textPath></text><path d="M 118.03404312379186 89.2402003453031 l 53.78867275490327 -32.092378761769474 a83.63499095013063,83.63499095013063 0 0,0 0.7269884987480035,1.2426590011445908 l -54.3331209281216 31.161740348270985" fill="#4dd5ff" stroke="none" /><path d="M 118.3937258080291 89.86733742301442 l 13.093017549486358 -7.212629476382922 a35.948215027713026,35.948215027713026 0 0,0 0.29390558894339985,0.544562419789019 l -13.215231237648222 6.986186073261444" fill="#ffb110" stroke="none" /><path d="M 118.56541770881063 90.18545643968196 l 15.747217870118716 -8.324712008324644 a38.81223457824792,38.81223457824792 0 0,0 0.307153679280074,0.5933231433165639 l -15.888180982558906 8.052416142747736" fill="#ffd714" stroke="none" /><path d="M 118.73160827565052 90.50648371742162 l 22.98725089640965 -11.650352573327075 a46.770999570395304,46.770999570395304 0 0,0 0.3577758459592598,0.7212542736758216 l -23.18438675532232 11.252938711152302" fill="#c5ff1e" stroke="none" /><path d="M 119.04729006885535 91.15688171328212 l 43.08501815942728 -20.00315586059114 a68.50205294701777,68.50205294701777 0 0,0 0.4873356187399326,1.0737794371092364 l -43.42295609513056 19.25855441463984" fill="#39ff8d" stroke="none" /><path d="M 119.47837535516314 92.15188598940014 l 16.525705459574453 -6.658441383713981 a38.816671479178254,38.816671479178254 0 0,0 0.24437211150811436,0.6219003688477595 l -16.637871120964267 6.372992009970438" fill="#ffd714" stroke="none" /><path d="M 119.61058180528143 92.48833698450437 l 22.184840978529312 -8.497710630808035 a44.75664654802065,44.75664654802065 0 0,0 0.26938260751068493,0.7218114595224073 l -22.327828174541622 8.114576034256295" fill="#ddff1b" stroke="none" /><path d="M 119.85752413597 93.16781622104841 l 21.03604499922061 -7.237665906024598 a43.24632547133268,43.24632547133268 0 0,0 0.2361305101414208,0.7060001700642228 l -21.1575128031338 6.874492633038061" fill="#f0ff19" stroke="none" /><path d="M 119.97218684219823 93.5106431181261 l 35.558794221241044 -11.553752616774066 a58.38872886309695,58.38872886309695 0 0,0 0.3023549558860407,0.9585478361012195 l -35.75240466089529 10.939954614246426" fill="#46ff2c" stroke="none" /><path d="M 120.28053869075195 94.5502522615342 l 11.461373095755297 -3.0798783533687906 a32.86797050517286,32.86797050517286 0 0,0 0.14212058504039982,0.5476485887959496 l -11.512690012666 2.8821333390239903" fill="#ff880c" stroke="none" /><path d="M 120.37134235888165 94.90015583598534 l 18.864054412304682 -4.722503608717919 a40.446197294194704,40.446197294194704 0 0,0 0.16326242308225272,0.6768281453522565 l -18.942549635647755 4.397090231706256" fill="#ffeb16" stroke="none" /><path d="M 120.53481517161879 95.60439243477599 l 12.048626473353275 -2.5790849946401067 a33.321569676951356,33.321569676951356 0 0,0 0.11523027862655698,0.5619037617835978 l -12.091236047894828 2.371305576693097" fill="#ff8e0d" stroke="none" /><path d="M 120.67395015179393 96.31383870115 l 61.85397316368714 -11.028551408029056 a83.82947510757724,83.82947510757724 0 0,0 0.24106218816587577,1.4227626803030586 l -62.03464721337323 9.96220293941016" fill="#4dd4ff" stroke="none" /><path d="M 120.83666639777658 97.38593545837742 l 14.699585699553348 -1.8441369180746208 a35.814812206407446,35.814812206407446 0 0,0 0.07147553032444243,0.6123586944490519 l -14.729151582881379 1.5908344853007161" fill="#ffb010" stroke="none" /><path d="M 120.94382443527127 98.46500227214037 l 11.29504193896326 -0.827827017265737 a32.3253375213922,32.3253375213922 0 0,0 0.03589560793245991,0.5552891669430234 l -11.307618137900135 0.6332787860696784" fill="#ff800b" stroke="none" /><path d="M 120.96714384426684 98.82574320788733 l 31.231801956728354 -1.7491250048171916 a52.280743145692334,52.280743145692334 0 0,0 0.04258737495686462,0.8989521755907255 l -31.257282939918717 1.2112617226034663" fill="#87ff25" stroke="none" /><line stroke="#e1ed5e" stroke-width="0.3" x1="184.98032266829074" x2="189.97916517819016" y1="98.17113171792111" y2="98.06355123074" /><path d="M 185.9800911702706 98.14961562048488 a86.0,86.0 0 0,1 -9.607161424134198,41.387399972396054" fill="none" id="id88" stroke="none" /><text fill="#e1ed5e" style="font-size:6.75px; font-family:Arial;" text-anchor="middle"><textPath startOffset="21.466115282336823" xlink:href="#id88">April</textPath></text><path d="M 120.99513854157772 99.54816195383933 l 16.298878953159782 -0.3507694700952198 a37.30265298504835,37.30265298504835 0 0,0 0.008290057903407018,0.6420741205832202 l -16.302502018180906 0.07015909145153683" fill="#ffc312" stroke="none" /><path d="M 120.9904718944345 100.63252640178507 l 33.564857167730686 1.0114426410948723 a54.58009310449253,54.58009310449253 0 0,0 -0.03638118534503081,0.9388367375922215 l -33.54247384953445 -1.5890566257010998" fill="#6eff28" stroke="none" /><path d="M 120.95626037817324 101.35467743843564 l 14.968883917540294 0.9676349193854399 a36.00012676859801,36.00012676859801 0 0,0 -0.04529748751173601,0.6180482280762525 l -14.95000987136422 -1.2251562839584627" fill="#ffb210" stroke="none" /><path d="M 120.89721153311464 102.0752229133903 l 18.151555974932887 1.8025622611503034 a39.24083920811883,39.24083920811883 0 0,0 -0.07253519358221232,0.6715858068440664 l -18.117838479849624 -2.1147443898791614" fill="#ffdc14" stroke="none" /><path d="M 120.8583938346157 102.4346265915055 l 18.281631319716915 2.133862563915041 a39.40574402602982,39.40574402602982 0 0,0 -0.0844380480083987,0.6730543219634499 l -18.24219176246167 -2.448234640165886" fill="#ffde14" stroke="none" /><path d="M 120.81339534386255 102.79330883721812 l 22.707534371219147 3.0475160531299132 a43.91112112739539,43.91112112739539 0 0,0 -0.10698829444800721,0.7482758821835788 l -22.651712025754538 -3.437937407293901" fill="#e8ff1a" stroke="none" /><path d="M 120.64145759157962 103.86396538481128 l 26.177353152178142 4.900254063805009 a47.63205414427675,47.63205414427675 0 0,0 -0.15779834282495853,0.8046103504399325 l -26.08912487637752 -5.3501281413128865" fill="#bbff1f" stroke="none" /><path d="M 120.49622156327973 104.57218783832717 l 23.1945325103284 5.1741126593499756 a44.764632969695256,44.764632969695256 0 0,0 -0.1742397983461622,0.7506204909960709 l -23.102032146051688 -5.572601807694611" fill="#ddff1b" stroke="none" /><path d="M 120.41448212921028 104.9243191809786 l 5.126947713077862 1.236706706718714 a26.273996239198258,26.273996239198258 0 0,0 -0.10983617133598708,0.43874090613639743 l -5.104900227446814 -1.3247754522525075" fill="#ff2b04" stroke="none" /><path d="M 120.32669344350535 105.2749913415812 l 29.717362123260155 7.711968910758437 a51.701727574282884,51.701727574282884 0 0,0 -0.2309637390569932,0.8595019936509487 l -29.580210307861385 -8.222361837584934" fill="#8dff24" stroke="none" /><path d="M 120.13307415673323 105.97154293290107 l 31.82205703123072 9.438537716390867 a54.19230796318077,54.19230796318077 0 0,0 -0.2729569199336779,0.8920390075249504 l -31.65487333879091 -9.984903696467875" fill="#72ff27" stroke="none" /><path d="M 119.79798401119884 107.00284435728193 l 22.43797548437698 7.936649000257716 a44.80027607383566,44.80027607383566 0 0,0 -0.2634165331136532,0.7248091662294848 l -22.298034690258103 -8.321705963493331" fill="#ddff1b" stroke="none" /><path d="M 119.67450827220406 107.3425965602758 l 3.134680371587442 1.169873879211494 a24.34586699156989,24.34586699156989 0 0,0 -0.1499076128697909,0.39136147339851723 l -3.1140784791241445 -1.223658919443155" fill="#ff0f01" stroke="none" /><path d="M 119.54520255179757 107.68017299344265 l 22.09133302204286 8.680660065578971 a44.73564521695037,44.73564521695037 0 0,0 -0.28779374849137046,0.7142804819620511 l -21.938636659294097 -9.059639915383835" fill="#deff1b" stroke="none" /><path d="M 119.26925614724726 108.34839909993367 l 38.4694371321325 16.666871407733574 a62.92472058088189,62.92472058088189 0 0,0 -0.4391513710438951,0.9901704091278681 l -38.176844676357334 -17.32659015335413" fill="#32ff4b" stroke="none" /><path d="M 118.81262510543309 109.33194174019688 l 20.58668860355444 10.211960191375024 a43.98033678190871,43.98033678190871 0 0,0 -0.3422535781022572,0.6752987792011211 l -20.407856355665913 -10.564813182278838" fill="#e7ff1a" stroke="none" /><line stroke="#e1ed5e" stroke-width="0.3" x1="174.80103733775053" x2="179.2010983576182" y1="140.37084112569926" y2="142.7455964860345" /><path d="M 175.68104954172406 140.8457921977663 a86.0,86.0 0 0,1 -30.038265399797805,32.042727171017184" fill="none" id="id89" stroke="none" /><text fill="#e1ed5e" style="font-size:6.75px; font-family:Arial;" text-anchor="middle"><textPath startOffset="22.206326154141568" xlink:href="#id89">May</textPath></text><path d="M 118.48025628344425 109.97397251340804 l 32.832776808781055 17.720166236169252 a58.30945623314154,58.30945623314154 0 0,0 -0.4843116532911716,0.879166328552642 l -32.522888746038376 -18.2827030831197" fill="#47ff2c" stroke="none" /><path d="M 118.12598468904814 110.60418214915192 l 44.973290785587444 26.3105688059692 a73.10415448866476,73.10415448866476 0 0,0 -0.6447755941529524,1.080680983223231 l -44.513734315736265 -27.080811883078535" fill="#3fffbf" stroke="none" /><path d="M 117.94076556474637 110.91462005526583 l 25.299599063041285 15.391512158559253 a50.613651569465674,50.613651569465674 0 0,0 -0.45922334950039606,0.7404142592923636 l -25.030911073872925 -15.82472274921689" fill="#99ff23" stroke="none" /><path d="M 117.75023020441432 111.22182372390056 l 6.391612990411364 4.040823891509399 a28.561810255579577,28.561810255579577 0 0,0 -0.266298263866189,0.41330081922916945 l -6.321109863168124 -4.150246310660021" fill="#ff4c07" stroke="none" /><path d="M 117.55443506779139 111.5257021239791 l 19.18907909780974 12.598959115501456 a43.9554901366988,43.9554901366988 0 0,0 -0.4207103341726733,0.6289048668604162 l -18.969365658226344 -12.92740089656768" fill="#e7ff1a" stroke="none" /><path d="M 117.35343817320211 111.8261652097733 l 5.591949937776774 3.810848498659611 a27.767013402257888,27.767013402257888 0 0,0 -0.2725650930265832,0.39265034537002924 l -5.525523937588055 -3.9065401062166596" fill="#ff4106" stroke="none" /><path d="M 116.71984013943494 112.70617746262583 l 28.31825703947833 21.520349260230734 a56.567528927889796,56.567528927889796 0 0,0 -0.5958262745556633,0.7701857780532788 l -27.943623947704598 -22.004613032397266" fill="#59ff2a" stroke="none" /><path d="M 116.498646956653 112.99209946851258 l 5.9470934674409905 4.683125233271196 a28.569648780556513,28.569648780556513 0 0,0 -0.3075755165794149,0.3837477488304798 l -5.865600038806722 -4.784800815679926" fill="#ff4c07" stroke="none" /><path d="M 116.0416608686014 113.55231037782055 l 11.313138117198541 9.557561425046774 a35.80993161538407,35.80993161538407 0 0,0 -0.40185136271064,0.4674439206303044 l -11.146944244917123 -9.750882444838608" fill="#ffb010" stroke="none" /><path d="M 115.56566222782051 114.09645910891815 l 13.586286089998204 12.303911231442637 a39.32957722672563,39.32957722672563 0 0,0 -0.4587581530331474,0.4978913692818575 l -13.372481528969335 -12.535953855525829" fill="#ffdd14" stroke="none" /><path d="M 115.07121518719521 114.62390073753431 l 25.50773795621687 24.750666968625016 a56.54209069588918,56.54209069588918 0 0,0 -0.6837806671991064,0.6926662057964241 l -25.077916663962228 -25.186073668402102" fill="#59ff2a" stroke="none" /><path d="M 114.29624159901734 115.38237550388516 l 3.0332103753899626 3.2636536430481096 a25.455535914248085,25.455535914248085 0 0,0 -0.3235282859083447,0.2955354183956525 l -2.9765825400147543 -3.3153818280303446" fill="#ff1f03" stroke="none" /><path d="M 114.0293411484842 115.62618273729858 l 9.009383998164555 10.034846199532597 a34.48581248107274,34.48581248107274 0 0,0 -0.4451258661535337,0.3927718229834746 l -8.835315779104434 -10.18844116428836" fill="#ff9e0e" stroke="none" /><path d="M 113.20401910651253 116.32954008644616 l 5.588443860702276 6.911283398490527 a29.8879999436584,29.8879999436584 0 0,0 -0.40283687817698777,0.3200379793116895 l -5.468649489807937 -7.006455291807343" fill="#ff5f08" stroke="none" /><path d="M 112.92097659922987 116.55440617244103 l 22.691765032222886 29.072778843620977 a57.88011211978224,57.88011211978224 0 0,0 -0.7906733980352892,0.6062546455701351 l -22.187962905694103 -29.459072831018485" fill="#4bff2c" stroke="none" /><path d="M 111.7513745106137 117.40417183066458 l 2.9708033567831027 4.399857399648821 a26.30889985985027,26.30889985985027 0 0,0 -0.3775017702899761,0.2501875888058302 l -2.8946268877531622 -4.4503430095459695" fill="#ff2b04" stroke="none" /><path d="M 111.1453310114006 117.79835938074945 l 9.946661026154365 15.884162381619758 a39.74146952975893,39.74146952975893 0 0,0 -0.5829142495439105,0.3580735419151896 l -9.671767576678144 -16.053024390363326" fill="#ffe315" stroke="none" /><line stroke="#e1ed5e" stroke-width="0.3" x1="143.8653032363475" x2="146.44561519142675" y1="172.8068346515853" y2="177.08958963109032" /><path d="M 144.38136562736335 173.6633856474863 a86.0,86.0 0 0,1 -40.68145358897372,12.25698825130547" fill="none" id="id90" stroke="none" /><text fill="#e1ed5e" style="font-size:6.75px; font-family:Arial;" text-anchor="middle"><textPath startOffset="21.466115282336833" xlink:href="#id90">June</textPath></text><path d="M 110.8373102113329 117.98757091392108 l 8.205127064103591 13.618721070562016 a36.89948658717806,36.89948658717806 0 0,0 -0.5468717032612899,0.323101441679902 l -7.96948748981392 -13.757941084535668" fill="#ffbe11" stroke="none" /><path d="M 110.5260780823613 118.17145234162733 l 8.198184737414714 14.152747307985885 a37.35574789951475,37.35574789951475 0 0,0 -0.5591821626092043,0.31751822568749244 l -7.95335380788431 -14.291768699468006" fill="#ffc412" stroke="none" /><path d="M 109.89434966115114 118.52300852407294 l 14.019579428813508 26.24576633706894 a50.75548450253889,50.75548450253889 0 0,0 -0.7741639729923177,0.4050060014206126 l -13.565724553294695 -26.48320175743427" fill="#98ff23" stroke="none" /><path d="M 108.92500713936063 119.00905698771935 l 19.38163000763929 41.28024813619366 a66.60379883232036,66.60379883232036 0 0,0 -1.041975215232658,0.47831971565629483 l -18.668186796639215 -41.60775492218403" fill="#37ff77" stroke="none" /><path d="M 107.2578585660854 119.70592522655815 l 2.3910025997829227 6.491848527883532 a27.91816382728483,27.91816382728483 0 0,0 -0.4523811930266441,0.16220780086744094 l -2.278901846126544 -6.532043869790932" fill="#ff4306" stroke="none" /><path d="M 106.57524785965236 119.94407469862006 l 16.707420900110264 50.67703264812016 a74.36009324534655,74.36009324534655 0 0,0 -1.2190758514961981,0.3903095905025396 l -15.832623703523124 -50.95711508528241" fill="#41ffcd" stroke="none" /><path d="M 105.53697534728816 120.25689768951611 l 2.028923152308265 7.422768955676933 a28.695065180187477,28.695065180187477 0 0,0 -0.4775809297439307,0.126133464210896 l -1.9008517797528368 -7.456593769191413" fill="#ff4e07" stroke="none" /><path d="M 105.18746579009965 120.34920634021253 l 6.579694497053741 25.810591605566103 a47.63604735511406,47.63604735511406 0 0,0 -0.7963084738966493,0.19571324879488203 l -6.134432738413881 -25.920026112675014" fill="#bbff1f" stroke="none" /><path d="M 104.83641907484287 120.43548508189849 l 4.054095735258025 17.129907817416626 a38.60310864773119,38.60310864773119 0 0,0 -0.6479437128154002,0.14746987951316828 l -3.758631873049763 -17.19715443050748" fill="#ffd413" stroke="none" /><path d="M 103.06178313531738 120.77559828337769 l 3.305770966772301 22.431167260118603 a43.673451134226816,43.673451134226816 0 0,0 -0.7446768654936053,0.10320542804636165 l -2.9191655100918656 -22.484747253657567" fill="#eaff1a" stroke="none" /><path d="M 101.62511606390274 120.93702456842531 l 2.7550324550312784 35.49419237126649 a56.60095358156503,56.60095358156503 0 0,0 -0.9720196017588346,0.06703616273954385 l -2.1436500924935133 -35.53635687852232" fill="#58ff2a" stroke="none" /><line stroke="#e1ed5e" stroke-width="0.3" x1="102.19456741930631" x2="102.32365962044197" y1="184.97166512339345" y2="189.96999836594603" /><path d="M 102.22038585953345 185.97133177190398 a86.0,86.0 0 0,1 -42.740103519485714,-10.115201625700543" fill="none" id="id91" stroke="none" /><text fill="#e1ed5e" style="font-size:6.75px; font-family:Arial;" text-anchor="middle"><textPath startOffset="22.20632615414155" xlink:href="#id91">July</textPath></text><path d="M 99.81925306533755 120.99922214144158 l -0.05886613409674028 6.8390815524140525 a27.83933488742244,27.83933488742244 0 0,0 -0.47915513499484924,-0.008249090184289013 l 0.17658095898425746 -6.837054984950604" fill="#ff4206" stroke="none" /><path d="M 99.09653310690486 120.98055641714683 l -1.1025476246285488 25.60366386184185 a46.62739187694995,46.62739187694995 0 0,0 -0.8015735622066141,-0.04143219726659161 l 1.543109255248652 -25.580891857813054" fill="#c7ff1e" stroke="none" /><path d="M 97.65516085044442 120.86867818915974 l -2.54533560436437 22.65306326916192 a43.79561380650887,43.79561380650887 0 0,0 -0.7484307040851423,-0.09062453533860315 l 2.9348937315009014 -22.605893205097967" fill="#e9ff1a" stroke="none" /><path d="M 96.58105272829116 120.7198165907248 l -4.452546095474957 26.983726605961348 a48.348613644526765,48.348613644526765 0 0,0 -0.8199718322570804,-0.14256261349560825 l 4.916366899204087 -26.903085413944734" fill="#b3ff20" stroke="none" /><path d="M 95.16358092515715 120.4354850818985 l -3.340304029217442 14.113899581850541 a35.503785451190566,35.503785451190566 0 0,0 -0.5934993934201066,-0.14586771113416058 l 3.582756707380759 -14.05431061240235" fill="#ffab0f" stroke="none" /><path d="M 94.46302465271185 120.25689768951611 l -3.589708260344746 13.132865581680571 a34.6146305047503,34.6146305047503 0 0,0 -0.5733976704846613,-0.1620479091934871 l 3.815237098934021 -13.069128879148563" fill="#ffa00e" stroke="none" /><path d="M 93.76903079525671 120.05430185196036 l -7.635220280880406 24.57386759389281 a46.73269432569669,46.73269432569669 0 0,0 -0.7661461496536714,-0.24529580302112522 l 8.057087775625018 -24.438798944211978" fill="#c6ff1e" stroke="none" /><path d="M 92.7421414339146 119.70592522655815 l -5.137662810983624 13.949348595134994 a35.865392877013335,35.865392877013335 0 0,0 -0.5774836845642971,-0.2183549161875832 l 5.377016716308204 -13.858845428840779" fill="#ffb010" stroke="none" /><path d="M 92.06813273071674 119.44442032107085 l -5.732980781260797 14.05400320239211 a36.17834228930002,36.17834228930002 0 0,0 -0.5745957000738797,-0.24018104923197367 l 5.974047940832139 -13.953237110140163" fill="#ffb410" stroke="none" /><path d="M 91.40352486487194 119.15986991738527 l -12.155520337243946 27.092288964813708 a50.69425526970019,50.69425526970019 0 0,0 -0.7930802517539364,-0.364064245450275 l 12.620068584765301 -26.879037649029357" fill="#98ff23" stroke="none" /><path d="M 90.10565033884886 118.52300852407294 l -7.044247925895078 13.187391677631203 a35.95087716827123,35.95087716827123 0 0,0 -0.5433327765010387,-0.29626835101932064 l 7.270203514264757 -13.064182674852116" fill="#ffb110" stroke="none" /><line stroke="#e1ed5e" stroke-width="0.3" x1="58.666819895761336" x2="56.23545636021788" y1="174.27360380694188" y2="178.64263932499728" /><path d="M 58.180547188652646 175.14741091055294 a86.0,86.0 0 0,1 -31.652253787137756,-30.449443065178592" fill="none" id="id92" stroke="none" /><text fill="#e1ed5e" style="font-size:6.75px; font-family:Arial;" text-anchor="middle"><textPath startOffset="22.20632615414155" xlink:href="#id92">August</textPath></text><path d="M 89.4739219176387 118.17145234162733 l -19.04510615449763 32.878080147212096 a58.99584480706523,58.99584480706523 0 0,0 -0.8743524942753371,-0.5165828653266447 l 19.608226519801352 -32.5453787095917" fill="#40ff2d" stroke="none" /><path d="M 88.54995079064634 117.60387380957326 l -7.508966640678598 11.544657910711539 a34.77184469438203,34.77184469438203 0 0,0 -0.498935075138187,-0.33066696170349674 l 7.706576414556747 -11.413692927916724" fill="#ffa20e" stroke="none" /><path d="M 87.95078237400918 117.19931262002967 l -9.180728049810865 13.10476884968604 a37.000647928389824,37.000647928389824 0 0,0 -0.5184895017718962,-0.3699284927641545 l 9.40494487943165 -12.944796095077667" fill="#ffbf11" stroke="none" /><path d="M 87.36589467227662 116.77436683061367 l -15.732860545612487 20.888600121758536 a47.150650393334786,47.150650393334786 0 0,0 -0.6441031919378586,-0.4938708616088403 l 16.09009246604383 -20.614689918322327" fill="#c1ff1e" stroke="none" /><path d="M 86.51685102203217 116.09983520530335 l -8.85709120839329 10.57599445696885 a34.79491657921981,34.79491657921981 0 0,0 -0.4558706090745102,-0.38850282295495714 l 9.037827294044858 -10.421967243790942" fill="#ffa20f" stroke="none" /><path d="M 85.44109423537348 115.13401014063109 l -15.771370362148255 16.394369388139474 a43.74887845004261,43.74887845004261 0 0,0 -0.5382154681463857,-0.5267571149212517 l 16.051235782670435 -16.120462170295653" fill="#eaff1a" stroke="none" /><path d="M 84.67929136418377 114.36230785411682 l -10.274912644201901 9.63215619316705 a35.08375882978498,35.08375882978498 0 0,0 -0.40923298792225676,-0.44414158389288577 l 10.439192040119888 -9.453863354472821" fill="#ffa60f" stroke="none" /><path d="M 84.19399662182784 113.82643327865904 l -10.975627476959943 9.601021673269596 a35.5823185976576,35.5823185976576 0 0,0 -0.3992971383036665,-0.464472780597549 l 11.139267124834388 -9.410671793510517" fill="#ffac10" stroke="none" /><path d="M 83.72743513129214 113.27417163493432 l -27.589819665945967 22.50610180862867 a56.60509468910001,56.60509468910001 0 0,0 -0.6093999045544777,-0.7603200804505804 l 27.973137482555305 -22.02785389459983" fill="#58ff2a" stroke="none" /><path d="M 83.06392112726016 112.41649034213515 l -10.765110905481766 7.892316550619866 a34.348268552232184,34.348268552232184 0 0,0 -0.34547849595908925,-0.4798394144840195 l 10.899369193816463 -7.705843530684708" fill="#ff9c0e" stroke="none" /><path d="M 82.6465618267979 111.8261652097733 l -11.08893877618402 7.556982118432577 a34.41911107041995,34.41911107041995 0 0,0 -0.32943497331797916,-0.4924605867862367 l 11.21737685491273 -7.36498461744052" fill="#ff9d0e" stroke="none" /><path d="M 82.24976979558568 111.22182372390057 l -29.649263678417437 18.74447861864372 a56.0775471684825,56.0775471684825 0 0,0 -0.5087978883944768,-0.8203442008664412 l 29.967526206479867 -18.231338086412013" fill="#5eff2a" stroke="none" /><line stroke="#e1ed5e" stroke-width="0.3" x1="26.63291911575756" x2="22.317208475507996" y1="142.92168965132927" y2="145.44649492493687" /><path d="M 25.769776987707644 143.4266507060508 a86.0,86.0 0 0,1 -11.730757126820373,-40.83630448921669" fill="none" id="id93" stroke="none" /><text fill="#e1ed5e" style="font-size:6.75px; font-family:Arial;" text-anchor="middle"><textPath startOffset="21.46611528233685" xlink:href="#id93">September</textPath></text><path d="M 81.69416730710424 110.29060199501025 l -17.14088911046443 9.635730350843273 a40.66360543978139,40.66360543978139 0 0,0 -0.33774724121207206,-0.6131093481177841 l 17.304212761128017 -9.339250484327668" fill="#ffee16" stroke="none" /><path d="M 81.35079622478065 109.6543875284942 l -18.118061800960515 9.379424022601356 a41.40190575459008,41.40190575459008 0 0,0 -0.3221883100856538,-0.635708101811902 l 18.276828780832435 -9.066161709086769" fill="#fff717" stroke="none" /><path d="M 80.87730276802145 108.67885076344099 l -32.38230015520381 14.696731690861366 a56.56131726658732,56.56131726658732 0 0,0 -0.3947412049886175,-0.8900372086146754 l 32.63048244492371 -14.137146145753995" fill="#59ff2a" stroke="none" /><path d="M 80.58989483394504 108.01547362559985 l -15.234344149458966 6.291077904454151 a37.482199576029466,37.482199576029466 0 0,0 -0.24113081783830612,-0.5984669148802292 l 15.34037758155466 -6.027911621731117" fill="#ffc512" stroke="none" /><path d="M 80.32549172779594 107.34259656027581 l -19.517102229587106 7.283852064550919 a41.83198935143777,41.83198935143777 0 0,0 -0.2459636094662077,-0.6767862160841729 l 19.639590100058538 -6.946818051460628" fill="#fffd17" stroke="none" /><path d="M 80.0844068197444 106.66101706037122 l -38.533645301496584 12.888055426138605 a61.63180764978061,61.63180764978061 0 0,0 -0.3278452618264999,-1.0090039650643337 l 38.74978281433933 -12.222852561096468" fill="#31ff3c" stroke="none" /><path d="M 79.76711848015287 105.62410040840567 l -21.84334997867417 6.071759646074262 a43.671528477157,43.671528477157 0 0,0 -0.19509095693033598,-0.7260060263551503 l 21.94462901194628 -5.694862686543572" fill="#ebff1a" stroke="none" /><path d="M 79.58551787078972 104.9243191809786 l -17.450744042912277 4.209415309629764 a38.95125747406526,38.95125747406526 0 0,0 -0.1516120829630156,-0.6531408853478087 l 17.52061669180585 -3.908405766933382" fill="#ffd814" stroke="none" /><path d="M 79.4281124754447 104.21870165774334 l -46.49729615903897 9.535256312896898 a68.46493087590058,68.46493087590058 0 0,0 -0.2268147538025127,-1.1565235431174796 l 46.654540845817145 -8.733469042711462" fill="#39ff8c" stroke="none" /><path d="M 79.23777060512086 103.15116336523772 l -16.383022204654164 2.4865142563117733 a37.570641801240924,37.570641801240924 0 0,0 -0.09153988293694884,-0.640229728056024 l 16.42339613860771 -2.2041390562753485" fill="#ffc712" stroke="none" /><path d="M 79.18660465613746 102.79330883721812 l -22.556847564213843 3.0272927890874137 a43.75908332218239,43.75908332218239 0 0,0 -0.09376631934474414,-0.7474098226821326 l 22.605615392805436 -2.6385652121178724" fill="#e9ff1a" stroke="none" /><path d="M 79.1416061653843 102.43462659150553 l -17.641149901043015 2.05910450221422 a38.76091442415364,38.76091442415364 0 0,0 -0.07164807093620595,-0.6633721529119058 l 17.67398027348027 -1.755136027417532" fill="#ffd614" stroke="none" /><path d="M 79.07016306316243 101.71520430193888 l -30.132178775170768 2.4693380468244315 a51.2331908360389,51.2331908360389 0 0,0 -0.0644646291664279,-0.8795686475895242 l 30.170219963001532 -1.9502962627381466" fill="#92ff23" stroke="none" /><path d="M 79.0235259727143 100.99374915477108 l -22.79459958350972 1.079881873378368 a43.82016465832341,43.82016465832341 0 0,0 -0.029208992539319724,-0.753754310199026 l 22.809810708900237 -0.6873503161653454" fill="#e9ff1a" stroke="none" /><path d="M 79.0095281055655 100.63252640178507 l -10.926380958380763 0.3292553148350142 a31.93134071877795,31.93134071877795 0 0,0 -0.011826665071158279,-0.5495386538686523 l 10.930429686136929 -0.14112684517623303" fill="#ff7b0b" stroke="none" /><line stroke="#e1ed5e" stroke-width="0.3" x1="15.007084014347285" x2="10.007500721073583" y1="101.09737516637583" y2="101.16192664675087" /><path d="M 14.007167355692545 101.11028546245083 a86.0,86.0 0 0,1 10.666146001902534,-42.60595125391555" fill="none" id="id94" stroke="none" /><text fill="#e1ed5e" style="font-size:6.75px; font-family:Arial;" text-anchor="middle"><textPath startOffset="22.20632615414155" xlink:href="#id94">October</textPath></text><path d="M 79.00175016825051 100.2711162175752 l -24.270930978981475 0.3133710217172927 a45.27295391961462,45.27295391961462 0 0,0 -0.003353869386902364,-0.7793211302696404 l 24.27272914565788 0.10445958675602308" fill="#d7ff1c" stroke="none" /><path d="M 79.00019446554 99.90962569577889 l -14.817780819228553 -0.06376947774308414 a35.81791803705869,35.81791803705869 0 0,0 0.007960093739866699,-0.6165180324837404 l 14.814487718370971 0.31882376828729647" fill="#ffb010" stroke="none" /><path d="M 79.01574976396665 99.18683210126434 l -29.577106443285384 -1.1461526252611791 a50.5993055897909,50.5993055897909 0 0,0 0.04121769259675605,-0.870040345764847 l 29.55299514245513 1.655104077649035" fill="#99ff23" stroke="none" /><path d="M 79.05617556472873 98.46500227214037 l -11.904073857135787 -0.872463688733171 a32.936002986104754,32.936002986104754 0 0,0 0.046307261385110876,-0.5650658808903141 l 11.88729211193118 1.0772434868312635" fill="#ff890c" stroke="none" /><path d="M 79.12142395522702 97.74499172005258 l -36.95933351115089 -3.991824102863033 a58.17427865146382,58.17427865146382 0 0,0 0.11609826107398583,-0.9946590008686859 l 36.88514489707331 4.627426842056581" fill="#48ff2c" stroke="none" /><path d="M 79.21141760316559 97.0276538004421 l -22.53376274044961 -3.2218716391895 a43.762928636322016,43.762928636322016 0 0,0 0.11304195068366019,-0.7448052161401438 l 22.47496489632665 3.6092759677217363" fill="#e9ff1a" stroke="none" /><path d="M 79.32604984820605 96.31383870115002 l -46.66551907832584 -8.320452992982759 a68.40148319259671,68.40148319259671 0 0,0 0.21665119704987323,-1.1573593577335708 l 46.515382157366105 9.122490428178903" fill="#39ff8b" stroke="none" /><path d="M 79.46518482838121 95.60439243477599 l -12.248636680918187 -2.621898449455581 a33.52611080984006,33.52611080984006 0 0,0 0.12565205251076553,-0.5632735135142224 l 12.201690241405384 2.8323501325197626" fill="#ff910d" stroke="none" /><path d="M 79.62865764111835 94.90015583598534 l -22.00789610022978 -5.509545640720324 a43.68705763041319,43.68705763041319 0 0,0 0.18890214679213316,-0.7279170296254457 l 21.90979762156734 5.887559095894633" fill="#eaff1a" stroke="none" /><path d="M 79.91906864156998 93.8553929516997 l -30.108456744110256 -9.21295094441122 a52.48646745216246,52.48646745216246 0 0,0 0.27179121484768193,-0.8616524247142106 l 29.94541004549437 9.729853535551845" fill="#84ff25" stroke="none" /><path d="M 80.14247586403 93.16781622104843 l -15.988697606841576 -5.50107453920457 a37.908585755435205,37.908585755435205 0 0,0 0.21760777255594535,-0.6152064763934609 l 15.89163675347582 5.775478642024642" fill="#ffcb12" stroke="none" /><path d="M 80.38941819471856 92.48833698450439 l -16.22298434825991 -6.214073235551278 a38.37238979935348,38.37238979935348 0 0,0 0.2415751160918348,-0.6147823205961969 l 16.113615682286383 6.492404561043239" fill="#ffd113" stroke="none" /><path d="M 80.65960295795068 91.81776055985345 l -49.081002661724526 -20.764440092288133 a74.29265235120535,74.29265235120535 0 0,0 0.5084068730141055,-1.1734731588488194 l 48.71630507886774 21.60621239572355" fill="#41ffcc" stroke="none" /><path d="M 80.803312248108 91.48605970444005 l -6.779969815478671 -3.00699052673786 a28.416871491855115,28.416871491855115 0 0,0 0.2021626076206352,-0.4454385082229471 l 6.727204890894685 3.123251043802878" fill="#ff4a06" stroke="none" /><path d="M 81.10775173730289 90.83032412892265 l -20.68765781722405 -10.041108611210992 a43.995718038467224,43.995718038467224 0 0,0 0.3365462655145085,-0.6784567349457565 l 20.511751538756126 10.39572493465571" fill="#e7ff1a" stroke="none" /><path d="M 81.26839172434947 90.50648371742162 l -15.699401894852961 -7.9567395026763865 a38.60059440387067,38.60059440387067 0 0,0 0.3054787935397999,-0.5900877971717872 l 15.560113668153047 8.22580002210851" fill="#ffd413" stroke="none" /><line stroke="#e1ed5e" stroke-width="0.3" x1="26.266209847984243" x2="21.928928074336255" y1="57.711370442889674" y2="55.22380399835377" /><path d="M 25.398753493254645 57.213857153982495 a86.0,86.0 0 0,1 29.58750427330803,-30.492523968695096" fill="none" id="id95" stroke="none" /><text fill="#e1ed5e" style="font-size:6.75px; font-family:Arial;" text-anchor="middle"><textPath startOffset="21.46611528233685" xlink:href="#id95">November</textPath></text><path d="M 81.78341655067845 89.55222093294921 l -23.28560492720495 -13.35502106632006 a47.84354642195632,47.84354642195632 0 0,0 0.41587507325514406,-0.7108653080786984 l 23.05227017947948 13.75386578675265" fill="#b9ff1f" stroke="none" /><path d="M 81.96595687620814 89.24020034530311 l -54.1021293713756 -32.27939896409068 a84.0,84.0 0 0,0 0.7515368068551322,-1.2353289071717022 l 53.53847676623425 33.20589564446946" fill="#4dd2ff" stroke="none" /><path d="M 82.54541684631803 88.32363383020206 l -18.95626416026252 -12.68092624142397 a43.80670605883472,43.80670605883472 0 0,0 0.4246654092009384,-0.6231440870431887 l 18.73517428539284 13.005348351737574" fill="#e9ff1a" stroke="none" /><path d="M 83.17141714833178 87.43820079747576 l -37.95251892790813 -28.329891245424857 a68.36007211724687,68.36007211724687 0 0,0 0.7119996428598541,-0.9369080703435522 l 37.459243344824166 28.978984091649437" fill="#39ff8b" stroke="none" /><path d="M 83.84228863543731 86.58626213691792 l -17.40762369441709 -14.451384592016257 a43.62449732729539,43.62449732729539 0 0,0 0.48462534373415855,-0.5736435482791036 l 17.156287737195807 14.748887089924477" fill="#ebff1a" stroke="none" /><path d="M 84.31358615837235 86.03803664274999 l -13.543315038789911 -12.05446128199671 a39.13095196174406,39.13095196174406 0 0,0 0.4521606829650117,-0.4992871195065819 l 13.333810715208855 12.285801188772847" fill="#ffdb14" stroke="none" /><path d="M 85.05521093208273 85.24692304244772 l -23.831608092788763 -23.525895656159737 a54.4875097717461,54.4875097717461 0 0,0 0.66465473055024,-0.6618004919106796 l 23.423117562071212 23.932631998720524" fill="#6fff28" stroke="none" /><path d="M 85.57189188830299 84.74124197986013 l -15.620534735150367 -16.519834605038497 a43.73556774725159,43.73556774725159 0 0,0 0.5514682636775325,-0.5125296499057227 l 15.333858587677977 16.786268841018867" fill="#eaff1a" stroke="none" /><path d="M 86.10567301691215 84.25364557470407 l -8.562481382630839 -9.703806940416436 a33.94140473691994,33.94140473691994 0 0,0 0.44140991029964827,-0.38278632448636757 l 8.394177673684416 9.849758258322485" fill="#ff970d" stroke="none" /><path d="M 86.93701828274178 83.55741782278169 l -39.16106955782627 -49.29265907963546 a83.95518730060355,83.95518730060355 0 0,0 1.1392616764840395,-0.8892118091650647 l 38.3067753261828 49.95944927802375" fill="#4dd2ff" stroke="none" /><path d="M 87.80319425747018 82.90503203632743 l -13.17097997840415 -18.460364585120484 a43.67729644836645,43.67729644836645 0 0,0 0.6157851135968808,-0.43139682430875326 l 12.851263725223609 18.68434625219318" fill="#eaff1a" stroke="none" /><path d="M 88.70189139769569 82.29822771554957 l -16.719475671410116 -26.195920172899307 a52.07679359959434,52.07679359959434 0 0,0 0.7597777221323573,-0.4757727398971421 l 16.266078796905514 26.479837254119378" fill="#89ff24" stroke="none" /><line stroke="#e1ed5e" stroke-width="0.3" x1="56.762969772571076" x2="54.21961505331055" y1="26.818313649435495" y2="22.513508569990535" /><path d="M 56.25429882871897 25.957352633546506 a86.0,86.0 0 0,1 42.265352541879196,-11.944610805530505" fill="none" id="id96" stroke="none" /><text fill="#e1ed5e" style="font-size:6.75px; font-family:Arial;" text-anchor="middle"><textPath startOffset="22.20632615414155" xlink:href="#id96">December</textPath></text><path d="M 89.63071344664047 81.73862282372117 l -11.199977474223978 -19.72430909013373 a43.6823249360875,43.6823249360875 0 0,0 0.6570568657446446,-0.36565143440652265 l 10.858796519407287 19.914175922100437" fill="#eaff1a" stroke="none" /><path d="M 90.26544431104013 81.39251694778311 l -10.658368732805856 -20.37334028351059 a43.99290800121135,43.99290800121135 0 0,0 0.6740122271362912,-0.34525524151613934 l 10.306096018080801 20.553788050339236" fill="#e7ff1a" stroke="none" /><path d="M 90.58718382345135 81.22770947309562 l -10.619522889380542 -21.17886562294034 a44.69216358783303,44.69216358783303 0 0,0 0.6906614868439156,-0.3389045920844032 l 10.253390135526201 21.35852537515957" fill="#deff1b" stroke="none" /><path d="M 90.91171255644093 81.06846463323043 l -6.594610528817561 -13.737032772313984 a36.23794465846427,36.23794465846427 0 0,0 0.5646592890461181,-0.2651151074616001 l 6.357173028471834 13.848512862415593" fill="#ffb510" stroke="none" /><path d="M 91.23893434514133 80.91482961587045 l -15.214308006207414 -33.142961371835405 a57.46821981674895,57.46821981674895 0 0,0 0.9025736435926607,-0.4049584844898082 l 14.641552244147979 33.39994018684174" fill="#4fff2b" stroke="none" /><path d="M 91.56875222667455 80.76684994638697 l -2.2296719784237773 -5.086271556036432 a26.55352099780972,26.55352099780972 0 0,0 0.4201983959727748,-0.17990702389611601 l 2.141789824660694 5.123898107895334" fill="#ff2f04" stroke="none" /><path d="M 91.90106846888425 80.62456947434976 l -8.6921873491263 -20.7947025421674 a43.53827355254911,43.53827355254911 0 0,0 0.693950592776752,-0.28307987085533637 l 8.332952886761168 20.941243299206313" fill="#ecff1a" stroke="none" /></svg>