<?xml version="1.0" encoding="utf-8" ?>
<svg baseProfile="full" height="200mm" version="1.1" viewBox="0,0,200,200" width="200mm" xmlns="http://www.w3.org/2000/svg" xmlns:ev="http://www.w3.org/2001/xml-events" xmlns:xlink="http://www.w3.org/1999/xlink"><defs /><rect fill="#1a1a1a" height="200" width="200" x="0" y="0" /><text alignment-baseline="middle" fill="#e1ed5e" style="dominant-baseline: central; font-size:9.0px; font-family:Arial;" text-anchor="middle" x="100.0" y="100.0">2020</text><line stroke="#e1ed5e" stroke-width="0.3" x1="100.0" x2="100.0" y1="15.0" y2="10.0" /><path d="M 100.0 14.0 a86.0,86.0 0 0,1 42.35913384403234,11.155469271406648" fill="none" id="id25" stroke="none" /><text fill="#e1ed5e" style="font-size:6.75px; font-family:Arial;" text-anchor="middle"><textPath startOffset="22.145653131862478" xlink:href="#id25">January</textPath></text><path d="M 101.80034050326958 79.07731436759882 l 1.2903429770031725 -14.995741314925846 a36.05115419436248,36.05115419436248 0 0,0 0.6161321419443294,0.05834835443230067 l -1.5475746823325147 14.971381204988361" fill="#ffa60f" stroke="none" /><path d="M 106.04205211174951 79.88797359093562 l 6.017422372023217 -20.030042015904282 a41.9143958832718,41.9143958832718 0 0,0 0.687314992377687,0.21293194156430842 l -6.3603779972725345 19.923793486533327" fill="#fff316" stroke="none" /><path d="M 108.73861861582097 80.90454125486305 l 11.222647581532962 -24.523510331070877 a47.96943413750885,47.96943413750885 0 0,0 0.7458362683378165,0.34908903306300926 l -11.641972563742284 24.327245066437335" fill="#c0ff1e" stroke="none" /><path d="M 109.3889696526874 81.21577127319529 l 6.2478032873356595 -12.499791812172226 a34.97425637609709,34.97425637609709 0 0,0 0.534727698246432,0.27303577281032404 l -6.46145820729567 12.390698087689069" fill="#ff970d" stroke="none" /><line stroke="#e1ed5e" stroke-width="0.3" x1="143.13028292997686" x2="145.6673583964461" y1="26.7553504044142" y2="22.446841604673864" /><path d="M 143.63769802327073 25.89364864446614 a86.0,86.0 0 0,1 29.32050498858742,28.57503671076993" fill="none" id="id26" stroke="none" /><text fill="#e1ed5e" style="font-size:6.75px; font-family:Arial;" text-anchor="middle"><textPath startOffset="20.669276256404974" xlink:href="#id26">February</textPath></text><path d="M 114.91283532996326 85.21462403516908 l 6.367680441062371 -6.313256148939151 a29.96685883693985,29.96685883693985 0 0,0 0.3590503434011666,0.3684172829384346 l -6.475117585614349 6.2030161739329746" fill="#ff5007" stroke="none" /><line stroke="#e1ed5e" stroke-width="0.3" x1="172.87174338648825" x2="177.1583165268699" y1="56.24261187166439" y2="53.66864786411523" /><path d="M 173.72905801456457 55.72781907015455 a86.0,86.0 0 0,1 12.242430191666344,42.057860355516425" fill="none" id="id27" stroke="none" /><text fill="#e1ed5e" style="font-size:6.75px; font-family:Arial;" text-anchor="middle"><textPath startOffset="22.145653131862474" xlink:href="#id27">March</textPath></text><path d="M 120.16314734710363 94.1308016681162 l 14.314596522640848 -4.166770424575693 a35.90871052026701,35.90871052026701 0 0,0 0.16720037439662036,0.5933351434949125 l -14.384015389112049 3.920427357177768" fill="#ffa40f" stroke="none" /><path d="M 120.51834098615036 95.52812308129327 l 8.725100168100594 -1.901594972101773 a29.92991805008936,29.92991805008936 0 0,0 0.10510003199298538,0.5029416997263124 l -8.756457910917947 1.7515368210900562" fill="#ff4f07" stroke="none" /><path d="M 120.7213421655516 96.59031103205396 l 15.241309757999884 -2.5079517206803086 a36.44627285051529,36.44627285051529 0 0,0 0.09628499213658306,0.6182187197097526 l -15.282116242274732 2.245944819039115" fill="#ffab0f" stroke="none" /><line stroke="#e1ed5e" stroke-width="0.3" x1="184.99686870605535" x2="189.99668451229388" y1="99.2704041080226" y2="99.22748670261217" /><path d="M 185.99683186730306 99.26182062694052 a86.0,86.0 0 0,1 -10.086455211305974,41.156179273409016" fill="none" id="id28" stroke="none" /><text fill="#e1ed5e" style="font-size:6.75px; font-family:Arial;" text-anchor="middle"><textPath startOffset="21.40746469413373" xlink:href="#id28">April</textPath></text><path d="M 120.99922638620191 99.81974689727618 l 21.71447217865901 -0.18639262762486303 a42.715272142190365,42.715272142190365 0 0,0 0.0,0.7332914606973772 l -21.71447217865901 -0.1863926276248604" fill="#fffd17" stroke="none" /><path d="M 120.86939407059847 102.33845913500097 l 15.26239457536898 1.7101831464787476 a36.35791048836893,36.35791048836893 0 0,0 -0.07482443044119992,0.6196536217923792 l -15.230788058668116 -1.9719304451945354" fill="#ffaa0f" stroke="none" /><path d="M 120.82617615685814 102.69636545807757 l 14.770066098457482 1.912280763470286 a35.893343152937206,35.893343152937206 0 0,0 -0.08435872875061673,0.6103777379857285 l -14.735062853151655 -2.1655468096560995" fill="#ffa30f" stroke="none" /><path d="M 120.65975698304385 103.76489593502545 l 14.687801280047168 2.6766066696281148 a35.92969288719808,35.92969288719808 0 0,0 -0.1157855016590488,0.6058386709760764 l -14.63968948610596 -2.9283479056375055" fill="#ffa40f" stroke="none" /><path d="M 120.592083275326 104.11899336999214 l 14.771542031013386 2.954722107364877 a36.064157351333854,36.064157351333854 0 0,0 -0.12664064382274678,0.6060213251209567 l -14.718643676366275 -3.207859883771243" fill="#ffa60f" stroke="none" /><path d="M 120.16314734710363 105.8691983318838 l 23.888022071272697 6.953455077183512 a45.879472180655696,45.879472180655696 0 0,0 -0.2266089376604146,0.7543074529088534 l -23.765136813608652 -7.362500133683088" fill="#d9ff1c" stroke="none" /><path d="M 119.71291397450082 107.23885506374661 l 13.989687616792962 5.137207070250977 a35.90309552066573,35.90309552066573 0 0,0 -0.2174177193479943,0.5767263313495029 l -13.899439213630526 -5.3766016817946385" fill="#ffa40f" stroke="none" /><path d="M 119.4528033332814 107.91128576633889 l 16.363864715336344 6.655041321640592 a38.66537979819776,38.66537979819776 0 0,0 -0.2553280423424337,0.6126943527117229 l -16.247210828457426 -6.934968183793593" fill="#ffc912" stroke="none" /><path d="M 118.70294669586154 109.54985784667822 l 26.737759056837024 13.652490288497 a51.0216297102435,51.0216297102435 0 0,0 -0.40499495144979003,0.7766312199909643 l -26.499456036412287 -14.109467751592467" fill="#9cff22" stroke="none" /><line stroke="#e1ed5e" stroke-width="0.3" x1="174.33088141563837" x2="178.70328620479359" y1="141.23008692659167" y2="143.65538615756765" /><path d="M 175.20536237346943 141.71514677278685 a86.0,86.0 0 0,1 -30.301960400862466,31.631185727798858" fill="none" id="id29" stroke="none" /><text fill="#e1ed5e" style="font-size:6.75px; font-family:Arial;" text-anchor="middle"><textPath startOffset="22.145653131862474" xlink:href="#id29">May</textPath></text><path d="M 118.36410011445183 110.18625677009912 l 35.44784137554054 19.662320067229587 a61.53586422677655,61.53586422677655 0 0,0 -0.5203198257738122,0.9193552760595584 l -35.10508818474535 -20.267932113388266" fill="#30ff35" stroke="none" /><path d="M 117.81537515405839 111.11811171558189 l 17.70614912651179 11.049946596070745 a41.87124904423043,41.87124904423043 0 0,0 -0.38577837712309304,0.6065076849227916 l -17.51385305776281 -11.35226795567221" fill="#fff316" stroke="none" /><path d="M 117.21940702142032 112.02048342749411 l 13.796914679751577 9.631317968859099 a37.82608512095469,37.82608512095469 0 0,0 -0.37625228873752103,0.5292459634743464 l -13.629547292484094 -9.866741159042949" fill="#ffbe11" stroke="none" /><path d="M 116.57777611688842 112.89097897827486 l 49.375922325525714 38.395015847925045 a83.54725371636043,83.54725371636043 0 0,0 -0.8901107278122082,1.1246258269673801 l -48.709545167071944 -39.23696161880711" fill="#4cd6ff" stroke="none" /><path d="M 114.91283532996324 114.78537596483092 l 23.28478281908747 23.085768777176746 a53.789233461082006,53.789233461082006 0 0,0 -0.6557370655263166,0.6501325088999981 l -22.88505383343119 -23.482081296305406" fill="#7dff26" stroke="none" /><path d="M 113.31354834802062 116.24036423190432 l 17.235748831655215 21.024811081060605 a48.186645964189715,48.186645964189715 0 0,0 -0.6442077968385925,0.5189282000559384 l -16.87229026446137 -21.317587574909947" fill="#bdff1f" stroke="none" /><path d="M 113.03279911837588 116.46651593811092 l 27.22283161579817 34.39515844681511 a64.86467241144766,64.86467241144766 0 0,0 -0.8790400339424531,0.6835468472197674 l -26.628381637220485 -34.85740634565567" fill="#34ff5e" stroke="none" /><path d="M 111.8722381534696 117.32195027204791 l 8.478682353500231 12.370650942248828 a35.997368408708176,35.997368408708176 0 0,0 -0.5127117385611564,0.34497533930182905 l -8.26507432684207 -12.514375955607779" fill="#ffa50f" stroke="none" /><path d="M 110.96478420261333 117.91015095944535 l 20.711596231992498 33.83083590807507 a60.66731244634791,60.66731244634791 0 0,0 -0.892870429755308,0.5361430388168996 l -20.127793045679756 -34.181392947427895" fill="#34ff2f" stroke="none" /><line stroke="#e1ed5e" stroke-width="0.3" x1="143.1302829299769" x2="145.66735839644613" y1="173.24464959558577" y2="177.55315839532614" /><path d="M 143.63769802327073 174.10635135553383 a86.0,86.0 0 0,1 -40.68552437913181,11.842963189579606" fill="none" id="id30" stroke="none" /><text fill="#e1ed5e" style="font-size:6.75px; font-family:Arial;" text-anchor="middle"><textPath startOffset="21.407464694133747" xlink:href="#id30">June</textPath></text><path d="M 109.71004243097381 118.62028667847754 l 6.876863040653929 13.187291628833906 a35.87265631230093,35.87265631230093 0 0,0 -0.5484634965097266,0.2800493692749988 l -6.64947232243062 -13.30339894978174" fill="#ffa30f" stroke="none" /><path d="M 108.73861861582097 119.09545874513695 l 8.595884716045244 18.783559414759345 a41.65699248049761,41.65699248049761 0 0,0 -0.6527979953655092,0.2919882400717057 l -8.272173317824107 -18.9283514057409" fill="#fff016" stroke="none" /><path d="M 108.4095320186766 119.2426549942271 l 5.988239744229531 13.70226442625059 a35.9536305170772,35.9536305170772 0 0,0 -0.5676648952259425,0.24230238833074755 l -5.752139773833157 -13.80304146424074" fill="#ffa40f" stroke="none" /><path d="M 106.72888874123015 119.89276391827305 l 6.660930370753368 19.691857071369547 a41.787910629095734,41.787910629095734 0 0,0 -0.681495677698755,0.22402116548373166 l -6.321911955406879 -19.803299158255296" fill="#fff116" stroke="none" /><path d="M 106.0420521117495 120.11202640906438 l 4.304620955292459 14.328683158077867 a35.9613142007421,35.9613142007421 0 0,0 -0.5927451834374294,0.17253948413776962 l -4.058015759473423 -14.400466336518155" fill="#ffa40f" stroke="none" /><path d="M 105.3480935250658 120.30758222061773 l 3.8245896921826583 14.522590016443425 a36.01775972304964,36.01775972304964 0 0,0 -0.599257837957763,0.15232899902931446 l -3.574726560999498 -14.586104247308011" fill="#ffa50f" stroke="none" /><path d="M 103.58742460773223 120.69131181640829 l 2.5686605722151237 14.8153515855528 a36.036377879622286,36.036377879622286 0 0,0 -0.6104262057267749,0.10044539985792333 l -2.3139568634352767 -14.857262983906395" fill="#ffa50f" stroke="none" /><path d="M 103.2317021107853 120.74984581791261 l 2.2863058065766166 14.679723363343994 a35.85669789238152,35.85669789238152 0 0,0 -0.6090087587629669,0.08950331516975545 l -2.033971942205964 -14.716807751812631" fill="#ffa30f" stroke="none" /><path d="M 102.15924093988457 120.88869738790638 l 2.145455684680334 20.755337548780847 a41.86592957092397,41.86592957092397 0 0,0 -0.7155095429665149,0.06775949763139635 l -1.7888465783288037 -20.789108801917425" fill="#fff216" stroke="none" /><path d="M 101.08105385017728 120.97215588758144 l 0.18465934684164723 3.5823419965868606 a24.587098166329703,24.587098166329703 0 0,0 -0.4216971133852638,0.01810948849976584 l -0.12313647285555389 -3.5849840535124575" fill="#ff0000" stroke="none" /><path d="M 100.72087961077811 120.9876233191556 l 0.49382412470445347 14.377150581387339 a35.38562897846411,35.38562897846411 0 0,0 -0.6072623598605206,0.01564092428212089 l -0.24694845077318908 -14.383509223019503" fill="#ff9c0e" stroke="none" /><line stroke="#e1ed5e" stroke-width="0.3" x1="101.45913802915013" x2="101.54496967792366" y1="184.9874750549273" y2="189.98673829345242" /><path d="M 101.47630435890484 185.9873277026323 a86.0,86.0 0 0,1 -42.54439059252881,-10.42667462771756" fill="none" id="id31" stroke="none" /><text fill="#e1ed5e" style="font-size:6.75px; font-family:Arial;" text-anchor="middle"><textPath startOffset="22.145653131862474" xlink:href="#id31">July</textPath></text><path d="M 100.36049292484886 120.99690560180557 l 0.5096742482308066 29.68596979333327 a50.690344733768335,50.690344733768335 0 0,0 -0.8701671730796553,0.007469338629497902 l -3.6360185643790865e-15 -29.690344733768335" fill="#a0ff22" stroke="none" /><path d="M 99.27912038922189 120.98762331915562 l -0.8202098341443664 23.879514393683955 a44.893596461189894,44.893596461189894 0 0,0 -0.7699769980619975,-0.03306612530390088 l 1.2300125928072025 -23.861915699954224" fill="#e5ff1a" stroke="none" /><path d="M 98.19965949673042 120.92268563240118 l -1.2832996754597452 14.913887474644103 a35.968997884407,35.968997884407 0 0,0 -0.6147280497770065,-0.05821538544422645 l 1.5391272886217668 -14.889660333694692" fill="#ffa40f" stroke="none" /><path d="M 97.48249496171623 120.84855314841334 l -1.8201866462255456 15.073756539425062 a36.18325444813982,36.18325444813982 0 0,0 -0.6160150448275507,-0.07975548060377506 l 2.07867951294389 -15.04028946262089" fill="#ffa70f" stroke="none" /><path d="M 96.76829788921471 120.74984581791261 l -8.000114738404767 51.36647551564449 a72.98573499265876,72.98573499265876 0 0,0 -1.2363175187188558,-0.2034355772311923 l 8.880709760176686 -51.221573939917626" fill="#3fffbc" stroke="none" /><path d="M 96.05791012581884 120.62667999033965 l -2.817448038128133 14.742078675705109 a36.008893934205524,36.008893934205524 0 0,0 -0.6061557408516485,-0.1212481245519381 l 3.070100264510739 -14.69154115449031" fill="#ffa50f" stroke="none" /><path d="M 94.6519064749342 120.30758222061772 l -3.824288644132427 14.5214468879615 a36.016577617870425,36.016577617870425 0 0,0 -0.596535027151167,-0.16258827432348502 l 4.073005072218289 -14.453658119493872" fill="#ffa50f" stroke="none" /><path d="M 94.30408787586889 120.21278271476187 l -4.0443089547709015 14.351825722139282 a35.91077920433063,35.91077920433063 0 0,0 -0.5919122223406599,-0.17229702130220906 l 4.290081189493168 -14.280285006534557" fill="#ffa40f" stroke="none" /><path d="M 93.95794788825049 120.11202640906438 l -4.257685570957901 14.172450528534565 a35.79818368601035,35.79818368601035 0 0,0 -0.587020946593311,-0.1818605898070445 l 4.500347150422846 -14.09727335092087" fill="#ffa20f" stroke="none" /><path d="M 92.93061703081489 119.77432235084164 l -4.0145250370185614 11.229341020787876 a32.92537257422166,32.92537257422166 0 0,0 -0.5305858697593601,-0.1948384807557198 l 4.20670005843204 -11.158771691023436" fill="#ff7a0b" stroke="none" /><path d="M 91.92203290615298 119.3841803445677 l -5.762029816527294 13.826773966363053 a35.97934130472514,35.97934130472514 0 0,0 -0.5680708378627901,-0.24247566110357643 l 5.998535729560515 -13.725823655600072" fill="#ffa50f" stroke="none" /><path d="M 91.59046798132341 119.24265499422711 l -6.026820103055987 13.790543837376237 a36.04997208918327,36.04997208918327 0 0,0 -0.5649315543799359,-0.25268669863486654 l 6.262665060291558 -13.685053387831514" fill="#ffa60f" stroke="none" /><path d="M 90.6110303473126 118.78422872680471 l -6.565042548277437 13.134482844211842 a35.68381500992124,35.68381500992124 0 0,0 -0.5455762678616184,-0.27857512975495613 l 6.789546037852638 -13.019849762784048" fill="#ffa10e" stroke="none" /><path d="M 89.97174638481275 118.45085714620012 l -4.291734467627572 7.896308032307473 a29.987250151281316,29.987250151281316 0 0,0 -0.4501740424480108,-0.249703952768164 l 4.426652698231686 -7.8214711641061605" fill="#ff5007" stroke="none" /><line stroke="#e1ed5e" stroke-width="0.3" x1="58.13341422392154" x2="55.67067388415222" y1="173.97424548756322" y2="178.32567169271397" /><path d="M 57.64086615596768 174.84453072859336 a86.0,86.0 0 0,1 -31.369924170532247,-30.572349798747897" fill="none" id="id32" stroke="none" /><text fill="#e1ed5e" style="font-size:6.75px; font-family:Arial;" text-anchor="middle"><textPath startOffset="22.145653131862474" xlink:href="#id32">August</textPath></text><path d="M 89.03521579738668 117.91015095944536 l -7.751302468358668 12.66117004906831 a35.84546789317897,35.84546789317897 0 0,0 -0.5220395191452751,-0.3257912698225472 l 7.967506116293656 -12.526242982404215" fill="#ffa30f" stroke="none" /><path d="M 88.1277618465304 117.32195027204791 l -8.447272400744293 12.324822882480111 a35.94180946528504,35.94180946528504 0 0,0 -0.5059321576207371,-0.3531799386907548 l 8.657599649538795 -12.177998127984226" fill="#ffa40f" stroke="none" /><path d="M 87.54013794807813 116.9041958592261 l -17.578377287170216 23.848444815154544 a50.6268065803855,50.6268065803855 0 0,0 -0.6951470646879478,-0.5216513168752565 l 17.985177340768928 -23.543174471015273" fill="#a1ff22" stroke="none" /><path d="M 86.96720088162412 116.46651593811092 l -9.285500266421186 11.731926253261527 a35.96190525333171,35.96190525333171 0 0,0 -0.4807751045919018,-0.3872783919752703 l 9.48552614136835 -11.570799567492845" fill="#ffa40f" stroke="none" /><path d="M 86.40962598614128 116.0094264158162 l -5.85425415117177 6.896296669767668 a30.046059883947294,30.046059883947294 0 0,0 -0.39034198517212787,-0.33716810990326207 l 5.97177561610676 -6.794784427399684" fill="#ff5107" stroke="none" /><path d="M 85.34317274990678 115.03919595460226 l -10.992259481082339 11.279026592796923 a36.74948282898409,36.74948282898409 0 0,0 -0.44800783501262526,-0.444178731226419 l 11.184259236224928 -11.088667851341844" fill="#ffaf10" stroke="none" /><path d="M 84.58840730492382 114.26474011684316 l -11.015241389492736 10.195542982109117 a36.00948498679513,36.00948498679513 0 0,0 -0.4159992309188718,-0.4572560271189679 l 11.188638321253489 -10.004949379432476" fill="#ffa50f" stroke="none" /><path d="M 84.1078160697243 113.72728997021213 l -11.086337532416852 9.576114313981002 a35.64953395972399,35.64953395972399 0 0,0 -0.39605857529721106,-0.46655600582499157 l 11.249090671221175 -9.384391525706455" fill="#ffa00e" stroke="none" /><path d="M 83.20337586046588 112.60449989151573 l -12.021484909232512 9.021146390817671 a36.0298763011366,36.0298763011366 0 0,0 -0.36698656073607283,-0.497887751448217 l 12.174573489552415 -8.813452330100574" fill="#ffa50f" stroke="none" /><path d="M 82.37810715431573 111.42229804090323 l -17.38117986754555 11.266270796685399 a41.71314247651034,41.71314247651034 0 0,0 -0.3843216712330173,-0.6042175013111754 l 17.572019230404457 -10.966239620695552" fill="#fff016" stroke="none" /><line stroke="#e1ed5e" stroke-width="0.3" x1="26.387840678322732" x2="22.057713659400548" y1="142.50000000000003" y2="145.00000000000006" /><path d="M 25.521815274538298 143.00000000000003 a86.0,86.0 0 0,1 -11.493303480769221,-40.785679425670985" fill="none" id="id33" stroke="none" /><text fill="#e1ed5e" style="font-size:6.75px; font-family:Arial;" text-anchor="middle"><textPath startOffset="21.40746469413373" xlink:href="#id33">September</textPath></text><path d="M 81.1358732173502 109.22738970284198 l -56.23559023641103 27.507645185991993 a83.60281265978355,83.60281265978355 0 0,0 -0.6195396067978086,-1.294599498531181 l 56.69950910116875 -26.538233185395708" fill="#4cd6ff" stroke="none" /><path d="M 80.68587082218212 108.24405325689762 l -14.039366650868425 5.992570790910913 a36.2648197055057,36.2648197055057 0 0,0 -0.23947586884274383,-0.5746549070935955 l 14.140168364247655 -5.750683374376037" fill="#ffa80f" stroke="none" /><path d="M 80.16572619554312 106.89939002012753 l -14.70132425727784 5.113883717816253 a36.565369947321265,36.565369947321265 0 0,0 -0.20113491878644027,-0.5946196480591917 l 14.786944597636648 -4.860762395282899" fill="#ffad10" stroke="none" /><path d="M 79.407916724674 104.11899336999214 l -17.45408930180028 3.4913066906402124 a38.79984426233354,38.79984426233354 0 0,0 -0.12503472952890432,-0.6542345395428179 l 17.511450323611342 -3.1911695860640803" fill="#ffcb12" stroke="none" /><path d="M 79.2786578344484 103.40968896794605 l -7.933401061399062 1.3054381256400505 a29.040088376434824,29.040088376434824 0 0,0 -0.07671908434749738,-0.4925915560686293 l 7.954641637884826 -1.1690583876399712" fill="#ff4306" stroke="none" /><path d="M 79.17382384314188 102.69636545807758 l -14.942104133218065 1.9345545313914978 a36.06681708798709,36.06681708798709 0 0,0 -0.07422536141891424,-0.6146924709065605 l 14.97311158089664 -1.677768383561538" fill="#ffa60f" stroke="none" /><path d="M 79.06263194458094 101.62068470465958 l -16.21195143722319 1.2549075727878325 a37.26044779270003,37.26044779270003 0 0,0 -0.04388932779082169,-0.6381411936951594 l 16.231104726179076 -0.9764229549383298" fill="#ffb610" stroke="none" /><path d="M 79.01933749520258 100.90099992219065 l -14.938679702401227 0.6415311836037989 a35.95244841189798,35.95244841189798 0 0,0 -0.02118680011080513,-0.6168305683994524 l 14.947491189508881 -0.3849943506402267" fill="#ffa40f" stroke="none" /><line stroke="#e1ed5e" stroke-width="0.3" x1="15.003131293944662" x2="10.003315487706104" y1="100.72959589197737" y2="100.7725132973878" /><path d="M 14.003168132696942 100.73817937305945 a86.0,86.0 0 0,1 10.791469493833604,-42.45332614584628" fill="none" id="id34" stroke="none" /><text fill="#e1ed5e" style="font-size:6.75px; font-family:Arial;" text-anchor="middle"><textPath startOffset="22.145653131862435" xlink:href="#id34">October</textPath></text><path d="M 79.00077361379809 100.18025310272382 l -29.970581646913978 0.2572613977743284 a50.97168576642164,50.97168576642164 0 0,0 0.0,-0.8750290009962809 l 29.970581646913978 0.2572613977743174" fill="#9dff22" stroke="none" /><path d="M 79.34024301695615 96.23510406497455 l -14.813981642990624 -2.699600935045453 a36.05795129914297,36.05795129914297 0 0,0 0.11619882176773037,-0.6080013364371519 l 14.765456528940735 2.9535048365159193" fill="#ffa60f" stroke="none" /><path d="M 79.48165901384962 95.52812308129327 l -29.091367175303148 -6.3403280749 a50.774274201492645,50.774274201492645 0 0,0 0.1929159806462924,-0.8500234061148187 l 28.978240333099194 6.838785814953827" fill="#9fff22" stroke="none" /><path d="M 79.94057633289273 93.78553927170692 l -14.61188796068289 -4.526800241363916 a36.29703207163932,36.29703207163932 0 0,0 0.1894969251245804,-0.5935964189760781 l 14.532026319781053 4.776965694031386" fill="#ffa90f" stroke="none" /><path d="M 80.16572619554312 93.10060997987247 l -14.098701149788514 -4.904260119054802 a35.92732867683965,35.92732867683965 0 0,0 0.20762545233317248,-0.5807653426857307 l 14.012435527411398 5.1455604181214545" fill="#ffa40f" stroke="none" /><path d="M 80.41425534168474 92.42381321644754 l -13.908810427282656 -5.380226668551885 a35.91314341468906,35.91314341468906 0 0,0 0.22734956531810072,-0.5730694203297629 l 13.814402186998423 5.618197106095232" fill="#ffa40f" stroke="none" /><line stroke="#e1ed5e" stroke-width="0.3" x1="26.387840678322718" x2="22.05771365940052" y1="57.49999999999999" y2="54.99999999999999" /><path d="M 25.521815274538284 56.99999999999999 a86.0,86.0 0 0,1 29.574782752854787,-30.34633250058573" fill="none" id="id35" stroke="none" /><text fill="#e1ed5e" style="font-size:6.75px; font-family:Arial;" text-anchor="middle"><textPath startOffset="21.40746469413373" xlink:href="#id35">November</textPath></text><path d="M 82.18462484594161 88.88188828441811 l -12.732311726748717 -7.945904195195015 a36.00830288161592,36.00830288161592 0 0,0 0.3317604553413889,-0.5215825397436255 l 12.594033579781438 8.163300409617314" fill="#ffa50f" stroke="none" /><path d="M 82.98947788004972 87.6856937992154 l -48.954195076231045 -35.439061995318255 a81.43542281369176,81.43542281369176 0 0,0 0.8294701178184037,-1.1253355191693246 l 48.33862293882882 36.274203823756444" fill="#4aebff" stroke="none" /><path d="M 83.42222388311158 87.10902102172516 l -12.670183567446273 -9.852411376966407 a37.05003307079966,37.05003307079966 0 0,0 0.39473029256086617,-0.4987288298293572 l 12.499186844243846 10.068460150710447" fill="#ffb310" stroke="none" /><path d="M 84.58840730492382 85.73525988315684 l -23.945771457845268 -22.163848571771183 a53.62876268300348,53.62876268300348 0 0,0 0.6311445638593449,-0.6702536551792083 l 23.56177106024965 22.5716436868949" fill="#7fff26" stroke="none" /><path d="M 85.08716467003674 85.21462403516908 l -10.634416682814363 -10.543524778695982 a35.97520393659788,35.97520393659788 0 0,0 0.4385687087019492,-0.43482028072422196 l 10.451856053982437 10.724525069648879" fill="#ffa50f" stroke="none" /><path d="M 88.72937992617638 82.28071324371311 l -33.811860221470866 -53.157860268860674 a84.0,84.0 0 0,0 1.2233434848412057,-0.7634568126338559 l 32.89435260783996 53.73045287833607" fill="#4dd2ff" stroke="none" /><line stroke="#e1ed5e" stroke-width="0.3" x1="56.869717070023135" x2="54.33264160355391" y1="26.7553504044142" y2="22.446841604673864" /><path d="M 56.362301976729285 25.89364864446614 a86.0,86.0 0 0,1 42.16139366436587,-11.88097634709845" fill="none" id="id36" stroke="none" /><text fill="#e1ed5e" style="font-size:6.75px; font-family:Arial;" text-anchor="middle"><textPath startOffset="22.145653131862474" xlink:href="#id36">December</textPath></text><path d="M 91.92203290615298 80.6158196554323 l -5.642326196332706 -13.539528854468868 a35.66815211629663,35.66815211629663 0 0,0 0.5672009655627617,-0.23067569484101919 l 5.409070769579504 13.634391805889178" fill="#ffa00e" stroke="none" /><path d="M 92.25597844496254 80.48000691201159 l -12.752303364087426 -32.14413489861644 a55.581304912772836,55.581304912772836 0 0,0 0.8899036380228044,-0.34423384449471 l 12.198627463571093 32.35830863124919" fill="#69ff28" stroke="none" /><path d="M 92.93061703081487 80.22567764915836 l -4.299152106403998 -12.025493590868763 a33.77087330365561,33.77087330365561 0 0,0 0.5475613063282948,-0.19047024607679391 l 4.092085028030699 12.097522269514142" fill="#ff860c" stroke="none" /><path d="M 96.41257539226777 79.30868818359171 l -4.757726827557489 -27.441304024647835 a48.850693548614075,48.850693548614075 0 0,0 0.8274900327001021,-0.13616316998391523 l 4.285959291804314 27.518933193127417" fill="#b6ff1f" stroke="none" /><path d="M 96.76829788921471 79.25015418208739 l -2.7962586035439796 -17.953986135327924 a39.17043423601761,39.17043423601761 0 0,0 0.6652909759253669,-0.09777486290803156 l 2.487642522010928 17.999342071534837" fill="#ffcf13" stroke="none" /><path d="M 98.1996594967304 79.07731436759882 l -1.2727600587616688 -14.791401152495878 a35.84605894576858,35.84605894576858 0 0,0 0.6135326190583057,-0.04749130496658167 l 1.018658444928146 14.811070224457513" fill="#ffa30f" stroke="none" /></svg>