<?xml version="1.0" encoding="utf-8" ?>
<svg baseProfile="full" height="200mm" version="1.1" viewBox="0,0,200,200" width="200mm" xmlns="http://www.w3.org/2000/svg" xmlns:ev="http://www.w3.org/2001/xml-events" xmlns:xlink="http://www.w3.org/1999/xlink"><defs /><rect fill="#1a1a1a" height="200" width="200" x="0" y="0" /><text alignment-baseline="middle" fill="#e1ed5e" style="dominant-baseline: central; font-size:9.0px; font-family:Arial;" text-anchor="middle" x="100.0" y="100.0">2026</text><line stroke="#e1ed5e" stroke-width="0.3" x1="100.0" x2="100.0" y1="15.0" y2="10.0" /><path d="M 100.0 14.0 a86.0,86.0 0 0,1 42.46469731375804,11.215312516191453" fill="none" id="id97" stroke="none" /><text fill="#e1ed5e" style="font-size:6.75px; font-family:Arial;" text-anchor="middle"><textPath startOffset="22.20632615414155" xlink:href="#id97">January</textPath></text><path d="M 100.0 79.0 l 0.0 -30.6106976976477 a51.6106976976477,51.6106976976477 0 0,0 0.8883933209207271,0.007646681788945911 l -0.5269128416481986 30.606162392467315" fill="#daff1b" stroke="none" /><path d="M 100.72285384407766 79.0124445844662 l 1.9543913064930467 -56.74438364645886 a77.77803026519503,77.77803026519503 0 0,0 1.3376308889988198,0.05760119986160806 l -2.930863027881198 56.702334720073054" fill="#43ffe3" stroke="none" /><path d="M 101.80526077348638 79.07773832637324 l 2.9634542931090144 -34.345268610982394 a55.47288118663537,55.47288118663537 0 0,0 0.9506331460465899,0.09027407184416564 l -3.5542125662458486 34.289168994623054" fill="#a4ff21" stroke="none" /><path d="M 102.52436894288641 79.15227682838746 l 4.0970453371247535 -33.83580963892661 a55.08295460220746,55.08295460220746 0 0,0 0.940306092150587,0.12207871772668898 l -4.678866157783187 33.76027259803578" fill="#a9ff21" stroke="none" /><path d="M 103.2404852339499 79.25152402106235 l 6.037718900735707 -38.65886018150246 a60.127503371123204,60.127503371123204 0 0,0 1.0212249695364748,0.16851087016671032 l -6.702273076411058 38.54920304839612" fill="#67ff29" stroke="none" /><path d="M 104.307194497241 79.44645832069477 l 7.052150949260861 -33.652225028897895 a55.38320930929431,55.38320930929431 0 0,0 0.9313801584431118,0.203563628133745 l -7.630373831857501 33.52584790266828" fill="#a5ff21" stroke="none" /><path d="M 105.01212808612495 79.60689891045804 l 7.839601131963456 -31.897384831085244 a53.84665135094641,53.84665135094641 0 0,0 0.8981906353482388,0.2289687919990047 l -8.387500655996721 31.75771304291737" fill="#bbff1f" stroke="none" /><path d="M 105.71112130821622 79.79150937346287 l 6.126515220764002 -21.67833928409688 a43.52741846876093,43.52741846876093 0 0,0 0.719259047900286,0.20997143946382715 l -6.498764486387715 21.56966951571435" fill="#ffa80f" stroke="none" /><path d="M 107.4271985657038 80.35727306442388 l 12.200660424540763 -32.26711108271476 a55.496703790640765,55.496703790640765 0 0,0 0.8906344506891777,0.34555233003102037 l -12.754278040229607 32.052316048793195" fill="#a4ff21" stroke="none" /><path d="M 108.09893153111575 80.62456947434976 l 8.8337009273791 -21.133251706750315 a43.90520900963891,43.90520900963891 0 0,0 0.6947816224530475,0.2974692315611311 l -9.196166307622462 20.978062947226395" fill="#ffae10" stroke="none" /><path d="M 109.08828744355905 81.06846463323043 l 14.880311045271615 -30.996723703071208 a55.38343405084153,55.38343405084153 0 0,0 0.8558816991014719,0.4199774326956835 l -15.41166401138352 30.73599111024069" fill="#a5ff21" stroke="none" /><path d="M 109.73455568895987 81.39251694778311 l 12.29583125561152 -23.503329685728755 a47.52534585226989,47.52534585226989 0 0,0 0.7216043781167352,0.3854560680477708 l -12.698580680256566 23.288194891179227" fill="#ffe715" stroke="none" /><line stroke="#e1ed5e" stroke-width="0.3" x1="143.23703022742887" x2="145.7803849466894" y1="26.81831364943548" y2="22.513508569990506" /><path d="M 143.74570117128098 25.957352633546492 a86.0,86.0 0 0,1 28.547481713284135,27.462654790039103" fill="none" id="id98" stroke="none" /><text fill="#e1ed5e" style="font-size:6.75px; font-family:Arial;" text-anchor="middle"><textPath startOffset="19.985693538727396" xlink:href="#id98">February</textPath></text><path d="M 110.68208982089419 81.91981866633111 l 32.04626946268258 -54.24054400100664 a84.0,84.0 0 0,0 1.23855173512945,0.7462135621655417 l -32.97518326402967 53.68088382938249" fill="#4dd2ff" stroke="none" /><path d="M 111.2981086023043 82.29822771554956 l 18.55529402849101 -29.072263431454353 a55.48906257803526,55.48906257803526 0 0,0 0.8007150318792488,0.5208073300719058 l -19.05297608615454 28.748557177222917" fill="#a4ff21" stroke="none" /><path d="M 111.90073688211348 82.69761687909136 l 7.162424712003502 -10.413390168133851 a33.63879039105029,33.63879039105029 0 0,0 0.47425706366012826,0.33224738086622424 l -7.340612915247282 10.28855794450369" fill="#ff0000" stroke="none" /><path d="M 112.77801427241765 83.33499621200491 l 36.990200240626265 -48.24238054416421 a81.79146481546222,81.79146481546222 0 0,0 1.1099002256299821,0.8662947310498619 l -37.815133021415676 47.59850742389113" fill="#4aebff" stroke="none" /><path d="M 113.06298171725822 83.55741782278167 l 16.7836588287623 -21.12585744200539 a47.98134645158068,47.98134645158068 0 0,0 0.6422568295161448,0.5193270235000799 l -17.144819056842934 20.83382432124118" fill="#ffee16" stroke="none" /><path d="M 113.6212207817346 84.01681056812373 l 15.713272206655954 -18.438010094542776 a45.22534085801328,45.22534085801328 0 0,0 0.5881581450779666,0.5100449476050088 l -16.028324150380687 18.164800153518094" fill="#ffc312" stroke="none" /><path d="M 113.89432698308785 84.25364557470407 l 14.888711968692643 -16.87328474999499 a43.50292164011387,43.50292164011387 0 0,0 0.5572289489839649,0.5002856522628133 l -15.176951905272597 16.614500088962878" fill="#ffa80f" stroke="none" /><path d="M 114.42810811169701 84.74124197986012 l 29.557028575078384 -31.258675311411608 a64.02002696898566,64.02002696898566 0 0,0 0.7942042747526501,0.7640238830648272 l -30.09071609344345 30.74526834158448" fill="#36ff2e" stroke="none" /><path d="M 114.68862486808459 84.99185889309783 l 9.674867896181546 -9.885321728926755 a34.83194326524497,34.83194326524497 0 0,0 0.4248903273885094,0.42306571329300174 l -9.843594023737378 9.717320164983635" fill="#ff1502" stroke="none" /><path d="M 115.19652480421416 85.50635884689758 l 20.08678710805956 -19.157714544199305 a48.75782849722819,48.75782849722819 0 0,0 0.5740251673464097,0.6123300257777994 l -20.413579597376433 18.80911510154345" fill="#fffa17" stroke="none" /><line stroke="#e1ed5e" stroke-width="0.3" x1="172.23445277983987" x2="176.4835382374775" y1="55.19839476539836" y2="52.563006222186495" /><path d="M 173.08426987136738 54.67131705675599 a86.0,86.0 0 0,1 12.851231095245387,41.99856678651699" fill="none" id="id99" stroke="none" /><text fill="#e1ed5e" style="font-size:6.75px; font-family:Arial;" text-anchor="middle"><textPath startOffset="22.20632615414155" xlink:href="#id99">March</textPath></text><line stroke="#e1ed5e" stroke-width="0.3" x1="184.98032266829074" x2="189.97916517819016" y1="98.17113171792111" y2="98.06355123074" /><path d="M 185.9800911702706 98.14961562048488 a86.0,86.0 0 0,1 -9.607161424134198,41.387399972396054" fill="none" id="id100" stroke="none" /><text fill="#e1ed5e" style="font-size:6.75px; font-family:Arial;" text-anchor="middle"><textPath startOffset="21.466115282336823" xlink:href="#id100">April</textPath></text><line stroke="#e1ed5e" stroke-width="0.3" x1="174.80103733775053" x2="179.2010983576182" y1="140.37084112569926" y2="142.7455964860345" /><path d="M 175.68104954172406 140.8457921977663 a86.0,86.0 0 0,1 -30.038265399797805,32.042727171017184" fill="none" id="id101" stroke="none" /><text fill="#e1ed5e" style="font-size:6.75px; font-family:Arial;" text-anchor="middle"><textPath startOffset="22.206326154141568" xlink:href="#id101">May</textPath></text><line stroke="#e1ed5e" stroke-width="0.3" x1="143.8653032363475" x2="146.44561519142675" y1="172.8068346515853" y2="177.08958963109032" /><path d="M 144.38136562736335 173.6633856474863 a86.0,86.0 0 0,1 -40.68145358897372,12.25698825130547" fill="none" id="id102" stroke="none" /><text fill="#e1ed5e" style="font-size:6.75px; font-family:Arial;" text-anchor="middle"><textPath startOffset="21.466115282336833" xlink:href="#id102">June</textPath></text><line stroke="#e1ed5e" stroke-width="0.3" x1="102.19456741930631" x2="102.32365962044197" y1="184.97166512339345" y2="189.96999836594603" /><path d="M 102.22038585953345 185.97133177190398 a86.0,86.0 0 0,1 -42.740103519485714,-10.115201625700543" fill="none" id="id103" stroke="none" /><text fill="#e1ed5e" style="font-size:6.75px; font-family:Arial;" text-anchor="middle"><textPath startOffset="22.20632615414155" xlink:href="#id103">July</textPath></text><line stroke="#e1ed5e" stroke-width="0.3" x1="58.666819895761336" x2="56.23545636021788" y1="174.27360380694188" y2="178.64263932499728" /><path d="M 58.180547188652646 175.14741091055294 a86.0,86.0 0 0,1 -31.652253787137756,-30.449443065178592" fill="none" id="id104" stroke="none" /><text fill="#e1ed5e" style="font-size:6.75px; font-family:Arial;" text-anchor="middle"><textPath startOffset="22.20632615414155" xlink:href="#id104">August</textPath></text><line stroke="#e1ed5e" stroke-width="0.3" x1="26.63291911575756" x2="22.317208475507996" y1="142.92168965132927" y2="145.44649492493687" /><path d="M 25.769776987707644 143.4266507060508 a86.0,86.0 0 0,1 -11.730757126820373,-40.83630448921669" fill="none" id="id105" stroke="none" /><text fill="#e1ed5e" style="font-size:6.75px; font-family:Arial;" text-anchor="middle"><textPath startOffset="21.46611528233685" xlink:href="#id105">September</textPath></text><line stroke="#e1ed5e" stroke-width="0.3" x1="15.007084014347285" x2="10.007500721073583" y1="101.09737516637583" y2="101.16192664675087" /><path d="M 14.007167355692545 101.11028546245083 a86.0,86.0 0 0,1 10.666146001902534,-42.60595125391555" fill="none" id="id106" stroke="none" /><text fill="#e1ed5e" style="font-size:6.75px; font-family:Arial;" text-anchor="middle"><textPath startOffset="22.20632615414155" xlink:href="#id106">October</textPath></text><line stroke="#e1ed5e" stroke-width="0.3" x1="26.266209847984243" x2="21.928928074336255" y1="57.711370442889674" y2="55.22380399835377" /><path d="M 25.398753493254645 57.213857153982495 a86.0,86.0 0 0,1 29.58750427330803,-30.492523968695096" fill="none" id="id107" stroke="none" /><text fill="#e1ed5e" style="font-size:6.75px; font-family:Arial;" text-anchor="middle"><textPath startOffset="21.46611528233685" xlink:href="#id107">November</textPath></text><line stroke="#e1ed5e" stroke-width="0.3" x1="56.762969772571076" x2="54.21961505331055" y1="26.818313649435495" y2="22.513508569990535" /><path d="M 56.25429882871897 25.957352633546506 a86.0,86.0 0 0,1 42.265352541879196,-11.944610805530505" fill="none" id="id108" stroke="none" /><text fill="#e1ed5e" style="font-size:6.75px; font-family:Arial;" text-anchor="middle"><textPath startOffset="22.20632615414155" xlink:href="#id108">December</textPath></text></svg>