<?xml version="1.0" encoding="utf-8" ?>
<svg baseProfile="full" height="200mm" version="1.1" viewBox="0,0,200,200" width="200mm" xmlns="http://www.w3.org/2000/svg" xmlns:ev="http://www.w3.org/2001/xml-events" xmlns:xlink="http://www.w3.org/1999/xlink"><defs /><rect fill="#1a1a1a" height="200" width="200" x="0" y="0" /><text alignment-baseline="middle" fill="#e1ed5e" style="dominant-baseline: central; font-size:9.0px; font-family:Arial;" text-anchor="middle" x="100.0" y="100.0">2025</text><line stroke="#e1ed5e" stroke-width="0.3" x1="100.0" x2="100.0" y1="15.0" y2="10.0" /><path d="M 100.0 14.0 a86.0,86.0 0 0,1 42.46469731375804,11.215312516191453" fill="none" id="id85" stroke="none" /><text fill="#e1ed5e" style="font-size:6.75px; font-family:Arial;" text-anchor="middle"><textPath startOffset="22.20632615414155" xlink:href="#id85">January</textPath></text><path d="M 100.0 79.0 l 0.0 -30.124206325781287 a51.12420632578129,51.12420632578129 0 0,0 0.8800191716700498,0.00757460284253206 l -0.5185386923975215 30.119743099547314" fill="#94ff23" stroke="none" /><path d="M 100.36148047927253 79.00311137660856 l 0.3091889122729602 -17.95949028187611 a38.96215156845847,38.96215156845847 0 0,0 0.6704706577305426,0.017316279008062437 l -0.6182862051983706 17.951507210725687" fill="#ffd814" stroke="none" /><path d="M 100.72285384407766 79.0124445844662 l 0.7182539193783316 -20.85399982151516 a41.86636521410609,41.86636521410609 0 0,0 0.7200200767433714,0.031005579107034144 l -1.0771148285110346 20.83854651588393" fill="#fffd17" stroke="none" /><path d="M 101.08401301168833 79.027996857942 l 2.4208783518252748 -46.83584777450736 a67.89837192004816,67.89837192004816 0 0,0 1.1666814005122002,0.07037740814760066 l -3.226721801177087 46.78723709697945" fill="#39ff86" stroke="none" /><path d="M 102.16513564639614 79.11191278185805 l 1.8530939483915403 -17.87767342976515 a38.973457220103654,38.973457220103654 0 0,0 0.6666935006095492,0.07491078288780058 l -2.160554152510815 17.84312669340675" fill="#ffd914" stroke="none" /><path d="M 102.52436894288641 79.15227682838746 l 2.5100216363716608 -20.72923467755918 a41.88064603723687,41.88064603723687 0 0,0 0.714933084044079,0.09281883302582178 l -2.866469448923586 20.68295752136922" fill="#fffd18" stroke="none" /><path d="M 102.88285421437855 79.19881850522331 l 2.453753067729096 -17.705010073220294 a38.87423525105961,38.87423525105961 0 0,0 0.662030113709178,0.09756602960737816 l -2.75815216186693 17.660149559451945" fill="#ffd714" stroke="none" /><path d="M 103.59715602781102 79.31037775812273 l 8.221676566888474 -47.288296934767565 a68.9976977839695,68.9976977839695 0 0,0 1.1683770459355771,0.21351343706659393 l -9.034448733926952 47.13976801635023" fill="#3aff92" stroke="none" /><path d="M 104.66035177308747 79.52364482259891 l 3.9903804693227376 -17.532678167057146 a38.98104390739188,38.98104390739188 0 0,0 0.6529813287663953,0.1545395835384124 l -4.291585485051656 17.46139267137786" fill="#ffd914" stroke="none" /><path d="M 105.01212808612495 79.60689891045804 l 8.880273633528965 -36.1316220973439 a58.20689956434988,58.20689956434988 0 0,0 0.9709218825997739,0.24750960635219407 l -9.500904404813765 35.97340949482284" fill="#48ff2c" stroke="none" /><path d="M 105.71112130821622 79.79150937346287 l 4.871279481477241 -17.236756221419167 a38.91187117035218,38.91187117035218 0 0,0 0.6429904734665696,0.18770655116460955 l -5.167260172667238 17.150351341335853" fill="#ffd814" stroke="none" /><path d="M 106.0581310904928 79.89281104454417 l 16.319854587810077 -54.166275873037826 a77.57139821253585,77.57139821253585 0 0,0 1.2751800629642391,0.3962046528214705 l -17.249820023485036 53.877331085333836" fill="#45ffee" stroke="none" /><path d="M 107.08798089147638 80.2323363322302 l 4.058126592880981 -11.317705681990708 a33.02326300752057,33.02326300752057 0 0,0 0.5334321177529352,0.1964675507872334 l -4.252341036406493 11.246174863397151" fill="#ff8a0c" stroke="none" /><path d="M 107.76421540070413 80.48803036053334 l 6.762872604347401 -16.99553118009067 a39.2916518104863,39.2916518104863 0 0,0 0.6262642691184002,0.25546891993272197 l -7.054420743054188 16.876601373974367" fill="#ffdd14" stroke="none" /><path d="M 108.09893153111575 80.62456947434976 l 6.931647362740468 -16.58288521011639 a38.973308461529385,38.973308461529385 0 0,0 0.6167363530673503,0.264054320226579 l -7.216067473598133 16.46111136192702" fill="#ffd914" stroke="none" /><path d="M 108.43124777332544 80.76684994638697 l 17.924660957803578 -40.88928508924613 a65.64557207116798,65.64557207116798 0 0,0 1.031003976788044,0.4625814313402221 l -18.6258470530584 40.57468332738938" fill="#36ff6c" stroke="none" /><path d="M 109.41281617654863 81.2277094730956 l 1.065780477911381 -2.1255212461390522 a23.377757051274482,23.377757051274482 0 0,0 0.3581689597593135,0.18346805254659196 l -1.1022099252594502 2.1068606682799595" fill="#ff0000" stroke="none" /><path d="M 110.05341064243156 81.56283822128135 l 7.829888335387635 -14.359397331245212 a37.355410207671696,37.355410207671696 0 0,0 0.5618892489255284,0.3126907586824746 l -8.075901673385198 14.222491175002558" fill="#ffc412" stroke="none" /><line stroke="#e1ed5e" stroke-width="0.3" x1="143.23703022742887" x2="145.7803849466894" y1="26.81831364943548" y2="22.513508569990506" /><path d="M 143.74570117128098 25.957352633546492 a86.0,86.0 0 0,1 28.547481713284135,27.462654790039103" fill="none" id="id86" stroke="none" /><text fill="#e1ed5e" style="font-size:6.75px; font-family:Arial;" text-anchor="middle"><textPath startOffset="19.985693538727396" xlink:href="#id86">February</textPath></text><path d="M 110.99172775467656 82.1063720568725 l 7.567617883608393 -12.319458946518564 a35.45814335131817,35.45814335131817 0 0,0 0.5173188578706028,0.32394502133964825 l -7.778555893851259 12.18736958385597" fill="#ffab0f" stroke="none" /><path d="M 111.90073688211348 82.69761687909136 l 15.38734466569362 -22.371533398024283 a48.15245628741101,48.15245628741101 0 0,0 0.678878231393421,0.4755975853407654 l -15.770154036670693 22.103350969919582" fill="#b5ff1f" stroke="none" /><path d="M 112.48926042617603 83.11751280151076 l 10.679032065234864 -14.435492253466018 a38.956201225487305,38.956201225487305 0 0,0 0.5356549018486597,0.403444166781689 l -10.925933120841906 14.249531497178483" fill="#ffd814" stroke="none" /><path d="M 112.77801427241765 83.33499621200491 l 9.416304743122291 -12.280683904992916 a36.47520572366324,36.47520572366324 0 0,0 0.4949641035764969,0.386327333831974 l -9.626301401858218 12.116778181937716" fill="#ffb811" stroke="none" /><path d="M 113.06298171725822 83.55741782278167 l 23.235670193978628 -29.247106432253748 a58.35357551858892,58.35357551858892 0 0,0 0.7810948457088408,0.6315910437244008 l -23.73566843825196 28.84280929126522" fill="#46ff2c" stroke="none" /><path d="M 113.6212207817346 84.01681056812373 l 18.323107760308652 -21.500400515231977 a49.24895573842103,49.24895573842103 0 0,0 0.6404854867778006,0.5554227026849173 l -18.690487045733217 21.181812819127387" fill="#a9ff21" stroke="none" /><path d="M 113.89432698308785 84.25364557470407 l 9.96423094258991 -11.292401005712636 a36.06002054285073,36.06002054285073 0 0,0 0.46189282443284424,0.41469193832847373 l -10.157134754618745 11.119210058614865" fill="#ffb310" stroke="none" /><path d="M 114.16331599549186 84.49514656593476 l 10.12412642440411 -11.083075206985201 a36.011078971912966,36.011078971912966 0 0,0 0.4540690384668441,0.42200768502341574 l -10.313403346665801 10.907162935887145" fill="#ffb210" stroke="none" /><path d="M 114.68862486808459 84.99185889309783 l 31.482328537466753 -32.167152017802714 a66.00958430242855,66.00958430242855 0 0,0 0.8052043973390132,0.8017465937637246 l -32.031368734973086 31.62046957338887" fill="#36ff70" stroke="none" /><path d="M 115.4437574822437 85.77008943001954 l 10.97584184846846 -10.113163724147295 a35.9246502402569,35.9246502402569 0 0,0 0.41511165902109526,0.45837666191396015 l -11.148297148105593 9.922734274963787" fill="#ffb110" stroke="none" /><path d="M 115.68641384162765 86.03803664274999 l 33.35588552358047 -29.688981569067998 a65.65479510277328,65.65479510277328 0 0,0 0.7441131156947279,0.8506499241974997 l -33.86199050285304 29.110416088667552" fill="#36ff6c" stroke="none" /><path d="M 116.38621287248628 86.86637796730983 l 30.424020908440408 -24.384987210622715 a59.990366111380034,59.990366111380034 0 0,0 0.6388857421182995,0.8113200126273247 l -30.83926073115267 23.857674804042354" fill="#36ff2f" stroke="none" /><path d="M 116.82858285166822 87.43820079747576 l 12.14373553924928 -9.064766104026697 a36.15388720322074,36.15388720322074 0 0,0 0.3679732094425446,0.5019150441430205 l -12.29797136120545 8.854388616212184" fill="#ffb410" stroke="none" /><path d="M 117.04232023915458 87.72973835380427 l 12.059059765687428 -8.682375196315219 a35.85949398472273,35.85949398472273 0 0,0 0.35635351689667655,0.5040367778953152 l -12.206725902387987 8.47351191808811" fill="#ffb010" stroke="none" /><path d="M 117.45458315368197 88.32363383020206 l 10.033938197336033 -6.712273532152694 a33.07205581988406,33.07205581988406 0 0,0 0.3124574833474057,0.47589418361385716 l -10.147992316041364 6.538561284561163" fill="#ff8b0c" stroke="none" /><line stroke="#e1ed5e" stroke-width="0.3" x1="172.23445277983987" x2="176.4835382374775" y1="55.19839476539836" y2="52.563006222186495" /><path d="M 173.08426987136738 54.67131705675599 a86.0,86.0 0 0,1 12.851231095245387,41.99856678651699" fill="none" id="id87" stroke="none" /><text fill="#e1ed5e" style="font-size:6.75px; font-family:Arial;" text-anchor="middle"><textPath startOffset="22.20632615414155" xlink:href="#id87">March</textPath></text><path d="M 118.03404312379186 89.2402003453031 l 54.10212937137558 -32.279398964090696 a84.0,84.0 0 0,0 0.7301613021186908,1.2480823505844187 l -54.6497503479646 31.34333720115238" fill="#4dd2ff" stroke="none" /><path d="M 118.3937258080291 89.86733742301442 l 13.169317870172376 -7.254661493827139 a36.03532661952043,36.03532661952043 0 0,0 0.2946177963137579,0.5458820318807388 l -13.2922437657046 7.0268984786139415" fill="#ffb210" stroke="none" /><path d="M 118.56541770881063 90.18545643968196 l 15.83898569742525 -8.37322475135376 a38.91603641043199,38.91603641043199 0 0,0 0.3079751500100592,0.5949099632980136 l -15.980770280595426 8.099342065795401" fill="#ffd814" stroke="none" /><line stroke="#e1ed5e" stroke-width="0.3" x1="184.98032266829074" x2="189.97916517819016" y1="98.17113171792111" y2="98.06355123074" /><path d="M 185.9800911702706 98.14961562048488 a86.0,86.0 0 0,1 -9.607161424134198,41.387399972396054" fill="none" id="id88" stroke="none" /><text fill="#e1ed5e" style="font-size:6.75px; font-family:Arial;" text-anchor="middle"><textPath startOffset="21.466115282336823" xlink:href="#id88">April</textPath></text><line stroke="#e1ed5e" stroke-width="0.3" x1="174.80103733775053" x2="179.2010983576182" y1="140.37084112569926" y2="142.7455964860345" /><path d="M 175.68104954172406 140.8457921977663 a86.0,86.0 0 0,1 -30.038265399797805,32.042727171017184" fill="none" id="id89" stroke="none" /><text fill="#e1ed5e" style="font-size:6.75px; font-family:Arial;" text-anchor="middle"><textPath startOffset="22.206326154141568" xlink:href="#id89">May</textPath></text><line stroke="#e1ed5e" stroke-width="0.3" x1="143.8653032363475" x2="146.44561519142675" y1="172.8068346515853" y2="177.08958963109032" /><path d="M 144.38136562736335 173.6633856474863 a86.0,86.0 0 0,1 -40.68145358897372,12.25698825130547" fill="none" id="id90" stroke="none" /><text fill="#e1ed5e" style="font-size:6.75px; font-family:Arial;" text-anchor="middle"><textPath startOffset="21.466115282336833" xlink:href="#id90">June</textPath></text><line stroke="#e1ed5e" stroke-width="0.3" x1="102.19456741930631" x2="102.32365962044197" y1="184.97166512339345" y2="189.96999836594603" /><path d="M 102.22038585953345 185.97133177190398 a86.0,86.0 0 0,1 -42.740103519485714,-10.115201625700543" fill="none" id="id91" stroke="none" /><text fill="#e1ed5e" style="font-size:6.75px; font-family:Arial;" text-anchor="middle"><textPath startOffset="22.20632615414155" xlink:href="#id91">July</textPath></text><line stroke="#e1ed5e" stroke-width="0.3" x1="58.666819895761336" x2="56.23545636021788" y1="174.27360380694188" y2="178.64263932499728" /><path d="M 58.180547188652646 175.14741091055294 a86.0,86.0 0 0,1 -31.652253787137756,-30.449443065178592" fill="none" id="id92" stroke="none" /><text fill="#e1ed5e" style="font-size:6.75px; font-family:Arial;" text-anchor="middle"><textPath startOffset="22.20632615414155" xlink:href="#id92">August</textPath></text><line stroke="#e1ed5e" stroke-width="0.3" x1="26.63291911575756" x2="22.317208475507996" y1="142.92168965132927" y2="145.44649492493687" /><path d="M 25.769776987707644 143.4266507060508 a86.0,86.0 0 0,1 -11.730757126820373,-40.83630448921669" fill="none" id="id93" stroke="none" /><text fill="#e1ed5e" style="font-size:6.75px; font-family:Arial;" text-anchor="middle"><textPath startOffset="21.46611528233685" xlink:href="#id93">September</textPath></text><line stroke="#e1ed5e" stroke-width="0.3" x1="15.007084014347285" x2="10.007500721073583" y1="101.09737516637583" y2="101.16192664675087" /><path d="M 14.007167355692545 101.11028546245083 a86.0,86.0 0 0,1 10.666146001902534,-42.60595125391555" fill="none" id="id94" stroke="none" /><text fill="#e1ed5e" style="font-size:6.75px; font-family:Arial;" text-anchor="middle"><textPath startOffset="22.20632615414155" xlink:href="#id94">October</textPath></text><line stroke="#e1ed5e" stroke-width="0.3" x1="26.266209847984243" x2="21.928928074336255" y1="57.711370442889674" y2="55.22380399835377" /><path d="M 25.398753493254645 57.213857153982495 a86.0,86.0 0 0,1 29.58750427330803,-30.492523968695096" fill="none" id="id95" stroke="none" /><text fill="#e1ed5e" style="font-size:6.75px; font-family:Arial;" text-anchor="middle"><textPath startOffset="21.46611528233685" xlink:href="#id95">November</textPath></text><line stroke="#e1ed5e" stroke-width="0.3" x1="56.762969772571076" x2="54.21961505331055" y1="26.818313649435495" y2="22.513508569990535" /><path d="M 56.25429882871897 25.957352633546506 a86.0,86.0 0 0,1 42.265352541879196,-11.944610805530505" fill="none" id="id96" stroke="none" /><text fill="#e1ed5e" style="font-size:6.75px; font-family:Arial;" text-anchor="middle"><textPath startOffset="22.20632615414155" xlink:href="#id96">December</textPath></text></svg>