<?xml version="1.0" encoding="utf-8" ?>
<svg baseProfile="full" height="200mm" version="1.1" viewBox="0,0,200,200" width="200mm" xmlns="http://www.w3.org/2000/svg" xmlns:ev="http://www.w3.org/2001/xml-events" xmlns:xlink="http://www.w3.org/1999/xlink"><defs /><rect fill="#1a1a1a" height="200" width="200" x="0" y="0" /><text alignment-baseline="middle" fill="#e1ed5e" style="dominant-baseline: central; font-size:9.0px; font-family:Arial;" text-anchor="middle" x="100.0" y="100.0">2025</text><line stroke="#e1ed5e" stroke-width="0.3" x1="100.0" x2="100.0" y1="15.0" y2="10.0" /><path d="M 100.0 14.0 a86.0,86.0 0 0,1 42.46469731375804,11.215312516191453" fill="none" id="id85" stroke="none" /><text fill="#e1ed5e" style="font-size:6.75px; font-family:Arial;" text-anchor="middle"><textPath startOffset="22.20632615414155" xlink:href="#id85">January</textPath></text><path d="M 100.0 79.0 l 0.0 -33.54742959320519 a54.54742959320519,54.54742959320519 0 0,0 0.9389443329731576,0.008081790309205259 l -0.5774638537006291 33.54245917950454" fill="#b7ff1f" stroke="none" /><path d="M 100.36148047927253 79.00311137660856 l 0.3443242007209234 -20.000352183401983 a41.00331589050462,41.00331589050462 0 0,0 0.7055955348342571,0.018223450955169876 l -0.6885463707500483 19.99146194030445" fill="#ff740a" stroke="none" /><path d="M 100.72285384407766 79.0124445844662 l 0.7998741121941686 -23.223784991482233 a44.23755554971206,44.23755554971206 0 0,0 0.7607999399745102,0.03276164580048798 l -1.1995148845580104 23.20657561915755" fill="#ffaa0f" stroke="none" /><path d="M 101.08401301168833 79.027996857942 l 2.6959796113223145 -52.15813119393815 a73.22776039338399,73.22776039338399 0 0,0 1.2582550013529759,0.07590137782697272 l -3.5933966615149022 52.103996546730876" fill="#3cffa7" stroke="none" /><path d="M 102.16513564639614 79.11191278185805 l 2.063673913627914 -19.90923791283676 a41.01590628204791,41.01590628204791 0 0,0 0.7016323439160114,0.07883656902924084 l -2.4060729610536504 19.870765390336917" fill="#ff750a" stroke="none" /><path d="M 102.52436894288641 79.15227682838746 l 2.7952528678418576 -23.084841915695126 a44.253459202187805,44.253459202187805 0 0,0 0.7554387303125358,0.09807762843129932 l -3.1922063266622396 23.03330596409969" fill="#ffaa0f" stroke="none" /><path d="M 102.88285421437855 79.19881850522331 l 2.7325901100439434 -19.716953617132088 a40.90540902995083,40.90540902995083 0 0,0 0.696621101779247,0.10266384207286272 l -3.071580192251846 19.666995290898257" fill="#ff730a" stroke="none" /><path d="M 103.59715602781102 79.31037775812273 l 9.155962908464865 -52.66199530189786 a74.4520103079229,74.4520103079229 0 0,0 1.260738005199738,0.23039181201572492 l -10.061096034767504 52.4965880085314" fill="#3effb7" stroke="none" /><path d="M 104.66035177308747 79.52364482259891 l 4.443835180153373 -19.525038436823316 a41.02435509742565,41.02435509742565 0 0,0 0.6872093514720284,0.16264025064977514 l -4.779268218587926 19.44565227403267" fill="#ff750a" stroke="none" /><path d="M 105.01212808612495 79.60689891045804 l 9.889400944457348 -40.23750983811204 a62.43497856898682,62.43497856898682 0 0,0 1.0414484775170019,0.26548840573673665 l -10.580558310659375 40.061318436206435" fill="#4eff2c" stroke="none" /><path d="M 105.71112130821622 79.79150937346287 l 5.424836879231688 -19.195488820510988 a40.94732178074627,40.94732178074627 0 0,0 0.6766248198069301,0.1975253391758651 l -5.754451916762046 19.09926515241642" fill="#ff730a" stroke="none" /><path d="M 106.0581310904928 79.89281104454417 l 18.174393271478365 -60.321566866367476 a84.0,84.0 0 0,0 1.380858509157127,0.4290394604699177 l -19.21003715334621 59.99978727101504" fill="#4dd2ff" stroke="none" /><path d="M 107.08798089147638 80.2323363322302 l 4.519279767330354 -12.603815364199626 a34.38955008020195,34.38955008020195 0 0,0 0.5555020569492196,0.2045960956491036 l -4.73556415005215 12.524156000744197" fill="#ff0000" stroke="none" /><path d="M 107.76421540070413 80.48803036053334 l 7.5313848965372365 -18.926851698504557 a41.37025953877304,41.37025953877304 0 0,0 0.659394913663915,0.26898374170378075 l -7.856063679789539 18.794407070617197" fill="#ff7b0b" stroke="none" /><path d="M 108.09893153111575 80.62456947434976 l 7.719338705612563 -18.467313894423572 a41.01574061900129,41.01574061900129 0 0,0 0.6490569901882685,0.27789233029653515 l -8.036079453591146 18.33170203616425" fill="#ff750a" stroke="none" /><line stroke="#e1ed5e" stroke-width="0.3" x1="143.23703022742887" x2="145.7803849466894" y1="26.81831364943548" y2="22.513508569990506" /><path d="M 143.74570117128098 25.957352633546492 a86.0,86.0 0 0,1 28.547481713284135,27.462654790039103" fill="none" id="id86" stroke="none" /><text fill="#e1ed5e" style="font-size:6.75px; font-family:Arial;" text-anchor="middle"><textPath startOffset="19.985693538727396" xlink:href="#id86">February</textPath></text><line stroke="#e1ed5e" stroke-width="0.3" x1="172.23445277983987" x2="176.4835382374775" y1="55.19839476539836" y2="52.563006222186495" /><path d="M 173.08426987136738 54.67131705675599 a86.0,86.0 0 0,1 12.851231095245387,41.99856678651699" fill="none" id="id87" stroke="none" /><text fill="#e1ed5e" style="font-size:6.75px; font-family:Arial;" text-anchor="middle"><textPath startOffset="22.20632615414155" xlink:href="#id87">March</textPath></text><line stroke="#e1ed5e" stroke-width="0.3" x1="184.98032266829074" x2="189.97916517819016" y1="98.17113171792111" y2="98.06355123074" /><path d="M 185.9800911702706 98.14961562048488 a86.0,86.0 0 0,1 -9.607161424134198,41.387399972396054" fill="none" id="id88" stroke="none" /><text fill="#e1ed5e" style="font-size:6.75px; font-family:Arial;" text-anchor="middle"><textPath startOffset="21.466115282336823" xlink:href="#id88">April</textPath></text><line stroke="#e1ed5e" stroke-width="0.3" x1="174.80103733775053" x2="179.2010983576182" y1="140.37084112569926" y2="142.7455964860345" /><path d="M 175.68104954172406 140.8457921977663 a86.0,86.0 0 0,1 -30.038265399797805,32.042727171017184" fill="none" id="id89" stroke="none" /><text fill="#e1ed5e" style="font-size:6.75px; font-family:Arial;" text-anchor="middle"><textPath startOffset="22.206326154141568" xlink:href="#id89">May</textPath></text><line stroke="#e1ed5e" stroke-width="0.3" x1="143.8653032363475" x2="146.44561519142675" y1="172.8068346515853" y2="177.08958963109032" /><path d="M 144.38136562736335 173.6633856474863 a86.0,86.0 0 0,1 -40.68145358897372,12.25698825130547" fill="none" id="id90" stroke="none" /><text fill="#e1ed5e" style="font-size:6.75px; font-family:Arial;" text-anchor="middle"><textPath startOffset="21.466115282336833" xlink:href="#id90">June</textPath></text><line stroke="#e1ed5e" stroke-width="0.3" x1="102.19456741930631" x2="102.32365962044197" y1="184.97166512339345" y2="189.96999836594603" /><path d="M 102.22038585953345 185.97133177190398 a86.0,86.0 0 0,1 -42.740103519485714,-10.115201625700543" fill="none" id="id91" stroke="none" /><text fill="#e1ed5e" style="font-size:6.75px; font-family:Arial;" text-anchor="middle"><textPath startOffset="22.20632615414155" xlink:href="#id91">July</textPath></text><line stroke="#e1ed5e" stroke-width="0.3" x1="58.666819895761336" x2="56.23545636021788" y1="174.27360380694188" y2="178.64263932499728" /><path d="M 58.180547188652646 175.14741091055294 a86.0,86.0 0 0,1 -31.652253787137756,-30.449443065178592" fill="none" id="id92" stroke="none" /><text fill="#e1ed5e" style="font-size:6.75px; font-family:Arial;" text-anchor="middle"><textPath startOffset="22.20632615414155" xlink:href="#id92">August</textPath></text><line stroke="#e1ed5e" stroke-width="0.3" x1="26.63291911575756" x2="22.317208475507996" y1="142.92168965132927" y2="145.44649492493687" /><path d="M 25.769776987707644 143.4266507060508 a86.0,86.0 0 0,1 -11.730757126820373,-40.83630448921669" fill="none" id="id93" stroke="none" /><text fill="#e1ed5e" style="font-size:6.75px; font-family:Arial;" text-anchor="middle"><textPath startOffset="21.46611528233685" xlink:href="#id93">September</textPath></text><line stroke="#e1ed5e" stroke-width="0.3" x1="15.007084014347285" x2="10.007500721073583" y1="101.09737516637583" y2="101.16192664675087" /><path d="M 14.007167355692545 101.11028546245083 a86.0,86.0 0 0,1 10.666146001902534,-42.60595125391555" fill="none" id="id94" stroke="none" /><text fill="#e1ed5e" style="font-size:6.75px; font-family:Arial;" text-anchor="middle"><textPath startOffset="22.20632615414155" xlink:href="#id94">October</textPath></text><line stroke="#e1ed5e" stroke-width="0.3" x1="26.266209847984243" x2="21.928928074336255" y1="57.711370442889674" y2="55.22380399835377" /><path d="M 25.398753493254645 57.213857153982495 a86.0,86.0 0 0,1 29.58750427330803,-30.492523968695096" fill="none" id="id95" stroke="none" /><text fill="#e1ed5e" style="font-size:6.75px; font-family:Arial;" text-anchor="middle"><textPath startOffset="21.46611528233685" xlink:href="#id95">November</textPath></text><line stroke="#e1ed5e" stroke-width="0.3" x1="56.762969772571076" x2="54.21961505331055" y1="26.818313649435495" y2="22.513508569990535" /><path d="M 56.25429882871897 25.957352633546506 a86.0,86.0 0 0,1 42.265352541879196,-11.944610805530505" fill="none" id="id96" stroke="none" /><text fill="#e1ed5e" style="font-size:6.75px; font-family:Arial;" text-anchor="middle"><textPath startOffset="22.20632615414155" xlink:href="#id96">December</textPath></text></svg>