<?xml version="1.0" encoding="utf-8" ?>
<svg baseProfile="full" height="200mm" version="1.1" viewBox="0,0,200,200" width="200mm" xmlns="http://www.w3.org/2000/svg" xmlns:ev="http://www.w3.org/2001/xml-events" xmlns:xlink="http://www.w3.org/1999/xlink"><defs /><rect fill="#1a1a1a" height="200" width="200" x="0" y="0" /><text alignment-baseline="middle" fill="#e1ed5e" style="dominant-baseline: central; font-size:9.0px; font-family:Arial;" text-anchor="middle" x="100.0" y="100.0">2021</text><line stroke="#e1ed5e" stroke-width="0.3" x1="100.0" x2="100.0" y1="15.0" y2="10.0" /><path d="M 100.0 14.0 a86.0,86.0 0 0,1 42.46469731375804,11.215312516191453" fill="none" id="id37" stroke="none" /><text fill="#e1ed5e" style="font-size:6.75px; font-family:Arial;" text-anchor="middle"><textPath startOffset="22.20632615414155" xlink:href="#id37">January</textPath></text><path d="M 101.44485096284872 79.0497635885617 l 0.3303692710201917 -4.790330981474553 a25.801709567155157,25.801709567155157 0 0,0 0.4428185361536314,0.03437124096335962 l -0.4127779965361643 4.7839344783227284" fill="#ff2e04" stroke="none" /><path d="M 101.80526077348638 79.07773832637324 l 1.3017458539136126 -15.086721978421622 a36.142777893186285,36.142777893186285 0 0,0 0.6193751238531403,0.05881713115278551 l -1.5612461048569972 15.062079302753657" fill="#ffbb11" stroke="none" /><path d="M 103.59715602781102 79.31037775812273 l 1.5616722879180638 -8.982209682546001 a30.11695733872186,30.11695733872186 0 0,0 0.5099874746278709,0.09319695123034204 l -1.7160548836488356 8.953997249964921" fill="#ff6b09" stroke="none" /><path d="M 103.95276090670814 79.375362276772 l 1.5435060311813964 -8.053675258401967 a29.200249754494635,29.200249754494635 0 0,0 0.4928356840448679,0.09885820186200178 l -1.6819081246933896 8.025913100462756" fill="#ff5e08" stroke="none" /><path d="M 104.307194497241 79.44645832069477 l 3.081784973503738 -14.705998519486272 a36.02543813264844,36.02543813264844 0 0,0 0.605840266290559,0.13241321662013175 l -3.3344679639478247 14.650771804770269" fill="#ffba11" stroke="none" /><path d="M 105.01212808612495 79.60689891045804 l 3.626024120699603 -14.753389214303697 a36.19245023795135,36.19245023795135 0 0,0 0.603709219764948,0.15389892226459054 l -3.879442229149576 14.68878729587024" fill="#ffbc11" stroke="none" /><path d="M 106.0581310904928 79.89281104454417 l 2.1893396109767833 -7.266509190376974 a28.589160938208188,28.589160938208188 0 0,0 0.46997126370461106,0.14602235933591057 l -2.3140962473921123 7.227746696158542" fill="#ff5607" stroke="none" /><path d="M 106.40334571778207 80.00007090966166 l 1.9896783646987326 -6.214474114063339 a27.525220954827013,27.525220954827013 0 0,0 0.4499943416840515,0.1483560594675476 l -2.096355528625202 6.179304330336556" fill="#ff4706" stroke="none" /><path d="M 106.74666289553966 80.11325718540242 l 6.7958116569075795 -20.031615738013716 a42.15298289016468,42.15298289016468 0 0,0 0.6851224591821964,0.2390257732765403 l -7.1396161201530495 19.91166911156497" fill="#f7ff18" stroke="none" /><path d="M 108.76106565485865 80.91482961587045 l 6.332422874958811 -13.794596944485324 a36.17861931560659,36.17861931560659 0 0,0 0.5637348821506525,0.2646810860292354 l -6.568935968409062 13.683550875816085" fill="#ffbc11" stroke="none" /><line stroke="#e1ed5e" stroke-width="0.3" x1="143.23703022742887" x2="145.7803849466894" y1="26.81831364943548" y2="22.513508569990506" /><path d="M 143.74570117128098 25.957352633546492 a86.0,86.0 0 0,1 28.547481713284135,27.462654790039103" fill="none" id="id38" stroke="none" /><text fill="#e1ed5e" style="font-size:6.75px; font-family:Arial;" text-anchor="middle"><textPath startOffset="19.985693538727396" xlink:href="#id38">February</textPath></text><path d="M 110.99172775467656 82.1063720568725 l 3.566104905602543 -5.805325223767917 a27.813142090950294,27.813142090950294 0 0,0 0.4057816213817159,0.254100414082753 l -3.665505679356522 5.74308046836222" fill="#ff4b06" stroke="none" /><path d="M 111.2981086023043 82.29822771554956 l 7.908297298566298 -12.390647219341076 a35.699296060583166,35.699296060583166 0 0,0 0.5151458982212404,0.33506522191849836 l -8.120410222571818 12.25268307326305" fill="#ffb610" stroke="none" /><path d="M 112.48926042617603 83.11751280151076 l 14.037769985220173 -18.97570104104064 a44.60373309789998,44.60373309789998 0 0,0 0.613309499464435,0.46193199975724786 l -14.362325638442991 18.731252451777543" fill="#daff1c" stroke="none" /><path d="M 114.16331599549186 84.49514656593476 l 5.408537390766012 -5.920829526304476 a29.01925800725185,29.01925800725185 0 0,0 0.365908130402074,0.3400717291000689 l -5.509653404962933 5.826853211129766" fill="#ff5c08" stroke="none" /><path d="M 114.68862486808459 84.99185889309783 l 15.572683023670507 -15.911429853459385 a43.26391826559903,43.26391826559903 0 0,0 0.5277460478158826,0.5254797385694194 l -15.844264871653712 15.641014264239848" fill="#eaff1a" stroke="none" /><path d="M 115.68641384162765 86.03803664274999 l 6.760011343462425 -6.0168647611188755 a30.049884801329505,30.049884801329505 0 0,0 0.34057700386975137,0.38933839011120147 l -6.862580210910024 5.899610814804726" fill="#ff6a09" stroke="none" /><path d="M 116.15771136456269 86.58626213691792 l 6.332622438748503 -5.2571886861121015 a29.230439832300952,29.230439832300952 0 0,0 0.31805712280717,0.3899004250640679 l -6.4221780536320825 5.147404091439933" fill="#ff5f08" stroke="none" /><path d="M 116.60985879189232 87.15038557335679 l 11.960293441999553 -9.252646942081237 a36.12151099108627,36.12151099108627 0 0,0 0.3762211204385568,0.4950628943531049 l -12.117790502662224 9.0453992718471" fill="#ffbb11" stroke="none" /><path d="M 117.65298651832404 88.62581576622439 l 32.63991434556272 -21.030571725397333 a59.828455487989125,59.828455487989125 0 0,0 0.5503431695003193,0.8705107289514755 l -32.99708511130899 20.46561334873165" fill="#35ff2f" stroke="none" /><line stroke="#e1ed5e" stroke-width="0.3" x1="172.23445277983987" x2="176.4835382374775" y1="55.19839476539836" y2="52.563006222186495" /><path d="M 173.08426987136738 54.67131705675599 a86.0,86.0 0 0,1 12.851231095245387,41.99856678651699" fill="none" id="id39" stroke="none" /><text fill="#e1ed5e" style="font-size:6.75px; font-family:Arial;" text-anchor="middle"><textPath startOffset="22.20632615414155" xlink:href="#id39">March</textPath></text><path d="M 118.3937258080291 89.86733742301442 l 6.588144048857078 -3.6292506125379345 a28.52164224203052,28.52164224203052 0 0,0 0.23318737952119745,0.43206079922753127 l -6.64963952759674 3.5153088299779442" fill="#ff5507" stroke="none" /><path d="M 119.196687751892 91.48605970444005 l 15.052109017613104 -6.675774443723334 a37.466084850430576,37.466084850430576 0 0,0 0.25639164089663197,0.5917872568513688 l -15.164791368352416 6.415688042285363" fill="#ffcc13" stroke="none" /><path d="M 119.34039704204932 91.81776055985345 l 13.976059314360505 -5.91277746217721 a36.175347484514276,36.175347484514276 0 0,0 0.23768635343899627,0.5755763579649692 l -14.075767354685699 5.671326533758937" fill="#ffbc11" stroke="none" /><path d="M 119.85752413597 93.16781622104841 l 48.93204155290898 -16.83556813425669 a72.74728055597521,72.74728055597521 0 0,0 0.3972095266329719,1.1876059268497552 l -49.21458837331372 15.99078910448462" fill="#3fffbd" stroke="none" /><path d="M 120.28053869075195 94.5502522615342 l 14.447470926358687 -3.8822968762352095 a35.960001510802236,35.960001510802236 0 0,0 0.1554904782443,0.5991682412332592 l -14.51215773647329 3.6330322094531" fill="#ffb911" stroke="none" /><path d="M 120.45610955862082 95.25157060432595 l 29.653719496680182 -6.883449315990192 a51.44215752001813,51.44215752001813 0 0,0 0.19279935912146517,0.8642817227862803 l -29.767813242803683 6.371989423653948" fill="#8cff24" stroke="none" /><path d="M 120.6074358757038 95.95851677861258 l 6.892284810549152 -1.351699143302879 a28.02358031802387,28.02358031802387 0 0,0 0.08876038849082253,0.47416154452297754 l -6.914530922949834 1.2328595213173388" fill="#ff4e07" stroke="none" /><path d="M 120.67395015179393 96.31383870115 l 7.461081496464384 -1.330309382478912 a28.578750566550838,28.578750566550838 0 0,0 0.08218178794247032,0.485041564480739 l -7.4828751459270775 1.2016820296823352" fill="#ff5507" stroke="none" /><path d="M 120.83666639777658 97.38593545837742 l 31.286135365450264 -3.925002951141675 a52.53137983456716,52.53137983456716 0 0,0 0.10483674214767132,0.8981771840017572 l -31.349062460601523 3.3858820288150646" fill="#80ff26" stroke="none" /><path d="M 120.91429891909075 98.10471618934814 l 7.443846562044375 -0.6745720682581021 a28.474349410787127,28.474349410787127 0 0,0 0.04003427925035979,0.4885196099652272 l -7.454355325114229 0.5463385410851062" fill="#ff5407" stroke="none" /><line stroke="#e1ed5e" stroke-width="0.3" x1="184.98032266829074" x2="189.97916517819016" y1="98.17113171792111" y2="98.06355123074" /><path d="M 185.9800911702706 98.14961562048488 a86.0,86.0 0 0,1 -9.607161424134198,41.387399972396054" fill="none" id="id40" stroke="none" /><text fill="#e1ed5e" style="font-size:6.75px; font-family:Arial;" text-anchor="middle"><textPath startOffset="21.466115282336823" xlink:href="#id40">April</textPath></text><path d="M 120.99513854157772 99.54816195383933 l 14.950293523065499 -0.32174645580989686 a35.95375528780782,35.95375528780782 0 0,0 0.007990281905695047,0.6188561391956876 l -14.95361681208891 0.0643540585537465" fill="#ffb911" stroke="none" /><path d="M 120.99824983174949 100.27111621757518 l 31.516557976503435 0.40692200816941787 a52.51918482776855,52.51918482776855 0 0,0 -0.019451948924994824,0.903855631578897 l -31.504883964893434 -0.9493674555384297" fill="#80ff25" stroke="none" /><path d="M 120.9764740272857 100.99374915477107 l 15.048417568958978 0.7129106741363085 a36.06529498413658,36.06529498413658 0 0,0 -0.034714819902242205,0.61985642945148 l -15.033916398169207 -0.9718388199232119" fill="#ffba11" stroke="none" /><path d="M 120.81339534386255 102.79330883721812 l 31.209332955785925 4.18851917761636 a52.489143469557334,52.489143469557334 0 0,0 -0.12788842080693635,0.8944513172595724 l -31.132610483962385 -4.725115966856341" fill="#80ff25" stroke="none" /><path d="M 120.5718875245553 104.21870165774334 l 7.339894612393915 1.5052009949017533 a28.492641920985044,28.492641920985044 0 0,0 -0.10266300667769351,0.47960738892341676 l -7.312897566991778 -1.631322203241339" fill="#ff5407" stroke="none" /><path d="M 120.32669344350535 105.2749913415812 l 50.501432244751456 13.105654324394337 a73.17425451352169,73.17425451352169 0 0,0 -0.3268865513414219,1.2164664623233563 l -50.26835761706826 -13.973011719893242" fill="#3fffc1" stroke="none" /><path d="M 120.13307415673323 105.97154293290107 l 7.163368088375561 2.12468099759133 a28.471821177670343,28.471821177670343 0 0,0 -0.1434074485043064,0.46866383921151245 l -7.125733867365122 -2.2476718093548995" fill="#ff5407" stroke="none" /><path d="M 120.02730092923936 106.31721596034902 l 8.237547481470637 2.598371423485452 a29.637634083698444,29.637634083698444 0 0,0 -0.15765492327114802,0.4852119619062435 l -8.191600307183244 -2.73978228536949" fill="#ff6409" stroke="none" /><path d="M 119.9155931802556 106.66101706037122 l 8.640248388745745 2.889838198760682 a30.110711115727455,30.110711115727455 0 0,0 -0.1686331292394824,0.4901268089880034 l -8.58922442856303 -3.0381377108379857" fill="#ff6b09" stroke="none" /><path d="M 119.54520255179757 107.68017299344265 l 29.33496752158249 11.527003863260271 a52.51844122979303,52.51844122979303 0 0,0 -0.3378621006391339,0.8385460259171261 l -29.132202806685967 -12.03024925702021" fill="#80ff25" stroke="none" /><path d="M 118.97047184881838 109.00673069616215 l 13.816752956591888 6.559867037950173 a36.29491803897869,36.29491803897869 0 0,0 -0.27281117208993555,0.5620718185052866 l -13.701788527887237 -6.796727812420735" fill="#ffbd11" stroke="none" /><line stroke="#e1ed5e" stroke-width="0.3" x1="174.80103733775053" x2="179.2010983576182" y1="140.37084112569926" y2="142.7455964860345" /><path d="M 175.68104954172406 140.8457921977663 a86.0,86.0 0 0,1 -30.038265399797805,32.042727171017184" fill="none" id="id41" stroke="none" /><text fill="#e1ed5e" style="font-size:6.75px; font-family:Arial;" text-anchor="middle"><textPath startOffset="22.206326154141568" xlink:href="#id41">May</textPath></text><path d="M 117.35343817320211 111.8261652097733 l 8.677497421992753 5.913613031355395 a31.500941890769,31.500941890769 0 0,0 -0.309217884995304,0.44545142589537157 l -8.574418629835312 -6.0621057194377865" fill="#ff7e0b" stroke="none" /><path d="M 115.80600337817218 113.82643327865902 l 6.8397560320183795 5.9831336332375145 a30.087362139295966,30.087362139295966 0 0,0 -0.3443443441716869,0.38687452104621967 l -6.735752838198354 -6.099982324024601" fill="#ff6a09" stroke="none" /><path d="M 115.32070863581623 114.36230785411682 l 24.943384983964286 23.383028982481775 a55.18974259706905,55.18974259706905 0 0,0 -0.6556894861452391,0.687487804811263 l -24.537188946440086 -23.808923903875545" fill="#64ff29" stroke="none" /><path d="M 114.29624159901734 115.38237550388516 l 10.248762638228918 11.02739585502403 a36.054587173289015,36.054587173289015 0 0,0 -0.4582374076350984,0.41858900717059366 l -10.057425681126956 -11.202177628781207" fill="#ffba11" stroke="none" /><path d="M 113.75828350139079 115.86535959552629 l 12.733628893950613 14.683779509129032 a40.43601516467744,40.43601516467744 0 0,0 -0.5297782743550866,0.45148853869961486 l -12.478985143018479 -14.900792438051594" fill="#fff216" stroke="none" /><path d="M 113.20401910651253 116.32954008644616 l 4.708663379865999 5.823250238798792 a28.488775211512312,28.488775211512312 0 0,0 -0.3839778269180105,0.3050552084095506 l -4.607728060230637 -5.903439361213469" fill="#ff5407" stroke="none" /><path d="M 112.34349029814194 116.9893568818739 l 8.992050392397848 12.376495588062117 a36.29818987007101,36.29818987007101 0 0,0 -0.5086459679673498,0.3629053927566401 l -8.777677096581614 -12.529445242662977" fill="#ffbd11" stroke="none" /><path d="M 111.7513745106137 117.40417183066458 l 25.087487963259413 37.155394113083524 a65.83196810318779,65.83196810318779 0 0,0 -0.9446113152968635,0.626036871698086 l -24.444201949222588 -37.58172900587292" fill="#36ff70" stroke="none" /><line stroke="#e1ed5e" stroke-width="0.3" x1="143.8653032363475" x2="146.44561519142675" y1="172.8068346515853" y2="177.08958963109032" /><path d="M 144.38136562736335 173.6633856474863 a86.0,86.0 0 0,1 -40.68145358897372,12.25698825130547" fill="none" id="id42" stroke="none" /><text fill="#e1ed5e" style="font-size:6.75px; font-family:Arial;" text-anchor="middle"><textPath startOffset="21.466115282336833" xlink:href="#id42">June</textPath></text><path d="M 110.5260780823613 118.17145234162733 l 8.862891351065093 15.3002482534095 a38.68186754041396,38.68186754041396 0 0,0 -0.5790329885295226,0.32879004271978163 l -8.598209595614371 -15.450541461923908" fill="#ffdc14" stroke="none" /><path d="M 109.57404056367764 118.69057910512821 l 9.914114093387695 19.35447552026565 a42.74592791584831,42.74592791584831 0 0,0 -0.6577704556419421,0.3298197615495352 l -9.579489730062992 -19.52226312272449" fill="#f0ff19" stroke="none" /><path d="M 108.59647513512805 119.15986991738527 l 6.1404640397512384 13.68589920690364 a36.00030452107569,36.00030452107569 0 0,0 -0.567569358712055,0.248805727533428 l -5.903974006381429 -13.789569487731523" fill="#ffba11" stroke="none" /><path d="M 106.2309692047433 120.05430185196036 l 1.946971950434007 6.26630655814838 a27.561805975222843,27.561805975222843 0 0,0 -0.45427765703080913,0.1368701315669391 l -1.838819318962952 -6.298892058821045" fill="#ff4706" stroke="none" /><path d="M 104.13013068566511 120.58985236759428 l 1.4962383518932134 7.459165125002019 a28.607750887596314,28.607750887596314 0 0,0 -0.4836513352077029,0.09269292949243575 l -1.3676194021138062 -7.4838152528429225" fill="#ff5607" stroke="none" /><path d="M 103.7750983002368 120.6578951692458 l 2.7473764097121127 15.03404927461929 a36.28302047137029,36.28302047137029 0 0,0 -0.6153445266180569,0.10698553348279433 l -2.4881829116220056 -15.07911338662309" fill="#ffbd11" stroke="none" /><path d="M 103.41894727170886 120.7198165907248 l 0.2665080116404909 1.6151161987326332 a22.636956583320742,22.636956583320742 0 0,0 -0.38500519279110695,0.060129893082271825 l -0.23866695524086687 -1.6194643991620108" fill="#ff0000" stroke="none" /><path d="M 101.98527174616119 120.90594882070398 l 1.3819893835029393 14.553070318023291 a35.61854132044115,35.61854132044115 0 0,0 -0.6108676214435511,0.05270822877504916 l -1.1312774443178466 -14.574702799077004" fill="#ffb510" stroke="none" /><path d="M 100.90346689309514 120.98055641714683 l 0.14001928271236758 3.251566253159758 a24.254579619277838,24.254579619277838 0 0,0 -0.4172707616729449,0.0143716487282396 l -0.0840281693647704 -3.2534947003140915" fill="#ff1802" stroke="none" /><line stroke="#e1ed5e" stroke-width="0.3" x1="102.19456741930631" x2="102.32365962044197" y1="184.97166512339345" y2="189.96999836594603" /><path d="M 102.22038585953345 185.97133177190398 a86.0,86.0 0 0,1 -42.740103519485714,-10.115201625700543" fill="none" id="id43" stroke="none" /><text fill="#e1ed5e" style="font-size:6.75px; font-family:Arial;" text-anchor="middle"><textPath startOffset="22.20632615414155" xlink:href="#id43">July</textPath></text><path d="M 99.81925306533755 120.99922214144158 l -0.2711063216736564 31.49719735721197 a52.49836408445385,52.49836408445385 0 0,0 -0.903572618800601,-0.015555822062974406 l 0.8132386303669253 -31.487864057869835" fill="#80ff25" stroke="none" /><path d="M 99.45781275523022 120.99299961872073 l -0.19013081988828473 7.361693341046099 a28.364148190814323,28.364148190814323 0 0,0 -0.4879709277821766,-0.016806705400497616 l 0.31682209934510436 -7.357329837219507" fill="#ff5207" stroke="none" /><path d="M 99.09653310690486 120.98055641714683 l -0.6521031472656601 15.143318449816729 a36.15735241350657,36.15735241350657 0 0,0 -0.6215826493263907,-0.03212872300015231 l 0.9126738650055398 -15.129849920054374" fill="#ffbc11" stroke="none" /><path d="M 98.73552117531835 120.96189622390904 l -0.9156916643609777 15.179877485307747 a36.20747091705696,36.20747091705696 0 0,0 -0.6217982071764097,-0.042882844885031676 l 1.1768526323163173 -15.16186629590643" fill="#ffbc11" stroke="none" /><path d="M 97.2962882734958 120.8252237178851 l -3.85607107065564 29.701222186988883 a50.950490538601,50.950490538601 0 0,0 -0.8687578060418523,-0.12040191577823797 l 4.366757467884323 -29.630445705718042" fill="#91ff24" stroke="none" /><path d="M 96.58105272829116 120.7198165907248 l -1.875241118701218 11.364507538443155 a32.5181839212872,32.5181839212872 0 0,0 -0.5514945071155946,-0.095884389158165 l 2.0705845972888626 -11.330544570763983" fill="#ff8b0c" stroke="none" /><path d="M 96.22490169976321 120.6578951692458 l -0.8318537327098218 4.552026421507334 a25.6274102016921,25.6274102016921 0 0,0 -0.433264789345544,-0.08303622805696095 l 0.9100861366270608 -4.537032995101905" fill="#ff2c04" stroke="none" /><path d="M 94.81253420990036 120.34920634021253 l -7.714631171091962 30.262680833249483 a52.23052009366974,52.23052009366974 0 0,0 -0.8692888547459106,-0.22958708738184858 l 8.234410468649362 -30.125402396564052" fill="#83ff25" stroke="none" /><path d="M 94.11515582081647 120.15858648285463 l -1.9313395784275624 6.615821036895084 a27.891963476355944,27.891963476355944 0 0,0 -0.45971936053168716,-0.13850967219277918 l 2.0449339133994955 -6.5815959955965795" fill="#ff4c07" stroke="none" /><path d="M 93.42475214034765 119.94407469862007 l -2.3490256755742647 7.125076429454421 a28.50230869466687,28.50230869466687 0 0,0 -0.4646287117786162,-0.1576272856336318 l 2.4713241202901064 -7.083586156922666" fill="#ff5407" stroke="none" /><path d="M 93.08242187328487 119.8279376855182 l -2.9814027536893963 8.545630700907893 a30.050777118900136,30.050777118900136 0 0,0 -0.4869376972113093,-0.17459853380653229 l 3.1280600115304322 -8.493044626061403" fill="#ff6a09" stroke="none" /><path d="M 92.40401165467489 119.57807347666478 l -5.456801408077841 14.064484311730896 a36.08596700785617,36.08596700785617 0 0,0 -0.5771674175517971,-0.22966682682183565 l 5.698089901671497 -13.968470640502995" fill="#ffbb11" stroke="none" /><path d="M 91.07499286063937 119.00905698771935 l -3.8504389111084825 8.200913629099524 a30.05984901420154,30.05984901420154 0 0,0 -0.46648209502636634,-0.22393975368288935 l 3.9910336741350907 -8.133419598917072" fill="#ff6a09" stroke="none" /><path d="M 90.7491055286396 118.85261126421891 l -6.58649290800646 13.422765849681165 a35.951673213476354,35.951673213476354 0 0,0 -0.5532210814857741,-0.27739653493822775 l 6.816567897174994 -13.307401473833636" fill="#ffb911" stroke="none" /><path d="M 90.10565033884886 118.52300852407294 l -14.834937850512857 27.77218207054674 a52.48602035806013,52.48602035806013 0 0,0 -0.7932316932117339,-0.43253316547093085 l 15.31079235559323 -27.512708253316045" fill="#80ff25" stroke="none" /><line stroke="#e1ed5e" stroke-width="0.3" x1="58.666819895761336" x2="56.23545636021788" y1="174.27360380694188" y2="178.64263932499728" /><path d="M 58.180547188652646 175.14741091055294 a86.0,86.0 0 0,1 -31.652253787137756,-30.449443065178592" fill="none" id="id44" stroke="none" /><text fill="#e1ed5e" style="font-size:6.75px; font-family:Arial;" text-anchor="middle"><textPath startOffset="22.20632615414155" xlink:href="#id44">August</textPath></text><path d="M 89.4739219176387 118.17145234162733 l -4.915537525700063 8.485824937154744 a30.80671882081886,30.80671882081886 0 0,0 -0.45657336596349823,-0.2697515923674852 l 5.060878762691942 -8.39995477249351" fill="#ff740a" stroke="none" /><path d="M 89.1626897886671 117.98757091392108 l -3.9919244033893313 6.625723716378349 a28.735352300196404,28.735352300196404 0 0,0 -0.4214802955111176,-0.2589076221403263 l 4.105383898832757 -6.5560276274096445" fill="#ff5808" stroke="none" /><path d="M 87.95078237400918 117.19931262002967 l -18.095927214441822 25.830516052688054 a52.5385183751322,52.5385183751322 0 0,0 -0.7362214377671671,-0.52527444795533 l 18.537875980057876 -25.515197342888506" fill="#80ff26" stroke="none" /><path d="M 87.65650970185807 116.9893568818739 l -4.4028406092771375 6.0599902133253405 a28.49055984665357,28.49055984665357 0 0,0 -0.394275471077471,-0.2916755677078474 l 4.506501050773173 -5.983304696877727" fill="#ff5407" stroke="none" /><path d="M 87.36589467227662 116.77436683061367 l -6.324508771119038 8.397082927382991 a31.512393299592084,31.512393299592084 0 0,0 -0.4304762063841576,-0.33007079860824534 l 6.468113705996682 -8.286972786947379" fill="#ff7e0b" stroke="none" /><path d="M 85.18274418774928 114.88116024355367 l -5.268531735025242 5.291254061520401 a28.466913431031877,28.466913431031877 0 0,0 -0.3442590257877667,-0.348732575579164 l 5.358831385868542 -5.199780991960572" fill="#ff5407" stroke="none" /><path d="M 84.9287848128048 114.62390073753433 l -9.980033634792028 9.683825718078262 a34.906025740293096,34.906025740293096 0 0,0 -0.4147059399809811,-0.4348175200975591 l 10.145246126151966 -9.510601081398203" fill="#ffab0f" stroke="none" /><path d="M 84.67929136418377 114.36230785411682 l -5.502986345888472 5.158742059220741 a28.542909144130533,28.542909144130533 0 0,0 -0.33293752957649175,-0.3613379323945877 l 5.590970283460693 -5.06325287202481" fill="#ff5507" stroke="none" /><path d="M 84.19399662182784 113.82643327865904 l -23.77157746222255 20.79438564234342 a52.5831342536637,52.5831342536637 0 0,0 -0.5900766408152956,-0.6863924427044282 l 24.125996612608624 -20.38211610047746" fill="#7fff26" stroke="none" /><path d="M 83.72743513129214 113.27417163493432 l -11.664752666864405 9.51539786310966 a36.05354613612328,36.05354613612328 0 0,0 -0.3881457613467215,-0.4842715174191648 l 11.826816340265989 -9.313198512112235" fill="#ffba11" stroke="none" /><path d="M 83.28015986056508 112.70617746262583 l -11.884610270587633 9.031663336066783 a35.92698576068893,35.92698576068893 0 0,0 -0.36994313773119475,-0.4955992882344795 l 12.038314675013913 -8.825751168322997" fill="#ffb911" stroke="none" /><path d="M 82.6465618267979 111.8261652097733 l -28.986152182421954 19.75372379142199 a56.07715242106058,56.07715242106058 0 0,0 -0.5367301663829676,-0.8023387742372564 l 29.321885454215654 -19.25184810297891" fill="#5aff2a" stroke="none" /><path d="M 82.44556493220864 111.52570212397912 l -12.487793208186016 8.199100919372984 a35.93888332829732,35.93888332829732 0 0,0 -0.3350789795876376,-0.520050017448225 l 12.627077051150698 -7.982929302003311" fill="#ffb911" stroke="none" /><path d="M 82.24976979558568 111.22182372390057 l -10.215299049126038 6.458185831737154 a33.08554917661278,33.08554917661278 0 0,0 -0.3001889063880705,-0.4840000993262099 l 10.324952595182063 -6.28138940104568" fill="#ff930d" stroke="none" /><line stroke="#e1ed5e" stroke-width="0.3" x1="26.63291911575756" x2="22.317208475507996" y1="142.92168965132927" y2="145.44649492493687" /><path d="M 25.769776987707644 143.4266507060508 a86.0,86.0 0 0,1 -11.730757126820373,-40.83630448921669" fill="none" id="id45" stroke="none" /><text fill="#e1ed5e" style="font-size:6.75px; font-family:Arial;" text-anchor="middle"><textPath startOffset="21.46611528233685" xlink:href="#id45">September</textPath></text><path d="M 81.87401531095188 110.60418214915194 l -16.71378590836623 9.778008379392038 a40.36388616105152,40.36388616105152 0 0,0 -0.34568401683799055,-0.6027292211495374 l 16.8796219213566 -9.488859312384195" fill="#fff116" stroke="none" /><path d="M 81.35079622478065 109.6543875284942 l -27.389389162706188 14.179038436851146 a51.84191579166037,51.84191579166037 0 0,0 -0.40343213521435634,-0.7960098763945215 l 27.62939996770681 -13.70547434875394" fill="#87ff25" stroke="none" /><path d="M 81.02952815118164 109.00673069616217 l -9.443767573515908 4.4836771573030045 a31.454095218310922,31.454095218310922 0 0,0 -0.22800531888399786,-0.49110317257072145 l 9.519547509239732 -4.320453917453456" fill="#ff7d0b" stroke="none" /><path d="M 80.87730276802145 108.67885076344099 l -13.608156193500932 6.176072095702486 a35.944088514126,35.944088514126 0 0,0 -0.2508536487120556,-0.5656087544165105 l 13.712450926944268 -5.94091500479328" fill="#ffb911" stroke="none" /><path d="M 80.73074385275274 108.34839909993369 l -40.48656232981427 17.540790258367906 a65.12302179332225,65.12302179332225 0 0,0 -0.4367863676848321,-1.0324339485997565 l 40.78249967869141 -16.84128178410199" fill="#35ff68" stroke="none" /><path d="M 79.97269907076064 106.31721596034903 l -13.83476810489965 4.363903962335834 a35.50670418492219,35.50670418492219 0 0,0 -0.1788408904433004,-0.5844623776333775 l 13.90783576784908 -4.1251146121504085" fill="#ffb310" stroke="none" /><path d="M 79.4281124754447 104.21870165774334 l -12.314839953376177 2.525419005141828 a33.57111865463061,33.57111865463061 0 0,0 -0.11121642737545266,-0.5670901671287198 l 12.356486313727297 -2.3130651109451534" fill="#ff9a0e" stroke="none" /><path d="M 79.29508885075956 103.50808413554451 l -14.811223703277912 2.5095021430882194 a36.02231502115123,36.02231502115123 0 0,0 -0.09832075718368152,-0.6122434488372865 l 14.852226214822885 -2.254179464557719" fill="#ffba11" stroke="none" /><path d="M 79.1416061653843 102.43462659150553 l -22.504204696155472 2.626728386105058 a43.65698415546156,43.65698415546156 0 0,0 -0.08069826896762199,-0.7471657467090798 l 22.546085266624146 -2.2389663175111965" fill="#e5ff1a" stroke="none" /><path d="M 79.07016306316243 101.71520430193888 l -15.417236783890758 1.2634456224165564 a36.468919965251544,36.468919965251544 0 0,0 -0.04588735082270827,-0.6260964443058478 l 15.436700693377801 -0.997876041613948" fill="#ffc011" stroke="none" /><path d="M 79.0095281055655 100.63252640178507 l -6.490894739130363 0.19559647416961584 a27.49384112025986,27.49384112025986 0 0,0 -0.010183112989606932,-0.4731692468528593 l 6.493299914804978 -0.08383741152662764" fill="#ff4606" stroke="none" /><line stroke="#e1ed5e" stroke-width="0.3" x1="15.007084014347285" x2="10.007500721073583" y1="101.09737516637583" y2="101.16192664675087" /><path d="M 14.007167355692545 101.11028546245083 a86.0,86.0 0 0,1 10.666146001902534,-42.60595125391555" fill="none" id="id46" stroke="none" /><text fill="#e1ed5e" style="font-size:6.75px; font-family:Arial;" text-anchor="middle"><textPath startOffset="22.20632615414155" xlink:href="#id46">October</textPath></text><path d="M 79.00175016825051 100.2711162175752 l -11.738797709258908 0.15156398553762648 a32.73977611799366,32.73977611799366 0 0,0 -0.002425398021325107,-0.5635770834470655 l 11.739667404569735 0.05052257611311432" fill="#ff8e0d" stroke="none" /><path d="M 79.00486145842228 99.54816195383935 l -6.84576245041255 -0.14732819809446693 a27.847347597824445,27.847347597824445 0 0,0 0.014438591868808144,-0.47914657152984963 l 6.842212164088097 0.265144917049311" fill="#ff4b07" stroke="none" /><path d="M 79.12142395522702 97.74499172005258 l -7.399637913775668 -0.7992041568541004 a28.442672137029763,28.442672137029763 0 0,0 0.056762968995122606,-0.48631045378921534 l 7.384784591776956 0.9264583489681775" fill="#ff5407" stroke="none" /><path d="M 79.16333360222342 97.38593545837743 l -44.38130849019924 -5.567858246625376 a65.72920286297024,65.72920286297024 0 0,0 0.15050109773289955,-1.1214079893577769 l 44.27889139340851 6.330984578047813" fill="#36ff6f" stroke="none" /><path d="M 79.32604984820605 96.31383870115002 l -14.688052527606038 -2.618876914436158 a35.91969850052878,35.91969850052878 0 0,0 0.11377013062565243,-0.6077645870558396 l 14.640796673070524 2.8713195789545702" fill="#ffb811" stroke="none" /><path d="M 79.54389044137918 95.25157060432595 l -17.903924791302725 -4.1559966489879825 a39.379957319836834,39.379957319836834 0 0,0 0.1589585098976761,-0.6589856466101572 l 17.82973348114423 4.463567527257536" fill="#ffe515" stroke="none" /><path d="M 79.81627453868168 94.20196356495316 l -14.386650532247794 -4.132751613378838 a35.96847852772322,35.96847852772322 0 0,0 0.17606416583400666,-0.5936008410069987 l 14.31338046930208 4.379781841132376" fill="#ffb911" stroke="none" /><path d="M 80.14247586403 93.16781622104843 l -13.858818926166911 -4.768268048647112 a35.65616737800272,35.65616737800272 0 0,0 0.2046781489308571,-0.5786526892834937 l 13.774687696426247 5.006118364357216" fill="#ffb510" stroke="none" /><path d="M 80.52162464483688 92.15188598940014 l -29.194112616728454 -11.762722510306492 a52.47471766883215,52.47471766883215 0 0,0 0.3447796678603995,-0.8349113134018933 l 28.987311261981855 12.263508394161697" fill="#80ff25" stroke="none" /><path d="M 80.803312248108 91.48605970444005 l -13.957313779949851 -6.190220820629703 a36.26844595105001,36.26844595105001 0 0,0 0.2580200853536563,-0.5685130562184081 l 13.848691377632843 6.429555885690181" fill="#ffbd11" stroke="none" /><path d="M 80.95270993114464 91.15688171328213 l -12.019573119585372 -5.580347990087362 a34.2518082414262,34.2518082414262 0 0,0 0.2528791530446047,-0.5326279885363738 l 11.921735772699016 5.786418394264269" fill="#ffa30f" stroke="none" /><line stroke="#e1ed5e" stroke-width="0.3" x1="26.266209847984243" x2="21.928928074336255" y1="57.711370442889674" y2="55.22380399835377" /><path d="M 25.398753493254645 57.213857153982495 a86.0,86.0 0 0,1 29.58750427330803,-30.492523968695096" fill="none" id="id47" stroke="none" /><text fill="#e1ed5e" style="font-size:6.75px; font-family:Arial;" text-anchor="middle"><textPath startOffset="21.46611528233685" xlink:href="#id47">November</textPath></text><path d="M 81.78341655067845 89.55222093294921 l -12.998821680628009 -7.455229869476391 a35.984986402779874,35.984986402779874 0 0,0 0.31279576819735083,-0.5346693620872661 l 12.868566237960334 7.67787864391755" fill="#ffb911" stroke="none" /><path d="M 83.17141714833178 87.43820079747576 l -9.49789840584656 -7.089764698065009 a32.852208131893036,32.852208131893036 0 0,0 0.34216992072429475,-0.45025550696590266 l 9.374452544898155 7.252204980911938" fill="#ff900d" stroke="none" /><path d="M 83.6137871275137 86.86637796730984 l -9.605532257803157 -7.698876554241781 a33.31011576522133,33.31011576522133 0 0,0 0.36244817530776213,-0.4443186065726612 l 9.471585590419004 7.863079330422524" fill="#ff960d" stroke="none" /><path d="M 83.84228863543731 86.58626213691792 l -11.483899894344255 -9.533653582057223 a35.92549856473788,35.92549856473788 0 0,0 0.39909702477794756,-0.47240499565544797 l 11.318092256079183 9.729917527341787" fill="#ffb911" stroke="none" /><path d="M 84.5562425177563 85.77008943001954 l -46.331272446731106 -42.68973170994139 a84.0,84.0 0 0,0 0.9889307121181763,-1.0549223324877994 l 45.58957441264248 43.480923459307235" fill="#4dd2ff" stroke="none" /><path d="M 85.57189188830299 84.74124197986013 l -10.255933407817677 -10.846384358160446 a35.92743191947424,35.92743191947424 0 0,0 0.4530143203701818,-0.4210274394999016 l 10.067711203652639 11.021316383734995" fill="#ffb911" stroke="none" /><path d="M 86.93701828274178 83.55741782278169 l -11.03104936745252 -13.884956715943371 a38.7334732399154,38.7334732399154 0 0,0 0.5256085189990216,-0.4102457861429152 l 10.790408293294071 14.072780891309508" fill="#ffdd14" stroke="none" /><path d="M 88.39885842347998 82.49532879139004 l -8.752533536774399 -13.206478068818303 a36.843544625321044,36.843544625321044 0 0,0 0.5316575670695418,-0.34580487063937904 l 8.523908943920569 13.355181863617217" fill="#ffc412" stroke="none" /><line stroke="#e1ed5e" stroke-width="0.3" x1="56.762969772571076" x2="54.21961505331055" y1="26.818313649435495" y2="22.513508569990535" /><path d="M 56.25429882871897 25.957352633546506 a86.0,86.0 0 0,1 42.265352541879196,-11.944610805530505" fill="none" id="id48" stroke="none" /><text fill="#e1ed5e" style="font-size:6.75px; font-family:Arial;" text-anchor="middle"><textPath startOffset="22.20632615414155" xlink:href="#id48">December</textPath></text><path d="M 89.3179101791058 81.91981866633112 l -2.3379427541551934 -3.957131015710243 a25.59617908672005,25.59617908672005 0 0,0 0.38126516451089854,-0.2208533922482615 l 2.2694808571789746 3.9967885653485515" fill="#ff2b04" stroke="none" /><path d="M 90.91171255644093 81.06846463323043 l -6.4537919731171485 -13.443697918625007 a35.91255995996374,35.91255995996374 0 0,0 0.5595891479480665,-0.2627346082328951 l 6.221424613869473 13.552797509497909" fill="#ffb811" stroke="none" /><path d="M 91.56875222667455 80.76684994638697 l -1.9154689287110054 -4.369519473201479 a25.770924610968425,25.770924610968425 0 0,0 0.4078141345231566,-0.1746047294516209 l 1.8399710363975406 4.401843730615886" fill="#ff2e04" stroke="none" /><path d="M 91.90106846888425 80.62456947434976 l -5.796023476063498 -13.8660821806003 a36.028709963740745,36.028709963740745 0 0,0 0.5742566848945649,-0.23425372049514723 l 5.556482921580552 13.963796787279025" fill="#ffba11" stroke="none" /><path d="M 92.57280143429618 80.3572730644239 l -11.094879297217767 -29.342649518590516 a52.370167793473335,52.370167793473335 0 0,0 0.8459469770382054,-0.3115694108833876 l 10.588149994406992 29.529282197280224" fill="#82ff25" stroke="none" /><path d="M 93.59665428221793 80.00007090966166 l -4.583797036696893 -14.316830566223826 a36.03272539280859,36.03272539280859 0 0,0 0.5923344698426227,-0.18404120311655509 l 4.336677194143542 14.393611904222906" fill="#ffba11" stroke="none" /><path d="M 94.98787191387505 79.60689891045804 l -8.897753124489768 -36.20274179341556 a58.280135783350964,58.280135783350964 0 0,0 0.9762652994852424,-0.2310504545213843 l 8.273264138041991 36.35053816007781" fill="#44ff2d" stroke="none" /><path d="M 96.04723909329186 79.375362276772 l -2.829112552664145 -14.761687553100248 a36.0303458792869,36.0303458792869 0 0,0 0.6101222277630802,-0.11149593732056878 l 2.5745952037981716 14.808198971771553" fill="#ffba11" stroke="none" /><path d="M 96.75951476605007 79.25152402106235 l -2.306188264480066 -14.76627367628735 a35.94527827088684,35.94527827088684 0 0,0 0.6121498341330094,-0.09021497301164785 l 2.051669449918408 14.803783133459966" fill="#ffb911" stroke="none" /><path d="M 98.19473922651362 79.07773832637324 l -1.2915564878145875 -14.968631236661055 a36.024248375887595,36.024248375887595 0 0,0 0.6182615493103757,-0.04798899538919867 l 1.0337047491418776 14.988645494238716" fill="#ffba11" stroke="none" /></svg>