<?xml version="1.0" encoding="utf-8" ?>
<svg baseProfile="full" height="200mm" version="1.1" viewBox="0,0,200,200" width="200mm" xmlns="http://www.w3.org/2000/svg" xmlns:ev="http://www.w3.org/2001/xml-events" xmlns:xlink="http://www.w3.org/1999/xlink"><defs /><rect fill="#1a1a1a" height="200" width="200" x="0" y="0" /><text alignment-baseline="middle" fill="#e1ed5e" style="dominant-baseline: central; font-size:9.0px; font-family:Arial;" text-anchor="middle" x="100.0" y="100.0">2023</text><line stroke="#e1ed5e" stroke-width="0.3" x1="100.0" x2="100.0" y1="15.0" y2="10.0" /><path d="M 100.0 14.0 a86.0,86.0 0 0,1 42.46469731375804,11.215312516191453" fill="none" id="id61" stroke="none" /><text fill="#e1ed5e" style="font-size:6.75px; font-family:Arial;" text-anchor="middle"><textPath startOffset="22.20632615414155" xlink:href="#id61">January</textPath></text><line stroke="#e1ed5e" stroke-width="0.3" x1="143.23703022742887" x2="145.7803849466894" y1="26.81831364943548" y2="22.513508569990506" /><path d="M 143.74570117128098 25.957352633546492 a86.0,86.0 0 0,1 28.547481713284135,27.462654790039103" fill="none" id="id62" stroke="none" /><text fill="#e1ed5e" style="font-size:6.75px; font-family:Arial;" text-anchor="middle"><textPath startOffset="19.985693538727396" xlink:href="#id62">February</textPath></text><path d="M 117.04232023915458 87.72973835380427 l 21.081038629281526 -15.178089375445026 a46.97661615334563,46.97661615334563 0 0,0 0.466829855024776,0.660297723454907 l -21.339181104110185 14.812965151658325" fill="#c4ff1e" stroke="none" /><path d="M 117.45458315368197 88.32363383020206 l 7.593115124536337 -5.079467769748183 a30.135446903046017,30.135446903046017 0 0,0 0.284713050502711,0.4336375089552597 l -7.679424810396973 4.948012196815249" fill="#ff6108" stroke="none" /><line stroke="#e1ed5e" stroke-width="0.3" x1="172.23445277983987" x2="176.4835382374775" y1="55.19839476539836" y2="52.563006222186495" /><path d="M 173.08426987136738 54.67131705675599 a86.0,86.0 0 0,1 12.851231095245387,41.99856678651699" fill="none" id="id63" stroke="none" /><text fill="#e1ed5e" style="font-size:6.75px; font-family:Arial;" text-anchor="middle"><textPath startOffset="22.20632615414155" xlink:href="#id63">March</textPath></text><path d="M 117.84615892207809 88.93136811851018 l 7.770829633077833 -4.819661922650606 a30.1441202001597,30.1441202001597 0 0,0 0.2696954266748151,0.44330836981565325 l -7.852640858038872 4.685185779627871" fill="#ff6108" stroke="none" /><path d="M 118.03404312379186 89.2402003453031 l 8.637144431683614 -5.153250606958523 a31.057646630891426,31.057646630891426 0 0,0 0.2699653774375459,0.4614583406036098 l -8.724569483591488 5.003812854001018" fill="#ff6e0a" stroke="none" /><path d="M 118.3937258080291 89.86733742301442 l 24.014822441667523 -13.229189952446703 a48.41757034645366,48.41757034645366 0 0,0 0.39585260400030103,0.7334547556212069 l -24.23898314488629 12.813854213493038" fill="#b3ff20" stroke="none" /><path d="M 118.73160827565052 90.50648371742162 l 9.79422531894494 -4.963889708366017 a31.980302848058617,31.980302848058617 0 0,0 0.24463406834562962,0.4931673540115956 l -9.878219400243978 4.794562765855472" fill="#ff7a0b" stroke="none" /><path d="M 118.89224826269711 90.83032412892265 l 8.2200084608371 -3.989721720533267 a30.137090264604396,30.137090264604396 0 0,0 0.2225004241418234,0.46864263792534283 l -8.28746707882068 3.847636666967384" fill="#ff6108" stroke="none" /><path d="M 119.34039704204932 91.81776055985345 l 3.398202793371588 -1.437659674777542 a24.689803187889556,24.689803187889556 0 0,0 0.16222178071318033,0.39283290931319065 l -3.4224462609709656 1.3789521950110484" fill="#ff1202" stroke="none" /><path d="M 119.47837535516314 92.15188598940014 l 8.075499699089777 -3.2537334955002755 a29.706346940579586,29.706346940579586 0 0,0 0.187017651190316,0.47593952328900346 l -8.130310900161794 3.114244967315488" fill="#ff5b08" stroke="none" /><path d="M 119.85752413597 93.16781622104841 l 9.825841210086072 -3.3806809182470525 a31.39115772937864,31.39115772937864 0 0,0 0.17139976651846536,0.5124634857161475 l -9.882578270376309 3.2110443296085913" fill="#ff720a" stroke="none" /><path d="M 119.97218684219823 93.5106431181261 l 2.6253746097481723 -0.8530359206969612 a23.760482226624486,23.760482226624486 0 0,0 0.12303914976992453,0.39006772825032465 l -2.6396692432863027 0.8077180260202174" fill="#ff0400" stroke="none" /><path d="M 120.28053869075195 94.5502522615342 l 18.60184078822856 -4.998651234702024 a40.26174952793208,40.26174952793208 0 0,0 0.17409116868834962,0.6708442892133486 l -18.68512828878721 4.677710519939825" fill="#ffe815" stroke="none" /><path d="M 120.37134235888165 94.90015583598534 l 6.207327203934636 -1.5539673752188263 a27.398884716882424,27.398884716882424 0 0,0 0.11059651111555972,0.45849393931304167 l -6.2331565153110144 1.4468882042463787" fill="#ff3a05" stroke="none" /><path d="M 120.45610955862082 95.25157060432595 l 9.045227183815383 -2.09964766404364 a30.28572318777362,30.28572318777362 0 0,0 0.11350744802763463,0.508831632933971 l -9.080029018845055 1.943637861559705" fill="#ff6309" stroke="none" /><path d="M 120.83666639777658 97.38593545837742 l 19.16882479259377 -2.4048254283248527 a40.31908458674674,40.31908458674674 0 0,0 0.08046469534519024,0.689372370756254 l -19.20737984094255 2.074509319243746" fill="#ffe915" stroke="none" /><path d="M 120.91429891909075 98.10471618934814 l 9.143991448856305 -0.8286416400951907 a30.181461026680715,30.181461026680715 0 0,0 0.042434438852121434,0.5178076364880566 l -9.156900371527922 0.6711200863993654" fill="#ff6109" stroke="none" /><path d="M 120.98425023603335 99.18683210126433 l 20.093091125351418 -0.7786342855104497 a41.1081720283632,41.1081720283632 0 0,0 0.021314206543558267,0.7073147494588691 l -20.10351702635062 0.4326493886265815" fill="#fff316" stroke="none" /><line stroke="#e1ed5e" stroke-width="0.3" x1="184.98032266829074" x2="189.97916517819016" y1="98.17113171792111" y2="98.06355123074" /><path d="M 185.9800911702706 98.14961562048488 a86.0,86.0 0 0,1 -9.607161424134198,41.387399972396054" fill="none" id="id64" stroke="none" /><text fill="#e1ed5e" style="font-size:6.75px; font-family:Arial;" text-anchor="middle"><textPath startOffset="21.466115282336823" xlink:href="#id64">April</textPath></text><path d="M 120.99824983174949 100.27111621757518 l 22.080830541256102 0.28509381997219596 a43.082670940759286,43.082670940759286 0 0,0 -0.015956872092365553,0.741453144807318 l -22.07265160647873 -0.6651367805696289" fill="#f3ff19" stroke="none" /><path d="M 120.92983693683757 101.71520430193887 l 17.349966718716647 1.421833225182091 a38.40812898794144,38.40812898794144 0 0,0 -0.05967051021303597,0.658459107937432 l -17.322921612226537 -1.7202737216680937" fill="#ffd013" stroke="none" /><path d="M 120.64145759157962 103.86396538481128 l 5.5369021623122245 1.0364771092032132 a26.63307823067637,26.63307823067637 0 0,0 -0.08823166845583505,0.4498913765837137 l -5.5182405608807255 -1.1316322128548717" fill="#ff2e04" stroke="none" /><path d="M 120.41448212921028 104.9243191809786 l 5.261592257425643 1.2691852534753418 a26.412502590395754,26.412502590395754 0 0,0 -0.1104151851709116,0.4410537785855217 l -5.2389657579596705 -1.3595668714582596" fill="#ff2b04" stroke="none" /><path d="M 120.32669344350535 105.2749913415812 l 8.062319732068257 2.0922570066755175 a29.3293780586596,29.3293780586596 0 0,0 -0.13102120835152992,0.48757865736191447 l -8.02511044737495 -2.23072659721298" fill="#ff5507" stroke="none" /><path d="M 120.23288151984713 105.62410040840565 l 8.849849692544876 2.459977992820589 a30.18538683484796,30.18538683484796 0 0,0 -0.1434630411694869,0.49941366689382527 l -8.80619401448929 -2.6119491352189965" fill="#ff6109" stroke="none" /><path d="M 120.13307415673323 105.97154293290107 l 8.771532574362283 2.6016684261616874 a30.149232880563552,30.149232880563552 0 0,0 -0.15185626991625872,0.4962750764313079 l -8.72544953193989 -2.7522704751450524" fill="#ff6108" stroke="none" /><path d="M 120.02730092923936 106.31721596034902 l 2.617730635524064 0.8257113531701084 a23.744870291819858,23.744870291819858 0 0,0 -0.12630885762906605,0.38873869172439224 l -2.603129526878751 -0.8706489448722958" fill="#ff0400" stroke="none" /><path d="M 119.79798401119884 107.00284435728193 l 25.85011355454768 9.14357349405696 a48.41957889946946,48.41957889946946 0 0,0 -0.284697299353701,0.7833646951966761 l -25.68889199418875 -9.587185986259767" fill="#b3ff20" stroke="none" /><path d="M 119.54520255179757 107.68017299344265 l 3.9035795720029816 1.5338887549105722 a25.194132590584147,25.194132590584147 0 0,0 -0.16207911662097843,0.40226707544165896 l -3.8765978411246107 -1.6008551981950447" fill="#ff1902" stroke="none" /><path d="M 119.41010516605496 108.01547362559984 l 8.479335224313203 3.501572365097905 a30.173883303939284,30.173883303939284 0 0,0 -0.20237913604655333,0.47836449578370555 l -8.41780510707434 -3.6470113865477742" fill="#ff6109" stroke="none" /><path d="M 119.12269723197855 108.67885076344098 l 11.794624058572772 5.352999149307378 a33.952519313845826,33.952519313845826 0 0,0 -0.24611596484777176,0.5301118927779987 l -11.700733476885167 -5.5552311093642075" fill="#ff950d" stroke="none" /><line stroke="#e1ed5e" stroke-width="0.3" x1="174.80103733775053" x2="179.2010983576182" y1="140.37084112569926" y2="142.7455964860345" /><path d="M 175.68104954172406 140.8457921977663 a86.0,86.0 0 0,1 -30.038265399797805,32.042727171017184" fill="none" id="id65" stroke="none" /><text fill="#e1ed5e" style="font-size:6.75px; font-family:Arial;" text-anchor="middle"><textPath startOffset="22.206326154141568" xlink:href="#id65">May</textPath></text><path d="M 118.48025628344425 109.97397251340804 l 6.529173321591862 3.523857799698074 a28.4194122446377,28.4194122446377 0 0,0 -0.2360483773803544,0.428496369831367 l -6.467548534759998 -3.635724687927246" fill="#ff4806" stroke="none" /><path d="M 118.12598468904814 110.60418214915192 l 2.516968871637511 1.4724935961529366 a23.916053787484657,23.916053787484657 0 0,0 -0.21093859710819068,0.3535452219187641 l -2.491249398831093 -1.5156009119578049" fill="#ff0601" stroke="none" /><path d="M 117.94076556474637 110.91462005526583 l 7.842209754416825 4.770963622162978 a30.179452473664913,30.179452473664913 0 0,0 -0.2738215643663492,0.44148754844272536 l -7.758923550382513 -4.905247501970977" fill="#ff6109" stroke="none" /><path d="M 117.75023020441432 111.22182372390056 l 7.766794832628485 4.910223783451732 a30.188764855829078,30.188764855829078 0 0,0 -0.2814673018773884,0.4368435030827052 l -7.681122667374046 -5.04318888645589" fill="#ff6109" stroke="none" /><path d="M 117.35343817320211 111.8261652097733 l 24.17916727708992 16.47781978416131 a50.26005254699304,50.26005254699304 0 0,0 -0.4933600780009767,0.7107219888937678 l -23.891946291926807 -16.891583035242093" fill="#9eff22" stroke="none" /><path d="M 116.93607887273984 112.41649034213515 l 7.415046011386199 5.436255220507836 a30.19433402555471,30.19433402555471 0 0,0 -0.3109135496510111,0.4165195085236599 l -7.320371195040096 -5.563087608540811" fill="#ff6109" stroke="none" /><path d="M 116.0416608686014 113.55231037782055 l 16.758091012907904 14.157564644146095 a42.93787252789295,42.93787252789295 0 0,0 -0.48183958496633594,0.5604882939608834 l -16.51190891837079 -14.443930037268506" fill="#f4ff19" stroke="none" /><path d="M 115.56566222782051 114.09645910891815 l 9.70944129383521 8.792991918092884 a34.0992349818636,34.0992349818636 0 0,0 -0.39774905206692485,0.43167803962680323 l -9.556645833772563 -8.958821212521022" fill="#ff970e" stroke="none" /><path d="M 115.32070863581623 114.36230785411682 l 10.134861605409888 9.500866173740828 a34.891791742325545,34.891791742325545 0 0,0 -0.4145368309695128,0.43464020997512415 l -9.969818223061411 -9.67391350029846" fill="#ffa20f" stroke="none" /><path d="M 114.81725581225074 114.88116024355365 l 7.217488142698786 7.2486160034200235 a31.229104020149293,31.229104020149293 0 0,0 -0.3841924052793736,0.37601313034833533 l -7.091645785043617 -7.371779236690931" fill="#ff700a" stroke="none" /><path d="M 114.29624159901734 115.38237550388516 l 14.147550526417936 15.222387866787818 a41.78158507584244,41.78158507584244 0 0,0 -0.5310249467014715,0.4850786983318314 l -13.8834260302496 -15.463659331706232" fill="#fffb17" stroke="none" /><path d="M 113.48314897796784 116.09983520530334 l 6.775973616836741 8.09099259859969 a31.5535766300654,31.5535766300654 0 0,0 -0.4194069423193044,0.3451433604495279 l -6.6356965459727455 -8.206431077906396" fill="#ff740a" stroke="none" /><path d="M 112.92097659922987 116.55440617244103 l 6.9196466023992595 8.865478514425638 a32.246253526923454,32.246253526923454 0 0,0 -0.44050113098046156,0.33775748330397753 l -6.766016742925304 -8.983275339556986" fill="#ff7e0b" stroke="none" /><path d="M 112.34349029814194 116.9893568818739 l 12.944396711433578 17.816433605023686 a43.022323052420916,43.022323052420916 0 0,0 -0.6028711412754493,0.43013255207845214 l -12.635798242309244 -18.036610418946356" fill="#f3ff19" stroke="none" /><path d="M 111.45004920935366 117.60387380957326 l 7.354242611940386 11.306777511473502 a34.488072586149684,34.488072586149684 0 0,0 -0.5004353966345805,0.31940154741348864 l -7.158525413258875 -11.431693487710799" fill="#ff9d0e" stroke="none" /><line stroke="#e1ed5e" stroke-width="0.3" x1="143.8653032363475" x2="146.44561519142675" y1="172.8068346515853" y2="177.08958963109032" /><path d="M 144.38136562736335 173.6633856474863 a86.0,86.0 0 0,1 -40.68145358897372,12.25698825130547" fill="none" id="id66" stroke="none" /><text fill="#e1ed5e" style="font-size:6.75px; font-family:Arial;" text-anchor="middle"><textPath startOffset="21.466115282336833" xlink:href="#id66">June</textPath></text><path d="M 110.8373102113329 117.98757091392108 l 6.858352352859037 11.383368833596984 a34.28977362477158,34.28977362477158 0 0,0 -0.508194249866309,0.3002501204689109 l -6.661390231964346 -11.499737526359645" fill="#ff9a0e" stroke="none" /><path d="M 110.21172684928248 118.3499491758327 l 9.799320768213173 17.60887660905541 a41.151903705389046,41.151903705389046 0 0,0 -0.62193692782231,0.33912960162377687 l -9.494761028522214 -17.774946862438956" fill="#fff316" stroke="none" /><path d="M 109.57404056367764 118.69057910512821 l 6.239042425442243 12.179947976759543 a34.68491078169811,34.68491078169811 0 0,0 -0.5337282562608492,0.2676224277060367 l -6.0284602614986325 -12.285538245374882" fill="#ff9f0e" stroke="none" /><path d="M 109.2508944713604 118.85261126421891 l 5.823909355919444 11.86867923584158 a34.22056984359082,34.22056984359082 0 0,0 -0.5310500098018812,0.25493627656085255 l -5.618746678117329 -11.967169788901991" fill="#ff990e" stroke="none" /><path d="M 108.92500713936063 119.00905698771935 l 5.678074360279386 12.093529720446947 a34.36016427818894,34.36016427818894 0 0,0 -0.5375435064797206,0.24675985898076946 l -5.469062858032246 -12.18947664976179" fill="#ff9b0e" stroke="none" /><path d="M 108.59647513512805 119.15986991738527 l 3.882901580166605 8.65423188092473 a30.485391617117045,30.485391617117045 0 0,0 -0.48062299473282283,0.2106909966830368 l -3.733357910776028 -8.71978743090222" fill="#ff6509" stroke="none" /><path d="M 107.93186726928326 119.44442032107085 l 6.2216597218108785 15.251965598826654 a37.472143282578486,37.472143282578486 0 0,0 -0.5993382459122605,0.2384890569802163 l -5.958200399856752 -15.35680150021294" fill="#ffc412" stroke="none" /><path d="M 107.2578585660854 119.70592522655815 l 4.836356608841578 13.131267416555085 a34.99358886108088,34.99358886108088 0 0,0 -0.5670301806090962,0.2033168487989114 l -4.609606867602747 -13.212571806393957" fill="#ffa30f" stroke="none" /><path d="M 106.91757812671514 119.82793768551818 l 3.9551902970230284 11.33680969078966 a33.006947332725645,33.006947332725645 0 0,0 -0.5380608140637549,0.1825394416587486 l -3.7594597500220464 -11.403212119346533" fill="#ff880c" stroke="none" /><path d="M 106.57524785965236 119.94407469862006 l 4.495949560989458 13.637136698044197 a35.35914550995654,35.35914550995654 0 0,0 -0.5796856692810264,0.1855970454337013 l -4.260542546617491 -13.712506590137604" fill="#ffa80f" stroke="none" /><path d="M 106.2309692047433 120.05430185196036 l 3.1516442318767965 10.143530272615237 a31.621867432602613,31.621867432602613 0 0,0 -0.5211961749217494,0.1570321320665067 l -2.976573082514801 -10.19627777378747" fill="#ff750a" stroke="none" /><path d="M 105.53697534728816 120.25689768951611 l 6.74630130169986 24.681189039087005 a46.586591676822955,46.586591676822955 0 0,0 -0.7753551918041891,0.2047783532491625 l -6.320455667084174 -24.79365874163975" fill="#c8ff1d" stroke="none" /><path d="M 104.48393922423573 120.51570834832081 l 2.7790456556033893 12.715179065957345 a34.015332244521765,34.015332244521765 0 0,0 -0.5730911900204,0.12009683093004414 l -2.5597630041536115 -12.76113187761393" fill="#ff960d" stroke="none" /><path d="M 103.41894727170886 120.7198165907248 l 2.680427826666789 16.244173583131023 a37.46383517692222,37.46383517692222 0 0,0 -0.6371780160418229,0.09951410187798869 l -2.400413947016449 -16.28790599235612" fill="#ffc412" stroke="none" /><path d="M 103.06178313531738 120.77559828337769 l 1.386077290587175 9.405168069150896 a30.50675531737601,30.50675531737601 0 0,0 -0.5201712788005467,0.07209099943026864 l -1.2239774205997977 -9.427633634073768" fill="#ff6609" stroke="none" /><path d="M 101.98527174616119 120.90594882070398 l 1.3843611531374356 14.578046291558982 a35.64362965528535,35.64362965528535 0 0,0 -0.6112978931746245,0.05274535443049519 l -1.1332189422212695 -14.59971589826814" fill="#ffac0f" stroke="none" /><path d="M 101.62511606390274 120.93702456842531 l 1.1751227637252804 15.139579702354503 a36.18511728877225,36.18511728877225 0 0,0 -0.621414323805401,0.04285637004019795 l -0.914345679140949 -15.157564416910986" fill="#ffb310" stroke="none" /><line stroke="#e1ed5e" stroke-width="0.3" x1="102.19456741930631" x2="102.32365962044197" y1="184.97166512339345" y2="189.96999836594603" /><path d="M 102.22038585953345 185.97133177190398 a86.0,86.0 0 0,1 -42.740103519485714,-10.115201625700543" fill="none" id="id67" stroke="none" /><text fill="#e1ed5e" style="font-size:6.75px; font-family:Arial;" text-anchor="middle"><textPath startOffset="22.20632615414155" xlink:href="#id67">July</textPath></text><path d="M 100.54218724476979 120.99299961872073 l 0.43756589439781757 16.94215557977347 a37.947805155865744,37.947805155865744 0 0,0 -0.653136498258511,0.0112443371327808 l -0.14586970624663873 -16.94717739418541" fill="#ffca12" stroke="none" /><path d="M 100.18074693466247 120.99922214144158 l 0.03953912045989979 4.593664481033588 a25.59383464072841,25.59383464072841 0 0,0 -0.44057211024470727,0.0 l 0.039539120459896625 -4.593664481033588" fill="#ff1f03" stroke="none" /><path d="M 99.45781275523022 120.99299961872073 l -0.35721002181106876 13.8308488885 a34.835460960018786,34.835460960018786 0 0,0 -0.5993020516612995,-0.0206411744116883 l 0.5952324251470112 -13.822650915662217" fill="#ffa10e" stroke="none" /><path d="M 99.09653310690486 120.98055641714683 l -0.4558805888285934 10.586584286042282 a31.59639532844769,31.59639532844769 0 0,0 -0.5431750337473293,-0.028075944878414062 l 0.6380436909894117 -10.577168534401665" fill="#ff750a" stroke="none" /><path d="M 98.01472825383883 120.90594882070398 l -1.5943103099018172 16.788920613804027 a37.86445020571003,37.86445020571003 0 0,0 -0.6483248591154268,-0.06720152248772443 l 1.8830677656228372 -16.75898972286054" fill="#ffc912" stroke="none" /><path d="M 96.93821686468263 120.77559828337769 l -2.2345702630914452 15.162580780613464 a36.32635508492875,36.32635508492875 0 0,0 -0.61783196391233,-0.0964926464070189 l 2.4952380906122924 -15.121869826859339" fill="#ffb510" stroke="none" /><path d="M 96.58105272829116 120.7198165907248 l -3.939774514781094 23.876181428874553 a45.19904673436234,45.19904673436234 0 0,0 -0.7665565229964776,-0.13327567729939 l 4.3501800092496214 -23.804827173054157" fill="#d9ff1c" stroke="none" /><path d="M 96.22490169976321 120.6578951692458 l -1.6471553781400965 9.01347737804422 a30.16274496448803,30.16274496448803 0 0,0 -0.5099405378956086,-0.09773131775640004 l 1.8020635306074 -8.983788861939352" fill="#ff6108" stroke="none" /><path d="M 95.51606077576429 120.51570834832081 l -13.451817672707142 61.54712504496245 a84.0,84.0 0 0,0 -1.4099194024285495,-0.320893065689253 l 14.509257224528554 -61.30645524569551" fill="#4dd2ff" stroke="none" /><path d="M 95.16358092515715 120.4354850818985 l -2.1238362112475784 8.973916970327052 a30.22181468272543,30.22181468272543 0 0,0 -0.5052032749271511,-0.12416667344248211 l 2.27799277091794 -8.93602903857054" fill="#ff6209" stroke="none" /><path d="M 94.46302465271185 120.25689768951611 l -1.4262235669182701 5.217806304951319 a26.40921586727899,26.40921586727899 0 0,0 -0.43747347976302087,-0.12363437518550789 l 1.515828214785905 -5.19248313642729" fill="#ff2b04" stroke="none" /><path d="M 93.76903079525671 120.05430185196036 l -2.114369885480409 6.805074863448294 a28.125980908602145,28.125980908602145 0 0,0 -0.4611035654862589,-0.14763080049803115 l 2.231194796057608 -6.767671216290556" fill="#ff4406" stroke="none" /><path d="M 93.08242187328487 119.8279376855182 l -6.733453292894084 19.300178451797237 a41.441044041799934,41.441044041799934 0 0,0 -0.6715036511669776,-0.24077731835292457 l 7.064676504690788 -19.181413592404354" fill="#fff717" stroke="none" /><path d="M 92.40401165467489 119.57807347666478 l -3.3630336329284187 8.667959530307757 a30.297500612275364,30.297500612275364 0 0,0 -0.48458532877486643,-0.19282650302093965 l 3.511740037745143 -8.608786182880749" fill="#ff6309" stroke="none" /><path d="M 91.7346041902142 119.30500536409082 l -3.505177317547981 8.186839260285456 a29.90565017846559,29.90565017846559 0 0,0 -0.4714829754765679,-0.20668428084149754 l 3.645580967682292 -8.125290426149506" fill="#ff5d08" stroke="none" /><path d="M 90.7491055286396 118.85261126421891 l -7.256690718730834 14.78857742982982 a37.47305626122203,37.47305626122203 0 0,0 -0.5766319856189506,-0.289135248273 l 7.510176612032545 -14.66147434064752" fill="#ffc412" stroke="none" /><path d="M 90.10565033884886 118.52300852407294 l -4.313931233004602 8.076021945631553 a30.155988922525793,30.155988922525793 0 0,0 -0.4557534747405553,-0.24851313278438264 l 4.452307519613797 -8.000568161087402" fill="#ff6108" stroke="none" /><line stroke="#e1ed5e" stroke-width="0.3" x1="58.666819895761336" x2="56.23545636021788" y1="174.27360380694188" y2="178.64263932499728" /><path d="M 58.180547188652646 175.14741091055294 a86.0,86.0 0 0,1 -31.652253787137756,-30.449443065178592" fill="none" id="id68" stroke="none" /><text fill="#e1ed5e" style="font-size:6.75px; font-family:Arial;" text-anchor="middle"><textPath startOffset="22.20632615414155" xlink:href="#id68">August</textPath></text><path d="M 89.4739219176387 118.17145234162733 l -4.78454073116708 8.259681639514675 a30.545374313997993,30.545374313997993 0 0,0 -0.45270008942764606,-0.2674631923180849 l 4.926008691623108 -8.17609987490284" fill="#ff6609" stroke="none" /><path d="M 89.1626897886671 117.98757091392108 l -3.6768853612964576 6.102827628715065 a28.124885334229887,28.124885334229887 0 0,0 -0.4125261753553127,-0.25340727020789044 l 3.781390736584079 -6.038631891678797" fill="#ff4406" stroke="none" /><path d="M 88.24862548938628 117.40417183066458 l -10.746481949183593 15.915892923827743 a40.20423187338871,40.20423187338871 0 0,0 -0.5702168415482755,-0.39220034313165963 l 11.018855675354759 -15.72855179133098" fill="#ffe715" stroke="none" /><path d="M 87.65650970185807 116.9893568818739 l -5.379340399593408 7.404026870060548 a30.151880518629838,30.151880518629838 0 0,0 -0.41726617375512026,-0.308683539918698 l 5.5059915437670925 -7.310333381402083" fill="#ff6108" stroke="none" /><path d="M 87.36589467227662 116.77436683061367 l -5.722678527667666 7.598029807946159 a30.51205059350858,30.51205059350858 0 0,0 -0.416810988096708,-0.31959289194023005 l 5.852618244257861 -7.498397574178562" fill="#ff6609" stroke="none" /><path d="M 87.07902340077011 116.55440617244103 l -6.2632514265697115 8.024502426676907 a31.179437981940413,31.179437981940413 0 0,0 -0.4202431572415262,-0.3338665801199385 l 6.4004520765285955 -7.915501932551839" fill="#ff6f0a" stroke="none" /><path d="M 86.51685102203217 116.09983520530335 l -11.830271373124916 14.126182233286839 a39.42564368617302,39.42564368617302 0 0,0 -0.5165407469637139,-0.44020723067466955 l 12.071677596665687 -13.920450612389219" fill="#ffdd14" stroke="none" /><path d="M 86.24171649860922 115.8653595955263 l -6.016847733879339 6.938325767155004 a30.183834771153933,30.183834771153933 0 0,0 -0.38959805872977665,-0.3437749890394735 l 6.135388145515703 -6.833727636343242" fill="#ff6109" stroke="none" /><path d="M 85.70375840098266 115.38237550388516 l -6.229548912734787 6.702828847135085 a30.15069364639323,30.15069364639323 0 0,0 -0.37711937091276065,-0.3565899038023148 l 6.344004118038364 -6.594604306586839" fill="#ff6108" stroke="none" /><path d="M 85.44109423537348 115.13401014063109 l -5.441985713323512 5.656954464992397 a28.849607781476386,28.849607781476386 0 0,0 -0.35491893068019437,-0.34736287420335893 l 5.538554596379501 -5.562441487866469" fill="#ff4e07" stroke="none" /><path d="M 85.18274418774928 114.88116024355367 l -6.454840164535335 6.482678847695878 a30.148228604055657,30.148228604055657 0 0,0 -0.36459168056994606,-0.3693294475255883 l 6.565472470160814 -6.370608906189625" fill="#ff6108" stroke="none" /><path d="M 84.67929136418377 114.36230785411682 l -12.664130986401025 11.871914821638498 a38.35864554546127,38.35864554546127 0 0,0 -0.4474327624180652,-0.4855998945609947 l 12.866610156814819 -11.65216367227616" fill="#ffd013" stroke="none" /><path d="M 83.95833913139862 113.55231037782056 l -1.8988490692809203 1.6041850129059838 a23.485766952781614,23.485766952781614 0 0,0 -0.2582360730935936,-0.31106198552218334 l 1.9261811422680502 -1.5712617702700393" fill="#ff0000" stroke="none" /><path d="M 83.72743513129214 113.27417163493432 l -7.454852317465684 6.081216450728165 a30.620603754226153,30.620603754226153 0 0,0 -0.3296557157569625,-0.4112961922902975 l 7.5584259452775076 -5.9519924248596086" fill="#ff6709" stroke="none" /><path d="M 83.50135304334701 112.99209946851258 l -5.749441903940782 4.527481635353845 a28.31807161520414,28.31807161520414 0 0,0 -0.2982744948006513,-0.3855599923363681 l 5.826523215959502 -4.427843648904224" fill="#ff4706" stroke="none" /><path d="M 83.06392112726016 112.41649034213515 l -21.363714540237563 15.66256022153722 a47.49007534247568,47.49007534247568 0 0,0 -0.47766017018741697,-0.6634281990512331 l 21.63015450280059 -15.292498417034848" fill="#beff1f" stroke="none" /><path d="M 82.05923443525364 110.91462005526583 l -7.830822077139763 4.764035703154032 a30.166122985469148,30.166122985469148 0 0,0 -0.26606394680704926,-0.4459384788182427 l 7.911666899645044 -4.628535130449677" fill="#ff6109" stroke="none" /><line stroke="#e1ed5e" stroke-width="0.3" x1="26.63291911575756" x2="22.317208475507996" y1="142.92168965132927" y2="145.44649492493687" /><path d="M 25.769776987707644 143.4266507060508 a86.0,86.0 0 0,1 -11.730757126820373,-40.83630448921669" fill="none" id="id69" stroke="none" /><text fill="#e1ed5e" style="font-size:6.75px; font-family:Arial;" text-anchor="middle"><textPath startOffset="21.46611528233685" xlink:href="#id69">September</textPath></text><path d="M 81.69416730710424 110.29060199501025 l -22.34537780004803 12.561427454631518 a46.63406656628733,46.63406656628733 0 0,0 -0.3873372063032773,-0.7031295391373806 l 22.558291415802824 -12.174927397096315" fill="#c8ff1d" stroke="none" /><path d="M 81.51974371655577 109.97397251340807 l -8.04300055223485 4.3408849532667455 a30.139646604806323,30.139646604806323 0 0,0 -0.2424770331843027,-0.4586751669288818 l 8.11653009364404 -4.201794771251738" fill="#ff6108" stroke="none" /><path d="M 81.18737489456691 109.33194174019688 l -4.194835710359225 2.0808346649859266 a25.682576164881045,25.682576164881045 0 0,0 -0.19304338139861493,-0.39772654324200274 l 4.230032348372559 -2.008319165778639" fill="#ff2103" stroke="none" /><path d="M 81.02952815118164 109.00673069616217 l -8.488683332805195 4.030225782092972 a30.396832688693124,30.396832688693124 0 0,0 -0.22034140489961865,-0.4745957836621643 l 8.55679935454464 -3.883509931151981" fill="#ff6409" stroke="none" /><path d="M 80.87730276802145 108.67885076344099 l -4.182252594896503 1.8981185387081025 a25.59283036422051,25.59283036422051 0 0,0 -0.17861225984935816,-0.40272349370080535 l 4.214305939477141 -1.8258467085146013" fill="#ff1f03" stroke="none" /><path d="M 80.58989483394504 108.01547362559985 l -20.28203518832493 8.375540304120278 a42.94335039975422,42.94335039975422 0 0,0 -0.2762635416207503,-0.685663454094548 l 20.423201344203065 -8.025177482182926" fill="#f4ff19" stroke="none" /><path d="M 80.45479744820244 107.68017299344265 l -8.5376729466684 3.354828634703408 a30.17315292102445,30.17315292102445 0 0,0 -0.18578863216134675,-0.48503549240367233 l 8.594155858423255 -3.2073695754665774" fill="#ff6109" stroke="none" /><path d="M 80.20201598880116 107.00284435728193 l -8.61899977362224 3.0486696976815004 a30.14229424287261,30.14229424287261 0 0,0 -0.16881000854137887,-0.49064090303467583 l 8.670200613106848 -2.8998560915575275" fill="#ff6108" stroke="none" /><path d="M 80.0844068197444 106.66101706037122 l -8.830206712081466 2.9533721151771513 a30.311012696199835,30.311012696199835 0 0,0 -0.16123690465287482,-0.496236167035251 l 8.87973586775059 -2.800937048164097" fill="#ff6309" stroke="none" /><path d="M 79.67330655649465 105.27499134158121 l -28.33604969789097 7.353503767173122 a50.27466020528977,50.27466020528977 0 0,0 -0.21016887350880534,-0.8395201770357584 l 28.458429885694837 -6.864655750739972" fill="#9eff22" stroke="none" /><path d="M 79.50377843672027 104.57218783832718 l -6.574899192382681 1.4666934601983737 a27.73650421926559,27.73650421926559 0 0,0 -0.0999385359130636,-0.46687956853407864 l 6.599171767020185 -1.3533000722481312" fill="#ff3e05" stroke="none" /><path d="M 79.35854240842038 103.8639653848113 l -9.328199448428384 1.746186751174328 a30.49023040392784,30.49023040392784 0 0,0 -0.09212921871557413,-0.5167095850753329 l 9.356875109483147 -1.5853584153657816" fill="#ff6609" stroke="none" /><path d="M 79.18660465613746 102.79330883721812 l -19.122351649931172 2.566358490273727 a40.29379507832053,40.29379507832053 0 0,0 -0.08634095072577157,-0.6882223289035699 l 19.16369410990379 -2.236818407082749" fill="#ffe815" stroke="none" /><path d="M 79.10278846688536 102.07522291339032 l -9.10008938443978 0.9036954033108121 a30.144850583074536,30.144850583074536 0 0,0 -0.046832758116192745,-0.5167955833014019 l 9.11429673883305 -0.746918431460844" fill="#ff6108" stroke="none" /><path d="M 79.07016306316243 101.71520430193888 l -9.66644122654072 0.7921667821033278 a30.698846023978007,30.698846023978007 0 0,0 -0.038627102713675476,-0.52703612715208 l 9.678644887918729 -0.6256575184544871" fill="#ff6809" stroke="none" /><path d="M 79.0095281055655 100.63252640178507 l -16.434554927602964 0.49523850371616146 a37.44201498734148,37.44201498734148 0 0,0 -0.013867697405645401,-0.6443774063697068 l 16.440644687693617 -0.21227128155632588" fill="#ffc412" stroke="none" /><line stroke="#e1ed5e" stroke-width="0.3" x1="15.007084014347285" x2="10.007500721073583" y1="101.09737516637583" y2="101.16192664675087" /><path d="M 14.007167355692545 101.11028546245083 a86.0,86.0 0 0,1 10.666146001902534,-42.60595125391555" fill="none" id="id70" stroke="none" /><text fill="#e1ed5e" style="font-size:6.75px; font-family:Arial;" text-anchor="middle"><textPath startOffset="22.20632615414155" xlink:href="#id70">October</textPath></text><path d="M 79.00019446554 99.90962569577889 l -10.989330869448755 -0.04729344419653687 a31.989432634494072,31.989432634494072 0 0,0 0.007109259733976271,-0.5506200010755563 l 10.986888602597064 0.2364497033325651" fill="#ff7a0b" stroke="none" /><path d="M 79.00486145842228 99.54816195383935 l -9.171485737930475 -0.1973802739148464 a30.173609410346224,30.173609410346224 0 0,0 0.015644737077898718,-0.5191726590426763 l 9.16672930639693 0.3552230803825171" fill="#ff6109" stroke="none" /><path d="M 79.01574976396665 99.18683210126434 l -9.581366892957181 -0.3712908441199627 a30.5885582038377,30.5885582038377 0 0,0 0.024917136200346277,-0.5259613634200682 l 9.573556148523336 0.53616331416304" fill="#ff6709" stroke="none" /><path d="M 79.05617556472873 98.46500227214037 l -6.055431282024669 -0.44380973913552674 a27.07167317103568,27.07167317103568 0 0,0 0.03806214877355718,-0.46445462292493933 l 6.046894649431615 0.5479782792682445" fill="#ff3505" stroke="none" /><path d="M 79.12142395522702 97.74499172005258 l -9.13490840213027 -0.9866235148982847 a30.18803447291424,30.18803447291424 0 0,0 0.060246184203586885,-0.5161525145316567 l 9.116571864923094 1.143719767754803" fill="#ff6109" stroke="none" /><path d="M 79.16333360222342 97.38593545837743 l -9.142298791229644 -1.1469473399844023 a30.21396306639094,30.21396306639094 0 0,0 0.06918134421671022,-0.5154813704868425 l 9.1212014479551 1.3041470525359042" fill="#ff6209" stroke="none" /><path d="M 79.21141760316559 97.0276538004421 l -3.309759202409422 -0.4732285251076806 a24.343419090528354,24.343419090528354 0 0,0 0.06288033424754022,-0.4143028376364821 l 3.3011229747225794 0.5301304751362548" fill="#ff0d01" stroke="none" /><path d="M 79.26566170972629 96.67025291283419 l -10.296842662860405 -1.6535797469720686 a31.42877244949272,31.42877244949272 0 0,0 0.09037738394901741,-0.5334124360374843 l 10.266853417391165 1.830577971325381" fill="#ff730a" stroke="none" /><path d="M 79.32604984820605 96.31383870115002 l -7.701668029112073 -1.373205914547477 a28.823131400813566,28.823131400813566 0 0,0 0.09129284379885955,-0.48769002204218886 l 7.676889461403352 1.5055740140522387" fill="#ff4e07" stroke="none" /><path d="M 79.46518482838121 95.60439243477599 l -25.913810744898313 -5.547015719503003 a47.50084849046952,47.50084849046952 0 0,0 0.17802778087455912,-0.798063633920834 l 25.814488577021717 5.992257522973796" fill="#beff1f" stroke="none" /><path d="M 79.62865764111835 94.90015583598534 l -7.1315005199524695 -1.7853286576125111 a28.351577931422263,28.351577931422263 0 0,0 0.12259177492561835,-0.4723961171206952 l 7.099712413156544 1.90782120028207" fill="#ff4706" stroke="none" /><path d="M 79.81627453868168 94.20196356495316 l -9.941182906887251 -2.855733487460567 a31.343226350592495,31.343226350592495 0 0,0 0.15342375401589822,-0.5172686275079463 l 9.890553255759645 3.0264315017150523" fill="#ff710a" stroke="none" /><path d="M 79.91906864156998 93.8553929516997 l -7.152581738100396 -2.1886337529372373 a28.479942728704774,28.479942728704774 0 0,0 0.1474779806829648,-0.46754550075743895 l 7.113848273649228 2.3114294201210908" fill="#ff4906" stroke="none" /><path d="M 80.14247586403 93.16781622104843 l -27.66630070388929 -9.518873027595365 a50.25804399397724,50.25804399397724 0 0,0 0.2884977318094767,-0.8156219373477737 l 27.498349891270003 9.99369259136975" fill="#9eff22" stroke="none" /><path d="M 80.2630227832202 92.82701384747504 l -3.5855250713225937 -1.3030831116460198 a24.81497255991966,24.81497255991966 0 0,0 0.14935707943008883,-0.40020271720459827 l 3.5625634033908775 1.3646089658799594" fill="#ff1402" stroke="none" /><path d="M 80.38941819471856 92.48833698450439 l -5.126438876238212 -1.9636378813333657 a26.489649285775357,26.489649285775357 0 0,0 0.16676678556911223,-0.42440327915054044 l 5.091878540787409 2.0515901653796695" fill="#ff2c04" stroke="none" /><path d="M 80.65960295795068 91.81776055985345 l -8.721058857565287 -3.6895722248651883 a30.469414490854998,30.469414490854998 0 0,0 0.20851132990428137,-0.4812728976458129 l 8.656256817818326 3.8391442670976006" fill="#ff6509" stroke="none" /><path d="M 80.803312248108 91.48605970444005 l -7.146419350684201 -3.1695148905447397 a28.817744826816647,28.817744826816647 0 0,0 0.2050144908317984,-0.4517222548473003 l 7.090802542889051 3.292059154234111" fill="#ff4e07" stroke="none" /><path d="M 81.10775173730289 90.83032412892265 l -17.36485000789548 -8.428326999951471 a40.30219448184114,40.30219448184114 0 0,0 0.30829257140533334,-0.6214990116854437 l 17.21719742353673 8.725985600135877" fill="#ffe915" stroke="none" /><path d="M 81.43458229118936 90.18545643968196 l -8.351826888029025 -4.41516426327946 a30.44704651408813,30.44704651408813 0 0,0 0.24892910900892345,-0.46122783321391336 l 8.27458967980163 4.558273079825846" fill="#ff6509" stroke="none" /><path d="M 81.6062741919709 89.86733742301443 l -8.6249252911784 -4.751264569197358 a30.84702245782546,30.84702245782546 0 0,0 0.26020544368021736,-0.46287644980346826 l 8.541862206205751 4.899024528935611" fill="#ff6b09" stroke="none" /><line stroke="#e1ed5e" stroke-width="0.3" x1="26.266209847984243" x2="21.928928074336255" y1="57.711370442889674" y2="55.22380399835377" /><path d="M 25.398753493254645 57.213857153982495 a86.0,86.0 0 0,1 29.58750427330803,-30.492523968695096" fill="none" id="id71" stroke="none" /><text fill="#e1ed5e" style="font-size:6.75px; font-family:Arial;" text-anchor="middle"><textPath startOffset="21.46611528233685" xlink:href="#id71">November</textPath></text><path d="M 81.78341655067845 89.55222093294921 l -6.549822263386683 -3.7565274589875544 a28.5506072757152,28.5506072757152 0 0,0 0.2481731974370934,-0.4242084409439004 l 6.484189391479264 3.8687153122853464" fill="#ff4a06" stroke="none" /><path d="M 81.96595687620814 89.24020034530311 l -4.7878552600203665 -2.8566175105537805 a26.575286682539936,26.575286682539936 0 0,0 0.2377655487459022,-0.39082404589662795 l 4.737973912988247 2.938609329657483" fill="#ff2e04" stroke="none" /><path d="M 82.54541684631803 88.32363383020206 l -16.073315414328516 -10.752357400226279 a40.33816584039685,40.33816584039685 0 0,0 0.39104112690008347,-0.573804601785197 l 15.885849821759694 11.02744002528189" fill="#ffe915" stroke="none" /><path d="M 82.95767976084542 87.72973835380427 l -5.947866058085494 -4.282390645468604 a28.32911865679104,28.32911865679104 0 0,0 0.28833294340446686,-0.3932858107686171 l 5.873270502167394 4.384138899908722" fill="#ff4706" stroke="none" /><path d="M 83.17141714833178 87.43820079747576 l -7.57159291290536 -5.651862111832201 a30.448415982053447,30.448415982053447 0 0,0 0.31713338844475514,-0.41731036523535453 l 7.473183584236496 5.781357252948582" fill="#ff6509" stroke="none" /><path d="M 83.84228863543731 86.58626213691792 l -22.528853353490955 -18.702904540201523 a50.28050326860847,50.28050326860847 0 0,0 0.5585670362424913,-0.6611671897985816 l 22.203575703761338 19.08793067962922" fill="#9eff22" stroke="none" /><path d="M 84.5562425177563 85.77008943001954 l -5.761791039500426 -5.3089263612998785 a28.834726229586593,28.834726229586593 0 0,0 0.33947078980902057,-0.36212376965193593 l 5.669552927720949 5.407319547829864" fill="#ff4e07" stroke="none" /><path d="M 84.80347519578584 85.50635884689758 l -7.007280687209313 -6.683173491831021 a30.683325387037733,30.683325387037733 0 0,0 0.36781378611155924,-0.37906443833254516 l 6.891202637394636 6.80280212571369" fill="#ff6809" stroke="none" /><path d="M 85.57189188830299 84.74124197986013 l -13.899616858711719 -14.699840656710524 a41.23078506019138,41.23078506019138 0 0,0 0.5198850870898812,-0.48317652932643035 l 13.644523887826981 14.936921772111601" fill="#fff417" stroke="none" /><path d="M 86.37877921826538 84.01681056812374 l -4.922063539178101 -5.775567051075761 a28.588404591557993,28.588404591557993 0 0,0 0.37728861251970763,-0.3159683627456205 l 4.8219173896992835 5.859436571215194" fill="#ff4b06" stroke="none" /><path d="M 86.65592168130627 83.78471172551755 l -5.735109656398711 -6.969117997006528 a30.025524274363125,30.025524274363125 0 0,0 0.4019082299925032,-0.3249818378100222 l 5.6142980278417065 7.066805932080684" fill="#ff5f08" stroke="none" /><path d="M 87.22198572758235 83.33499621200491 l -3.512926664036625 -4.58153629468773 a26.77331175032498,26.77331175032498 0 0,0 0.368137940215811,-0.2772738642706505 l 3.433542570062424 4.641326748464235" fill="#ff3104" stroke="none" /><path d="M 87.51073957382395 83.11751280151077 l -1.6660033316026528 -2.2520372671125326 a23.801292371990975,23.801292371990975 0 0,0 0.3314666395724652,-0.24082461026442137 l 1.6269913756764058 2.2803811121936217" fill="#ff0500" stroke="none" /><path d="M 87.80319425747018 82.90503203632743 l -23.814269000942 -33.37793306241048 a62.002509966683526,62.002509966683526 0 0,0 0.8741434508947018,-0.6123933501795181 l 23.236194410463643 33.78291125535394" fill="#31ff40" stroke="none" /><path d="M 88.39885842347998 82.49532879139004 l -3.0403928555035087 -4.5875724323812905 a26.503617859021606,26.503617859021606 0 0,0 0.38245095939504764,-0.2487567425560819 l 2.960974870324174 4.639228099096908" fill="#ff2d04" stroke="none" /><path d="M 89.00827224532344 82.1063720568725 l -3.8802344556052466 -6.31670227195754 a28.413295287725944,28.413295287725944 0 0,0 0.4189444783256794,-0.25240936058946245 l 3.7709279110619183 6.382558242005621" fill="#ff4806" stroke="none" /><line stroke="#e1ed5e" stroke-width="0.3" x1="56.762969772571076" x2="54.21961505331055" y1="26.818313649435495" y2="22.513508569990535" /><path d="M 56.25429882871897 25.957352633546506 a86.0,86.0 0 0,1 42.265352541879196,-11.944610805530505" fill="none" id="id72" stroke="none" /><text fill="#e1ed5e" style="font-size:6.75px; font-family:Arial;" text-anchor="middle"><textPath startOffset="22.20632615414155" xlink:href="#id72">December</textPath></text><path d="M 89.63071344664047 81.73862282372117 l -9.025687738499226 -15.895161853218267 a39.278928018155234,39.278928018155234 0 0,0 0.590822246095635,-0.32879194028254977 l 8.750741403331546 16.048169191061" fill="#ffdc14" stroke="none" /><path d="M 90.58718382345135 81.22770947309562 l -4.328483073413971 -8.632436910577036 a30.65684900637491,30.65684900637491 0 0,0 0.4737632554995967,-0.23247357194242282 l 4.1792485509039485 8.705665642654289" fill="#ff6809" stroke="none" /><path d="M 90.91171255644093 81.06846463323043 l -4.0259044685194265 -8.38623924499949 a30.302521994814864,30.302521994814864 0 0,0 0.47217359282267984,-0.2216918329869016 l 3.8809526643971384 8.454296060626401" fill="#ff6309" stroke="none" /><path d="M 91.90106846888425 80.62456947434976 l -11.290904586548583 -27.01172821969507 a50.27657746044122,50.27657746044122 0 0,0 0.8013514979951872,-0.3268913967700663 l 10.824269218965014 27.202080502648712" fill="#9eff22" stroke="none" /><path d="M 92.91201910852362 80.23233633223022 l -1.5656854271871568 -4.366538709406353 a25.638753189990855,25.638753189990855 0 0,0 0.41671275510113,-0.14538289788535216 l 1.4902906680227415 4.392842460463915" fill="#ff2003" stroke="none" /><path d="M 94.28887869178378 79.79150937346287 l -1.7620785929759597 -6.23501880062468 a27.47922683751444,27.47922683751444 0 0,0 0.45628878098768655,-0.12472096025249452 l 1.6544919227645505 6.2644263017034705" fill="#ff3b05" stroke="none" /><path d="M 95.33964822691252 79.52364482259891 l -2.1578733042475653 -9.48112553665287 a30.723587745218094,30.723587745218094 0 0,0 0.5166789786824518,-0.11292601257133507 l 1.9943516014115923 9.516865047320074" fill="#ff6909" stroke="none" /><path d="M 95.692805502759 79.44645832069477 l -1.9721430364818793 -9.410887788755874 a30.615308478093585,30.615308478093585 0 0,0 0.5167187480553299,-0.10364891982229936 l 1.8098578789594129 9.443440664655384" fill="#ff6709" stroke="none" /><path d="M 96.04723909329186 79.375362276772 l -1.8090158288248779 -9.439047032108546 a30.610834882740214,30.610834882740214 0 0,0 0.5183505824483887,-0.09472525572890315 l 1.6462701252735958 9.468787769188186" fill="#ff6709" stroke="none" /><path d="M 96.75951476605007 79.25152402106235 l -3.9489411897579667 -25.284642731748637 a46.59115657004068,46.59115657004068 0 0,0 0.7934496584358146,-0.11693385431243117 l 3.5131225508935033 25.34887107022204" fill="#c8ff1d" stroke="none" /><path d="M 97.11714578562143 79.19881850522333 l -0.8339254351304336 -6.0171736200673696 a27.07468600055938,27.07468600055938 0 0,0 0.4621845791178587,-0.06000482315573843 l 0.730226127504717 6.030636766387245" fill="#ff3505" stroke="none" /><path d="M 97.83486435360386 79.11191278185805 l -0.7630619905619895 -7.361619784995021 a28.401061373902433,28.401061373902433 0 0,0 0.4867061120207398,-0.046218609887812095 l 0.6362307514510134 7.373663939398014" fill="#ff4806" stroke="none" /><path d="M 98.19473922651362 79.07773832637324 l -0.8688495541680503 -10.069624286031184 a31.10703877550725,31.10703877550725 0 0,0 0.5338705692656712,-0.041438631135150256 l 0.695388795540045 10.083088179354796" fill="#ff6e0a" stroke="none" /><path d="M 99.63851952072746 79.00311137660856 l -0.4719358309599317 -27.412777862846287 a48.41683996353882,48.41683996353882 0 0,0 0.8334163102324607,-0.007173477301090139 l 6.71518906081661e-15 27.41683996353882" fill="#b3ff20" stroke="none" /></svg>