<?xml version="1.0" encoding="utf-8" ?>
<svg baseProfile="full" height="200mm" version="1.1" viewBox="0,0,200,200" width="200mm" xmlns="http://www.w3.org/2000/svg" xmlns:ev="http://www.w3.org/2001/xml-events" xmlns:xlink="http://www.w3.org/1999/xlink"><defs /><rect fill="#1a1a1a" height="200" width="200" x="0" y="0" /><text alignment-baseline="middle" fill="#e1ed5e" style="dominant-baseline: central; font-size:9.0px; font-family:Arial;" text-anchor="middle" x="100.0" y="100.0">2024</text><line stroke="#e1ed5e" stroke-width="0.3" x1="100.0" x2="100.0" y1="15.0" y2="10.0" /><path d="M 100.0 14.0 a86.0,86.0 0 0,1 42.35913384403234,11.155469271406648" fill="none" id="id73" stroke="none" /><text fill="#e1ed5e" style="font-size:6.75px; font-family:Arial;" text-anchor="middle"><textPath startOffset="22.145653131862478" xlink:href="#id73">January</textPath></text><path d="M 100.36049292484886 79.00309439819443 l 0.09550419222543506 -5.562640402928627 a26.563460191555844,26.563460191555844 0 0,0 0.4558627326308857,0.011741406936135543 l -0.19098023892706215 5.560181278642446" fill="#ff4506" stroke="none" /><path d="M 100.72087961077811 79.0123766808444 l 0.25766423292450413 -7.50161300525834 a28.506036806303953,28.506036806303953 0 0,0 0.4889114345235759,0.020995960654869125 l -0.38640142804891625 7.49608447617764" fill="#ff6008" stroke="none" /><path d="M 101.08105385017728 79.02784411241856 l 0.3126310377488348 -6.064958612274257 a27.07301087882803,27.07301087882803 0 0,0 0.46392266045359787,0.027908435231296706 l -0.416698050334895 6.058698199218268" fill="#ff4c07" stroke="none" /><path d="M 101.80034050326958 79.07731436759882 l 1.6405404764664282 -19.06556709355831 a40.136018960429,40.136018960429 0 0,0 0.6859445108993032,0.06495965835598302 l -1.9675845507507443 19.034595679697144" fill="#fff617" stroke="none" /><path d="M 102.87502721639298 79.19773525538626 l 0.9393551435620658 -6.796705879573757 a27.86131174770313,27.86131174770313 0 0,0 0.4732109726306411,0.06954571706189698 l -1.0558912218003889 6.7795790892129775" fill="#ff5708" stroke="none" /><path d="M 103.58742460773223 79.30868818359171 l 1.4008404925397027 -8.079675702094496 a29.200214237235212,29.200214237235212 0 0,0 0.4931572268007306,0.08986967465465895 l -1.539332452891487 8.054437853508471" fill="#ff6909" stroke="none" /><path d="M 104.29559338865022 79.4440306129975 l 5.143257982775647 -24.612351327930003 a46.1440040679054,46.1440040679054 0 0,0 0.7739834514474211,0.16868609086499273 l -5.565003850842203 24.52043377893129" fill="#c1ff1e" stroke="none" /><path d="M 105.3480935250658 79.69241777938227 l 1.7738707677366483 -6.735676235975894 a27.965339320989393,27.965339320989393 0 0,0 0.4631840545244038,0.12624287374862803 l -1.889236223195745 6.704232868083124" fill="#ff5808" stroke="none" /><path d="M 105.69591212413111 79.78721728523813 l 2.2897969133817244 -8.12568144705665 a29.44214835711699,29.44214835711699 0 0,0 0.48529070799006857,0.14126105239335038 l -2.4289476337533973 8.085176700360783" fill="#ff6c0a" stroke="none" /><path d="M 107.06938296918511 80.22567764915836 l 4.6549571606206115 -13.020743652551182 a34.82781224318095,34.82781224318095 0 0,0 0.5612433089164632,0.2060963170639875 l -4.877789621191199 12.938916486478472" fill="#ffb410" stroke="none" /><path d="M 108.07796709384702 80.6158196554323 l 3.2252505946959054 -7.739427316017436 a29.3845677633676,29.3845677633676 0 0,0 0.46394723817192307,0.19803148796750736 l -3.3576329080382585 7.682921178390528" fill="#ff6c09" stroke="none" /><path d="M 108.4095320186766 80.7573450057729 l 2.7461620384123004 -6.283756164558523 a27.857623311092848,27.857623311092848 0 0,0 0.4365509742846275,0.1952636980932914 l -2.8536264155525597 6.235688715555378" fill="#ff5708" stroke="none" /><path d="M 109.06512990194946 81.05736502329252 l 8.863618577105019 -18.521553810581004 a41.53318508752719,41.53318508752719 0 0,0 0.6404807764808208,0.3132912426777714 l -9.180259602847908 18.36666881780601" fill="#f7ff18" stroke="none" /><path d="M 109.71004243097381 81.37971332152246 l 1.5876980871980821 -3.0446204280421285 a24.4337295710268,24.4337295710268 0 0,0 0.37024219150225696,0.19713311300058114 l -1.6397290944868985 3.0169168473189742" fill="#ff2703" stroke="none" /><path d="M 110.02825361518725 81.54914285379988 l 4.037463090940757 -7.428477338385749 a29.454784667726287,29.454784667726287 0 0,0 0.442180573957681,0.2452701105423698 l -4.164387853054538 7.358074312410233" fill="#ff6d0a" stroke="none" /><line stroke="#e1ed5e" stroke-width="0.3" x1="143.13028292997686" x2="145.6673583964461" y1="26.7553504044142" y2="22.446841604673864" /><path d="M 143.63769802327073 25.89364864446614 a86.0,86.0 0 0,1 29.32050498858742,28.57503671076993" fill="none" id="id74" stroke="none" /><text fill="#e1ed5e" style="font-size:6.75px; font-family:Arial;" text-anchor="middle"><textPath startOffset="20.669276256404974" xlink:href="#id74">February</textPath></text><path d="M 111.8722381534696 82.67804972795209 l 4.647609331025761 -6.78100090945419 a29.22084216050012,29.22084216050012 0 0,0 0.41132497060383644,0.28713677458853915 l -4.7633293928033575 6.7002193190605235" fill="#ff6909" stroke="none" /><path d="M 112.7482090630111 83.31218511350987 l 0.4427185192665066 -0.5795327531752481 a21.729285883110602,21.729285883110602 0 0,0 0.2944732701195928,0.22898419595064626 l -0.45260173402132536 0.571847505603811" fill="#ff0000" stroke="none" /><path d="M 113.59037401385872 83.9905735841838 l 8.95266193906649 -10.54621325307208 a34.833754724386395,34.833754724386395 0 0,0 0.45254109932000103,0.3908942232898302 l -9.132382518149349 10.39097489731753" fill="#ffb410" stroke="none" /><path d="M 113.86319453409587 84.22622945171908 l 4.621089895411073 -5.257952019205912 a28.000037946878706,28.000037946878706 0 0,0 0.3583137831713769,0.3204063943842736 l -4.710668705405825 5.177850094938251" fill="#ff5908" stroke="none" /><path d="M 114.13192950727249 84.46653392183569 l 5.062625520460932 -5.564712288442952 a28.52304459734025,28.52304459734025 0 0,0 0.35934992533048987,0.33260892610302223 l -5.157405217105386 5.476985616207555" fill="#ff6008" stroke="none" /><path d="M 114.39649973595853 84.71141617570332 l 5.911068163984915 -6.277349548410757 a29.62240362034907,29.62240362034907 0 0,0 0.3672155570085644,0.351784196862244 l -6.017956206858791 6.174953221242933" fill="#ff6f0a" stroke="none" /><path d="M 115.16444852881244 85.47280134310134 l 10.857780133593836 -10.40150775505964 a36.03604845057473,36.03604845057473 0 0,0 0.42409995951223967,0.4503794602717759 l -11.034735926842336 10.213586834843369" fill="#ffc312" stroke="none" /><path d="M 115.41159269507618 85.73525988315684 l 4.212622086738365 -3.899140112688998 a26.740163626940983,26.740163626940983 0 0,0 0.30891548456001344,0.3395522315592688 l -4.278935272140255 3.8262503055720574" fill="#ff4706" stroke="none" /><path d="M 115.6541949942343 86.00192230759917 l 6.216671054189349 -5.558985590552136 a29.33962348022751,29.33962348022751 0 0,0 0.33250027504356716,0.37832427676595093 l -6.311182393191506 5.451449035974886" fill="#ff6b09" stroke="none" /><path d="M 117.01052211995028 87.68569379921539 l 16.63117321305321 -12.039686846744631 a41.5316823911304,41.5316823911304 0 0,0 0.4131114944836306,0.5810930523610472 l -16.8353998060668 11.75241656767408" fill="#f7ff18" stroke="none" /><path d="M 117.42321728460499 88.27688183743584 l 3.40765836926189 -2.2928246298004833 a25.107210774311483,25.107210774311483 0 0,0 0.23753281846295088,0.35965496189025126 l -3.4465156266455654 2.2339897895711736" fill="#ff3004" stroke="none" /><path d="M 117.81537515405839 88.88188828441811 l 3.199957701587588 -1.9970102736389943 a24.771972869065923,24.771972869065923 0 0,0 0.22204185131427742,0.36268867702891894 l -3.233767517357268 1.9417844804855207" fill="#ff2c04" stroke="none" /><line stroke="#e1ed5e" stroke-width="0.3" x1="172.87174338648825" x2="177.1583165268699" y1="56.24261187166439" y2="53.66864786411523" /><path d="M 173.72905801456457 55.72781907015455 a86.0,86.0 0 0,1 12.242430191666344,42.057860355516425" fill="none" id="id75" stroke="none" /><text fill="#e1ed5e" style="font-size:6.75px; font-family:Arial;" text-anchor="middle"><textPath startOffset="22.145653131862474" xlink:href="#id75">March</textPath></text><path d="M 118.18653347947321 89.5 l 18.962191374283943 -10.947826294368037 a42.89565258873607,42.89565258873607 0 0,0 0.3627065088282841,0.6408676472331515 l -19.147331248133604 10.620701877035767" fill="#e7ff1a" stroke="none" /><path d="M 118.8641267826498 90.77261029715802 l 7.816178974571884 -3.8232848101863506 a29.701158572416738,29.701158572416738 0 0,0 0.22010077792808638,0.4599259734253239 l -7.880659010459883 3.688546334695923" fill="#ff700a" stroke="none" /><path d="M 119.0197475246899 91.09779779509293 l 6.364262539329225 -2.978796218860316 a28.026881568875755,28.026881568875755 0 0,0 0.20021274461899966,0.4375009796400795 l -6.414459748803275 2.8691062570055523" fill="#ff5908" stroke="none" /><path d="M 119.4528033332814 92.08871423366111 l 19.01835678757246 -7.734600138338843 a41.53099934731368,41.53099934731368 0 0,0 0.2629136230101382,0.6627140778756618 l -19.148329085548724 7.406985043249616" fill="#f7ff18" stroke="none" /><path d="M 119.71291397450082 92.76114493625339 l 3.2186604381215456 -1.181936695970745 a24.428811655546426,24.428811655546426 0 0,0 0.14117506802598342,0.3948917911529731 l -3.2384756761914724 1.1265099484368548" fill="#ff2703" stroke="none" /><path d="M 119.83427380445688 93.10060997987247 l 8.065642402043117 -2.805649112400033 a29.539687014144427,29.539687014144427 0 0,0 0.16248878534872277,0.4803692215184607 l -8.112616608964204 2.666778216407411" fill="#ff6e0a" stroke="none" /><path d="M 119.94978838288452 93.4421083053983 l 5.484179181115847 -1.8027586264725584 a26.77288142576181,26.77288142576181 0 0,0 0.13977392688453277,0.4378398351864426 l -5.5143178237776365 1.7083497575947288" fill="#ff4806" stroke="none" /><path d="M 120.16314734710363 94.1308016681162 l 3.960195846729909 -1.152755294470391 a25.124560087256135,25.124560087256135 0 0,0 0.11698654149022264,0.4151439650333571 l -3.979400880294714 1.0846034055340206" fill="#ff3104" stroke="none" /><path d="M 120.26092885502905 94.47779374421319 l 14.002930784968168 -3.816561053710391 a35.51372484392991,35.51372484392991 0 0,0 0.15526350078472162,0.5895608020444789 l -14.06638376655762 3.5756197472931137" fill="#ffbc11" stroke="none" /><path d="M 120.43855184770803 95.1765574152323 l 5.448156144229789 -1.2857500154781605 a26.597817295536796,26.597817295536796 0 0,0 0.10105794887892763,0.44527996920349905 l -5.469424954666383 1.1920357123356353" fill="#ff4506" stroke="none" /><path d="M 120.51834098615036 95.52812308129327 l 8.230432102572564 -1.7937843695706404 a29.423637869683915,29.423637869683915 0 0,0 0.10332221011358776,0.49443417845462967 l -8.26001202351052 1.6522337398306064" fill="#ff6c0a" stroke="none" /><path d="M 120.592083275326 95.88100663000786 l 4.4160338353628115 -0.8833304453132074 a25.503512796771695,25.503512796771695 0 0,0 0.08218653670414279,0.4300346887608046 l -4.4305466643491105 0.8073931915190883" fill="#ff3605" stroke="none" /><path d="M 120.7213421655516 96.59031103205396 l 16.19163343047358 -2.6643271193452858 a37.40937634846944,37.40937634846944 0 0,0 0.09882935142148372,0.6345553315190116 l -16.23498427403333 2.385983605894833" fill="#ffd413" stroke="none" /><path d="M 120.86939407059847 97.66154086499901 l 3.915497477641693 -0.4387396593159427 a24.940001647978733,24.940001647978733 0 0,0 0.04402219964732748,0.42587484786768626 l -3.9224520697706864 0.37146028916532503" fill="#ff2e04" stroke="none" /><path d="M 120.9064616781168 98.02013634271609 l 3.9849441983374954 -0.37737835871342296 a25.002773374735185,25.002773374735185 0 0,0 0.036797387977259344,0.4276414263543366 l -3.9908352090124954 0.3089158849834243" fill="#ff2f04" stroke="none" /><path d="M 120.99303781780057 99.45929381324524 l 28.893075412634 -0.7441831318350797 a49.9026575825453,49.9026575825453 0 0,0 0.014706000469425188,0.8565508012841957 l -28.901592844702094 0.24808541458181757" fill="#97ff23" stroke="none" /><line stroke="#e1ed5e" stroke-width="0.3" x1="184.99686870605535" x2="189.99668451229388" y1="99.2704041080226" y2="99.22748670261217" /><path d="M 185.99683186730306 99.26182062694052 a86.0,86.0 0 0,1 -10.086455211305974,41.156179273409016" fill="none" id="id76" stroke="none" /><text fill="#e1ed5e" style="font-size:6.75px; font-family:Arial;" text-anchor="middle"><textPath startOffset="21.40746469413373" xlink:href="#id76">April</textPath></text><path d="M 120.99303781780057 100.54070618675476 l 20.625795878053488 0.531247337083713 a41.63263626724144,41.63263626724144 0 0,0 -0.024534138331122952,0.7142846684175284 l -20.61363705272552 -0.885238270065352" fill="#f6ff19" stroke="none" /><path d="M 120.98066250479742 100.90099992219065 l 13.672181466862062 0.587142299963231 a34.68478286796004,34.68478286796004 0 0,0 -0.030652116193963675,0.5946428653842453 l -13.660087761211527 -0.8217569587242068" fill="#ffb210" stroke="none" /><path d="M 120.93736805541906 101.62068470465957 l 14.61215552868817 1.1310732516507647 a35.65586626218908,35.65586626218908 0 0,0 -0.05247588836848144,0.6098493666174624 l -14.590586017621948 -1.3817436656438844" fill="#ffbe11" stroke="none" /><path d="M 120.86939407059847 102.33845913500097 l 6.847827202805842 0.767313321275088 a27.890682631822038,27.890682631822038 0 0,0 -0.05739891029243723,0.4753453175643607 l -6.833646206253741 -0.8847523157628573" fill="#ff5708" stroke="none" /><path d="M 120.82617615685814 102.69636545807757 l 10.594109276910249 1.3716195473528259 a31.682532075954473,31.682532075954473 0 0,0 -0.07446222320779965,0.5387715538166273 l -10.56900253714724 -1.5532794093695383" fill="#ff8a0c" stroke="none" /><path d="M 120.77682067341334 103.0534771498775 l 22.685349322824237 3.3339651375473216 a43.92902957904985,43.92902957904985 0 0,0 -0.11605319108855218,0.7451447377304968 l -22.62477463959742 -3.7228980572092687" fill="#dbff1b" stroke="none" /><path d="M 120.7213421655516 103.40968896794604 l 10.57104277574677 1.739461065995573 a31.713200743325146,31.713200743325146 0 0,0 -0.0930030121753852,0.5364166596389085 l -10.539624946079151 -1.9206707585550695" fill="#ff8b0c" stroke="none" /><path d="M 120.65975698304385 103.76489593502545 l 8.270291055588292 1.507122528218347 a29.406493469884275,29.406493469884275 0 0,0 -0.09476411638512101,0.4958459004309813 l -8.24320064692101 -1.648870993682643" fill="#ff6c09" stroke="none" /><path d="M 120.592083275326 104.11899336999214 l 15.76826750980731 3.1540951180487324 a37.080627359482705,37.080627359482705 0 0,0 -0.13021001645509314,0.6231020652941718 l -15.711799782527853 -3.424313634628313" fill="#ffd013" stroke="none" /><path d="M 120.51834098615036 104.47187691870673 l 2.462689438613663 0.5367317009651413 a23.520499988073837,23.520499988073837 0 0,0 -0.08936573475149447,0.3937619163997392 l -2.4531128423045043 -0.5789279513038974" fill="#ff1a02" stroke="none" /><path d="M 120.43855184770803 104.8234425847677 l 6.671488371651473 1.5744530901887204 a27.85475452706263,27.85475452706263 0 0,0 -0.11382311353564999,0.4644371454581976 l -6.6434777315995275 -1.6887460602550177" fill="#ff5708" stroke="none" /><path d="M 120.35273937422433 105.17358676015961 l 7.613890462951088 1.9354211817951172 a28.856028457990636,28.856028457990636 0 0,0 -0.12615652164959995,0.4790368612775587 l -7.5795444604967575 -2.065838547445479" fill="#ff6409" stroke="none" /><path d="M 120.16314734710363 105.8691983318838 l 11.113666446678769 3.2350263303179085 a32.57492882249751,32.57492882249751 0 0,0 -0.1608948330042511,0.5355665708627192 l -11.056495293670887 -3.425330504771351" fill="#ff960d" stroke="none" /><path d="M 119.94978838288452 106.5578916946017 l 40.123139189171106 13.189272798289604 a63.23533136298684,63.23533136298684 0 0,0 -0.34783822114891577,1.0283218940253147 l -39.89081554644982 -13.87609636678908" fill="#33ff56" stroke="none" /><path d="M 119.83427380445688 106.89939002012753 l 13.671284515543968 4.755582426601018 a35.47479134637694,35.47479134637694 0 0,0 -0.20501022121537615,0.5734500757988361 l -13.58763412428465 -4.989567458780775" fill="#ffbc11" stroke="none" /><path d="M 119.71291397450082 107.23885506374661 l 5.248188095004376 1.9272073634653548 a26.590850248606266,26.590850248606266 0 0,0 -0.16102572585275574,0.42713986883152044 l -5.2143316853371795 -2.0170155124910343" fill="#ff4506" stroke="none" /><path d="M 119.58574465831526 107.57618678355244 l 9.094183820456365 3.517825667071911 a30.750860309950106,30.750860309950106 0 0,0 -0.19466952931125622,0.4906943814129554 l -9.032455616178984 -3.6734210656984305" fill="#ff7e0b" stroke="none" /><path d="M 119.4528033332814 107.91128576633889 l 20.230584765033125 8.22760270353902 a42.83964299576513,42.83964299576513 0 0,0 -0.28289291965696156,0.6788400236253477 l -20.08636600083968 -8.573675236605645" fill="#e7ff1a" stroke="none" /><path d="M 119.31412917781788 108.2440532568976 l 7.555348302336229 3.2249289214864816 a29.214831374912993,29.214831374912993 0 0,0 -0.20083960919643534,0.45956032991602247 l -7.498874811122828 -3.3541513211783487" fill="#ff6909" stroke="none" /><path d="M 119.0197475246899 108.90220220490707 l 16.364919537271838 7.659608656671874 a39.06876299680596,39.06876299680596 0 0,0 -0.28951951848339413,0.6049844422067999 l -16.23102076082853 -7.939405600943777" fill="#ffe915" stroke="none" /><path d="M 118.70294669586154 109.54985784667822 l 7.323990236099789 3.7396816000490856 a29.22350603138532,29.22350603138532 0 0,0 -0.2319677453187541,0.44482873774240655 l -7.2587144218060855 -3.864856580895995" fill="#ff6909" stroke="none" /><line stroke="#e1ed5e" stroke-width="0.3" x1="174.33088141563837" x2="178.70328620479359" y1="141.23008692659167" y2="143.65538615756765" /><path d="M 175.20536237346943 141.71514677278685 a86.0,86.0 0 0,1 -30.301960400862466,31.631185727798858" fill="none" id="id77" stroke="none" /><text fill="#e1ed5e" style="font-size:6.75px; font-family:Arial;" text-anchor="middle"><textPath startOffset="22.145653131862474" xlink:href="#id77">May</textPath></text><path d="M 118.36410011445183 110.18625677009912 l 9.470570123273568 5.253165602107339 a31.82993293160238,31.82993293160238 0 0,0 -0.26913971820285,0.4755440935947252 l -9.37899704004934 -5.414966465801187" fill="#ff8c0c" stroke="none" /><path d="M 118.18653347947321 110.5 l 7.119103231516947 4.110216167105042 a29.220432334210088,29.220432334210088 0 0,0 -0.25453263215720434,0.4322520555514169 l -7.047496889229977 -4.231819390950008" fill="#ff6909" stroke="none" /><path d="M 118.00360718960297 110.81064883170644 l 9.147516278025702 5.492820695463919 a31.66996406972685,31.66996406972685 0 0,0 -0.28387151440328007,0.46368278500523225 l -9.051876799167017 -5.649040596593709" fill="#ff8a0c" stroke="none" /><path d="M 117.81537515405839 111.11811171558189 l 14.505474377801205 9.052488831994426 a38.09843095077531,38.09843095077531 0 0,0 -0.3510177317041737,0.5518581767345091 l -14.347938954471141 -9.300160683407608" fill="#ffdd14" stroke="none" /><path d="M 117.423217284605 111.72311816256416 l 5.712280658975569 3.8434773583447632 a27.8849450637616,27.8849450637616 0 0,0 -0.2706303805874088,0.3948578131639398 l -5.64546054157284 -3.940969906578747" fill="#ff5708" stroke="none" /><path d="M 117.21940702142032 112.02048342749411 l 6.762085343824252 4.72046074000263 a29.24672952115376,29.24672952115376 0 0,0 -0.2909142959212902,0.40920738940868656 l -6.680055949373001 -4.835845356120821" fill="#ff6a09" stroke="none" /><path d="M 116.79662413953412 112.60449989151573 l 5.472649299192961 4.1067780599807255 a27.842186520835007,27.842186520835007 0 0,0 -0.2901527364865419,0.37981924608885564 l -5.401344585352114 -4.2001182193104585" fill="#ff5708" stroke="none" /><path d="M 116.57777611688842 112.89097897827486 l 6.562634749616863 5.10314447504349 a29.313257988902166,29.313257988902166 0 0,0 -0.3123028494943733,0.39458444820696353 l -6.474065469480928 -5.2150488671651365" fill="#ff6b09" stroke="none" /><path d="M 116.1254893667686 113.45245675266167 l 10.504343452633345 8.763096908107787 a34.67966003933465,34.67966003933465 0 0,0 -0.3852834868048499,0.4538629786745655 l -10.35236540232138 -8.942126669231909" fill="#ffb210" stroke="none" /><path d="M 115.89218393027572 113.72728997021213 l 8.5267514151578 7.365204788298532 a32.26728588744739,32.26728588744739 0 0,0 -0.36567890653798824,0.4160754688892231 l -8.399061444661228 -7.510492534999048" fill="#ff920d" stroke="none" /><path d="M 115.6541949942343 113.99807769240083 l 5.664428830889968 5.065167189183295 a28.598794156614357,28.598794156614357 0 0,0 -0.33038729597830735,0.3631535136157083 l -5.576643834069781 -5.161658278356675" fill="#ff6108" stroke="none" /><path d="M 115.41159269507618 114.26474011684316 l 8.318021266654421 7.6990363035683185 a32.33422418148583,32.33422418148583 0 0,0 -0.38053404176753225,0.40411396535714794 l -8.184631391150628 -7.840691728869964" fill="#ff930d" stroke="none" /><path d="M 115.16444852881244 114.52719865689866 l 4.9414483285285025 4.733795718646885 a27.843006173415066,27.843006173415066 0 0,0 -0.33360323089860905,0.34230630374255583 l -4.859458296479087 -4.8179247144571775" fill="#ff5708" stroke="none" /><path d="M 114.91283532996324 114.78537596483092 l 5.829710475514376 5.779884189655684 a29.209298719997573,29.209298719997573 0 0,0 -0.35608649903127876,0.35304304296846417 l -5.7296320563531316 -5.87910724285281" fill="#ff6909" stroke="none" /><path d="M 114.65682725009322 115.03919595460226 l 6.800454984372002 6.977865901351314 a30.743551741111215,30.743551741111215 0 0,0 -0.3811139238302209,0.3650985178836142 l -6.679668574676469 -7.093576549540508" fill="#ff7e0b" stroke="none" /><path d="M 114.39649973595853 115.28858382429668 l 42.952560126719284 45.61413037957234 a83.6543798287403,83.6543798287403 0 0,0 -1.0539265905656223,0.9754987180171394 l -42.16320376483969 -46.34474684372186" fill="#4dd5ff" stroke="none" /><path d="M 114.13192950727249 115.5334660781643 l 2.8072888236483666 3.085702181808289 a25.17162180622806,25.17162180622806 0 0,0 -0.3221188148051797,0.2880406304819722 l -2.753904982019809 -3.1334383421736476" fill="#ff3104" stroke="none" /><path d="M 113.86319453409587 115.77377054828091 l 4.544479806593383 5.170783801251412 a27.88398880241819,27.88398880241819 0 0,0 -0.36225353958868767,0.31290597959895033 l -4.45504678724184 -5.24803391331508" fill="#ff5708" stroke="none" /><path d="M 113.31354834802062 116.24036423190432 l 5.261419639893403 6.418076465803165 a29.299050677514415,29.299050677514415 0 0,0 -0.39169932890640896,0.3155252524263533 l -5.150469540631742 -6.507450012022922" fill="#ff6a09" stroke="none" /><path d="M 113.03279911837588 116.46651593811092 l 5.179040634453075 6.543548655722179 a29.34508783076126,29.34508783076126 0 0,0 -0.3976819128781126,0.3092398608115679 l -5.065948776939731 -6.63148956815454" fill="#ff6b09" stroke="none" /><path d="M 112.7482090630111 116.68781488649013 l 8.506564546648168 11.135366055952858 a35.012780508748385,35.012780508748385 0 0,0 -0.4807538385533798,0.3607666430797388 l -8.314157719184022 -11.279751726296611" fill="#ffb610" stroke="none" /><path d="M 111.8722381534696 117.32195027204791 l 4.678270052625301 6.825735818574687 a29.275075839547586,29.275075839547586 0 0,0 -0.41696589761192476,0.280553264510069 l -4.560407866916373 -6.905038757141877" fill="#ff6a09" stroke="none" /><path d="M 110.96478420261333 117.91015095944535 l 4.341157810049539 7.0909550320408 a29.31428255462724,29.31428255462724 0 0,0 -0.431432595364527,0.2590628774510877 l -4.218792458127576 -7.164431910027812" fill="#ff6b09" stroke="none" /><line stroke="#e1ed5e" stroke-width="0.3" x1="143.1302829299769" x2="145.66735839644613" y1="173.24464959558577" y2="177.55315839532614" /><path d="M 143.63769802327073 174.10635135553383 a86.0,86.0 0 0,1 -40.68552437913181,11.842963189579606" fill="none" id="id78" stroke="none" /><text fill="#e1ed5e" style="font-size:6.75px; font-family:Arial;" text-anchor="middle"><textPath startOffset="21.407464694133747" xlink:href="#id78">June</textPath></text><path d="M 110.65571695917076 118.09573695890943 l 5.8382883273968025 9.914689951661916 a32.50594139700892,32.50594139700892 0 0,0 -0.4832666544492697,0.2790141330366568 l -5.667229205087135 -10.013450981974746" fill="#ff950d" stroke="none" /><path d="M 110.34350942703117 118.27599006163325 l 9.33834058839684 16.499953037184287 a39.959247220662185,39.959247220662185 0 0,0 -0.599875472534342,0.3327408125220691 l -9.053720927706404 -16.6578267651395" fill="#fff417" stroke="none" /><path d="M 110.02825361518725 118.45085714620011 l 3.968965724697347 7.302449899517018 a29.31134546621535,29.31134546621535 0 0,0 -0.44415228341399127,0.23648607394109902 l -3.843024625496802 -7.369506441180686" fill="#ff6b09" stroke="none" /><path d="M 109.71004243097381 118.62028667847754 l 4.430243310927248 8.4955756981795 a30.581328834640512,30.581328834640512 0 0,0 -0.46756343869659833,0.23874122331988196 l -4.2837526505170676 -8.570374873172218" fill="#ff7c0b" stroke="none" /><path d="M 109.3889696526874 118.78422872680471 l 4.945276881062291 9.893866471776782 a32.060938350416656,32.060938350416656 0 0,0 -0.49440982303919473,0.2418406196406482 l -4.774706808761027 -9.977300841514653" fill="#ff900d" stroke="none" /><path d="M 109.06512990194946 118.94263497670748 l 2.9558270437992507 6.1765416878282835 a27.847377653842067,27.847377653842067 0 0,0 -0.4329753853838977,0.20265434256850753 l -2.8493629445438464 -6.226372261967325" fill="#ff5708" stroke="none" /><path d="M 108.73861861582097 119.09545874513695 l 3.4641838871404866 7.569866979055099 a29.324869733786382,29.324869733786382 0 0,0 -0.4595438853520846,0.20554813475574346 l -3.333726598932775 -7.628218864720694" fill="#ff6b09" stroke="none" /><path d="M 108.4095320186766 119.2426549942271 l 5.482176204195158 12.544292010614178 a34.689905696585434,34.689905696585434 0 0,0 -0.5477121892682467,0.23378576461864256 l -5.266028939756479 -12.636552424892225" fill="#ffb210" stroke="none" /><path d="M 108.07796709384702 119.3841803445677 l 24.233901281541076 58.15254103370309 a84.0,84.0 0 0,0 -1.3357821552382365,0.5432509736828348 l -23.232064665112397 -58.55997926396521" fill="#4dd2ff" stroke="none" /><path d="M 107.74402155503746 119.51999308798841 l 2.565208924264944 6.466002207641792 a27.956254838227036,27.956254838227036 0 0,0 -0.4476032530195904,0.17314255388101205 l -2.4538334087518243 -6.509084649660845" fill="#ff5808" stroke="none" /><path d="M 107.407793817531 119.65005319985036 l 3.382267284161125 8.971865808763978 a30.58822757718937,30.58822757718937 0 0,0 -0.4929232401806325,0.18100824149263442 l -3.2277548923263653 -9.028604899265334" fill="#ff7c0b" stroke="none" /><path d="M 107.06938296918513 119.77432235084164 l 5.074594038874978 14.194542686649788 a36.07436720869266,36.07436720869266 0 0,0 -0.5849101815089613,0.20346212363303812 l -4.830178085320995 -14.279563242851417" fill="#ffc412" stroke="none" /><path d="M 106.72888874123015 119.89276391827305 l 2.197167018520552 6.495533879262027 a27.857076876039475,27.857076876039475 0 0,0 -0.4543054964591718,0.14933924033988766 l -2.0853387844136457 -6.532294041003934" fill="#ff5708" stroke="none" /><path d="M 106.38641147887787 120.00534299687104 l 2.4987298308188244 7.827235606000636 a29.216402375691445,29.216402375691445 0 0,0 -0.4790924681838608,0.1484240713072774 l -2.3639967297633393 -7.868976265114558" fill="#ff6909" stroke="none" /><path d="M 106.0420521117495 120.11202640906438 l 6.883813207151846 22.913975327699728 a44.925658812024174,44.925658812024174 0 0,0 -0.7405031897591526,0.21554968632976532 l -6.489450005011086 -23.028768708332013" fill="#cfff1d" stroke="none" /><path d="M 105.69591212413111 120.21278271476187 l 8.193366003243584 29.075365475611648 a51.207749403149805,51.207749403149805 0 0,0 -0.8481432218424175,0.23116520663853363 l -7.693041380466471 -29.211731176394323" fill="#89ff24" stroke="none" /><path d="M 104.9986988182912 120.39639698878246 l 1.9574355721539278 7.987005110914889 a29.22336942262198,29.22336942262198 0 0,0 -0.48826384237044024,0.11522893732590889 l -1.8200395760436086 -8.019430191887022" fill="#ff6909" stroke="none" /><path d="M 104.64783097203109 120.47920084513623 l 3.3430810084164664 14.730231762925555 a36.104830962918314,36.104830962918314 0 0,0 -0.6055942098453784,0.13198643939770485 l -3.089724381951952 -14.78544966045698" fill="#ffc412" stroke="none" /><path d="M 104.29559338865022 120.5559693870025 l 1.68485965098845 8.06266335603919 a29.236825385811336,29.236825385811336 0 0,0 -0.49215812027628536,0.0984454077472994 l -1.546205045181206 -8.090398160449352" fill="#ff6a09" stroke="none" /><path d="M 103.94208987418118 120.62667999033965 l 2.0706248672884393 10.834384268438225 a32.030474596191,32.030474596191 0 0,0 -0.5409569908163893,0.09858038395223298 l -1.8843331429209929 -10.868332826321822" fill="#ff8f0d" stroke="none" /><path d="M 103.58742460773223 120.69131181640829 l 4.6619188407372185 26.888709016650186 a48.28985452250901,48.28985452250901 0 0,0 -0.817989887045276,0.13459992463163742 l -4.1996514506388705 -26.96477493977749" fill="#a9ff21" stroke="none" /><path d="M 102.51750503828377 120.84855314841334 l 0.8279547725333541 6.8566532408657 a27.906460943988236,27.906460943988236 0 0,0 -0.47608966998145014,0.053346840549444184 l -0.7101292009511048 -6.869855841922115" fill="#ff5708" stroke="none" /><path d="M 102.15924093988457 120.88869738790638 l 0.8291079553477966 8.020867361884958 a29.063605473891464,29.063605473891464 0 0,0 -0.4967114616278717,0.04703909184511926 l -0.6912969303349096 -8.033918209235262" fill="#ff6709" stroke="none" /><path d="M 101.44090949804482 120.95050786540614 l 0.47312576485876906 6.879144784214363 a27.895395634157396,27.895395634157396 0 0,0 -0.47801503183099586,0.02875619729891602 l -0.3549663808953081 -6.886252959337971" fill="#ff5708" stroke="none" /><path d="M 101.08105385017728 120.97215588758144 l 1.1432757870991188 22.179244841141006 a43.20869156993827,43.20869156993827 0 0,0 -0.7410789343636125,0.031825118107971256 l -0.7623710921346768 -22.195602527674808" fill="#e3ff1b" stroke="none" /><line stroke="#e1ed5e" stroke-width="0.3" x1="101.45913802915013" x2="101.54496967792366" y1="184.9874750549273" y2="189.98673829345242" /><path d="M 101.47630435890484 185.9873277026323 a86.0,86.0 0 0,1 -42.54439059252881,-10.42667462771756" fill="none" id="id79" stroke="none" /><text fill="#e1ed5e" style="font-size:6.75px; font-family:Arial;" text-anchor="middle"><textPath startOffset="22.145653131862474" xlink:href="#id79">July</textPath></text><path d="M 100.36049292484886 120.99690560180557 l 0.14148751847686092 8.240938627402876 a29.242153127581744,29.242153127581744 0 0,0 -0.5019804433257121,0.004308898373303721 l -1.009372644577533e-15 -8.242153127581744" fill="#ff6a09" stroke="none" /><path d="M 100.0 121.0 l 1.004663220381415e-15 8.203697760700479 a29.20369776070048,29.20369776070048 0 0,0 -0.5013203058169899,-0.004303231886739734 l 0.14082738096813682 -8.202488927008174" fill="#ff6909" stroke="none" /><path d="M 99.63950707515114 120.99690560180557 l -0.23501833338936318 13.68863969504858 a34.69065704478382,34.69065704478382 0 0,0 -0.5953357583370495,-0.015333737333440553 l 0.4699674057971567 -13.682588240365092" fill="#ffb210" stroke="none" /><path d="M 99.27912038922189 120.98762331915562 l -0.2654416874986755 7.72804510923812 a28.73260244030956,28.73260244030956 0 0,0 -0.492797296661761,-0.021162836294921834 l 0.3980647447612752 -7.722349704517369" fill="#ff6309" stroke="none" /><path d="M 98.91894614982273 120.97215588758144 l -0.7066521243192067 13.708862428160126 a34.727063280214935,34.727063280214935 0 0,0 -0.5950823740590133,-0.03579867790349648 l 0.9418788505106662 -13.694711772431939" fill="#ffb210" stroke="none" /><path d="M 98.55909050195518 120.95050786540614 l -2.020941723598435 29.38404912538055 a50.453464116347305,50.453464116347305 0 0,0 -0.8635494916385841,-0.0668441921215102 l 2.525060210012255 -29.345027166263986" fill="#91ff24" stroke="none" /><path d="M 97.84075906011543 120.88869738790638 l -0.8440391183161805 8.165312819144917 a29.208820589325867,29.208820589325867 0 0,0 -0.49830817970184965,-0.05583647090699135 l 0.9840831996188294 -8.149620587730956" fill="#ff6909" stroke="none" /><path d="M 97.48249496171623 120.84855314841334 l -1.1495218496862185 9.519689936661862 a30.58884231662442,30.58884231662442 0 0,0 -0.5207709300418387,-0.06742422309115685 l 1.3127706016188514 -9.498554117370308" fill="#ff7c0b" stroke="none" /><path d="M 97.12497278360702 120.80226474461374 l -1.9013965012192346 13.757557903214789 a34.88832992534223,34.88832992534223 0 0,0 -0.5925614948402707,-0.08708613376575816 l 2.1372831016671903 -13.722890696150147" fill="#ffb410" stroke="none" /><path d="M 96.76829788921471 120.74984581791261 l -1.0608631143252902 6.811502205817902 a27.89361972023393,27.89361972023393 0 0,0 -0.47249466932237716,-0.07774881803168701 l 1.177635286700731 -6.792287389290547" fill="#ff5708" stroke="none" /><path d="M 96.41257539226777 120.69131181640829 l -1.8704243863022412 10.788110814253116 a31.949055773238126,31.949055773238126 0 0,0 -0.5395819227908397,-0.09832980075204834 l 2.055341042644138 -10.754412839569701" fill="#ff8e0d" stroke="none" /><path d="M 96.05791012581884 120.62667999033965 l -4.490828757313589 23.497913701869344 a44.92319985428399,44.92319985428399 0 0,0 -0.7562147156992639,-0.15126412216815593 l 4.893539958543811 -23.417360183038326" fill="#cfff1d" stroke="none" /><path d="M 95.00130118170881 120.39639698878247 l -1.9701011117675864 8.03868483466463 a29.276578535944367,29.276578535944367 0 0,0 -0.4870991225204978,-0.1238186921584102 l 2.107805527513463 -8.003680910670958" fill="#ff6a09" stroke="none" /><path d="M 94.6519064749342 120.30758222061772 l -2.1192863287559853 8.047275382999903 a29.321659427847806,29.321659427847806 0 0,0 -0.48564850021257205,-0.13236565831588867 l 2.257116229903253 -8.00970923053987" fill="#ff6b09" stroke="none" /><path d="M 94.30408787586889 120.21278271476187 l -1.8662078277514489 6.6225132166486835 a27.880436974571257,27.880436974571257 0 0,0 -0.45954924329397556,-0.13376808718044472 l 1.9796170834270312 -6.589501435165723" fill="#ff5708" stroke="none" /><path d="M 93.95794788825049 120.11202640906438 l -2.7677732118752014 9.213016852881259 a30.61978420152178,30.61978420152178 0 0,0 -0.5021052147258662,-0.15555347901154307 l 2.9255190594727014 -9.164146786063066" fill="#ff7c0b" stroke="none" /><path d="M 93.61358852112213 120.00534299687104 l -5.390452235223877 16.885514851425057 a38.725055348233084,38.725055348233084 0 0,0 -0.6315452828620226,-0.20760147855999037 l 5.679520255733643 -16.790492451463045" fill="#ffe515" stroke="none" /><path d="M 92.93061703081489 119.77432235084164 l -2.3088536010562737 6.458274444488199 a27.858579572436255,27.858579572436255 0 0,0 -0.4489355022294947,-0.16485533482331818 l 2.419378254939887 -6.417688260656162" fill="#ff5708" stroke="none" /><path d="M 92.59220618246901 119.65005319985036 l -3.3956879279885683 9.007465660984684 a30.626273117780606,30.626273117780606 0 0,0 -0.49035250088793575,-0.18967888131492697 l 3.5498126913700325 -8.947846891531716" fill="#ff7c0b" stroke="none" /><path d="M 92.25597844496254 119.51999308798841 l -3.4727622200583292 8.753629370733066 a30.417330014246343,30.417330014246343 0 0,0 -0.4837015076550319,-0.19671719222704095 l 3.6225181889038023 -8.692724921926732" fill="#ff7a0b" stroke="none" /><path d="M 91.92203290615298 119.3841803445677 l -2.6644254096186835 6.393651033072074 a27.92661073658144,27.92661073658144 0 0,0 -0.4409278376009169,-0.18820587468191147 l 2.7737883223900317 -6.346970508730759" fill="#ff5808" stroke="none" /><path d="M 91.59046798132341 119.24265499422711 l -3.9027186378484164 8.930184000830444 a30.745737481324717,30.745737481324717 0 0,0 -0.48181000592490986,-0.21550748727434677 l 4.055442046628961 -8.861872762646243" fill="#ff7e0b" stroke="none" /><path d="M 91.26138138417905 119.09545874513695 l -11.261248091016983 24.607859410576324 a48.06219601839665,48.06219601839665 0 0,0 -0.747278544577488,-0.34976409116797186 l 11.682015349465962 -24.410919087837826" fill="#abff21" stroke="none" /><path d="M 90.6110303473126 118.78422872680471 l -3.095348281960731 6.192770055533191 a27.92326382187952,27.92326382187952 0 0,0 -0.4269238044816891,-0.2179903365208912 l 3.201199308156003 -6.138721767339463" fill="#ff5808" stroke="none" /><path d="M 90.28995756902619 118.62028667847754 l -4.455130543978355 8.543300249059675 a30.63515268739795,30.63515268739795 0 0,0 -0.4642118197722092,-0.24716664719397102 l 4.601131179537127 -8.46556313414313" fill="#ff7d0b" stroke="none" /><path d="M 89.97174638481275 118.45085714620012 l -4.5062786361867255 8.291045137843001 a30.436523545496136,30.436523545496136 0 0,0 -0.45691861619244206,-0.2534450541310116 l 4.647941440535271 -8.212467168278842" fill="#ff7a0b" stroke="none" /><line stroke="#e1ed5e" stroke-width="0.3" x1="58.13341422392154" x2="55.67067388415222" y1="173.97424548756322" y2="178.32567169271397" /><path d="M 57.64086615596768 174.84453072859336 a86.0,86.0 0 0,1 -31.369924170532247,-30.572349798747897" fill="none" id="id80" stroke="none" /><text fill="#e1ed5e" style="font-size:6.75px; font-family:Arial;" text-anchor="middle"><textPath startOffset="22.145653131862474" xlink:href="#id80">August</textPath></text><path d="M 89.65649057296885 118.27599006163327 l -3.3876338540456157 5.985624423292133 a27.87777310368605,27.87777310368605 0 0,0 -0.4144595591547403,-0.23928833804620475 l 3.4898858810607556 -5.926589187969757" fill="#ff5708" stroke="none" /><path d="M 89.34428304082925 118.09573695890944 l -4.8665284202217025 8.264429182270838 a30.5908231436929,30.5908231436929 0 0,0 -0.45022006588859154,-0.2703442136929141 l 5.007681242667721 -8.179670968042005" fill="#ff7c0b" stroke="none" /><path d="M 89.03521579738668 117.91015095944536 l -7.1930963480225865 11.749382302317878 a34.77637904378202,34.77637904378202 0 0,0 -0.5064697229711551,-0.31607456547275026 l 7.393730199783454 -11.62417194000358" fill="#ffb310" stroke="none" /><path d="M 88.4268655584334 117.5232005979908 l -3.7849314949283874 5.730868691637298 a27.8679372727253,27.8679372727253 0 0,0 -0.3969239753024736,-0.2670681647376985 l 3.882751758327867 -5.6650508528424774" fill="#ff5708" stroke="none" /><path d="M 88.1277618465304 117.32195027204791 l -5.448302104787091 7.949235595365426 a30.637133514466434,30.637133514466434 0 0,0 -0.43126128853528695,-0.3010538728371703 l 5.583958484496144 -7.854536906723126" fill="#ff7d0b" stroke="none" /><path d="M 87.54013794807813 116.9041958592261 l -4.084657436236734 5.541622293429793 a27.88433032432655,27.88433032432655 0 0,0 -0.38287444310687824,-0.28731611998425266 l 4.179184868254378 -5.470687146181525" fill="#ff5708" stroke="none" /><path d="M 87.2517909369889 116.68781488649013 l -5.815713342396039 7.612955452102732 a30.580167660152092,30.580167660152092 0 0,0 -0.41441960035555636,-0.32225518783102325 l 5.945542887386824 -7.511999212650915" fill="#ff7c0b" stroke="none" /><path d="M 86.96720088162412 116.46651593811092 l -17.839129692628507 22.539157608246892 a49.74453293897491,49.74453293897491 0 0,0 -0.6650352048406909,-0.5357052856475745 l 18.22341566782446 -22.229604028805905" fill="#99ff23" stroke="none" /><path d="M 86.13680546590413 115.77377054828092 l -4.519499236137229 5.142360497692385 a27.846148174971972,27.846148174971972 0 0,0 -0.3563444706130253,-0.31864542295121245 l 4.607108733573625 -5.06401954485779" fill="#ff5708" stroke="none" /><path d="M 85.86807049272751 115.53346607816431 l -4.65776256799843 5.119696982136382 a27.92141960357438,27.92141960357438 0 0,0 -0.351770303321731,-0.3255933411289009 l 4.744962642634128 -5.038985894875104" fill="#ff5808" stroke="none" /><path d="M 85.60350026404147 115.28858382429668 l -7.522488045374487 7.9886216204150315 a31.972962306823284,31.972962306823284 0 0,0 -0.3963543712789194,-0.37969852178659846 l 7.658514902518721 -7.858310968322851" fill="#ff8e0d" stroke="none" /><path d="M 85.34317274990678 115.03919595460226 l -6.8964200166087535 7.076334478484139 a30.881048461416697,30.881048461416697 0 0,0 -0.3764665676657554,-0.3732489240288123 l 7.016878504404471 -6.956905544226667" fill="#ff800b" stroke="none" /><path d="M 85.08716467003676 114.78537596483092 l -10.932811060414908 10.839368792325734 a36.39539780255046,36.39539780255046 0 0,0 -0.43607440307088197,-0.4474507536088699 l 11.1172722646366 -10.650095346649127" fill="#ffc812" stroke="none" /><path d="M 84.58840730492382 114.26474011684316 l -5.132964568859742 4.750995374225086 a27.994232074436596,27.994232074436596 0 0,0 -0.3234030983059195,-0.35547665692239927 l 5.213765368007541 -4.6621811417450125" fill="#ff5908" stroke="none" /><path d="M 84.1078160697243 113.72728997021213 l -7.067624861285733 6.1048460235047335 a30.33918980161372,30.33918980161372 0 0,0 -0.33706180569076477,-0.397057959573865 l 7.171381230483609 -5.982621281481314" fill="#ff790b" stroke="none" /><path d="M 83.8745106332314 113.45245675266167 l -5.259383546188034 4.387564810687847 a27.849221872147208,27.849221872147208 0 0,0 -0.3030965828861125,-0.3697285483060478 l 5.333926948312777 -4.296633980683303" fill="#ff5708" stroke="none" /><path d="M 83.64595745247003 113.17365903436017 l -7.53569113923337 6.070219358179622 a30.676476838309434,30.676476838309434 0 0,0 -0.32682655516078246,-0.4129346758644435 l 7.638784125035714 -5.939964738400497" fill="#ff7d0b" stroke="none" /><path d="M 83.4222238831116 112.89097897827486 l -13.494788071723214 10.493628827067916 a38.09460590540168,38.09460590540168 0 0,0 -0.39699662742212144,-0.5196813290584963 l 13.67293667649963 -10.260426584768549" fill="#ffdd14" stroke="none" /><path d="M 83.20337586046588 112.60449989151573 l -2.2246910525140415 1.6694496404232222 a23.7814227260604,23.7814227260604 0 0,0 -0.24222849012035796,-0.32862946817678135 l 2.2530215622182297 -1.6310138629775612" fill="#ff1e03" stroke="none" /><path d="M 82.98947788004972 112.3143062007846 l -5.538302236106251 4.009303717251319 a27.83720030097296,27.83720030097296 0 0,0 -0.2768938496224041,-0.38948587586070976 l 5.606311184258615 -3.9136406146811047" fill="#ff5708" stroke="none" /><path d="M 82.576782715395 111.72311816256416 l -7.50142739486832 5.047295129335285 a30.041382697524345,30.041382697524345 0 0,0 -0.28421374109656294,-0.43033582847295715 l 7.5869655748856095 -4.9177794225232665" fill="#ff750a" stroke="none" /><path d="M 82.37810715431573 111.42229804090323 l -5.753573558296636 3.7293968677842293 a27.8565304409861,27.8565304409861 0 0,0 -0.2566545625245551,-0.40350360147834646 l 5.81674581244708 -3.630079591627211" fill="#ff5708" stroke="none" /><path d="M 82.18462484594161 111.11811171558189 l -8.15747868381645 5.090870023216353 a30.615685938621468,30.615685938621468 0 0,0 -0.27442156589622685,-0.4482470043101621 l 8.24366821416808 -4.950085902781634" fill="#ff7c0b" stroke="none" /><path d="M 81.99639281039703 110.81064883170644 l -17.669687983719978 10.610139942851772 a41.61050564757975,41.61050564757975 0 0,0 -0.36245978179695304,-0.6155359507683297 l 17.8492214756467 -10.305252823789884" fill="#f6ff19" stroke="none" /><line stroke="#e1ed5e" stroke-width="0.3" x1="26.387840678322732" x2="22.057713659400548" y1="142.50000000000003" y2="145.00000000000006" /><path d="M 25.521815274538298 143.00000000000003 a86.0,86.0 0 0,1 -11.493303480769221,-40.785679425670985" fill="none" id="id81" stroke="none" /><text fill="#e1ed5e" style="font-size:6.75px; font-family:Arial;" text-anchor="middle"><textPath startOffset="21.40746469413373" xlink:href="#id81">September</textPath></text><path d="M 81.4637452351635 109.86951160357371 l -7.443566105158864 3.9632796904688767 a29.43292726559129,29.43292726559129 0 0,0 -0.23363007055339424,-0.448016465565627 l 7.5105042446872075 -3.8349169817987465" fill="#ff6c0a" stroke="none" /><path d="M 81.29705330413844 109.54985784667822 l -9.769903068217939 4.988582119947533 a31.969820305266378,31.969820305266378 0 0,0 -0.24537611482895275,-0.4909166006008388 l 9.85409909625863 -4.820133663182942" fill="#ff8e0d" stroke="none" /><path d="M 80.9802524753101 108.90220220490708 l -8.863916415492145 4.148760447827908 a30.786788414709513,30.786788414709513 0 0,0 -0.21992840663937177,-0.4805832592650929 l 8.933829286986573 -3.9959882063481262" fill="#ff7f0b" stroke="none" /><path d="M 80.83023694016515 108.57439118712176 l -18.714639611608195 8.37082025766654 a41.501423550049765,41.501423550049765 0 0,0 -0.2853047337471556,-0.6528330646132982 l 18.85557822737232 -8.048325123277394" fill="#f7ff18" stroke="none" /><path d="M 80.5471966667186 107.91128576633889 l -6.372374785843325 2.591589349734878 a27.87920749570116,27.87920749570116 0 0,0 -0.17649041835108895,-0.44487114631911445 l 6.415923879160539 -2.481817186202198" fill="#ff5708" stroke="none" /><path d="M 80.41425534168474 107.57618678355246 l -7.750403429378533 2.9980225441123562 a29.310047682963585,29.310047682963585 0 0,0 -0.17749232005755974,-0.470819466308844 l 7.800726433250529 -2.8645347976093674" fill="#ff6b09" stroke="none" /><path d="M 80.16572619554312 106.89939002012753 l -9.54382310621203 3.3198370932070955 a31.104745311392087,31.104745311392087 0 0,0 -0.17109769246401624,-0.5058199257022891 l 9.599406220248413 -3.155515493030645" fill="#ff830c" stroke="none" /><path d="M 80.05021161711548 106.5578916946017 l -6.543353746864207 2.1509303441141183 a27.88781384779182,27.88781384779182 0 0,0 -0.14559468559779354,-0.45607327895151106 l 6.579313148239255 -2.0382880314712155" fill="#ff5708" stroke="none" /><path d="M 79.83685265289637 105.86919833188381 l -13.146197533568778 3.8266665072861406 a34.69181821927224,34.69181821927224 0 0,0 -0.16153420467405574,-0.5732279060707217 l 13.209950230317409 -3.6004306773124233" fill="#ffb210" stroke="none" /><path d="M 79.64726062577567 105.17358676015961 l -13.26828731460494 3.372746750138636 a34.690247218493795,34.690247218493795 0 0,0 -0.14175504378953432,-0.5784089526886036 l 13.324229884910768 -3.1444819728419326" fill="#ffb210" stroke="none" /><path d="M 79.56144815229197 104.8234425847677 l -8.015877439967342 1.891725249729617 a29.236074037612944,29.236074037612944 0 0,0 -0.11108195994749591,-0.4894476115257779 l 8.047170261472505 -1.753843304264813" fill="#ff6a09" stroke="none" /><path d="M 79.34024301695615 103.76489593502545 l -14.023893447332933 2.555620546574065 a35.2548512373935,35.2548512373935 0 0,0 -0.10338935465423846,-0.5963223229938208 l 14.065697619479405 -2.314505190659651" fill="#ffb911" stroke="none" /><path d="M 79.22317932658666 103.0534771498775 l -8.157599959504427 1.1988862716644006 a29.245226824756976,29.245226824756976 0 0,0 -0.06873391944706415,-0.4973244013552953 l 8.176978395506705 -1.0586735621090198" fill="#ff6a09" stroke="none" /><path d="M 79.17382384314188 102.69636545807758 l -6.803705566465033 0.8808759005097211 a27.860492095123067,27.860492095123067 0 0,0 -0.05733677829192459,-0.4748307754700094 l 6.817824431016619 -0.7639514481163124" fill="#ff5708" stroke="none" /><path d="M 79.13060592940153 102.33845913500099 l -8.568438649215729 0.9601114226973526 a29.622062098440708,29.622062098440708 0 0,0 -0.052286617702319786,-0.5058255956740484 l 8.583657659399714 -0.8128813047403728" fill="#ff6f0a" stroke="none" /><path d="M 79.06263194458094 101.62068470465958 l -3.48403005517012 0.26968596081621754 a24.494452166333097,24.494452166333097 0 0,0 -0.028852177144135557,-0.41950432349326616 l 3.488146193479322 -0.20983821316860807" fill="#ff2803" stroke="none" /><path d="M 79.03789590574601 101.26102812881392 l -18.433720825915614 1.1089268699202017 a39.467045846334656,39.467045846334656 0 0,0 -0.03487836379774033,-0.6766309398463911 l 18.450040779169928 -0.7923241366970798" fill="#ffee16" stroke="none" /><path d="M 79.00696218219943 100.54070618675478 l -6.849204429901079 0.17641121031351942 a27.85147591674238,27.85147591674238 0 0,0 -0.008207655418517429,-0.47805478042873595 l 6.851223516918262 -0.05880951391573108" fill="#ff5708" stroke="none" /><line stroke="#e1ed5e" stroke-width="0.3" x1="15.003131293944662" x2="10.003315487706104" y1="100.72959589197737" y2="100.7725132973878" /><path d="M 14.003168132696942 100.73817937305945 a86.0,86.0 0 0,1 10.791469493833604,-42.45332614584628" fill="none" id="id82" stroke="none" /><text fill="#e1ed5e" style="font-size:6.75px; font-family:Arial;" text-anchor="middle"><textPath startOffset="22.145653131862435" xlink:href="#id82">October</textPath></text><path d="M 79.00077361379809 100.18025310272382 l -33.49380046459764 0.287503993943477 a54.49503437987211,54.49503437987211 0 0,0 0.0,-0.9355141933345767 l 33.49380046459764 0.2875039939434647" fill="#66ff29" stroke="none" /><path d="M 79.00077361379809 99.81974689727619 l -10.967913549734165 -0.09414634669804696 a31.968317608869597,31.968317608869597 0 0,0 0.009420862866574228,-0.5487180320665664 l 10.964681255268925 0.2824112947336658" fill="#ff8e0d" stroke="none" /><path d="M 79.00696218219943 99.45929381324524 l -10.480632024862885 -0.26994390359923454 a31.484107847197677,31.484107847197677 0 0,0 0.01855360424923751,-0.5401679439586843 l 10.474453733616798 0.44981811212205736" fill="#ff880c" stroke="none" /><path d="M 79.01933749520258 99.09900007780938 l -6.82448968102591 -0.2930729508750764 a27.830779689095802,27.830779689095802 0 0,0 0.02459500167685636,-0.47713646192347575 l 6.8184530898924836 0.41018120617526416" fill="#ff5608" stroke="none" /><path d="M 79.03789590574601 98.7389718711861 l -14.665691127271469 -0.8822515600929267 a35.69220419323852,35.69220419323852 0 0,0 0.04204208328706773,-0.6112826640249909 l 14.648385082819336 1.1338776482722426" fill="#ffbf11" stroke="none" /><path d="M 79.06263194458094 98.37931529534042 l -5.163528671679215 -0.3996897756256326 a26.17897482712486,26.17897482712486 0 0,0 0.03852844159016218,-0.44775889329452995 l 5.15590660739131 0.48826971629584326" fill="#ff3f06" stroke="none" /><path d="M 79.0935383218832 98.0201363427161 l -5.452319217209288 -0.5163402986246343 a26.476713626832563,26.476713626832563 0 0,0 0.04673468709975309,-0.4521157033996446 l 5.442652137627872 0.6098605243071916" fill="#ff4406" stroke="none" /><path d="M 79.13060592940154 97.66154086499901 l -8.182543269981068 -0.9168710405533783 a29.233751688636104,29.233751688636104 0 0,0 0.06016294089455956,-0.4982354560291921 l 8.165598242826839 1.0572001735060068" fill="#ff6a09" stroke="none" /><path d="M 79.17382384314186 97.30363454192245 l -9.762206568210956 -1.2639130864392396 a30.843685964642184,30.843685964642184 0 0,0 0.07249071580972688,-0.5245067083894867 l 9.739071335846022 1.4313081030287933" fill="#ff7f0b" stroke="none" /><path d="M 79.22317932658666 96.9465228501225 l -9.772860571303282 -1.4362739570447831 a30.87783815547812,30.87783815547812 0 0,0 0.08157411366009504,-0.5237643270185383 l 9.74676496550492 1.6038264659947714" fill="#ff800b" stroke="none" /><path d="M 79.2786578344484 96.59031103205396 l -6.885516733436461 -1.133009158240555 a27.978112240362037,27.978112240362037 0 0,0 0.08204938802597377,-0.47323906635744006 l 6.8650525279182535 1.2510412575185879" fill="#ff5808" stroke="none" /><path d="M 79.407916724674 95.88100663000787 l -21.4487044019699 -4.290341586394756 a42.87359027345605,42.87359027345605 0 0,0 0.15055222342584812,-0.7204468896110733 l 21.371894467719684 4.657904927291238" fill="#e7ff1a" stroke="none" /><path d="M 79.56144815229197 95.17655741523228 l -8.006504010771252 -1.8895131459618684 a29.22644311979721,29.22644311979721 0 0,0 0.11942825596383415,-0.4873080393247213 l 7.9728882282911195 2.0266770098947076" fill="#ff6a09" stroke="none" /><path d="M 79.64726062577567 94.8264132398404 l -10.154148853029097 -2.5811449309497783 a31.477072495885473,31.477072495885473 0 0,0 0.1376155413616446,-0.5225486255874708 l 10.108343830862726 2.755074060910034" fill="#ff880c" stroke="none" /><path d="M 79.73907114497095 94.47779374421319 l -9.344491291266868 -2.546882654541817 a30.68535640792678,30.68535640792678 0 0,0 0.1428790676569508,-0.5070274059886901 l 9.299393731535336 2.70691798443352" fill="#ff7d0b" stroke="none" /><path d="M 79.94057633289273 93.78553927170692 l -16.336191835406993 -5.0609939894468985 a38.10218769176726,38.10218769176726 0 0,0 0.19892115129024748,-0.6231176732121712 l 16.246905968339487 5.340680696350461" fill="#ffdd14" stroke="none" /><path d="M 80.05021161711548 93.44210830539832 l -5.198994336634808 -1.7090127036008644 a26.472683668313923,26.472683668313923 0 0,0 0.14561813779968674,-0.430494149757353 l 5.168890777262757 1.7980085278323792" fill="#ff4406" stroke="none" /><path d="M 80.16572619554312 93.10060997987247 l -6.66642530726201 -2.318928773914266 a28.058233280063142,28.058233280063142 0 0,0 0.1621496390350398,-0.4535613992519483 l 6.625635498183026 2.433025129547136" fill="#ff5a08" stroke="none" /><path d="M 80.41425534168474 92.42381321644754 l -6.833251334453556 -2.643248411124358 a28.32666950003361,28.32666950003361 0 0,0 0.17932309414909237,-0.45201133977087105 l 6.786869565338332 2.7601607681088116" fill="#ff5d08" stroke="none" /><path d="M 80.68587082218212 91.75594674310238 l -7.605039662524709 -3.2461392083200202 a29.26886014081545,29.26886014081545 0 0,0 0.20121103411035965,-0.460410222806505 l 7.548194746397372 3.376211500902392" fill="#ff6a09" stroke="none" /><path d="M 80.9802524753101 91.09779779509293 l -13.076630616478793 -6.120523406299569 a35.43811189341915,35.43811189341915 0 0,0 0.26261453663589546,-0.5487633780075452 l 12.969636821882993 6.344099286372201" fill="#ffbb11" stroke="none" /><path d="M 81.29705330413844 90.45014215332179 l -6.122903287127208 -3.126398045820343 a27.874904319655833,27.874904319655833 0 0,0 0.22126293467534378,-0.4243008518514745 l 6.068332283476924 3.2310451407763043" fill="#ff5708" stroke="none" /><line stroke="#e1ed5e" stroke-width="0.3" x1="26.387840678322718" x2="22.05771365940052" y1="57.49999999999999" y2="54.99999999999999" /><path d="M 25.521815274538284 56.99999999999999 a86.0,86.0 0 0,1 29.574782752854787,-30.34633250058573" fill="none" id="id83" stroke="none" /><text fill="#e1ed5e" style="font-size:6.75px; font-family:Arial;" text-anchor="middle"><textPath startOffset="21.40746469413373" xlink:href="#id83">November</textPath></text><path d="M 81.99639281039701 89.18935116829357 l -4.442236094864865 -2.6674351391563538 a26.181570393628395,26.181570393628395 0 0,0 0.23467668042605191,-0.3833267208387271 l 4.395791449983419 2.743298976119624" fill="#ff4006" stroke="none" /><path d="M 82.18462484594161 88.88188828441811 l -24.620082724459603 -15.364752513508169 a50.02109738036434,50.02109738036434 0 0,0 0.46086654231233537,-0.724558752413016 l 24.352698490521377 15.785124940599857" fill="#96ff23" stroke="none" /><path d="M 82.78059297857968 87.97951657250589 l -3.653267924023423 -2.550264738053519 a25.455358207693024,25.455358207693024 0 0,0 0.2532019043380104,-0.3561601877946161 l 3.6089509211554405 2.6126021525576553" fill="#ff3505" stroke="none" /><path d="M 83.64595745247003 86.82634096563983 l -22.627499525385502 -18.227111901001905 a50.0556593974903,50.0556593974903 0 0,0 0.5447800081144846,-0.6645430299094137 l 22.311272698032386 18.612857212609814" fill="#95ff23" stroke="none" /><path d="M 84.10781606972428 86.27271002978789 l -5.428562798910457 -4.689063252042117 a28.173326163180253,28.173326163180253 0 0,0 0.31928285325346745,-0.3632852770574706 l 5.347268881698397 4.781560806910888" fill="#ff5b08" stroke="none" /><path d="M 84.34580500576568 86.00192230759919 l -5.329091629834309 -4.765306596207524 a28.148941498923392,28.148941498923392 0 0,0 0.32519037745269663,-0.35744118978993195 l 5.246503551539747 4.856085361555114" fill="#ff5b08" stroke="none" /><path d="M 85.08716467003674 85.21462403516908 l -9.822135941905184 -9.738186566504835 a34.83136407102788,34.83136407102788 0 0,0 0.42462431595607486,-0.4209950701061737 l 9.653519705819134 9.905361646839681" fill="#ffb410" stroke="none" /><path d="M 85.86807049272753 84.46653392183569 l -4.700878082236601 -5.167088485010542 a27.9854891135826,27.9854891135826 0 0,0 0.35812760315585135,-0.32023991106634847 l 4.611485452257358 5.247023925960291" fill="#ff5908" stroke="none" /><path d="M 86.13680546590413 84.22622945171909 l -6.423343362129316 -7.308585629225535 a30.730095777921857,30.730095777921857 0 0,0 0.39922860557476814,-0.34484416095184317 l 6.296935276791698 7.4177739226420885" fill="#ff7e0b" stroke="none" /><path d="M 86.40962598614128 83.9905735841838 l -5.347125879293428 -6.298900840650885 a29.262439528938287,29.262439528938287 0 0,0 0.38574258603072453,-0.32180018467731564 l 5.238208959100795 6.3897632092400825" fill="#ff6a09" stroke="none" /><path d="M 86.96720088162412 83.53348406188908 l -14.856036199461068 -18.770116429605753 a44.93781699196177,44.93781699196177 0 0,0 0.6089931345577925,-0.47355674489418415 l 14.53163312026803 19.022374226120743" fill="#cfff1d" stroke="none" /><path d="M 87.83215693770416 82.88440491214696 l -3.9999286428799317 -5.62640056099812 a27.903318942431333,27.903318942431333 0 0,0 0.39277895485365516,-0.27419021523874837 l 3.9027545968525112 5.694235592041996" fill="#ff5708" stroke="none" /><path d="M 88.12776184653039 82.6780497279521 l -4.791799676684063 -6.991378932950333 a29.4758907216629,29.4758907216629 0 0,0 0.419826110785566,-0.2824777435805562 l 4.6710772778015075 7.072606350587999" fill="#ff6d0a" stroke="none" /><path d="M 88.4268655584334 82.4767994020092 l -4.55585310544797 -6.898142267751751 a29.26681100936529,29.26681100936529 0 0,0 0.4216014680167263,-0.27327697792401234 l 4.436766005174218 6.975333087379671" fill="#ff6a09" stroke="none" /><path d="M 89.03521579738668 82.08984904055464 l -10.703355611700548 -17.48312700331069 a41.49930611421794,41.49930611421794 0 0,0 0.6107655307381216,-0.366747152489181 l 10.401657324404992 17.66428815633579" fill="#f7ff18" stroke="none" /><line stroke="#e1ed5e" stroke-width="0.3" x1="56.869717070023135" x2="54.33264160355391" y1="26.7553504044142" y2="22.446841604673864" /><path d="M 56.362301976729285 25.89364864446614 a86.0,86.0 0 0,1 42.16139366436587,-11.88097634709845" fill="none" id="id84" stroke="none" /><text fill="#e1ed5e" style="font-size:6.75px; font-family:Arial;" text-anchor="middle"><textPath startOffset="22.145653131862474" xlink:href="#id84">December</textPath></text><path d="M 89.97174638481275 81.54914285379989 l -3.2855250985553583 -6.04499612493775 a27.880163757044567,27.880163757044567 0 0,0 0.42246571072351097,-0.22493919548447922 l 3.1812705720452854 6.1005057881448055" fill="#ff5708" stroke="none" /><path d="M 90.28995756902619 81.37971332152246 l -4.47357488928527 -8.57866971316376 a30.675042446294327,30.675042446294327 0 0,0 0.46899624296597664,-0.23947282338896453 l 4.32565142460571 8.654200488225559" fill="#ff7d0b" stroke="none" /><path d="M 90.61103034731259 81.2157712731953 l -3.0667642786466196 -6.135582901240239 a27.859330920634644,27.859330920634644 0 0,0 0.4296170848125857,-0.21014724456849812 l 2.9609869445719808 6.187323895905951" fill="#ff5708" stroke="none" /><path d="M 90.93487009805054 81.0573650232925 l -3.5928536506271427 -7.507682290788244 a29.323093819862912,29.323093819862912 0 0,0 0.4559200512566404,-0.2133936047410464 l 3.4634448854989794 7.568252127099834" fill="#ff6b09" stroke="none" /><path d="M 91.26138138417902 80.90454125486306 l -7.274476350768398 -15.89604366038831 a38.48148192319118,38.48148192319118 0 0,0 0.6030352351988574,-0.2697299904059201 l 7.0005277127139225 16.018577401704075" fill="#ffe215" stroke="none" /><path d="M 92.25597844496254 80.48000691201159 l -3.0360001499226903 -7.652703639890106 a29.23293203605604,29.23293203605604 0 0,0 0.4680439332935022,-0.181049448126786 l 2.9041839541356587 7.703692976154933" fill="#ff6a09" stroke="none" /><path d="M 92.592206182469 80.34994680014964 l -3.4033981721982367 -9.027917999782936 a30.648130519915608,30.648130519915608 0 0,0 0.49388856425998484,-0.18136272186570435 l 3.247920456284125 9.085011570657361" fill="#ff7d0b" stroke="none" /><path d="M 92.93061703081487 80.22567764915836 l -1.8307664792664315 -5.120979676434593 a26.438394868714642,26.438394868714642 0 0,0 0.4286724213901101,-0.14911452041053433 l 1.742588285831317 5.151652629413713" fill="#ff4306" stroke="none" /><path d="M 93.61358852112211 79.99465700312896 l -1.0811398317798304 -3.3866551245356264 a24.555038152876048,24.555038152876048 0 0,0 0.40265511419703404,-0.12474358365175747 l 1.0228440847111804 3.4047152959940257" fill="#ff2903" stroke="none" /><path d="M 93.95794788825049 79.88797359093562 l -8.326214583628143 -27.715260394365956 a49.93892720921306,49.93892720921306 0 0,0 0.8231361736129512,-0.23960294362360204 l 7.849218397633568 27.854107032292077" fill="#97ff23" stroke="none" /><path d="M 94.6519064749342 79.69241777938228 l -2.097524991855387 -7.964644042267316 a29.236210646376293,29.236210646376293 0 0,0 0.4864274879043678,-0.12364796526539647 l 1.960492210725641 7.999477239367975" fill="#ff6a09" stroke="none" /><path d="M 95.00130118170881 79.60360301121753 l -2.433669616857189 -9.930202528570465 a31.22407306617285,31.22407306617285 0 0,0 0.5216915841998038,-0.12311779337861564 l 2.2628458789174792 9.970516465595313" fill="#ff840c" stroke="none" /><path d="M 95.70440661134978 79.44403061299748 l -1.9825987600568926 -9.487452775702472 a30.69239175923898,30.69239175923898 0 0,0 0.5166603978262413,-0.10334654948359351 l 1.8194418766996745 9.520088721848932" fill="#ff7d0b" stroke="none" /><path d="M 96.05791012581881 79.37332000966035 l -3.850818600333592 -20.14911011799978 a41.51378664313238,41.51378664313238 0 0,0 0.7011189619567564,-0.12776723036997661 l 3.504364904825797 20.212245522301117" fill="#f7ff18" stroke="none" /><path d="M 97.12497278360702 79.19773525538626 l -1.3150710173927198 -9.515198779959158 a30.605645194515702,30.605645194515702 0 0,0 0.5210569967800385,-0.06746126015767583 l 1.1515361987218875 9.536371636317229" fill="#ff7c0b" stroke="none" /><path d="M 97.48249496171623 79.15144685158666 l -1.643962653834866 -13.614369084181906 a34.713265795117216,34.713265795117216 0 0,0 0.5922150891704515,-0.06635893598401725 l 1.410011663063615 13.640583780672895" fill="#ffb210" stroke="none" /><path d="M 97.84075906011542 79.11130261209362 l -0.8433859677253748 -8.158994179669296 a29.202468281830384,29.202468281830384 0 0,0 0.49908469602781713,-0.04726383961023663 l 0.703201708312542 8.172269774784716" fill="#ff6909" stroke="none" /><path d="M 98.1996594967304 79.07731436759882 l -0.8273147281038962 -9.614651197224799 a30.650179651365764,30.650179651365764 0 0,0 0.5246011848766943,-0.04060744951922684 l 0.6621445484519847 9.62743641373908" fill="#ff7d0b" stroke="none" /><path d="M 98.5590905019552 79.04949213459386 l -1.1782894156043262 -17.132069503906866 a38.1725412048893,38.1725412048893 0 0,0 0.6541240260016618,-0.03935047707101061 l 0.8840210374701806 17.14977195880257" fill="#ffde14" stroke="none" /><path d="M 99.63950707515114 79.00309439819443 l -0.14158249385555902 -8.246470467068896 a29.247685782497165,29.247685782497165 0 0,0 0.5020754187044092,-0.004309713622702801 l 2.0201003987816573e-15 8.247685782497165" fill="#ff6a09" stroke="none" /></svg>