<?xml version="1.0" encoding="utf-8" ?>
<svg baseProfile="full" height="200mm" version="1.1" viewBox="0,0,200,200" width="200mm" xmlns="http://www.w3.org/2000/svg" xmlns:ev="http://www.w3.org/2001/xml-events" xmlns:xlink="http://www.w3.org/1999/xlink"><defs /><rect fill="#1a1a1a" height="200" width="200" x="0" y="0" /><text alignment-baseline="middle" fill="#e1ed5e" style="dominant-baseline: central; font-size:9.0px; font-family:Arial;" text-anchor="middle" x="100.0" y="100.0">2026</text><line stroke="#e1ed5e" stroke-width="0.3" x1="100.0" x2="100.0" y1="15.0" y2="10.0" /><path d="M 100.0 14.0 a86.0,86.0 0 0,1 42.46469731375804,11.215312516191453" fill="none" id="id97" stroke="none" /><text fill="#e1ed5e" style="font-size:6.75px; font-family:Arial;" text-anchor="middle"><textPath startOffset="22.20632615414155" xlink:href="#id97">January</textPath></text><path d="M 100.0 79.0 l 0.0 -13.29783257552512 a34.29783257552512,34.29783257552512 0 0,0 0.5903808074957027,0.005081593999988441 l -0.22890032822317433 13.295862358133691" fill="#ff7e0b" stroke="none" /><path d="M 100.72285384407766 79.0124445844662 l 0.8490224116258378 -24.65077146509997 a45.66538815587604,45.66538815587604 0 0,0 0.7853558845235366,0.033819076427570545 l -1.2732191285387058 24.632504662148207" fill="#e6ff1a" stroke="none" /><path d="M 101.80526077348638 79.07773832637324 l 1.287377354943893 -14.920196731921559 a35.975633908895645,35.975633908895645 0 0,0 0.6165107943243677,0.0585451285503714 l -1.5440132763585048 14.89582605885601" fill="#ff960d" stroke="none" /><path d="M 102.52436894288641 79.15227682838746 l 1.7798295055394153 -14.698878675684714 a35.806242851962395,35.806242851962395 0 0,0 0.6112386042809397,0.0793563135010702 l -2.032582838328201 14.666064039019508" fill="#ff930d" stroke="none" /><path d="M 103.2404852339499 79.25152402106235 l 2.622892685201253 -16.79409778019398 a37.99768473318642,37.99768473318642 0 0,0 0.6453649704128734,0.10649074981857103 l -2.9115868617530016 16.746460767435785" fill="#ffb210" stroke="none" /><path d="M 104.307194497241 79.44645832069477 l 3.063580044691628 -14.619126249532323 a35.936678847387654,35.936678847387654 0 0,0 0.6043476002244266,0.13208697763247504 l -3.3147703690695827 14.564225773803978" fill="#ff950d" stroke="none" /><path d="M 105.01212808612495 79.60689891045804 l 3.4056624367551867 -13.856792395602973 a35.269170688164245,35.269170688164245 0 0,0 0.5883084283578378,0.14997291762199316 l -3.6436797537980494 13.796116481812113" fill="#ff8c0c" stroke="none" /><path d="M 105.71112130821622 79.79150937346287 l 2.661467389009777 -9.417456902248327 a30.786312031018998,30.786312031018998 0 0,0 0.5087214969039304,0.1485097550082118 l -2.823179103637134 9.370248818321413" fill="#ff4b06" stroke="none" /><path d="M 107.4271985657038 80.35727306442388 l 5.300184309384294 -14.01740806799007 a35.98598287260454,35.98598287260454 0 0,0 0.5775181929572082,0.22406808658394584 l -5.54068566734117 13.924097277515576" fill="#ff960d" stroke="none" /><path d="M 108.09893153111575 80.62456947434976 l 3.837517103165381 -9.180661144956254 a30.950430974364693,30.950430974364693 0 0,0 0.4897776626748146,0.20969723470417467 l -3.994978523630511 9.113244382289288" fill="#ff4d07" stroke="none" /><path d="M 109.08828744355905 81.06846463323043 l 6.464272291544829 -13.465529151428877 a35.93677647912076,35.93677647912076 0 0,0 0.5553579304046845,0.2725117245565677 l -6.6951014889599465 13.352262266737478" fill="#ff950d" stroke="none" /><path d="M 109.73455568895987 81.39251694778311 l 5.341528214386165 -10.210265254823252 a32.52308293118358,32.52308293118358 0 0,0 0.4938164807037342,0.26377966204420245 l -5.51648974161821 10.116806866277296" fill="#ff6409" stroke="none" /><line stroke="#e1ed5e" stroke-width="0.3" x1="143.23703022742887" x2="145.7803849466894" y1="26.81831364943548" y2="22.513508569990506" /><path d="M 143.74570117128098 25.957352633546492 a86.0,86.0 0 0,1 28.547481713284135,27.462654790039103" fill="none" id="id98" stroke="none" /><text fill="#e1ed5e" style="font-size:6.75px; font-family:Arial;" text-anchor="middle"><textPath startOffset="19.985693538727396" xlink:href="#id98">February</textPath></text><path d="M 110.68208982089419 81.91981866633111 l 13.921470532756386 -23.563058903626917 a48.368322686825294,48.368322686825294 0 0,0 0.7131746427270073,0.4296797424774796 l -14.32500724170103 23.319932551690822" fill="#c5ff1e" stroke="none" /><path d="M 111.2981086023043 82.29822771554956 l 8.060750389216897 -12.629509314737044 a35.98266339367905,35.98266339367905 0 0,0 0.5192349289709366,0.3377248412618909 l -8.276952343972114 12.488885549315626" fill="#ff960d" stroke="none" /><path d="M 111.90073688211348 82.69761687909136 l 3.111484932352437 -4.523762260084144 a26.49051577449859,26.49051577449859 0 0,0 0.37347699129510076,0.26164449974438425 l -3.1888930632311885 4.469532917575824" fill="#ff0901" stroke="none" /><path d="M 112.77801427241765 83.33499621200491 l 16.0692021656467 -20.957349808147754 a47.4088956456247,47.4088956456247 0 0,0 0.6433329454688992,0.5021315683165678 l -16.42756766627503 20.677639850607964" fill="#d1ff1d" stroke="none" /><path d="M 113.06298171725822 83.55741782278167 l 7.291120487161126 -9.177448944582114 a32.72117771764903,32.72117771764903 0 0,0 0.43799104054278293,0.3541582945504022 l -7.4480149262684 9.050584552767582" fill="#ff6709" stroke="none" /><path d="M 113.6212207817346 84.01681056812373 l 6.8261254637727555 -8.009800158260141 a31.52391977461017,31.52391977461017 0 0,0 0.40997038006704467,0.3555222736789312 l -6.962989642486564 7.891112891161539" fill="#ff5607" stroke="none" /><path d="M 113.89432698308785 84.25364557470407 l 6.467921802386954 -7.330055584516684 a30.775670172110797,30.775670172110797 0 0,0 0.3942055774127443,0.35392165963590116 l -6.593138367395689 7.217634916111486" fill="#ff4b06" stroke="none" /><path d="M 114.42810811169701 84.74124197986012 l 12.840099931848597 -13.57932559818115 a39.68866635052582,39.68866635052582 0 0,0 0.49236012490418807,0.4736500500614132 l -13.071943300365202 13.356292461357434" fill="#ffc912" stroke="none" /><path d="M 114.68862486808459 84.99185889309783 l 4.202935024366715 -4.2943599196881435 a27.00884264554102,27.00884264554102 0 0,0 0.32946183641436716,0.328047022586177 l -4.276232660948405 4.221377046451848" fill="#ff1101" stroke="none" /><path d="M 115.19652480421416 85.50635884689758 l 8.72605827484026 -8.32245259663068 a33.058495355518986,33.058495355518986 0 0,0 0.38919715897009394,0.4151683932021495 l -8.868022755780817 8.171014786550476" fill="#ff6c0a" stroke="none" /><path d="M 115.4437574822437 85.77008943001954 l 6.080170860699791 -5.602282197025887 a29.267650422605932,29.267650422605932 0 0,0 0.3381895952034334,0.37343739780506974 l -6.17570409651926 5.4967920119512685" fill="#ff3404" stroke="none" /><path d="M 115.68641384162765 86.03803664274999 l 10.688135203155019 -9.513159194345223 a35.308613908337755,35.308613908337755 0 0,0 0.40017797123679705,0.4574725988807114 l -10.850305037969664 9.327771039261563" fill="#ff8c0c" stroke="none" /><path d="M 116.15771136456269 86.58626213691792 l 13.535221376705067 -11.236610641783205 a38.591578565650366,38.591578565650366 0 0,0 0.41991589978108795,0.5147672417167318 l -13.726635768562565 11.001959230458372" fill="#ffba11" stroke="none" /><path d="M 116.60985879189232 87.15038557335679 l 6.424202314407217 -4.969850964607576 a29.122179140282853,29.122179140282853 0 0,0 0.3033200595753953,0.39913364362348563 l -6.508798314206726 4.858532545103056" fill="#ff3204" stroke="none" /><path d="M 116.82858285166822 87.43820079747576 l 12.728271499002734 -9.50109656736989 a36.88331613155179,36.88331613155179 0 0,0 0.3753973157996142,0.512041516870685 l -12.889931427315975 9.280592606827712" fill="#ffa30f" stroke="none" /><path d="M 117.45458315368197 88.32363383020206 l 13.935329421783907 -9.322136632703467 a37.76590699880052,37.76590699880052 0 0,0 0.35680395320579594,0.5434368996446025 l -14.093730010347628 9.080881669081192" fill="#ffaf10" stroke="none" /><line stroke="#e1ed5e" stroke-width="0.3" x1="172.23445277983987" x2="176.4835382374775" y1="55.19839476539836" y2="52.563006222186495" /><path d="M 173.08426987136738 54.67131705675599 a86.0,86.0 0 0,1 12.851231095245387,41.99856678651699" fill="none" id="id99" stroke="none" /><text fill="#e1ed5e" style="font-size:6.75px; font-family:Arial;" text-anchor="middle"><textPath startOffset="22.20632615414155" xlink:href="#id99">March</textPath></text><path d="M 117.84615892207809 88.93136811851018 l 18.28332319146928 -11.339772040599648 a42.51442160171832,42.51442160171832 0 0,0 0.38037086495056016,0.625229690193887 l -18.47580985470606 11.023374577198679" fill="#ffef16" stroke="none" /><path d="M 118.03404312379186 89.2402003453031 l 6.381512846853793 -3.8074545599502776 a28.43104410164858,28.43104410164858 0 0,0 0.24713390692682918,0.4224319565708909 l -6.44610642825095 3.6970431910254913" fill="#ff2703" stroke="none" /><path d="M 118.21658344932153 89.55222093294921 l 12.913809129664227 -7.406472518633585 a35.88698429523836,35.88698429523836 0 0,0 0.30271928785523516,0.5385038347686041 l -13.039386058811894 7.183085173930187" fill="#ff950d" stroke="none" /><path d="M 118.3937258080291 89.86733742301442 l 10.42613851602799 -5.743509752532554 a32.90345616335184,32.90345616335184 0 0,0 0.2690122348079903,0.4984388152213828 l -10.523458850054446 5.563189953978712" fill="#ff6a09" stroke="none" /><path d="M 118.56541770881063 90.18545643968196 l 15.817124101056628 -8.361667694398554 a38.89130798627576,38.89130798627576 0 0,0 0.30777945330398393,0.5945319395508866 l -15.958712987520729 8.088163032587323" fill="#ffbe11" stroke="none" /><path d="M 118.89224826269711 90.83032412892265 l 22.851299144828054 -11.091268941496839 a46.40075036960585,46.40075036960585 0 0,0 0.3425741021143567,0.7215484263411805 l -23.03883144078417 10.69627809951512" fill="#ddff1b" stroke="none" /><path d="M 119.196687751892 91.48605970444005 l 10.948575351479374 -4.8558125270724055 a32.9770704901113,32.9770704901113 0 0,0 0.22567197102865597,0.5208820233618008 l -11.03053803235071 4.666631359124001" fill="#ff6b09" stroke="none" /><path d="M 119.34039704204932 91.81776055985345 l 15.373571857227395 -6.504015698987126 a37.69278083070658,37.69278083070658 0 0,0 0.24765649121853187,0.5997198374223495 l -15.483250035332123 6.2384212911114725" fill="#ffae10" stroke="none" /><path d="M 119.47837535516314 92.15188598940014 l 9.183617402241829 -3.7002098526362994 a30.901029317414714,30.901029317414714 0 0,0 0.19453882814556672,0.4950800982661296 l -9.245949780269095 3.541580749474386" fill="#ff4c07" stroke="none" /><path d="M 119.7369772167798 92.82701384747503 l 15.732855880021825 -5.7177730980570045 a37.739644062595886,37.739644062595886 0 0,0 0.21663799157525224,0.6124647749689238 l -15.828946952406886 5.446110696661465" fill="#ffae10" stroke="none" /><path d="M 119.85752413597 93.16781622104841 l 18.483707029647316 -6.359507986904484 a40.54714217969818,40.54714217969818 0 0,0 0.22139262153071443,0.6619357589920803 l -18.590436944949804 6.04039912499009" fill="#ffd513" stroke="none" /><path d="M 119.97218684219823 93.5106431181261 l 8.169511538848719 -2.654435207573949 a29.589932773578063,29.589932773578063 0 0,0 0.15322585356162133,0.48576782853068967 l -8.213992876178546 2.51341721261684" fill="#ff3905" stroke="none" /><path d="M 120.08093135843002 93.85539295169968 l 11.244795016731388 -3.4408188287289665 a32.759449357025304,32.759449357025304 0 0,0 0.16035610513190654,0.5406410692147741 l -11.302357018974996 3.2467483727676623" fill="#ff6809" stroke="none" /><path d="M 120.18372546131832 94.20196356495316 l 14.22096196854766 -4.085155428470108 a35.79608915171971,35.79608915171971 0 0,0 0.1650254758034458,0.5936844396834026 l -14.28917421491747 3.8397596853677536" fill="#ff930d" stroke="none" /><path d="M 120.37134235888165 94.90015583598534 l 14.458089866858932 -3.619496640492753 a35.904265111997546,35.904265111997546 0 0,0 0.14492876248748515,0.6008232860367564 l -14.518251429607236 3.37008812279659" fill="#ff950d" stroke="none" /><path d="M 120.45610955862082 95.25157060432595 l 11.240522548569796 -2.6092364992184973 a32.53938743061173,32.53938743061173 0 0,0 0.12195392544307093,0.5466955349995871 l -11.283770861014904 2.415362794668946" fill="#ff6509" stroke="none" /><path d="M 120.53481517161879 95.60439243477599 l 21.021325339799077 -4.4997481556281285 a42.49753131189155,42.49753131189155 0 0,0 0.14696193551162046,0.716638590023736 l -21.095666571225696 4.1372339094409805" fill="#ffef16" stroke="none" /><path d="M 120.67395015179393 96.31383870115 l 11.615220229498222 -2.0709915121799134 a32.798404418533295,32.798404418533295 0 0,0 0.09431593275914846,0.5566579740633278 l -11.649148023777594 1.8707477498007477" fill="#ff6809" stroke="none" /><path d="M 120.73433829027371 96.67025291283417 l 6.820351274567103 -1.0952866916708233 a27.907738012217916,27.907738012217916 0 0,0 0.07208715783823094,0.4749643017474244 l -6.838194325844634 0.9777232775313167" fill="#ff1f03" stroke="none" /><path d="M 120.78858239683441 97.02765380044208 l 17.655710729594105 -2.5244090090334455 a38.8352673714748,38.8352673714748 0 0,0 0.0889216682323418,0.6625697133435255 l -17.696548396884282 2.2201209536252557" fill="#ffbe11" stroke="none" /><path d="M 120.83666639777658 97.38593545837742 l 10.834884406780839 -1.3592907137663552 a31.91981645234177,31.91981645234177 0 0,0 0.0637022971289466,0.545762379463557 l -10.856677056913373 1.1725845959779455" fill="#ff5b08" stroke="none" /><path d="M 120.91429891909075 98.10471618934814 l 5.33305190806945 -0.483288824637756 a26.35490529721889,26.35490529721889 0 0,0 0.037054389656605714,0.45215740913786756 l -5.34058078154555 0.39141749829211964" fill="#ff0701" stroke="none" /><path d="M 120.94382443527127 98.46500227214037 l 20.696503198669646 -1.5168712611578032 a41.75201539791905,41.75201539791905 0 0,0 0.046363443974000745,0.7172219573317619 l -20.719547233648065 1.1603902395730061" fill="#ffe515" stroke="none" /><path d="M 120.98425023603335 99.18683210126433 l 15.690335227673689 -0.6080215773273896 a36.70211163491311,36.70211163491311 0 0,0 0.019029705028759916,0.6315032660111609 l -15.698476627158094 0.33784816389122957" fill="#ffa00e" stroke="none" /><line stroke="#e1ed5e" stroke-width="0.3" x1="184.98032266829074" x2="189.97916517819016" y1="98.17113171792111" y2="98.06355123074" /><path d="M 185.9800911702706 98.14961562048488 a86.0,86.0 0 0,1 -9.607161424134198,41.387399972396054" fill="none" id="id100" stroke="none" /><text fill="#e1ed5e" style="font-size:6.75px; font-family:Arial;" text-anchor="middle"><textPath startOffset="21.466115282336823" xlink:href="#id100">April</textPath></text><path d="M 120.99513854157772 99.54816195383933 l 10.16306277696761 -0.21872008222567196 a31.165416050656923,31.165416050656923 0 0,0 0.006926132137230923,0.5364365668939508 l -10.165321916222556 0.04374725727125844" fill="#ff5007" stroke="none" /><path d="M 120.99980553446 99.90962569577887 l 14.239065887374139 -0.06127893280814407 a35.23919774610171,35.23919774610171 0 0,0 -0.0026105578785404634,0.6066017133772307 l -14.238011032206096 -0.18383225877277135" fill="#ff8b0c" stroke="none" /><path d="M 120.95626037817324 101.35467743843564 l 23.919544613912677 1.5462332897844469 a44.96946916231973,44.96946916231973 0 0,0 -0.05658324430030626,0.7720334128807783 l -23.889384810948034 -1.9577398391619953" fill="#efff19" stroke="none" /><path d="M 120.89721153311464 102.0752229133903 l 62.69163459934395 6.2256687401709 a84.0,84.0 0 0,0 -0.15527079399579247,1.4376147124608343 l -62.575181503847105 -7.303879774516526" fill="#4dd2ff" stroke="none" /><path d="M 120.76222939487914 103.15116336523771 l 5.817447447025843 0.8829363612938806 a26.884069290635722,26.884069290635722 0 0,0 -0.07337846130327623,0.45692774858071217 l -5.801387231361278 -0.9829433395677978" fill="#ff1001" stroke="none" /><path d="M 120.70491114924044 103.5080841355445 l 11.80164726454098 1.9995821881876155 a32.969845741861704,32.969845741861704 0 0,0 -0.09962161942139405,0.5587309471784202 l -11.765479202780398 -2.2024318860992538" fill="#ff6b09" stroke="none" /><path d="M 120.5718875245553 104.21870165774334 l 17.407592384988817 3.5697958568077537 a38.76985411029597,38.76985411029597 0 0,0 -0.13969325141755456,0.652600364344803 l -17.34356509484682 -3.868910040568726" fill="#ffbd11" stroke="none" /><path d="M 120.41448212921028 104.9243191809786 l 12.964649217784435 3.12729318401107 a34.3364947418338,34.3364947418338 0 0,0 -0.14354074976667347,0.5733739427923245 l -12.908897153722702 -3.34999496620079" fill="#ff7f0b" stroke="none" /><path d="M 120.23288151984713 105.62410040840565 l 4.707027584466094 1.308404625124918 a25.885491924460933,25.885491924460933 0 0,0 -0.12302679485174352,0.42827241247811726 l -4.683808152728251 -1.3892345131076171" fill="#ff0000" stroke="none" /><path d="M 120.13307415673323 105.97154293290107 l 20.051828243932103 5.947445100019833 a41.915255655666826,41.915255655666826 0 0,0 -0.2111196129490693,0.6899511104166125 l -19.9464818584769 -6.291723182988503" fill="#ffe715" stroke="none" /><path d="M 119.54520255179757 107.68017299344265 l 17.92029757057427 7.041676087584087 a40.25414934865687,40.25414934865687 0 0,0 -0.2589633496331443,0.6427257963597354 l -17.796431606683733 -7.349101251786636" fill="#ffd113" stroke="none" /><path d="M 119.26925614724726 108.34839909993367 l 18.935013468765398 8.203588565740004 a41.63573600379369,41.63573600379369 0 0,0 -0.29057563357767097,0.6551713439907105 l -18.790996750456454 -8.528308246223402" fill="#ffe315" stroke="none" /><line stroke="#e1ed5e" stroke-width="0.3" x1="174.80103733775053" x2="179.2010983576182" y1="140.37084112569926" y2="142.7455964860345" /><path d="M 175.68104954172406 140.8457921977663 a86.0,86.0 0 0,1 -30.038265399797805,32.042727171017184" fill="none" id="id101" stroke="none" /><text fill="#e1ed5e" style="font-size:6.75px; font-family:Arial;" text-anchor="middle"><textPath startOffset="22.206326154141568" xlink:href="#id101">May</textPath></text><line stroke="#e1ed5e" stroke-width="0.3" x1="143.8653032363475" x2="146.44561519142675" y1="172.8068346515853" y2="177.08958963109032" /><path d="M 144.38136562736335 173.6633856474863 a86.0,86.0 0 0,1 -40.68145358897372,12.25698825130547" fill="none" id="id102" stroke="none" /><text fill="#e1ed5e" style="font-size:6.75px; font-family:Arial;" text-anchor="middle"><textPath startOffset="21.466115282336833" xlink:href="#id102">June</textPath></text><line stroke="#e1ed5e" stroke-width="0.3" x1="102.19456741930631" x2="102.32365962044197" y1="184.97166512339345" y2="189.96999836594603" /><path d="M 102.22038585953345 185.97133177190398 a86.0,86.0 0 0,1 -42.740103519485714,-10.115201625700543" fill="none" id="id103" stroke="none" /><text fill="#e1ed5e" style="font-size:6.75px; font-family:Arial;" text-anchor="middle"><textPath startOffset="22.20632615414155" xlink:href="#id103">July</textPath></text><line stroke="#e1ed5e" stroke-width="0.3" x1="58.666819895761336" x2="56.23545636021788" y1="174.27360380694188" y2="178.64263932499728" /><path d="M 58.180547188652646 175.14741091055294 a86.0,86.0 0 0,1 -31.652253787137756,-30.449443065178592" fill="none" id="id104" stroke="none" /><text fill="#e1ed5e" style="font-size:6.75px; font-family:Arial;" text-anchor="middle"><textPath startOffset="22.20632615414155" xlink:href="#id104">August</textPath></text><line stroke="#e1ed5e" stroke-width="0.3" x1="26.63291911575756" x2="22.317208475507996" y1="142.92168965132927" y2="145.44649492493687" /><path d="M 25.769776987707644 143.4266507060508 a86.0,86.0 0 0,1 -11.730757126820373,-40.83630448921669" fill="none" id="id105" stroke="none" /><text fill="#e1ed5e" style="font-size:6.75px; font-family:Arial;" text-anchor="middle"><textPath startOffset="21.46611528233685" xlink:href="#id105">September</textPath></text><line stroke="#e1ed5e" stroke-width="0.3" x1="15.007084014347285" x2="10.007500721073583" y1="101.09737516637583" y2="101.16192664675087" /><path d="M 14.007167355692545 101.11028546245083 a86.0,86.0 0 0,1 10.666146001902534,-42.60595125391555" fill="none" id="id106" stroke="none" /><text fill="#e1ed5e" style="font-size:6.75px; font-family:Arial;" text-anchor="middle"><textPath startOffset="22.20632615414155" xlink:href="#id106">October</textPath></text><line stroke="#e1ed5e" stroke-width="0.3" x1="26.266209847984243" x2="21.928928074336255" y1="57.711370442889674" y2="55.22380399835377" /><path d="M 25.398753493254645 57.213857153982495 a86.0,86.0 0 0,1 29.58750427330803,-30.492523968695096" fill="none" id="id107" stroke="none" /><text fill="#e1ed5e" style="font-size:6.75px; font-family:Arial;" text-anchor="middle"><textPath startOffset="21.46611528233685" xlink:href="#id107">November</textPath></text><line stroke="#e1ed5e" stroke-width="0.3" x1="56.762969772571076" x2="54.21961505331055" y1="26.818313649435495" y2="22.513508569990535" /><path d="M 56.25429882871897 25.957352633546506 a86.0,86.0 0 0,1 42.265352541879196,-11.944610805530505" fill="none" id="id108" stroke="none" /><text fill="#e1ed5e" style="font-size:6.75px; font-family:Arial;" text-anchor="middle"><textPath startOffset="22.20632615414155" xlink:href="#id108">December</textPath></text></svg>