<?xml version="1.0" encoding="utf-8" ?>
<svg baseProfile="full" height="200mm" version="1.1" viewBox="0,0,200,200" width="200mm" xmlns="http://www.w3.org/2000/svg" xmlns:ev="http://www.w3.org/2001/xml-events" xmlns:xlink="http://www.w3.org/1999/xlink"><defs /><rect fill="#1a1a1a" height="200" width="200" x="0" y="0" /><text alignment-baseline="middle" fill="#e1ed5e" style="dominant-baseline: central; font-size:9.0px; font-family:Arial;" text-anchor="middle" x="100.0" y="100.0">2019</text><line stroke="#e1ed5e" stroke-width="0.3" x1="100.0" x2="100.0" y1="15.0" y2="10.0" /><path d="M 100.0 14.0 a86.0,86.0 0 0,1 42.46469731375804,11.215312516191453" fill="none" id="id13" stroke="none" /><text fill="#e1ed5e" style="font-size:6.75px; font-family:Arial;" text-anchor="middle"><textPath startOffset="22.20632615414155" xlink:href="#id13">January</textPath></text><line stroke="#e1ed5e" stroke-width="0.3" x1="143.23703022742887" x2="145.7803849466894" y1="26.81831364943548" y2="22.513508569990506" /><path d="M 143.74570117128098 25.957352633546492 a86.0,86.0 0 0,1 28.547481713284135,27.462654790039103" fill="none" id="id14" stroke="none" /><text fill="#e1ed5e" style="font-size:6.75px; font-family:Arial;" text-anchor="middle"><textPath startOffset="19.985693538727396" xlink:href="#id14">February</textPath></text><path d="M 117.04232023915458 87.72973835380427 l 6.805778050906578 -4.900076762945653 a29.386260618473628,29.386260618473628 0 0,0 0.29202579724902805,0.4130497804246126 l -6.8891164679594885 4.782200482189246" fill="#ff6008" stroke="none" /><line stroke="#e1ed5e" stroke-width="0.3" x1="172.23445277983987" x2="176.4835382374775" y1="55.19839476539836" y2="52.563006222186495" /><path d="M 173.08426987136738 54.67131705675599 a86.0,86.0 0 0,1 12.851231095245387,41.99856678651699" fill="none" id="id15" stroke="none" /><text fill="#e1ed5e" style="font-size:6.75px; font-family:Arial;" text-anchor="middle"><textPath startOffset="22.20632615414155" xlink:href="#id15">March</textPath></text><path d="M 118.21658344932153 89.55222093294921 l 7.037353632784914 -4.0361419130315825 a29.11263136688715,29.11263136688715 0 0,0 0.24557524707210907,0.4368509625188429 l -7.105786521149456 3.914407440577946" fill="#ff5c08" stroke="none" /><path d="M 118.73160827565052 90.50648371742162 l 3.6047481056942186 -1.826951233038916 a25.04128193936138,25.04128193936138 0 0,0 0.19155386696995558,0.3861609070360288 l -3.6356619856175825 1.7646307375039374" fill="#ff2203" stroke="none" /><path d="M 118.89224826269711 90.83032412892265 l 6.809305236830778 -3.3050127788260277 a28.568999093442567,28.568999093442567 0 0,0 0.21092329617050312,0.4442582538820094 l -6.865186726843038 3.1873121093034777" fill="#ff5407" stroke="none" /><path d="M 119.196687751892 91.48605970444005 l 2.8040767844953143 -1.2436386232831151 a24.067488164389083,24.067488164389083 0 0,0 0.16470103047495419,0.3801526862752225 l -2.8250685248129495 1.19518679242129" fill="#ff1402" stroke="none" /><path d="M 119.34039704204932 91.81776055985345 l 14.103356572103337 -5.966632439438603 a36.313568142900316,36.313568142900316 0 0,0 0.23859451788097652,0.5777755501961817 l -14.203972776870511 5.722982318789119" fill="#ffbd11" stroke="none" /><path d="M 119.85752413597 93.16781622104841 l 7.267658955121966 -2.500512213110853 a28.685793909277105,28.685793909277105 0 0,0 0.15662813142585658,0.46829817695845016 l -7.309624380319593 2.3750409332300886" fill="#ff5608" stroke="none" /><path d="M 120.18372546131832 94.20196356495316 l 14.398987898173656 -4.13629568145922 a35.98131484403854,35.98131484403854 0 0,0 0.16587939472951566,0.5967564403953572 l -14.468054063469534 3.887827937644911" fill="#ffb911" stroke="none" /><path d="M 120.73433829027371 96.67025291283417 l 6.475968734662501 -1.0399819723658417 a27.558943021186582,27.558943021186582 0 0,0 0.07118620199721465,0.4690281284432437 l -6.492910830099015 0.9283547315305157" fill="#ff4606" stroke="none" /><path d="M 120.96714384426684 98.82574320788733 l 32.14359971033319 -1.800189885811763 a53.19396971426654,53.19396971426654 0 0,0 0.04333128026417938,0.9146548408787699 l -32.169824598830864 1.2466239383099935" fill="#79ff26" stroke="none" /><line stroke="#e1ed5e" stroke-width="0.3" x1="184.98032266829074" x2="189.97916517819016" y1="98.17113171792111" y2="98.06355123074" /><path d="M 185.9800911702706 98.14961562048488 a86.0,86.0 0 0,1 -9.607161424134198,41.387399972396054" fill="none" id="id16" stroke="none" /><text fill="#e1ed5e" style="font-size:6.75px; font-family:Arial;" text-anchor="middle"><textPath startOffset="21.466115282336823" xlink:href="#id16">April</textPath></text><path d="M 120.92983693683757 101.71520430193887 l 4.262546450281734 0.34931652983256256 a25.276835778799985,25.276835778799985 0 0,0 -0.03926985581530554,0.4333395866175896 l -4.255901998189353 -0.4226375049987227" fill="#ff2603" stroke="none" /><path d="M 120.64145759157962 103.86396538481128 l 4.524306992506859 0.8469249582663949 a25.602894268542457,25.602894268542457 0 0,0 -0.08481881287045161,0.43248929948077264 l -4.509058246660744 -0.9246779848151125" fill="#ff2a04" stroke="none" /><path d="M 120.41448212921028 104.9243191809786 l 2.44070766310422 0.5887400662193779 a23.510710808179162,23.510710808179162 0 0,0 -0.09828449532566458,0.3925977026860563 l -2.430211853483495 -0.6306656083028301" fill="#ff0c01" stroke="none" /><path d="M 120.02730092923936 106.31721596034902 l 6.754282431664027 2.130504800860029 a28.08232884531444,28.08232884531444 0 0,0 -0.14938160673959963,0.45974931181925693 l -6.7166085739081804 -2.2464530126570814" fill="#ff4e07" stroke="none" /><path d="M 119.67450827220406 107.3425965602758 l 3.4378320415199553 1.2830111621408513 a24.669442299298257,24.669442299298257 0 0,0 -0.1519000004065323,0.3965629685529844 l -3.415237761519916 -1.3419976975269796" fill="#ff1d02" stroke="none" /><path d="M 119.41010516605496 108.01547362559984 l 2.812347632403059 1.161369198193093 a24.042708927911896,24.042708927911896 0 0,0 -0.16125676009406212,0.38116334638549687 l -2.791939891116688 -1.2096070702447532" fill="#ff1402" stroke="none" /><path d="M 119.12269723197855 108.67885076344098 l 7.176480501484553 3.257051164046712 a28.88100594298761,28.88100594298761 0 0,0 -0.2093534378915427,0.4509286802622129 l -7.119352446753179 -3.3800999115877555" fill="#ff5908" stroke="none" /><line stroke="#e1ed5e" stroke-width="0.3" x1="174.80103733775053" x2="179.2010983576182" y1="140.37084112569926" y2="142.7455964860345" /><path d="M 175.68104954172406 140.8457921977663 a86.0,86.0 0 0,1 -30.038265399797805,32.042727171017184" fill="none" id="id17" stroke="none" /><text fill="#e1ed5e" style="font-size:6.75px; font-family:Arial;" text-anchor="middle"><textPath startOffset="22.206326154141568" xlink:href="#id17">May</textPath></text><path d="M 118.48025628344425 109.97397251340804 l 28.154776508459424 15.195404366123007 a52.99362052177416,52.99362052177416 0 0,0 -0.44015893178914367,0.7990163140015616 l -27.88904116721877 -15.677791198522375" fill="#7bff26" stroke="none" /><path d="M 118.12598468904814 110.60418214915192 l 5.349478604477618 3.1295869713023934 a27.197679884497866,27.197679884497866 0 0,0 -0.23988240244031597,0.4020567044999782 l -5.294815326339074 -3.2212057696884755" fill="#ff4106" stroke="none" /><path d="M 117.14729908036423 112.12312394758627 l 5.664306066579324 4.004658937852232 a27.936977470369,27.936977470369 0 0,0 -0.2809930562709261,0.3902747788131015 l -5.594533217932796 -4.101567322116465" fill="#ff4b07" stroke="none" /><path d="M 116.498646956653 112.99209946851258 l 14.544467253830634 11.453252243941918 a39.51265822784811,39.51265822784811 0 0,0 -0.4253859177340407,0.5307343384481567 l -14.345163424041738 -11.701914415968325" fill="#ffe615" stroke="none" /><path d="M 116.27256486870786 113.27417163493432 l 3.6026527134967425 2.9388256151296583 a25.649279790484506,25.649279790484506 0 0,0 -0.28202482397488426,0.33971706842202537 l -3.551531889628315 -3.000403940665454" fill="#ff2b04" stroke="none" /><path d="M 115.80600337817218 113.82643327865902 l 7.696291877589665 6.732395507743117 a31.22536346237787,31.22536346237787 0 0,0 -0.3573685606998402,0.4015073663843713 l -7.579264467241487 -6.863877043868355" fill="#ff790b" stroke="none" /><path d="M 115.32070863581623 114.36230785411682 l 8.274157105119686 7.756559725915433 a32.34133566128328,32.34133566128328 0 0,0 -0.3842357793878116,0.4028696785337182 l -8.139414774352911 -7.897836521031658" fill="#ff880c" stroke="none" /><path d="M 114.81725581225074 114.88116024355365 l 3.7302376298366746 3.7463255422936053 a26.28674075815062,26.28674075815062 0 0,0 -0.32338955841682687,0.31650474739044837 l -3.6651981190440535 -3.809980392606626" fill="#ff3404" stroke="none" /><path d="M 114.55890576462653 115.13401014063108 l 25.051770555997084 26.041362981852405 a57.13507705738173,57.13507705738173 0 0,0 -0.7146351115378134,0.6757321032336372 l -24.599799610068462 -26.468729721831966" fill="#50ff2b" stroke="none" /><path d="M 114.0293411484842 115.62618273729858 l 5.023668437067959 5.595470248986329 a28.519742806298893,28.519742806298893 0 0,0 -0.36811878003736426,0.3248220229463303 l -4.9266073041240075 -5.681115413704948" fill="#ff5407" stroke="none" /><path d="M 113.48314897796784 116.09983520530334 l 4.966228425821354 5.930028614106999 a28.73489910351543,28.73489910351543 0 0,0 -0.3819413663355016,0.31431174205828494 l -4.8634169309411615 -6.014635475022462" fill="#ff5708" stroke="none" /><path d="M 113.20401910651253 116.32954008644616 l 2.2467878502287104 2.778624596805835 a24.57334721149649,24.57334721149649 0 0,0 -0.3312048479556693,0.2631291622496318 l -2.19862550955569 -2.816887673060593" fill="#ff1b02" stroke="none" /><path d="M 112.04921762599082 117.19931262002967 l 5.943059673887901 8.483251313363528 a31.357871940368668,31.357871940368668 0 0,0 -0.44474887001505126,0.3059023282330661 l -5.796153919249966 -8.584294430961688" fill="#ff7b0b" stroke="none" /><path d="M 111.45004920935366 117.60387380957326 l 3.988769834794197 6.132532668050696 a28.315616291172816,28.315616291172816 0 0,0 -0.4108706461988933,0.2622370860759337 l -3.882617386548373 -6.200284182950439" fill="#ff5107" stroke="none" /><line stroke="#e1ed5e" stroke-width="0.3" x1="143.8653032363475" x2="146.44561519142675" y1="172.8068346515853" y2="177.08958963109032" /><path d="M 144.38136562736335 173.6633856474863 a86.0,86.0 0 0,1 -40.68145358897372,12.25698825130547" fill="none" id="id18" stroke="none" /><text fill="#e1ed5e" style="font-size:6.75px; font-family:Arial;" text-anchor="middle"><textPath startOffset="21.466115282336833" xlink:href="#id18">June</textPath></text><path d="M 110.8373102113329 117.98757091392108 l 18.561013962684754 30.807234302376582 a56.96660846791794,56.96660846791794 0 0,0 -0.8442780397029855,0.4988143474601776 l -18.027968051953387 -31.12216722213051" fill="#52ff2b" stroke="none" /><path d="M 109.89434966115114 118.52300852407294 l 7.013526378542485 13.129878500618752 a35.88567303495283,35.88567303495283 0 0,0 -0.5473575020026197,0.2863515753346169 l -6.78647797401337 -13.248659494898085" fill="#ffb711" stroke="none" /><path d="M 108.2653958097858 119.30500536409082 l 4.287395812375043 10.013821607658214 a31.893043011113726,31.893043011113726 0 0,0 -0.5065352422705457,0.21173177235031262 l -4.114389110607036 -10.0861384230285" fill="#ff820c" stroke="none" /><path d="M 107.59598834532513 119.57807347666477 l 4.076466258480074 10.506777038801733 a32.269868717053356,32.269868717053356 0 0,0 -0.5195906469234365,0.19646472306212198 l -3.8950053907963627 -10.575390011970487" fill="#ff870c" stroke="none" /><path d="M 106.2309692047433 120.05430185196036 l 1.436884852681259 4.624597171856294 a25.842678709330826,25.842678709330826 0 0,0 -0.4259427537523641,0.1283330576438995 l -1.357067124488649 -4.64864559860592" fill="#ff2e04" stroke="none" /><path d="M 105.88484417918355 120.15858648285463 l 4.137845897940851 14.174228211755038 a35.765856361011316,35.765856361011316 0 0,0 -0.5924679368592125,0.16743735695867748 l -3.8932467929770325 -14.243354362052234" fill="#ffb610" stroke="none" /><path d="M 104.83641907484287 120.43548508189849 l 1.3812888597226192 5.836406533396048 a26.997632877816205,26.997632877816205 0 0,0 -0.45314864778661956,0.10313515691090076 l -1.2806200625431376 -5.859318423884633" fill="#ff3e05" stroke="none" /><path d="M 103.7750983002368 120.6578951692458 l 11.32529490071043 61.973685507737414 a84.0,84.0 0 0,0 -1.4246041141118002,0.24768568591597528 l -10.256841815126581 -62.15944977217439" fill="#4dd2ff" stroke="none" /><path d="M 102.34483914955558 120.86867818915974 l 0.48922188826904833 4.353993386418338 a25.38139206930128,25.38139206930128 0 0,0 -0.43458672575684815,0.04504669104261256 l -0.4142025659065975 -4.361769445916709" fill="#ff2703" stroke="none" /><path d="M 101.26447882468166 120.96189622390904 l 0.5193023679339795 8.608734391580487 a29.62438303730316,29.62438303730316 0 0,0 -0.5092740829693221,0.026323652953648826 l -0.37104021655117786 -8.61639785129634" fill="#ff6309" stroke="none" /><line stroke="#e1ed5e" stroke-width="0.3" x1="102.19456741930631" x2="102.32365962044197" y1="184.97166512339345" y2="189.96999836594603" /><path d="M 102.22038585953345 185.97133177190398 a86.0,86.0 0 0,1 -42.740103519485714,-10.115201625700543" fill="none" id="id19" stroke="none" /><text fill="#e1ed5e" style="font-size:6.75px; font-family:Arial;" text-anchor="middle"><textPath startOffset="22.20632615414155" xlink:href="#id19">July</textPath></text><path d="M 98.73552117531835 120.96189622390904 l -0.44982247683530924 7.4569315788877715 a28.470486519155223,28.470486519155223 0 0,0 -0.48892941226423,-0.03371943486467507 l 0.5781146498784693 -7.4480837995068105" fill="#ff5307" stroke="none" /><path d="M 93.76903079525671 120.05430185196036 l -2.269714090716253 7.3050483796680465 a28.64953161199342,28.64953161199342 0 0,0 -0.4696867717691275,-0.1503788721010849 l 2.395122207576321 -7.264896660907255" fill="#ff5507" stroke="none" /><path d="M 93.08242187328487 119.8279376855182 l -2.652461071563087 7.602781186829889 a29.05219420474768,29.05219420474768 0 0,0 -0.47075682898390714,-0.1687966501479025 l 2.7829374611767212 -7.555996995642029" fill="#ff5b08" stroke="none" /><path d="M 92.40401165467489 119.57807347666478 l -2.6087219820084604 6.72377949018117 a28.212117651008967,28.212117651008967 0 0,0 -0.4512312247238759,-0.1795542166687932 l 2.724074282774194 -6.67787842910631" fill="#ff4f07" stroke="none" /><path d="M 91.40352486487194 119.15986991738527 l -3.2960281269106573 7.346205178631106 a29.051740926031627,29.051740926031627 0 0,0 -0.454496508232136,-0.20863705528334767 l 3.4219926309102124 -7.288381053013683" fill="#ff5b08" stroke="none" /><path d="M 90.7491055286396 118.85261126421891 l -3.377283563283688 6.882644088605667 a28.666605110297823,28.666605110297823 0 0,0 -0.44111911530448333,-0.22118628189628525 l 3.4952565862709317 -6.823489965800079" fill="#ff5607" stroke="none" /><path d="M 90.10565033884886 118.52300852407294 l -5.187105014678433 9.71067262554897 a32.009233455326864,32.009233455326864 0 0,0 -0.48376192896627995,-0.26378557521182694 l 5.353489755513354 -9.619946398577378" fill="#ff840c" stroke="none" /><line stroke="#e1ed5e" stroke-width="0.3" x1="58.666819895761336" x2="56.23545636021788" y1="174.27360380694188" y2="178.64263932499728" /><path d="M 58.180547188652646 175.14741091055294 a86.0,86.0 0 0,1 -31.652253787137756,-30.449443065178592" fill="none" id="id20" stroke="none" /><text fill="#e1ed5e" style="font-size:6.75px; font-family:Arial;" text-anchor="middle"><textPath startOffset="22.20632615414155" xlink:href="#id20">August</textPath></text><path d="M 88.54995079064634 117.60387380957326 l -4.802291709274613 7.383281565093132 a29.80765873149112,29.80765873149112 0 0,0 -0.4277048451010938,-0.28345944930063893 l 4.9286712531156684 -7.299524094701175" fill="#ff6609" stroke="none" /><path d="M 87.65650970185807 116.9893568818739 l -7.298065474120746 10.044925372994681 a33.416210589933854,33.416210589933854 0 0,0 -0.4624406204330053,-0.3421025156025062 l 7.469891064972315 -9.917812908652408" fill="#ff970d" stroke="none" /><path d="M 86.51685102203217 116.09983520530335 l -6.713376941224679 8.016247732737808 a31.456082328845316,31.456082328845316 0 0,0 -0.4121263914428442,-0.3512230516787165 l 6.85036880924458 -7.899500290836141" fill="#ff7c0b" stroke="none" /><path d="M 85.97065885151581 115.62618273729859 l -4.392795248302364 4.89279008550777 a27.57541214786959,27.57541214786959 0 0,0 -0.35047094885255065,-0.32014690219081 l 4.476365746621769 -4.816450416730384" fill="#ff4606" stroke="none" /><path d="M 85.18274418774928 114.88116024355367 l -6.859202317910589 6.888784949733376 a30.72131753013464,30.72131753013464 0 0,0 -0.3715222189249277,-0.3763500462888374 l 6.97676516189105 -6.769694409463874" fill="#ff720a" stroke="none" /><path d="M 84.67929136418377 114.36230785411682 l -7.891986330514029 7.398295989674078 a31.81749655843938,31.81749655843938 0 0,0 -0.3711338128844408,-0.40279245406779335 l 8.018166551394199 -7.261352280804941" fill="#ff810b" stroke="none" /><path d="M 84.43433777217949 114.09645910891817 l -4.396524398464725 3.9815476847204336 a26.931454185273477,26.931454185273477 0 0,0 -0.30822555616817626,-0.3462946798316357 l 4.464408804281239 -3.9052788351479335" fill="#ff3d05" stroke="none" /><path d="M 82.85270091963577 112.12312394758628 l -5.5672114317475145 3.9360131244681593 a27.818067353859583,27.818067353859583 0 0,0 -0.2730662461346321,-0.3933722937999435 l 5.634138585044281 -3.8395995684812037" fill="#ff4a06" stroke="none" /><path d="M 82.24976979558568 111.22182372390057 l -3.616523944114367 2.2863925552934057 a25.278648893664172,25.278648893664172 0 0,0 -0.2293560226505491,-0.3697949370601447 l 3.6553446064328723 -2.223801286867997" fill="#ff2603" stroke="none" /><line stroke="#e1ed5e" stroke-width="0.3" x1="26.63291911575756" x2="22.317208475507996" y1="142.92168965132927" y2="145.44649492493687" /><path d="M 25.769776987707644 143.4266507060508 a86.0,86.0 0 0,1 -11.730757126820373,-40.83630448921669" fill="none" id="id21" stroke="none" /><text fill="#e1ed5e" style="font-size:6.75px; font-family:Arial;" text-anchor="middle"><textPath startOffset="21.46611528233685" xlink:href="#id21">September</textPath></text><path d="M 81.51974371655577 109.97397251340807 l -1.8099005319207253 0.9768207691768848 a23.056676627606354,23.056676627606354 0 0,0 -0.18549369928114218,-0.35088417391417354 l 1.8264467394267534 -0.945521580176585" fill="#ff0500" stroke="none" /><path d="M 81.35079622478065 109.6543875284942 l -1.519042281593467 0.7863833242123948 a22.710522781452507,22.710522781452507 0 0,0 -0.17673256394258394,-0.34871011528140883 l 1.5323535153223176 -0.7601189972283009" fill="#ff0000" stroke="none" /><path d="M 80.58989483394504 108.01547362559985 l -6.755052884066735 2.7895236923527653 a28.30836383171608,28.30836383171608 0 0,0 -0.1821136165864552,-0.4519910613385841 l 6.802069114910578 -2.672833263171376" fill="#ff5107" stroke="none" /><path d="M 80.32549172779594 107.34259656027581 l -7.207188526803382 2.6897484274577725 a28.692744182923143,28.692744182923143 0 0,0 -0.16870751389402303,-0.46421062124228835 l 7.252420301702629 -2.565290009209367" fill="#ff5608" stroke="none" /><path d="M 79.86692584326677 105.97154293290107 l -13.867013222001564 4.113006496754765 a35.46412382902999,35.46412382902999 0 0,0 -0.16855146116762693,-0.5867497481988473 l 13.935757320055295 -3.873699273051322" fill="#ffb210" stroke="none" /><path d="M 79.67330655649465 105.27499134158121 l -3.0140359925643225 0.7821741301987748 a24.11387368633113,24.11387368633113 0 0,0 -0.10080596562752295,-0.40266972314686267 l 3.027053272486904 -0.7301765676545203" fill="#ff1502" stroke="none" /><path d="M 79.58551787078972 104.9243191809786 l -7.4945603002884305 1.8078150014349021 a28.70951549541685,28.70951549541685 0 0,0 -0.11174759757158717,-0.48140572563204986 l 7.524568463790573 -1.678540618454278" fill="#ff5608" stroke="none" /><path d="M 79.50377843672027 104.57218783832718 l -2.9276875592676963 0.6530929328402306 a23.99964744988752,23.99964744988752 0 0,0 -0.0864741140271554,-0.4039782720199687 l 2.9384957120192925 -0.6026008414040981" fill="#ff1302" stroke="none" /><path d="M 79.18660465613746 102.79330883721812 l -15.102767354923731 2.0269010808655907 a36.23817278313132,36.23817278313132 0 0,0 -0.07765062299489783,-0.6189518663987833 l 15.135419487165478 -1.7666314601793986" fill="#ffbc11" stroke="none" /><path d="M 79.10278846688536 102.07522291339032 l -2.198617074808271 0.2183363327773747 a23.209431554913877,23.209431554913877 0 0,0 -0.036057955936126304,-0.39789653909415174 l 2.202049627021473 -0.18045840513465675" fill="#ff0701" stroke="none" /><path d="M 79.0235259727143 100.99374915477108 l -7.65122476835258 0.36247265086704267 a28.65980592955713,28.65980592955713 0 0,0 -0.019103626472014593,-0.49297971418662884 l 7.656330527675795 -0.23071568966641703" fill="#ff5607" stroke="none" /><line stroke="#e1ed5e" stroke-width="0.3" x1="15.007084014347285" x2="10.007500721073583" y1="101.09737516637583" y2="101.16192664675087" /><path d="M 14.007167355692545 101.11028546245083 a86.0,86.0 0 0,1 10.666146001902534,-42.60595125391555" fill="none" id="id22" stroke="none" /><text fill="#e1ed5e" style="font-size:6.75px; font-family:Arial;" text-anchor="middle"><textPath startOffset="22.20632615414155" xlink:href="#id22">October</textPath></text><path d="M 79.01574976396665 99.18683210126434 l -9.634762367883418 -0.3733599905349822 a30.64199375482658,30.64199375482658 0 0,0 0.02496066427032126,-0.526880172180714 l 9.626908095379598 0.5391512693387054" fill="#ff710a" stroke="none" /><path d="M 79.08570108090925 98.10471618934814 l -7.959594080210368 -0.7213098492062144 a28.992210321324247,28.992210321324247 0 0,0 0.049318337404907556,-0.49662892721637636 l 7.945998617123232 0.8582143071270211" fill="#ff5a08" stroke="none" /><path d="M 79.16333360222342 97.38593545837743 l -8.504983102145497 -1.0669928831221285 a29.57165161333647,29.57165161333647 0 0,0 0.06771063447795618,-0.504522874662499 l 8.485356468609707 1.213234099849287" fill="#ff6209" stroke="none" /><path d="M 79.26566170972629 96.67025291283419 l -8.295684620988538 -1.3322118755890209 a29.40197428062989,29.40197428062989 0 0,0 0.08454907116369137,-0.4990134040566192 l 8.271523688304622 1.4748110679614679" fill="#ff6008" stroke="none" /><path d="M 80.02781315780177 93.51064311812611 l -30.51008016933703 -9.9133259806626 a53.08019675653896,53.08019675653896 0 0,0 0.28982471463007364,-0.8665390071579462 l 30.334918160935185 10.437038090742869" fill="#7aff26" stroke="none" /><path d="M 81.10775173730289 90.83032412892265 l -7.036848444066128 -3.4154547668838138 a28.821928616996274,28.821928616996274 0 0,0 0.22047401141390205,-0.4444621535038872 l 6.977014419698813 3.536076508886662" fill="#ff5808" stroke="none" /><line stroke="#e1ed5e" stroke-width="0.3" x1="26.266209847984243" x2="21.928928074336255" y1="57.711370442889674" y2="55.22380399835377" /><path d="M 25.398753493254645 57.213857153982495 a86.0,86.0 0 0,1 29.58750427330803,-30.492523968695096" fill="none" id="id23" stroke="none" /><text fill="#e1ed5e" style="font-size:6.75px; font-family:Arial;" text-anchor="middle"><textPath startOffset="21.46611528233685" xlink:href="#id23">November</textPath></text><path d="M 83.6137871275137 86.86637796730984 l -5.756800775734719 -4.61410126271143 a28.377715475271128,28.377715475271128 0 0,0 0.3087786084536449,-0.37852606357053087 l 5.676523675204682 4.712511495890044" fill="#ff5207" stroke="none" /><path d="M 84.07557802195018 86.31012108654704 l -6.690699961844462 -5.7518491063693995 a29.823221300742034,29.823221300742034 0 0,0 0.33800806304262726,-0.38640164665947313 l 6.590700035223992 5.866166309231816" fill="#ff6609" stroke="none" /><path d="M 85.83668400450813 84.49514656593479 l -5.898284926216767 -6.456965538469662 a29.74540845448746,29.74540845448746 0 0,0 0.38100895446319166,-0.34207360125339986 l 5.786264984157604 6.55753814849234" fill="#ff6509" stroke="none" /><line stroke="#e1ed5e" stroke-width="0.3" x1="56.762969772571076" x2="54.21961505331055" y1="26.818313649435495" y2="22.513508569990535" /><path d="M 56.25429882871897 25.957352633546506 a86.0,86.0 0 0,1 42.265352541879196,-11.944610805530505" fill="none" id="id24" stroke="none" /><text fill="#e1ed5e" style="font-size:6.75px; font-family:Arial;" text-anchor="middle"><textPath startOffset="22.20632615414155" xlink:href="#id24">December</textPath></text><path d="M 89.63071344664047 81.73862282372117 l -2.478112313518186 -4.364209958849566 a26.018701944062048,26.018701944062048 0 0,0 0.39136577036873993,-0.2177946274874762 l 2.4026224540774 4.406219983897226" fill="#ff3004" stroke="none" /><path d="M 90.26544431104013 81.39251694778311 l -3.399770729930795 -6.498619789124623 a28.334200718530706,28.334200718530706 0 0,0 0.4341062820829605,-0.2223660984623641 l 3.287403960259071 6.556178412899492" fill="#ff5107" stroke="none" /><path d="M 91.56875222667455 80.76684994638697 l -1.8787623916879412 -4.285785445511454 a25.679498371554242,25.679498371554242 0 0,0 0.40636735241260974,-0.17398529285636197 l 1.8047112814850232 4.317490266330602" fill="#ff2b04" stroke="none" /><path d="M 92.23578459929587 80.48803036053334 l -2.507902539314457 -6.302519402206074 a27.783164892724038,27.783164892724038 0 0,0 0.44587591897323625,-0.1729929294635977 l 2.3990434553415447 6.344755035560223" fill="#ff4906" stroke="none" /><path d="M 92.91201910852362 80.23233633223022 l -2.6296765748603934 -7.333902684382864 a28.791105664305142,28.791105664305142 0 0,0 0.46794868981632504,-0.163258109463534 l 2.5030458809807827 7.378081647018608" fill="#ff5708" stroke="none" /></svg>