<?xml version="1.0" encoding="utf-8" ?>
<svg baseProfile="full" height="200mm" version="1.1" viewBox="0,0,200,200" width="200mm" xmlns="http://www.w3.org/2000/svg" xmlns:ev="http://www.w3.org/2001/xml-events" xmlns:xlink="http://www.w3.org/1999/xlink"><defs /><rect fill="#1a1a1a" height="200" width="200" x="0" y="0" /><text alignment-baseline="middle" fill="#e1ed5e" style="dominant-baseline: central; font-size:9.0px; font-family:Arial;" text-anchor="middle" x="100.0" y="100.0">2018</text><line stroke="#e1ed5e" stroke-width="0.3" x1="100.0" x2="100.0" y1="15.0" y2="10.0" /><path d="M 100.0 14.0 a86.0,86.0 0 0,1 42.46469731375804,11.215312516191453" fill="none" id="id1" stroke="none" /><text fill="#e1ed5e" style="font-size:6.75px; font-family:Arial;" text-anchor="middle"><textPath startOffset="22.20632615414155" xlink:href="#id1">January</textPath></text><line stroke="#e1ed5e" stroke-width="0.3" x1="143.23703022742887" x2="145.7803849466894" y1="26.81831364943548" y2="22.513508569990506" /><path d="M 143.74570117128098 25.957352633546492 a86.0,86.0 0 0,1 28.547481713284135,27.462654790039103" fill="none" id="id2" stroke="none" /><text fill="#e1ed5e" style="font-size:6.75px; font-family:Arial;" text-anchor="middle"><textPath startOffset="19.985693538727396" xlink:href="#id2">February</textPath></text><line stroke="#e1ed5e" stroke-width="0.3" x1="172.23445277983987" x2="176.4835382374775" y1="55.19839476539836" y2="52.563006222186495" /><path d="M 173.08426987136738 54.67131705675599 a86.0,86.0 0 0,1 12.851231095245387,41.99856678651699" fill="none" id="id3" stroke="none" /><text fill="#e1ed5e" style="font-size:6.75px; font-family:Arial;" text-anchor="middle"><textPath startOffset="22.20632615414155" xlink:href="#id3">March</textPath></text><path d="M 120.91429891909075 98.10471618934814 l 8.96137958086263 -0.8120930903025232 a29.998100865161426,29.998100865161426 0 0,0 0.04217663868946439,0.5146618215197739 l -8.97403070337159 0.6577173515749805" fill="#ff5f08" stroke="none" /><line stroke="#e1ed5e" stroke-width="0.3" x1="184.98032266829074" x2="189.97916517819016" y1="98.17113171792111" y2="98.06355123074" /><path d="M 185.9800911702706 98.14961562048488 a86.0,86.0 0 0,1 -9.607161424134198,41.387399972396054" fill="none" id="id4" stroke="none" /><text fill="#e1ed5e" style="font-size:6.75px; font-family:Arial;" text-anchor="middle"><textPath startOffset="21.466115282336823" xlink:href="#id4">April</textPath></text><path d="M 120.99513854157772 99.54816195383933 l 7.580646039595573 -0.16314368625781267 a28.582401350495886,28.582401350495886 0 0,0 0.006352088745779129,0.4919762736079965 l -7.582331135459068 0.03263115458935346" fill="#ff4b07" stroke="none" /><path d="M 120.99980553446 99.90962569577887 l 4.205489648225842 -0.018098653353903493 a25.20552859253007,25.20552859253007 0 0,0 -0.0018672528167099204,0.4338837944316971 l -4.205178098119629 -0.054294619281478315" fill="#ff1a02" stroke="none" /><path d="M 120.92983693683757 101.71520430193887 l 31.502959879819027 2.581673831131032 a52.60856720827178,52.60856720827178 0 0,0 -0.08173217830735631,0.9019077769891053 l -31.453853105234597 -3.1235629966687077" fill="#84ff25" stroke="none" /><path d="M 120.89721153311464 102.0752229133903 l 16.553311222766443 1.6438466293711163 a37.63473306604769,37.63473306604769 0 0,0 -0.06956636767839201,0.6440981661343619 l -16.522562553587 -1.9285411173902696" fill="#ffc712" stroke="none" /><path d="M 120.8583938346157 102.4346265915055 l 19.493530234187467 2.2753174308036948 a40.625870436801016,40.625870436801016 0 0,0 -0.08705251691376842,0.6938942115381486 l -19.451476208026854 -2.610529396629238" fill="#ffed16" stroke="none" /><path d="M 120.81339534386255 102.79330883721812 l 11.491401848530149 1.5422295980645557 a32.59442920447352,32.59442920447352 0 0,0 -0.07941547151519483,0.5554316228111825 l -11.463152325998353 -1.7398066928561475" fill="#ff830c" stroke="none" /><path d="M 120.49622156327973 104.57218783832717 l 61.488664689839204 13.716563514981502 a84.0,84.0 0 0,0 -0.3269577362777887,1.4085253706057403 l -61.24344638763086 -14.772957542935806" fill="#4dd2ff" stroke="none" /><path d="M 119.54520255179757 107.68017299344265 l 18.57559207542397 7.299170229461638 a40.95821903355139,40.95821903355139 0 0,0 -0.2634927769574239,0.6539674635229661 l -18.447196684209153 -7.6178370608274175" fill="#fff116" stroke="none" /><path d="M 119.41010516605496 108.01547362559984 l 9.684670987655212 3.99932015875521 a31.47794893437434,31.47794893437434 0 0,0 -0.2111256295945348,0.49903862285870765 l -9.614394376868368 -4.1654333072800815" fill="#ff740a" stroke="none" /><path d="M 119.12269723197855 108.67885076344098 l 7.6374345288784165 3.4662555019090706 a29.387212492086938,29.387212492086938 0 0,0 -0.2130228419817728,0.45883225022705587 l -7.576637070056813 -3.597207819414957" fill="#ff5608" stroke="none" /><path d="M 118.81262510543309 109.33194174019688 l 26.305803760305643 13.048908737852239 a50.36442287402405,50.36442287402405 0 0,0 -0.3919343324533271,0.7733236207501686 l -26.077290758066045 -13.499786570305101" fill="#9dff22" stroke="none" /><line stroke="#e1ed5e" stroke-width="0.3" x1="174.80103733775053" x2="179.2010983576182" y1="140.37084112569926" y2="142.7455964860345" /><path d="M 175.68104954172406 140.8457921977663 a86.0,86.0 0 0,1 -30.038265399797805,32.042727171017184" fill="none" id="id5" stroke="none" /><text fill="#e1ed5e" style="font-size:6.75px; font-family:Arial;" text-anchor="middle"><textPath startOffset="22.206326154141568" xlink:href="#id5">May</textPath></text><path d="M 118.48025628344425 109.97397251340804 l 10.38150712710371 5.60299950094545 a32.79700358725469,32.79700358725469 0 0,0 -0.2724081488057469,0.4944999163779896 l -10.283522568846454 -5.780869935721245" fill="#ff860c" stroke="none" /><path d="M 118.30583269289576 110.29060199501025 l 22.82329111897346 12.830085856337794 a47.18231694450306,47.18231694450306 0 0,0 -0.4040783580654587,0.7045446771532905 l -22.599060764755624 -13.2210503793494" fill="#c1ff1e" stroke="none" /><path d="M 118.12598468904814 110.60418214915192 l 26.73318189209829 15.639620968095777 a51.971935007385525,51.971935007385525 0 0,0 -0.4583902995398379,0.7682885085895356 l -26.460010716860225 -16.097471570571415" fill="#8bff24" stroke="none" /><path d="M 117.75023020441432 111.22182372390056 l 22.81958422595659 14.42670594619681 a47.997467820215235,47.997467820215235 0 0,0 -0.44750813187688915,0.6945425585251692 l -22.56787123070265 -14.817370104643432" fill="#b8ff1f" stroke="none" /><path d="M 117.55443506779139 111.5257021239791 l 10.3299151563018 6.782304562791667 a33.35745937961595,33.35745937961595 0 0,0 -0.31927360698527724,0.4772707228311362 l -10.211638443905802 -6.959112199828611" fill="#ff8e0d" stroke="none" /><path d="M 117.14729908036423 112.12312394758627 l 14.42527583986148 10.198656136173701 a38.66638531335725,38.66638531335725 0 0,0 -0.3889105682843934,0.5401627642674738 l -14.247585479201485 -10.445452505892305" fill="#ffd413" stroke="none" /><path d="M 116.93607887273984 112.41649034213515 l 16.38673992639589 12.01374884730087 a41.3188436378983,41.3188436378983 0 0,0 -0.4254635433277468,0.5699779445460771 l -16.17751511637305 -12.294039671356261" fill="#fff617" stroke="none" /><path d="M 116.71984013943494 112.70617746262583 l 12.977495068585009 9.86219688625357 a37.29964127453049,37.29964127453049 0 0,0 -0.39287744619703335,0.5078470596223748 l -12.805810805169907 -10.084121939989197" fill="#ffc212" stroke="none" /><path d="M 116.27256486870786 113.27417163493432 l 14.821231095512275 12.090261553124044 a40.12703101920236,40.12703101920236 0 0,0 -0.44121390355855666,0.5314705696875087 l -14.610921192060175 -12.343593379925323" fill="#ffe715" stroke="none" /><path d="M 115.80600337817218 113.82643327865902 l 13.161901807217783 11.513483377402828 a38.48702257860308,38.48702257860308 0 0,0 -0.44047691810246864,0.49488048695187214 l -12.961766039466976 -11.738338034095566" fill="#ffd213" stroke="none" /><path d="M 115.56566222782051 114.09645910891815 l 3.3792153501548663 3.060259840313676 a25.55897868748681,25.55897868748681 0 0,0 -0.29813160178384196,0.32356297202989504 l -3.3260373403753025 -3.117974067144906" fill="#ff1f03" stroke="none" /><path d="M 113.48314897796784 116.09983520530334 l 6.061787714629737 7.238204028936001 a30.44123232749525,30.44123232749525 0 0,0 -0.4046217745959496,0.3329761739823007 l -5.936295811489097 -7.341475321775479" fill="#ff6509" stroke="none" /><path d="M 113.20401910651253 116.32954008644616 l 20.435653883795915 25.272973826855004 a53.50137159738341,53.50137159738341 0 0,0 -0.7211029695230523,0.5728878107838538 l -19.99759342155551 -25.620995551643983" fill="#7aff26" stroke="none" /><path d="M 112.04921762599082 117.19931262002967 l 6.516716300418313 9.3021011310451 a32.35767039459802,32.35767039459802 0 0,0 -0.4589290169844272,0.3156555626200863 l -6.355630398811003 -9.41289748303028" fill="#ff800b" stroke="none" /><path d="M 111.45004920935366 117.60387380957326 l 6.130992295622329 9.426091777093221 a32.24456636421186,32.24456636421186 0 0,0 -0.46788124553718086,0.2986239479367783 l -5.9678292480382185 -9.53023015385381" fill="#ff7e0b" stroke="none" /><line stroke="#e1ed5e" stroke-width="0.3" x1="143.8653032363475" x2="146.44561519142675" y1="172.8068346515853" y2="177.08958963109032" /><path d="M 144.38136562736335 173.6633856474863 a86.0,86.0 0 0,1 -40.68145358897372,12.25698825130547" fill="none" id="id6" stroke="none" /><text fill="#e1ed5e" style="font-size:6.75px; font-family:Arial;" text-anchor="middle"><textPath startOffset="21.466115282336833" xlink:href="#id6">June</textPath></text><path d="M 108.92500713936063 119.00905698771935 l 4.369190032280372 9.305783291479 a31.28043891116269,31.28043891116269 0 0,0 -0.48936310898852753,0.22464260159183153 l -4.208358927524425 -9.379612963404908" fill="#ff710a" stroke="none" /><path d="M 105.88484417918355 120.15858648285463 l 7.132725153804586 24.433213946431255 a46.45304916649083,46.45304916649083 0 0,0 -0.7695032357869753,0.21746930079346743 l -6.711090749913004 -24.55237204056324" fill="#caff1d" stroke="none" /><path d="M 104.13013068566511 120.58985236759428 l 1.5848788749370946 7.901062832886761 a29.05845115003165,29.05845115003165 0 0,0 -0.49127101088796843,0.0941532584715396 l -1.4486402494774215 -7.927173289706769" fill="#ff5207" stroke="none" /><path d="M 103.06178313531738 120.77559828337769 l 3.167186817243415 21.490810451092926 a42.72293732855033,42.72293732855033 0 0,0 -0.7284696360890841,0.10095925373150567 l -2.796788589967501 -21.542144270317035" fill="#f7ff19" stroke="none" /><line stroke="#e1ed5e" stroke-width="0.3" x1="102.19456741930631" x2="102.32365962044197" y1="184.97166512339345" y2="189.96999836594603" /><path d="M 102.22038585953345 185.97133177190398 a86.0,86.0 0 0,1 -42.740103519485714,-10.115201625700543" fill="none" id="id7" stroke="none" /><text fill="#e1ed5e" style="font-size:6.75px; font-family:Arial;" text-anchor="middle"><textPath startOffset="22.20632615414155" xlink:href="#id7">July</textPath></text><path d="M 92.40401165467489 119.57807347666478 l -4.270343913667236 11.006481725825633 a32.80586621650137,32.80586621650137 0 0,0 -0.5247047163958686,-0.20879083532513437 l 4.459169706104962 -10.931344046094432" fill="#ff860c" stroke="none" /><path d="M 92.06813273071674 119.44442032107085 l -3.083990716522939 7.560188505747802 a29.165013715973835,29.165013715973835 0 0,0 -0.4632078313535832,-0.19362091107306592 l 3.213670007373985 -7.505982551654762" fill="#ff5307" stroke="none" /><path d="M 91.40352486487194 119.15986991738527 l -5.219353260079406 11.632922557684166 a33.75015826123655,33.75015826123655 0 0,0 -0.5280003398443253,-0.24237905924122508 l 5.41882159569115 -11.541356428108866" fill="#ff930d" stroke="none" /><path d="M 90.7491055286396 118.85261126421891 l -5.46581652665311 11.13891359776597 a33.40768094534712,33.40768094534712 0 0,0 -0.5140743595652392,-0.2577675558946553 l 5.65674479390111 -11.043178200962014" fill="#ff8e0d" stroke="none" /><line stroke="#e1ed5e" stroke-width="0.3" x1="58.666819895761336" x2="56.23545636021788" y1="174.27360380694188" y2="178.64263932499728" /><path d="M 58.180547188652646 175.14741091055294 a86.0,86.0 0 0,1 -31.652253787137756,-30.449443065178592" fill="none" id="id8" stroke="none" /><text fill="#e1ed5e" style="font-size:6.75px; font-family:Arial;" text-anchor="middle"><textPath startOffset="22.20632615414155" xlink:href="#id8">August</textPath></text><path d="M 89.7882731507175 118.34994917583269 l -4.273638315756453 7.6795087694234825 a29.788562987972142,29.788562987972142 0 0,0 -0.44590816699592045,-0.2531982947085806 l 4.4051952496735804 -7.604807308920269" fill="#ff5c08" stroke="none" /><path d="M 88.54995079064634 117.60387380957326 l -6.767930693546161 10.40535247514884 a33.41274530491665,33.41274530491665 0 0,0 -0.47943359737756835,-0.31774244562683873 l 6.946038989663691 -10.287312008430682" fill="#ff8e0d" stroke="none" /><path d="M 87.95078237400918 117.19931262002967 l -5.260931121540138 7.509566333720491 a30.169023000633043,30.169023000633043 0 0,0 -0.42275804831355607,-0.30162664254936367 l 5.389416497702581 -7.417895429326907" fill="#ff6209" stroke="none" /><path d="M 87.36589467227662 116.77436683061367 l -6.350250531034785 8.431260394840445 a31.555180417809666,31.555180417809666 0 0,0 -0.43106070138449937,-0.330518964450362 l 6.4944399609127705 -8.320702088562717" fill="#ff750a" stroke="none" /><path d="M 86.79598089348748 116.32954008644616 l -6.435299176269628 7.958597682984138 a31.23485967503693,31.23485967503693 0 0,0 -0.4151705888579877,-0.3416571299603332 l 6.571339893672304 -7.846645434166624" fill="#ff700a" stroke="none" /><path d="M 86.24171649860922 115.8653595955263 l -6.984140960085617 8.053759597729004 a31.660265878877397,31.660265878877397 0 0,0 -0.40865510359430246,-0.3605906154078048 l 7.121738416586507 -7.932345840548909" fill="#ff760a" stroke="none" /><path d="M 85.97065885151581 115.62618273729859 l -14.024125203564191 15.620373105356144 a41.99219244566365,41.99219244566365 0 0,0 -0.5337016706010558,-0.4875238221495875 l 14.2909264236321 -15.376656516619981" fill="#fffe18" stroke="none" /><path d="M 85.70375840098266 115.38237550388516 l -13.360627077826406 14.375679177989559 a40.625659421818945,40.625659421818945 0 0,0 -0.5081383302073771,-0.4804765076064839 l 13.6061012424246 -14.143568033637143" fill="#ffed16" stroke="none" /><path d="M 85.44109423537348 115.13401014063109 l -5.9024726020698175 6.1356314587570475 a29.513821481325174,29.513821481325174 0 0,0 -0.36309034215584124,-0.35536032018641533 l 6.007212896601453 -6.033121035648062" fill="#ff5808" stroke="none" /><path d="M 84.9287848128048 114.62390073753433 l -7.694695924008356 7.466316949267165 a31.721671238657944,31.721671238657944 0 0,0 -0.3768737692074146,-0.3951506402925003 l 7.8220762445947285 -7.332759192392165" fill="#ff770b" stroke="none" /><path d="M 84.67929136418377 114.36230785411682 l -22.327170632352257 20.93047428521606 a51.60371386368432,51.60371386368432 0 0,0 -0.6019292891271464,-0.6532753608690932 l 22.68414632947513 -20.543047669545622" fill="#8fff24" stroke="none" /><path d="M 84.43433777217949 114.09645910891817 l -6.702905523299551 6.0702353833206555 a30.043047056341003,30.043047056341003 0 0,0 -0.34383716617095716,-0.38630470118584603 l 6.806401539118846 -5.953956512393945" fill="#ff6008" stroke="none" /><path d="M 84.19399662182784 113.82643327865904 l -10.777000966909558 9.427271477038643 a35.31842160793416,35.31842160793416 0 0,0 -0.39633574295461643,-0.4610280087715715 l 10.937679219434953 -9.24036636910554" fill="#ffa80f" stroke="none" /><path d="M 83.95833913139862 113.55231037782056 l -9.807401322645065 8.285485387893132 a33.83878455370331,33.83878455370331 0 0,0 -0.37207193867575755,-0.4481846188840627 l 9.94856926121436 -8.115439511895309" fill="#ff940d" stroke="none" /><path d="M 83.72743513129214 113.27417163493432 l -13.117598087070999 10.700541054883702 a37.928465921080395,37.928465921080395 0 0,0 -0.40833079847590037,-0.509455454829157 l 13.29984679760176 -10.473157766476286" fill="#ffca12" stroke="none" /><path d="M 83.50135304334701 112.99209946851258 l -6.703140027515855 5.2784850913932955 a29.531968769782655,29.531968769782655 0 0,0 -0.31106048409546805,-0.4020876070686207 l 6.7930073288293915 -5.162319490211422" fill="#ff5908" stroke="none" /><path d="M 83.28015986056508 112.70617746262583 l -14.447552054889684 10.979360973492962 a39.146022367588095,39.146022367588095 0 0,0 -0.4030898233663389,-0.5400046903967056 l 14.634403144951108 -10.729043403586948" fill="#ffda14" stroke="none" /><path d="M 83.06392112726016 112.41649034213515 l -15.436968966189676 11.31743525291732 a40.14116902300063,40.14116902300063 0 0,0 -0.4037440978725727,-0.5607652394882929 l 15.629492856437857 -11.050036407977888" fill="#ffe715" stroke="none" /><path d="M 82.85270091963577 112.12312394758628 l -15.774054034990955 11.152241022092028 a40.3182105929521,40.3182105929521 0 0,0 -0.3957694931655805,-0.5701354727886321 l 15.963684435318669 -10.879064287116384" fill="#ffe915" stroke="none" /><path d="M 82.6465618267979 111.8261652097733 l -21.094962132269185 14.375970040068072 a46.52774847014138,46.52774847014138 0 0,0 -0.4453301407013837,-0.6657081371616227 l 21.339295378381298 -14.010724988700629" fill="#c9ff1d" stroke="none" /><path d="M 82.44556493220864 111.52570212397912 l -8.935353679137046 5.866678390983494 a31.689174931420133,31.689174931420133 0 0,0 -0.29545649215076686,-0.4585550370461571 l 9.035015034664859 -5.712001754015888" fill="#ff770a" stroke="none" /><path d="M 82.05923443525364 110.91462005526583 l -16.677039375688278 10.14580719955573 a40.52078497573328,40.52078497573328 0 0,0 -0.3573916337726457,-0.5990089353313223 l 16.849211885159153 -9.857236170338297" fill="#ffec16" stroke="none" /><line stroke="#e1ed5e" stroke-width="0.3" x1="26.63291911575756" x2="22.317208475507996" y1="142.92168965132927" y2="145.44649492493687" /><path d="M 25.769776987707644 143.4266507060508 a86.0,86.0 0 0,1 -11.730757126820373,-40.83630448921669" fill="none" id="id9" stroke="none" /><text fill="#e1ed5e" style="font-size:6.75px; font-family:Arial;" text-anchor="middle"><textPath startOffset="21.46611528233685" xlink:href="#id9">September</textPath></text><path d="M 81.87401531095188 110.60418214915194 l -3.0535087100140883 1.7863836426263562 a24.537666174298376,24.537666174298376 0 0,0 -0.2101452514536618,-0.36640595910542345 l 3.083805957620127 -1.7335578376626257" fill="#ff1001" stroke="none" /><path d="M 81.18737489456691 109.33194174019688 l -9.565385935952126 4.744878706535459 a31.677569107406626,31.677569107406626 0 0,0 -0.23810481533172953,-0.49056644390007387 l 9.645644007898575 -4.579523306670101" fill="#ff770a" stroke="none" /><path d="M 80.73074385275274 108.34839909993369 l -17.59111787186073 7.621346225616973 a40.171133150453684,40.171133150453684 0 0,0 -0.2694316518397432,-0.6368568361258421 l 17.719700504892785 -7.317414863824973" fill="#ffe715" stroke="none" /><path d="M 79.97269907076064 106.31721596034903 l -10.107126899085774 3.188093272566741 a31.598016459168598,31.598016459168598 0 0,0 -0.1591535325376513,-0.520122952894811 l 10.160507204129555 -3.0136433471198822" fill="#ff750a" stroke="none" /><path d="M 79.86692584326677 105.97154293290107 l -10.408329387250348 3.0871483069044845 a31.856509812196663,31.856509812196663 0 0,0 -0.1514054401127286,-0.5270621995601056 l 10.45992746424918 -2.907528631839783" fill="#ff790b" stroke="none" /><path d="M 79.58551787078972 104.9243191809786 l -10.340679107843632 2.494347108724277 a31.637265245832452,31.637265245832452 0 0,0 -0.12314343603329811,-0.5304986994682986 l 10.382083109807485 -2.3159797519074043" fill="#ff760a" stroke="none" /><path d="M 79.23777060512086 103.15116336523772 l -19.104697541239986 2.8995933842610873 a40.323485967503686,40.323485967503686 0 0,0 -0.09824711551648473,-0.6871400970955225 l 19.15177870777307 -2.5703078151851644" fill="#ffe915" stroke="none" /><path d="M 79.04373962182676 101.35467743843564 l -2.4430966238363108 0.15792931641927976 a23.448195821903354,23.448195821903354 0 0,0 -0.022570171555447677,-0.40300557490619715 l 2.44545314627929 -0.115852025177645" fill="#ff0000" stroke="none" /><line stroke="#e1ed5e" stroke-width="0.3" x1="15.007084014347285" x2="10.007500721073583" y1="101.09737516637583" y2="101.16192664675087" /><path d="M 14.007167355692545 101.11028546245083 a86.0,86.0 0 0,1 10.666146001902534,-42.60595125391555" fill="none" id="id10" stroke="none" /><text fill="#e1ed5e" style="font-size:6.75px; font-family:Arial;" text-anchor="middle"><textPath startOffset="22.20632615414155" xlink:href="#id10">October</textPath></text><path d="M 79.08570108090925 98.10471618934814 l -17.713866255590993 -1.6052560053843465 a38.786452838151504,38.786452838151504 0 0,0 0.06597921809378339,-0.6644017220505568 l 17.68360991181498 1.9099332581393336" fill="#ffd614" stroke="none" /><path d="M 79.32604984820605 96.31383870115002 l -10.296362155201667 -1.8358393735487748 a31.45874657100654,31.45874657100654 0 0,0 0.09964075023207729,-0.5322848720108448 l 10.263235681059728 2.0128023230221923" fill="#ff740a" stroke="none" /><path d="M 80.2630227832202 92.82701384747504 l -10.024668529392063 -3.6432533591744187 a31.666174298375182,31.666174298375182 0 0,0 0.1905932919534436,-0.510695265412181 l 9.960470648936992 3.8152717616159415" fill="#ff760a" stroke="none" /><path d="M 80.52162464483688 92.15188598940014 l -9.953017449539837 -4.010212056662785 a31.73053386790462,31.73053386790462 0 0,0 0.2084821684425613,-0.5048561075409231 l 9.882513594211076 4.180942734657019" fill="#ff770b" stroke="none" /><path d="M 80.803312248108 91.48605970444005 l -9.835893700265535 -4.362326084575781 a31.759864950411483,31.759864950411483 0 0,0 0.22594524938801583,-0.49784040684874153 l 9.759346133914168 4.530988500266594" fill="#ff780b" stroke="none" /><path d="M 81.10775173730289 90.83032412892265 l -9.785075580549671 -4.749353819619183 a31.876767250474785,31.876767250474785 0 0,0 0.2438420703906355,-0.49157073446269434 l 9.701873497205623 4.91708414258084" fill="#ff790b" stroke="none" /><path d="M 81.43458229118936 90.18545643968196 l -9.495470828469553 -5.019747658438975 a31.74066258704368,31.74066258704368 0 0,0 0.25950546150641274,-0.4808242081221956 l 9.407657267744668 5.182452849893644" fill="#ff770b" stroke="none" /><line stroke="#e1ed5e" stroke-width="0.3" x1="26.266209847984243" x2="21.928928074336255" y1="57.711370442889674" y2="55.22380399835377" /><path d="M 25.398753493254645 57.213857153982495 a86.0,86.0 0 0,1 29.58750427330803,-30.492523968695096" fill="none" id="id11" stroke="none" /><text fill="#e1ed5e" style="font-size:6.75px; font-family:Arial;" text-anchor="middle"><textPath startOffset="21.46611528233685" xlink:href="#id11">November</textPath></text><path d="M 82.34701348167596 88.62581576622439 l -9.085738627348304 -5.854129268162062 a31.808398396286137,31.808398396286137 0 0,0 0.300518726938043,-0.4577106385314008 l 8.98362326505234 6.00965797067113" fill="#ff780b" stroke="none" /><path d="M 82.95767976084542 87.72973835380427 l -8.832572607191747 -6.359343996497993 a31.88373074488289,31.88373074488289 0 0,0 0.32451168155857213,-0.44263356895233336 l 8.72179831311954 6.510440009121827" fill="#ff790b" stroke="none" /><path d="M 83.39014120810768 87.1503855733568 l -7.724362933184305 -5.9756730401177105 a30.76598438489133,30.76598438489133 0 0,0 0.3276517554376453,-0.4160844558490906 l 7.620357097152689 6.107749889919848" fill="#ff6a09" stroke="none" /><path d="M 83.84228863543731 86.58626213691792 l -24.448525488814273 -20.296569523149863 a52.77548005908419,52.77548005908419 0 0,0 0.5862837793288695,-0.693975071302055 l 24.09553109599828 20.714403544081033" fill="#82ff25" stroke="none" /><path d="M 85.83668400450813 84.49514656593479 l -7.267026812586602 -7.955353510889762 a31.774847014138004,31.774847014138004 0 0,0 0.40700403417247993,-0.36541224048185 l 7.129011790818151 8.079264760140891" fill="#ff780b" stroke="none" /><path d="M 86.37877921826538 84.01681056812374 l -6.861184061009201 -8.050938042288658 a31.577970035872546,31.577970035872546 0 0,0 0.41674268540824416,-0.3490100141513758 l 6.7215838386418465 8.167849213833847" fill="#ff750a" stroke="none" /><path d="M 87.22198572758235 83.33499621200491 l -7.072275687446989 -9.223616331017773 a32.62291622705212,32.62291622705212 0 0,0 0.44857107315138733,-0.33785443244400487 l 6.912458460537213 9.343987352967632" fill="#ff840c" stroke="none" /><path d="M 88.70189139769569 82.29822771554957 l -5.770585116963879 -9.041299502794594 a31.72589153829922,31.72589153829922 0 0,0 0.46286693053573436,-0.28984722943798436 l 5.6140990340559025 9.139291073555508" fill="#ff770b" stroke="none" /><line stroke="#e1ed5e" stroke-width="0.3" x1="56.762969772571076" x2="54.21961505331055" y1="26.818313649435495" y2="22.513508569990535" /><path d="M 56.25429882871897 25.957352633546506 a86.0,86.0 0 0,1 42.265352541879196,-11.944610805530505" fill="none" id="id12" stroke="none" /><text fill="#e1ed5e" style="font-size:6.75px; font-family:Arial;" text-anchor="middle"><textPath startOffset="22.20632615414155" xlink:href="#id12">December</textPath></text></svg>